<svg width="847" height="410" viewBox="0 0 847 410" fill="none" xmlns="http://www.w3.org/2000/svg">
<path d="M688.644 52.2094L684.26 48L678.873 74.2778L645.07 143.554L648.829 147.763L672.186 147.753V244.541C672.186 307.918 621.087 360.624 554.883 365.532L375 375.04L375.339 378.137L449.857 398.489L581.853 387.497C657.141 381.282 714.941 321.138 714.941 249.012V147.078L736.001 145.918L688.644 52.2094Z" fill="#006CEB"/>
<path d="M684.26 48L645.069 143.554L668.058 143.544V240.331C668.058 303.709 617.761 356.414 552.595 361.323L375 375.04L450.291 394.071L579.144 383.285C653.251 377.07 710.144 316.927 710.144 244.8V142.869L730.874 141.709L684.26 48Z" fill="#2D8DFF"/>
<g opacity="0.3">
<path d="M698.508 250.112C692.419 224.141 678.037 211.995 678.645 180.51C679.121 155.824 688.325 144.515 693.893 124.72C697.663 111.321 699.785 93.9606 696.198 71.9971L684.26 48L645.069 143.554L668.058 143.544V240.331C668.058 303.709 617.761 356.414 552.595 361.323L375 375.04L450.291 394.071L579.144 383.285C632.466 378.814 676.874 346.42 697.592 301.734C701.605 285.077 702.556 267.379 698.508 250.112Z" fill="#F4F7FA"/>
</g>
<path d="M632.553 111.487C632.553 132.271 616.781 148.62 596.622 147.982C575.644 147.319 558 128.649 558 106.308C558 83.9674 575.644 67.7498 596.622 70.0007C616.781 72.1639 632.553 90.7042 632.553 111.487Z" fill="#006CEB"/>
<path d="M638 109.695C638 130.479 622.228 146.828 602.07 146.191C581.091 145.526 563.447 126.857 563.447 104.517C563.447 82.1756 581.091 65.9581 602.07 68.209C622.228 70.3712 638 88.9115 638 109.695Z" fill="#69ADFE"/>
<path d="M636.418 109.585C636.418 129.453 621.327 145.056 602.071 144.414C582.066 143.747 565.27 125.93 565.27 104.643C565.27 83.3558 582.066 67.873 602.07 69.9848C621.327 72.0173 636.418 89.7174 636.418 109.585Z" fill="#2D8DFF"/>
<path opacity="0.53" d="M634.749 109.469C634.749 128.383 620.375 143.218 602.051 142.584C583.042 141.927 567.101 124.987 567.101 104.771C567.101 84.5545 583.043 69.8289 602.052 71.8119C620.375 73.7239 634.749 90.5557 634.749 109.469Z" fill="white"/>
<path opacity="0.3" d="M596.059 114.211C597.181 102.791 607.367 97.9564 606.038 87.4506C605.219 80.9761 600.456 75.5192 595.143 71.2583C579.029 73.0004 566.567 86.7504 566.567 104.733C566.567 125.27 582.76 142.478 602.069 143.145C603.944 143.21 605.775 143.11 607.556 142.869C599.888 135.006 595.095 124.023 596.059 114.211Z" fill="#F2F8FF"/>
<mask id="mask0_304_2441" style="mask-type:luminance" maskUnits="userSpaceOnUse" x="570" y="75" width="62" height="65">
<path d="M631.419 109.238C631.419 126.289 618.46 139.664 601.941 139.093C584.803 138.5 570.432 123.227 570.432 105.001C570.432 86.7756 584.804 73.4998 601.941 75.2877C618.46 77.0111 631.419 92.1867 631.419 109.238Z" fill="white"/>
</mask>
<g mask="url(#mask0_304_2441)">
<path d="M601.875 111.835C607.549 111.044 611.095 102.371 610.031 94.2743C608.967 86.1772 603.698 81.7202 598.024 82.5119C592.35 83.3036 588.42 89.0433 589.483 97.1404C590.547 105.238 596.202 112.627 601.875 111.835Z" fill="white"/>
<path d="M602.246 114.652C588.133 116.62 578.242 130.004 580.152 144.546L580.314 145.781L631.419 138.653L631.257 137.418C629.347 122.876 616.358 112.684 602.246 114.652Z" fill="white"/>
</g>
<path d="M573.915 33.6153C573.915 49.2031 562.086 61.4649 546.967 60.9867C531.233 60.4889 518 46.487 518 29.7313C518 12.9755 531.233 0.812353 546.967 2.50053C562.086 4.12289 573.915 18.0281 573.915 33.6153Z" fill="#006CEB"/>
<path d="M578 32.2716C578 47.8594 566.171 60.1213 551.052 59.643C535.318 59.1445 522.085 45.1426 522.085 28.3876C522.085 11.6318 535.318 -0.531336 551.052 1.15684C566.171 2.7785 578 16.6837 578 32.2716Z" fill="#69ADFE"/>
<path d="M576.814 32.189C576.814 47.0899 565.495 58.7923 551.053 58.3106C536.049 57.8099 523.453 44.4474 523.453 28.4821C523.453 12.5169 536.049 0.904815 551.052 2.48866C565.495 4.013 576.814 17.2881 576.814 32.189Z" fill="#2D8DFF"/>
<path opacity="0.53" d="M575.562 32.1021C575.562 46.2874 564.781 57.4136 551.039 56.9382C536.782 56.4452 524.826 43.7401 524.826 28.578C524.826 13.4159 536.782 2.3717 551.039 3.85892C564.781 5.29293 575.562 17.9168 575.562 32.1021Z" fill="white"/>
<path opacity="0.3" d="M546.544 35.6585C547.386 27.0929 555.025 23.4673 554.029 15.588C553.414 10.7321 549.842 6.63943 545.857 3.44373C533.771 4.7503 524.425 15.0628 524.425 28.55C524.425 43.9523 536.57 56.8584 551.052 57.359C552.458 57.4073 553.831 57.3324 555.167 57.1517C549.416 51.2547 545.821 43.0175 546.544 35.6585Z" fill="#F2F8FF"/>
<mask id="mask1_304_2441" style="mask-type:luminance" maskUnits="userSpaceOnUse" x="527" y="6" width="47" height="49">
<path d="M573.065 31.9285C573.065 44.7169 563.345 54.748 550.956 54.3194C538.102 53.8748 527.324 42.4203 527.324 28.751C527.324 15.0817 538.103 5.1249 550.956 6.46578C563.345 7.75835 573.065 19.1401 573.065 31.9285Z" fill="white"/>
</mask>
<g mask="url(#mask1_304_2441)">
<path d="M550.907 33.8764C555.162 33.2826 557.821 26.7785 557.023 20.7057C556.226 14.6328 552.273 11.2901 548.018 11.8839C543.763 12.4776 540.815 16.7824 541.613 22.8553C542.411 28.9288 546.652 34.4702 550.907 33.8764Z" fill="white"/>
<path d="M551.185 35.9889C540.6 37.4649 533.182 47.503 534.614 58.4093L534.736 59.3356L573.064 53.9896L572.943 53.0632C571.51 42.157 561.768 34.5129 551.185 35.9889Z" fill="white"/>
</g>
<path d="M491.915 58.6153C491.915 74.2031 480.086 86.465 464.967 85.9868C449.233 85.4889 436 71.4871 436 54.7313C436 37.9756 449.233 25.8124 464.967 27.5006C480.086 29.123 491.915 43.0282 491.915 58.6153Z" fill="#006CEB"/>
<path d="M496 57.2716C496 72.8594 484.171 85.1213 469.052 84.643C453.318 84.1445 440.085 70.1426 440.085 53.3876C440.085 36.6318 453.318 24.4687 469.052 26.1568C484.171 27.7785 496 41.6837 496 57.2716Z" fill="#69ADFE"/>
<path d="M494.814 57.189C494.814 72.0899 483.495 83.7923 469.053 83.3106C454.049 82.8099 441.453 69.4474 441.453 53.4821C441.453 37.5169 454.049 25.9048 469.052 27.4887C483.495 29.013 494.814 42.2881 494.814 57.189Z" fill="#2D8DFF"/>
<path opacity="0.53" d="M493.562 57.1021C493.562 71.2874 482.781 82.4136 469.039 81.9382C454.782 81.4452 442.826 68.7401 442.826 53.578C442.826 38.4159 454.782 27.3717 469.039 28.8589C482.781 30.2929 493.562 42.9168 493.562 57.1021Z" fill="white"/>
<path opacity="0.3" d="M464.544 60.6585C465.386 52.0929 473.025 48.4673 472.029 40.588C471.414 35.7321 467.842 31.6394 463.857 28.4437C451.771 29.7503 442.425 40.0628 442.425 53.55C442.425 68.9523 454.57 81.8584 469.052 82.359C470.458 82.4073 471.831 82.3324 473.167 82.1517C467.416 76.2547 463.821 68.0175 464.544 60.6585Z" fill="#F2F8FF"/>
<mask id="mask2_304_2441" style="mask-type:luminance" maskUnits="userSpaceOnUse" x="445" y="31" width="47" height="49">
<path d="M491.065 56.9284C491.065 69.7169 481.345 79.7479 468.956 79.3194C456.102 78.8747 445.324 67.4202 445.324 53.7509C445.324 40.0817 456.103 30.1248 468.956 31.4657C481.345 32.7583 491.065 44.14 491.065 56.9284Z" fill="white"/>
</mask>
<g mask="url(#mask2_304_2441)">
<path d="M468.907 58.8764C473.162 58.2826 475.821 51.7785 475.023 45.7057C474.226 39.6328 470.273 36.2901 466.018 36.8839C461.763 37.4776 458.815 41.7824 459.613 47.8553C460.411 53.9288 464.652 59.4702 468.907 58.8764Z" fill="white"/>
<path d="M469.185 60.9889C458.6 62.4649 451.182 72.503 452.614 83.4093L452.736 84.3356L491.064 78.9896L490.943 78.0632C489.51 67.157 479.768 59.5129 469.185 60.9889Z" fill="white"/>
</g>
<path d="M438.915 106.615C438.915 122.203 427.086 134.465 411.967 133.987C396.233 133.489 383 119.487 383 102.731C383 85.9756 396.233 73.8124 411.967 75.5006C427.086 77.123 438.915 91.0282 438.915 106.615Z" fill="#006CEB"/>
<path d="M443 105.272C443 120.859 431.171 133.121 416.052 132.643C400.318 132.144 387.085 118.143 387.085 101.388C387.085 84.6318 400.318 72.4687 416.052 74.1568C431.171 75.7785 443 89.6837 443 105.272Z" fill="#69ADFE"/>
<path d="M441.814 105.189C441.814 120.09 430.495 131.792 416.053 131.311C401.049 130.81 388.453 117.447 388.453 101.482C388.453 85.5169 401.049 73.9048 416.052 75.4887C430.495 77.013 441.814 90.2881 441.814 105.189Z" fill="#2D8DFF"/>
<path opacity="0.53" d="M440.562 105.102C440.562 119.287 429.781 130.414 416.039 129.938C401.782 129.445 389.826 116.74 389.826 101.578C389.826 86.4159 401.782 75.3717 416.039 76.8589C429.781 78.2929 440.562 90.9168 440.562 105.102Z" fill="white"/>
<path opacity="0.3" d="M411.544 108.658C412.386 100.093 420.025 96.4673 419.029 88.588C418.414 83.7321 414.842 79.6394 410.857 76.4437C398.771 77.7503 389.425 88.0628 389.425 101.55C389.425 116.952 401.57 129.858 416.052 130.359C417.458 130.407 418.831 130.332 420.167 130.152C414.416 124.255 410.821 116.018 411.544 108.658Z" fill="#F2F8FF"/>
<mask id="mask3_304_2441" style="mask-type:luminance" maskUnits="userSpaceOnUse" x="392" y="79" width="47" height="49">
<path d="M438.065 104.928C438.065 117.717 428.345 127.748 415.956 127.319C403.102 126.875 392.324 115.42 392.324 101.751C392.324 88.0817 403.103 78.1248 415.956 79.4657C428.345 80.7583 438.065 92.14 438.065 104.928Z" fill="white"/>
</mask>
<g mask="url(#mask3_304_2441)">
<path d="M415.907 106.876C420.162 106.283 422.821 99.7785 422.023 93.7057C421.226 87.6328 417.273 84.2901 413.018 84.8839C408.763 85.4776 405.815 89.7824 406.613 95.8553C407.411 101.929 411.652 107.47 415.907 106.876Z" fill="white"/>
<path d="M416.185 108.989C405.6 110.465 398.182 120.503 399.614 131.409L399.736 132.336L438.064 126.99L437.943 126.063C436.51 115.157 426.768 107.513 416.185 108.989Z" fill="white"/>
</g>
<path d="M541.915 120.615C541.915 136.203 530.086 148.465 514.967 147.987C499.233 147.489 486 133.487 486 116.731C486 99.9756 499.233 87.8124 514.967 89.5006C530.086 91.123 541.915 105.028 541.915 120.615Z" fill="#006CEB"/>
<path d="M546 119.272C546 134.859 534.171 147.121 519.052 146.643C503.318 146.144 490.085 132.143 490.085 115.388C490.085 98.6318 503.318 86.4687 519.052 88.1568C534.171 89.7785 546 103.684 546 119.272Z" fill="#69ADFE"/>
<path d="M544.814 119.189C544.814 134.09 533.495 145.792 519.053 145.311C504.049 144.81 491.453 131.447 491.453 115.482C491.453 99.5169 504.049 87.9048 519.052 89.4887C533.495 91.013 544.814 104.288 544.814 119.189Z" fill="#2D8DFF"/>
<path opacity="0.53" d="M543.562 119.102C543.562 133.287 532.781 144.414 519.039 143.938C504.782 143.445 492.826 130.74 492.826 115.578C492.826 100.416 504.782 89.3717 519.039 90.8589C532.781 92.2929 543.562 104.917 543.562 119.102Z" fill="white"/>
<path opacity="0.3" d="M514.544 122.658C515.386 114.093 523.025 110.467 522.029 102.588C521.414 97.7321 517.842 93.6394 513.857 90.4437C501.771 91.7503 492.425 102.063 492.425 115.55C492.425 130.952 504.57 143.858 519.052 144.359C520.458 144.407 521.831 144.332 523.167 144.152C517.416 138.255 513.821 130.018 514.544 122.658Z" fill="#F2F8FF"/>
<mask id="mask4_304_2441" style="mask-type:luminance" maskUnits="userSpaceOnUse" x="495" y="93" width="47" height="49">
<path d="M541.065 118.928C541.065 131.717 531.345 141.748 518.956 141.319C506.102 140.875 495.324 129.42 495.324 115.751C495.324 102.082 506.103 92.1248 518.956 93.4657C531.345 94.7583 541.065 106.14 541.065 118.928Z" fill="white"/>
</mask>
<g mask="url(#mask4_304_2441)">
<path d="M518.907 120.876C523.162 120.283 525.821 113.778 525.023 107.706C524.226 101.633 520.273 98.2901 516.018 98.8839C511.763 99.4776 508.815 103.782 509.613 109.855C510.411 115.929 514.652 121.47 518.907 120.876Z" fill="white"/>
<path d="M519.185 122.989C508.6 124.465 501.182 134.503 502.614 145.409L502.736 146.336L541.064 140.99L540.943 140.063C539.51 129.157 529.768 121.513 519.185 122.989Z" fill="white"/>
</g>
<path d="M540.222 334.715C552.232 334.715 561.969 332.694 561.969 330.201C561.969 327.708 552.232 325.687 540.222 325.687C528.211 325.687 518.474 327.708 518.474 330.201C518.474 332.694 528.211 334.715 540.222 334.715Z" fill="url(#paint0_linear_304_2441)"/>
<path d="M577.815 273.365L561.97 330.201H518.474L502.628 273.365H577.815Z" fill="url(#paint1_linear_304_2441)"/>
<path d="M540.222 155.575C607.476 155.575 661.997 149.231 661.997 141.405C661.997 133.579 607.476 127.235 540.222 127.235C472.967 127.235 418.446 133.579 418.446 141.405C418.446 149.231 472.967 155.575 540.222 155.575Z" fill="#FFB800"/>
<path d="M418.447 150.547H661.997V141.405H418.447V150.547Z" fill="#FFB800"/>
<path d="M540.222 163.989C607.476 163.989 661.997 157.645 661.997 149.819C661.997 141.993 607.476 135.649 540.222 135.649C472.967 135.649 418.446 141.993 418.446 149.819C418.446 157.645 472.967 163.989 540.222 163.989Z" fill="url(#paint2_linear_304_2441)"/>
<path d="M540.222 277.739C560.984 277.739 577.815 275.78 577.815 273.365C577.815 270.949 560.984 268.99 540.222 268.99C519.459 268.99 502.628 270.949 502.628 273.365C502.628 275.78 519.459 277.739 540.222 277.739Z" fill="url(#paint3_linear_304_2441)"/>
<path d="M661.997 149.819L577.815 273.365H502.628L418.447 149.819H661.997Z" fill="url(#paint4_linear_304_2441)"/>
<g opacity="0.5">
<path d="M542.348 241.601C553.95 225.056 542.148 214.581 554.346 196.27C574.79 165.582 624.878 169.581 631.075 147.977C631.674 145.888 631.912 143.385 631.306 140.412C650.401 142.914 661.999 146.209 661.999 149.819C661.999 150.587 661.471 151.341 660.462 152.075L577.817 273.365C577.817 275.78 560.987 277.739 540.224 277.739C519.462 277.739 502.631 275.78 502.631 273.365L497.883 266.398C516.799 261.906 533.431 254.32 542.348 241.601Z" fill="#FFEB33"/>
</g>
<g clip-path="url(#clip0_304_2441)">
<path d="M647.031 370.017C647.031 386.749 634.331 399.912 618.099 399.398C601.207 398.863 587 383.834 587 365.846C587 347.861 601.207 334.804 618.099 336.616C634.331 338.357 647.031 353.283 647.031 370.017Z" fill="url(#paint5_linear_304_2441)"/>
<path d="M651.417 368.573C651.417 385.305 638.717 398.469 622.486 397.954C605.593 397.421 591.386 382.39 591.386 364.403C591.386 346.417 605.593 333.361 622.486 335.172C638.717 336.915 651.417 351.841 651.417 368.573Z" fill="url(#paint6_linear_304_2441)"/>
<path d="M650.144 368.486C650.144 384.481 637.992 397.043 622.486 396.525C606.377 395.988 592.854 381.644 592.854 364.507C592.854 347.369 606.379 334.903 622.486 336.603C637.992 338.24 650.144 352.49 650.144 368.486Z" fill="url(#paint7_linear_304_2441)"/>
<path d="M649.23 368.422C649.23 383.891 637.472 396.022 622.486 395.505C606.938 394.966 593.899 381.114 593.899 364.58C593.899 348.045 606.938 336.003 622.486 337.625C637.472 339.189 649.23 352.954 649.23 368.422Z" fill="url(#paint8_linear_304_2441)"/>
<path d="M622.332 342.887C623.13 342.965 623.775 343.705 623.775 344.54V347.388C625.37 347.572 626.967 347.857 628.567 348.245C629.746 348.53 630.917 348.871 632.081 349.264C632.778 349.5 633.252 350.226 633.182 350.973L632.841 354.545C632.752 355.493 631.842 356.049 630.987 355.656C630.22 355.304 629.434 355.003 628.63 354.751C627.225 354.313 625.742 354.028 624.183 353.895L623.775 353.861V362.017C627.935 363.215 630.991 364.829 632.966 366.859C634.931 368.878 635.91 371.394 635.91 374.416C635.91 377.683 634.828 380.299 632.654 382.273C630.469 384.257 627.406 385.373 623.443 385.615V388.759C623.443 389.594 622.798 390.244 621.999 390.21L621.974 390.209C621.174 390.176 620.524 389.471 620.524 388.632V385.531L619.882 385.501C618.024 385.415 616.246 385.219 614.546 384.916C613.288 384.69 612.058 384.398 610.858 384.042C610.132 383.826 609.635 383.114 609.701 382.35L610.101 377.759C610.188 376.766 611.154 376.189 612.071 376.562C613.138 376.995 614.22 377.362 615.314 377.659C617.019 378.122 618.748 378.419 620.499 378.551L620.524 369.478C616.531 368.46 613.541 366.953 611.576 364.956C609.603 362.949 608.613 360.382 608.613 357.259C608.613 354.028 609.687 351.533 611.827 349.783C613.955 348.041 616.981 347.174 620.885 347.176V344.264C620.885 343.424 621.533 342.809 622.332 342.887ZM620.885 353.773C619.65 353.866 618.688 354.214 617.999 354.821C617.309 355.428 616.963 356.245 616.963 357.269C616.963 358.239 617.282 359.05 617.92 359.702C618.558 360.352 619.546 360.871 620.883 361.259V353.773H620.885ZM623.443 370.202V378.522C624.785 378.525 625.814 378.194 626.532 377.532C627.249 376.872 627.608 375.937 627.608 374.731C627.608 373.631 627.276 372.718 626.61 371.993C625.94 371.267 624.887 370.671 623.443 370.202Z" fill="#FFE70C"/>
<path opacity="0.3" d="M617.646 372.21C618.55 363.016 626.751 359.123 625.681 350.665C625.021 345.452 621.186 341.059 616.908 337.63C603.932 339.031 593.898 350.101 593.898 364.58C593.898 381.114 606.936 394.966 622.485 395.505C623.994 395.557 625.468 395.476 626.903 395.283C620.729 388.952 616.87 380.11 617.646 372.21Z" fill="url(#paint9_linear_304_2441)"/>
<path d="M761.015 357.57C761.015 386.994 738.683 410.141 710.14 409.238C680.436 408.299 655.451 381.868 655.451 350.239C655.451 318.609 680.434 295.65 710.14 298.836C738.683 301.898 761.015 328.147 761.015 357.57Z" fill="url(#paint10_linear_304_2441)"/>
<path d="M768.727 355.033C768.727 384.457 746.394 407.604 717.852 406.701C688.147 405.762 663.163 379.331 663.163 347.702C663.163 316.072 688.146 293.113 717.852 296.299C746.394 299.361 768.727 325.61 768.727 355.033Z" fill="url(#paint11_linear_304_2441)"/>
<path d="M766.487 354.878C766.487 383.007 745.119 405.095 717.85 404.186C689.525 403.241 665.742 378.017 665.742 347.882C665.742 317.746 689.525 295.825 717.85 298.815C745.119 301.692 766.487 326.751 766.487 354.878Z" fill="url(#paint12_linear_304_2441)"/>
<path d="M764.882 354.766C764.882 381.965 744.206 403.301 717.852 402.389C690.509 401.444 667.581 377.081 667.581 348.008C667.581 318.935 690.509 297.757 717.852 300.61C744.206 303.36 764.882 327.566 764.882 354.766Z" fill="url(#paint13_linear_304_2441)"/>
<path d="M717.581 309.863C718.984 310.001 720.119 311.302 720.119 312.768V317.775C722.923 318.098 725.732 318.599 728.544 319.281C730.618 319.784 732.677 320.381 734.723 321.073C735.949 321.488 736.784 322.763 736.659 324.079L736.062 330.358C735.903 332.024 734.305 333.002 732.8 332.311C731.452 331.691 730.071 331.161 728.654 330.72C726.184 329.949 723.578 329.448 720.835 329.214L720.119 329.154V343.497C727.436 345.606 732.808 348.443 736.28 352.012C739.736 355.562 741.457 359.989 741.457 365.301C741.457 371.047 739.553 375.647 735.732 379.117C731.89 382.604 726.502 384.567 719.537 384.992V390.52C719.537 391.988 718.401 393.132 716.997 393.073L716.951 393.072C715.545 393.013 714.402 391.773 714.402 390.3V384.848L713.272 384.796C710.006 384.643 706.878 384.301 703.889 383.766C701.675 383.368 699.514 382.857 697.405 382.23C696.13 381.85 695.255 380.598 695.371 379.253L696.073 371.18C696.225 369.435 697.927 368.419 699.537 369.074C701.414 369.837 703.316 370.481 705.24 371.003C708.238 371.817 711.278 372.34 714.356 372.572L714.402 356.618C707.38 354.827 702.123 352.177 698.668 348.663C695.198 345.135 693.457 340.619 693.457 335.129C693.457 329.446 695.344 325.06 699.107 321.982C702.85 318.919 708.172 317.396 715.035 317.399V312.28C715.035 310.808 716.177 309.727 717.581 309.863ZM715.035 329.008C712.865 329.171 711.173 329.785 709.96 330.851C708.746 331.919 708.14 333.354 708.14 335.156C708.14 336.863 708.702 338.29 709.825 339.435C710.946 340.579 712.684 341.492 715.035 342.173V329.008ZM719.537 357.897V372.526C721.895 372.531 723.706 371.95 724.969 370.787C726.23 369.626 726.86 367.984 726.86 365.863C726.86 363.927 726.274 362.323 725.102 361.048C723.928 359.77 722.075 358.721 719.537 357.897Z" fill="#FFE70C"/>
<path opacity="0.3" d="M709.34 361.428C710.929 345.259 725.353 338.415 723.47 323.542C722.309 314.375 715.566 306.651 708.043 300.618C685.225 303.084 667.581 322.549 667.581 348.008C667.581 377.083 690.509 401.443 717.852 402.389C720.506 402.482 723.1 402.339 725.62 401.998C714.761 390.867 707.975 375.318 709.34 361.428Z" fill="url(#paint14_linear_304_2441)"/>
<path d="M835.816 243.438C835.816 286.097 803.438 319.657 762.054 318.348C718.986 316.985 682.764 278.665 682.764 232.808C682.764 186.951 718.986 153.662 762.054 158.282C803.438 162.72 835.816 200.778 835.816 243.438Z" fill="url(#paint15_linear_304_2441)"/>
<path d="M847 239.759C847 282.419 814.62 315.978 773.238 314.668C730.169 313.305 693.948 274.985 693.948 229.128C693.948 183.271 730.169 149.982 773.238 154.602C814.62 159.043 847 197.099 847 239.759Z" fill="url(#paint16_linear_304_2441)"/>
<path d="M843.752 239.533C843.752 280.315 812.772 312.341 773.238 311.023C732.169 309.654 697.689 273.082 697.689 229.389C697.689 185.696 732.169 153.914 773.238 158.25C812.77 162.422 843.752 198.752 843.752 239.533Z" fill="url(#paint17_linear_304_2441)"/>
<path d="M841.425 239.373C841.425 278.809 811.448 309.741 773.236 308.419C733.595 307.049 700.351 271.727 700.351 229.574C700.351 187.42 733.595 156.717 773.238 160.853C811.448 164.839 841.425 199.936 841.425 239.373Z" fill="url(#paint18_linear_304_2441)"/>
<path d="M772.846 174.27C774.879 174.469 776.525 176.354 776.525 178.482V185.743C780.591 186.21 784.662 186.938 788.74 187.926C791.746 188.654 794.733 189.521 797.699 190.525C799.477 191.126 800.688 192.976 800.507 194.882L799.641 203.986C799.411 206.402 797.093 207.821 794.911 206.819C792.957 205.922 790.954 205.153 788.901 204.512C785.319 203.396 781.54 202.668 777.565 202.33L776.525 202.243V223.036C787.133 226.094 794.922 230.206 799.957 235.381C804.967 240.529 807.463 246.946 807.463 254.65C807.463 262.979 804.703 269.651 799.162 274.681C793.591 279.739 785.78 282.582 775.68 283.199V291.212C775.68 293.34 774.033 294.998 771.997 294.915L771.933 294.912C769.894 294.827 768.237 293.029 768.237 290.894V282.986L766.598 282.91C761.864 282.689 757.328 282.193 752.995 281.416C749.786 280.84 746.651 280.099 743.593 279.189C741.745 278.639 740.474 276.824 740.644 274.874L741.663 263.171C741.883 260.64 744.351 259.169 746.686 260.118C749.408 261.224 752.163 262.155 754.953 262.914C759.3 264.095 763.707 264.853 768.171 265.19L768.237 242.059C758.055 239.463 750.433 235.619 745.424 230.527C740.392 225.411 737.868 218.864 737.868 210.903C737.868 202.664 740.606 196.306 746.061 191.842C751.488 187.4 759.201 185.193 769.154 185.198V177.775C769.154 175.639 770.808 174.07 772.846 174.27ZM769.154 202.025C766.006 202.261 763.553 203.151 761.798 204.697C760.039 206.246 759.157 208.327 759.157 210.939C759.157 213.413 759.971 215.482 761.599 217.142C763.224 218.8 765.745 220.123 769.154 221.113V202.025ZM775.68 243.911V265.124C779.101 265.13 781.724 264.29 783.556 262.601C785.384 260.917 786.297 258.538 786.297 255.461C786.297 252.656 785.448 250.33 783.749 248.479C782.047 246.627 779.36 245.104 775.68 243.911Z" fill="#FFE70C"/>
<path opacity="0.3" d="M760.899 249.029C763.202 225.586 784.114 215.664 781.386 194.1C779.704 180.81 769.927 169.609 759.019 160.865C725.935 164.44 700.353 192.661 700.353 229.574C700.353 271.726 733.595 307.047 773.238 308.419C777.088 308.552 780.846 308.346 784.502 307.853C768.757 291.713 758.919 269.169 760.899 249.029Z" fill="url(#paint19_linear_304_2441)"/>
</g>
<g clip-path="url(#clip1_304_2441)">
<path d="M292.786 353.762V362.571C292.786 363.267 292.543 363.925 292.13 364.466C291.699 365.033 291.074 365.484 290.345 365.736C290.12 365.82 289.89 365.878 289.647 365.916C289.428 365.955 289.203 365.968 288.973 365.968H131.516C129.615 365.968 128.024 364.711 127.745 363.081C127.733 362.971 127.715 362.861 127.709 362.745C127.709 362.687 127.703 362.629 127.703 362.571V353.762C127.703 353.704 127.709 353.646 127.709 353.588C127.715 353.472 127.727 353.362 127.745 353.252C128.024 351.622 129.615 350.365 131.516 350.365H288.973C289.203 350.365 289.428 350.378 289.647 350.417C289.89 350.455 290.12 350.52 290.345 350.597C291.074 350.849 291.699 351.3 292.13 351.867C292.543 352.408 292.786 353.066 292.786 353.762Z" fill="#FFB93E"/>
<path d="M215.466 365.968H131.109C129.548 365.968 128.231 364.898 127.836 363.454C127.8 363.332 127.763 363.209 127.745 363.081C127.733 362.971 127.715 362.861 127.709 362.745C127.709 362.687 127.703 362.629 127.703 362.571V353.762C127.703 353.704 127.709 353.646 127.709 353.588C127.715 353.472 127.727 353.362 127.745 353.252C127.769 353.124 127.8 353.001 127.836 352.879C128.231 351.435 129.548 350.365 131.109 350.365H205.108C206.286 354.967 209.042 361.315 215.466 365.968Z" fill="#FFA412"/>
<path d="M273.624 350.372H271.833V365.974H273.624V350.372Z" fill="#FFA412"/>
<path d="M267.565 350.372H265.774V365.974H267.565V350.372Z" fill="#FFA412"/>
<path d="M260.303 350.372H258.512V365.974H260.303V350.372Z" fill="#FFA412"/>
<path d="M249.168 350.372H247.377V365.974H249.168V350.372Z" fill="#FFA412"/>
<path d="M237.396 350.372H235.605V365.974H237.396V350.372Z" fill="#FFA412"/>
<path d="M219.345 350.372H217.554V365.974H219.345V350.372Z" fill="#FFA412"/>
<path d="M202.442 350.372H200.651V365.974H202.442V350.372Z" fill="#FFA412"/>
<path d="M187.349 350.372H185.558V365.974H187.349V350.372Z" fill="#FFA412"/>
<path d="M279.392 350.372H277.601V365.974H279.392V350.372Z" fill="#FFA412"/>
<path d="M283.199 350.372H281.408V365.974H283.199V350.372Z" fill="#FFA412"/>
<path d="M286.878 350.372H285.087V365.974H286.878V350.372Z" fill="#FFA412"/>
<path d="M289.647 350.423V365.916C289.428 365.955 289.204 365.968 288.973 365.968H287.856V350.365H288.973C289.204 350.372 289.428 350.385 289.647 350.423Z" fill="#FFA412"/>
<path d="M292.13 351.867V364.473C291.699 365.046 291.074 365.491 290.339 365.742V350.597C291.074 350.849 291.693 351.3 292.13 351.867Z" fill="#FFA412"/>
<path d="M275.943 338.165V346.975C275.943 347.678 275.701 348.335 275.294 348.876C275.184 349.018 275.063 349.153 274.936 349.276C274.541 349.65 274.055 349.953 273.503 350.139C273.284 350.217 273.047 350.275 272.804 350.313C272.586 350.352 272.361 350.371 272.137 350.371H114.679C112.779 350.371 111.194 349.108 110.909 347.478C110.897 347.368 110.879 347.259 110.873 347.149C110.866 347.091 110.866 347.033 110.866 346.969V338.159C110.866 338.101 110.866 338.036 110.873 337.985C110.879 337.875 110.891 337.766 110.909 337.656C111.188 336.026 112.779 334.762 114.679 334.762H272.143C272.24 334.762 272.343 334.769 272.44 334.775C272.477 334.775 272.513 334.782 272.549 334.788C272.556 334.782 272.562 334.782 272.568 334.788C272.61 334.788 272.659 334.795 272.713 334.801C272.75 334.808 272.78 334.814 272.811 334.814C273.053 334.853 273.29 334.911 273.509 334.988C273.642 335.033 273.77 335.085 273.891 335.143H273.897C273.982 335.181 274.067 335.226 274.146 335.265C274.189 335.291 274.237 335.323 274.286 335.349C274.328 335.375 274.377 335.4 274.413 335.433C274.583 335.536 274.735 335.658 274.875 335.794C274.923 335.832 274.966 335.884 275.008 335.922C275.039 335.948 275.063 335.974 275.087 336C275.099 336.013 275.118 336.032 275.13 336.045L275.166 336.084C275.215 336.135 275.263 336.193 275.306 336.258C275.707 336.812 275.943 337.456 275.943 338.165Z" fill="#FFB93E"/>
<path d="M198.629 350.371H114.273C112.712 350.371 111.395 349.295 111.006 347.852C110.97 347.729 110.939 347.607 110.915 347.478C110.903 347.368 110.885 347.259 110.879 347.149C110.873 347.091 110.873 347.033 110.873 346.969V338.159C110.873 338.101 110.873 338.036 110.879 337.985C110.885 337.875 110.897 337.766 110.915 337.656C110.939 337.527 110.97 337.405 111.006 337.282C111.395 335.839 112.712 334.762 114.273 334.762H188.272C188.302 334.891 188.338 335.02 188.375 335.149C189.607 339.706 192.382 345.841 198.629 350.371Z" fill="#FFA412"/>
<path d="M256.788 334.762H254.997V350.365H256.788V334.762Z" fill="#FFA412"/>
<path d="M250.729 334.762H248.938V350.365H250.729V334.762Z" fill="#FFA412"/>
<path d="M243.467 334.762H241.676V350.365H243.467V334.762Z" fill="#FFA412"/>
<path d="M232.332 334.762H230.541V350.365H232.332V334.762Z" fill="#FFA412"/>
<path d="M220.56 334.762H218.769V350.365H220.56V334.762Z" fill="#FFA412"/>
<path d="M202.509 334.762H200.718V350.365H202.509V334.762Z" fill="#FFA412"/>
<path d="M185.606 334.762H183.815V350.365H185.606V334.762Z" fill="#FFA412"/>
<path d="M170.513 334.762H168.721V350.365H170.513V334.762Z" fill="#FFA412"/>
<path d="M262.556 334.762H260.765V350.365H262.556V334.762Z" fill="#FFA412"/>
<path d="M266.363 334.762H264.572V350.365H266.363V334.762Z" fill="#FFA412"/>
<path d="M270.042 334.762H268.251V350.365H270.042V334.762Z" fill="#FFA412"/>
<path d="M272.811 334.82V350.313C272.592 350.352 272.367 350.365 272.137 350.365H271.02V334.762H272.137C272.367 334.762 272.592 334.782 272.811 334.82Z" fill="#FFA412"/>
<path d="M275.294 336.264V348.87C274.863 349.437 274.237 349.888 273.509 350.14V334.995C274.237 335.246 274.863 335.691 275.294 336.264Z" fill="#FFA412"/>
<path d="M284.079 322.943V331.759C284.079 332.462 283.836 333.113 283.423 333.654C282.992 334.221 282.373 334.672 281.638 334.924C281.414 335.001 281.183 335.059 280.94 335.104C280.722 335.136 280.497 335.156 280.272 335.156H122.815C122.184 335.156 121.589 335.014 121.06 334.769C120.016 334.286 119.251 333.377 119.051 332.301C119.039 332.23 119.033 332.153 119.02 332.082C119.014 332.037 119.008 331.985 119.008 331.927C119.002 331.869 119.002 331.811 119.002 331.753V322.937C119.002 322.879 119.002 322.821 119.008 322.763C119.014 322.653 119.02 322.537 119.045 322.434C119.324 320.797 120.915 319.54 122.815 319.54H280.278C280.503 319.54 280.734 319.553 280.946 319.592C281.189 319.631 281.426 319.688 281.645 319.766C282.379 320.024 282.998 320.468 283.43 321.042C283.842 321.59 284.079 322.241 284.079 322.943Z" fill="#FFB93E"/>
<path d="M206.765 335.149H122.408C121.844 335.149 121.309 335.008 120.842 334.763C119.907 334.279 119.221 333.371 119.051 332.294C119.039 332.223 119.033 332.146 119.02 332.075C119.014 332.03 119.008 331.979 119.008 331.921C119.002 331.863 119.002 331.804 119.002 331.746V322.93C119.002 322.872 119.002 322.814 119.008 322.756C119.014 322.647 119.02 322.531 119.045 322.427C119.069 322.305 119.099 322.183 119.136 322.067C119.518 320.617 120.842 319.54 122.408 319.54H196.407C197.561 324.006 200.196 330.142 206.249 334.756C206.413 334.892 206.589 335.027 206.765 335.149Z" fill="#FFA412"/>
<path d="M264.924 319.547H263.133V335.149H264.924V319.547Z" fill="#FFA412"/>
<path d="M258.864 319.547H257.073V335.149H258.864V319.547Z" fill="#FFA412"/>
<path d="M251.603 319.547H249.812V335.149H251.603V319.547Z" fill="#FFA412"/>
<path d="M240.468 319.547H238.677V335.149H240.468V319.547Z" fill="#FFA412"/>
<path d="M228.695 319.547H226.904V335.149H228.695V319.547Z" fill="#FFA412"/>
<path d="M210.645 319.547H208.854V335.149H210.645V319.547Z" fill="#FFA412"/>
<path d="M193.742 319.547H191.951V335.149H193.742V319.547Z" fill="#FFA412"/>
<path d="M178.648 319.547H176.857V335.149H178.648V319.547Z" fill="#FFA412"/>
<path d="M270.692 319.547H268.901V335.149H270.692V319.547Z" fill="#FFA412"/>
<path d="M274.498 319.547H272.707V335.149H274.498V319.547Z" fill="#FFA412"/>
<path d="M278.178 319.547H276.387V335.149H278.178V319.547Z" fill="#FFA412"/>
<path d="M280.946 319.598V335.091C280.728 335.124 280.503 335.143 280.272 335.143H279.155V319.54H280.272C280.503 319.547 280.728 319.566 280.946 319.598Z" fill="#FFA412"/>
<path d="M283.429 321.048V333.654C282.992 334.228 282.373 334.672 281.638 334.924V319.779C282.373 320.03 282.998 320.475 283.429 321.048Z" fill="#FFA412"/>
<path d="M287.856 307.34V316.15C287.856 316.853 287.613 317.504 287.2 318.045C287.145 318.116 287.084 318.187 287.03 318.251C286.732 318.593 286.362 318.876 285.943 319.089C285.773 319.173 285.597 319.25 285.415 319.315C285.19 319.392 284.959 319.45 284.717 319.489C284.607 319.502 284.498 319.521 284.389 319.527C284.273 319.54 284.158 319.54 284.043 319.54H126.585C124.679 319.54 123.094 318.277 122.815 316.647C122.803 316.537 122.785 316.428 122.779 316.318V307.154C122.876 305.497 124.315 304.15 126.136 303.957C126.282 303.944 126.434 303.931 126.591 303.931H284.049C284.164 303.931 284.279 303.938 284.395 303.951C284.51 303.963 284.619 303.97 284.723 303.989C284.965 304.028 285.196 304.086 285.421 304.163C286.149 304.415 286.775 304.866 287.206 305.433C287.613 305.987 287.856 306.638 287.856 307.34Z" fill="#FFB93E"/>
<path d="M210.535 319.547H126.179C124.618 319.547 123.295 318.471 122.906 317.027C122.87 316.905 122.833 316.782 122.815 316.653C122.803 316.544 122.785 316.434 122.779 316.325V307.16C122.87 305.51 124.151 304.157 125.772 303.964C125.905 303.951 126.039 303.938 126.173 303.938H200.171C200.171 303.951 200.178 303.957 200.178 303.964C201.368 308.559 204.124 314.894 210.535 319.547Z" fill="#FFA412"/>
<path d="M268.694 303.944H266.903V319.547H268.694V303.944Z" fill="#FFA412"/>
<path d="M262.641 303.944H260.85V319.547H262.641V303.944Z" fill="#FFA412"/>
<path d="M255.373 303.944H253.582V319.547H255.373V303.944Z" fill="#FFA412"/>
<path d="M244.238 303.944H242.447V319.547H244.238V303.944Z" fill="#FFA412"/>
<path d="M232.466 303.944H230.675V319.547H232.466V303.944Z" fill="#FFA412"/>
<path d="M214.415 303.944H212.624V319.547H214.415V303.944Z" fill="#FFA412"/>
<path d="M197.512 303.944H195.721V319.547H197.512V303.944Z" fill="#FFA412"/>
<path d="M182.425 303.944H180.634V319.547H182.425V303.944Z" fill="#FFA412"/>
<path d="M274.462 303.944H272.671V319.547H274.462V303.944Z" fill="#FFA412"/>
<path d="M278.275 303.944H276.484V319.547H278.275V303.944Z" fill="#FFA412"/>
<path d="M281.948 303.944H280.157V319.547H281.948V303.944Z" fill="#FFA412"/>
<path d="M284.717 303.996V319.489C284.498 319.528 284.273 319.54 284.043 319.54H282.926V303.938H284.043C284.273 303.944 284.498 303.964 284.717 303.996Z" fill="#FFA412"/>
<path d="M287.2 305.446V318.052C286.769 318.625 286.143 319.07 285.409 319.321V304.176C286.143 304.421 286.769 304.872 287.2 305.446Z" fill="#FFA412"/>
<path d="M276.277 291.764V300.573C276.277 301.276 276.041 301.927 275.628 302.468C275.197 303.042 274.571 303.493 273.837 303.744C273.612 303.822 273.381 303.88 273.145 303.918C273.072 303.931 272.999 303.944 272.926 303.95H272.896C272.859 303.957 272.817 303.963 272.78 303.963C272.744 303.97 272.713 303.97 272.677 303.976C272.61 303.976 272.543 303.983 272.477 303.983H115.013C112.979 303.983 111.31 302.545 111.207 300.76C111.2 300.702 111.2 300.644 111.2 300.58V291.77C111.2 291.712 111.2 291.648 111.207 291.59C111.207 291.544 111.213 291.493 111.219 291.448C111.37 290.011 112.542 288.818 114.078 288.477C114.115 288.464 114.151 288.457 114.194 288.451C114.461 288.399 114.734 288.367 115.019 288.367H272.477C272.598 288.367 272.701 288.374 272.817 288.38C272.865 288.387 272.914 288.393 272.962 288.393C272.968 288.393 272.968 288.393 272.968 288.393H272.975C273.035 288.399 273.09 288.406 273.151 288.419C273.387 288.457 273.624 288.515 273.843 288.593C274.577 288.844 275.203 289.289 275.634 289.869C276.041 290.41 276.277 291.055 276.277 291.764Z" fill="#FFB93E"/>
<path d="M198.957 303.97H114.607C112.791 303.97 111.304 302.533 111.207 300.748C111.2 300.69 111.2 300.632 111.2 300.567V291.757C111.2 291.699 111.2 291.635 111.207 291.577C111.207 291.532 111.213 291.48 111.219 291.435C111.358 289.966 112.445 288.761 113.86 288.445C113.902 288.432 113.951 288.419 114.005 288.412C114.2 288.374 114.406 288.354 114.613 288.354H188.606C188.618 288.393 188.624 288.425 188.636 288.47C189.832 293.046 192.588 299.323 198.933 303.938C198.933 303.951 198.945 303.957 198.957 303.97Z" fill="#FFA412"/>
<path d="M257.122 288.368H255.331V303.97H257.122V288.368Z" fill="#FFA412"/>
<path d="M251.063 288.368H249.271V303.97H251.063V288.368Z" fill="#FFA412"/>
<path d="M243.795 288.368H242.004V303.97H243.795V288.368Z" fill="#FFA412"/>
<path d="M232.666 288.368H230.875V303.97H232.666V288.368Z" fill="#FFA412"/>
<path d="M220.888 288.368H219.096V303.97H220.888V288.368Z" fill="#FFA412"/>
<path d="M202.837 288.368H201.046V303.97H202.837V288.368Z" fill="#FFA412"/>
<path d="M185.94 288.368H184.149V303.97H185.94V288.368Z" fill="#FFA412"/>
<path d="M170.847 288.367H169.055V303.97H170.847V288.367Z" fill="#FFA412"/>
<path d="M262.884 288.368H261.093V303.97H262.884V288.368Z" fill="#FFA412"/>
<path d="M266.697 288.368H264.906V303.97H266.697V288.368Z" fill="#FFA412"/>
<path d="M270.376 288.368H268.585V303.97H270.376V288.368Z" fill="#FFA412"/>
<path d="M273.139 288.419V303.912C272.92 303.944 272.695 303.964 272.465 303.964H271.347V288.361H272.465C272.701 288.361 272.92 288.38 273.139 288.419Z" fill="#FFA412"/>
<path d="M275.628 289.862V302.468C275.197 303.042 274.571 303.487 273.843 303.738V288.593C274.565 288.844 275.191 289.295 275.628 289.862Z" fill="#FFA412"/>
<path d="M275.943 276.271V285.08C275.943 285.783 275.701 286.434 275.294 286.975C275.184 287.117 275.063 287.252 274.936 287.381C274.541 287.755 274.055 288.058 273.503 288.245C273.327 288.309 273.144 288.354 272.962 288.393H272.956C272.95 288.393 272.95 288.393 272.95 288.393C272.902 288.406 272.853 288.412 272.804 288.419C272.586 288.457 272.361 288.477 272.137 288.477H114.679C114.515 288.477 114.351 288.464 114.188 288.445C114.127 288.438 114.06 288.432 113.999 288.419C112.396 288.155 111.134 286.995 110.903 285.544C110.891 285.448 110.879 285.351 110.873 285.254C110.866 285.19 110.866 285.132 110.866 285.074V276.264C110.866 276.2 110.866 276.142 110.873 276.084C110.879 275.974 110.891 275.865 110.909 275.755C111.188 274.124 112.779 272.861 114.679 272.861H272.143C272.24 272.861 272.343 272.868 272.44 272.874C272.452 272.874 272.471 272.881 272.477 272.881C272.507 272.887 272.537 272.887 272.568 272.887C272.61 272.894 272.659 272.9 272.713 272.906C272.75 272.906 272.78 272.913 272.811 272.926C273.053 272.964 273.29 273.022 273.509 273.1C273.642 273.145 273.77 273.196 273.891 273.254H273.897C274.389 273.486 274.814 273.809 275.154 274.195C275.203 274.253 275.251 274.311 275.294 274.369C275.707 274.911 275.943 275.568 275.943 276.271Z" fill="#FFB93E"/>
<path d="M198.629 288.477H114.272C114.212 288.477 114.139 288.47 114.078 288.47C114.005 288.464 113.932 288.458 113.859 288.451C112.336 288.258 111.115 287.059 110.909 285.551C110.897 285.454 110.884 285.358 110.878 285.261C110.872 285.197 110.872 285.139 110.872 285.081V276.271C110.872 276.206 110.872 276.148 110.878 276.09C110.884 275.981 110.897 275.871 110.915 275.762C110.939 275.633 110.969 275.51 111.006 275.388C111.394 273.944 112.712 272.868 114.272 272.868H188.271C188.302 272.997 188.338 273.126 188.375 273.255C189.601 277.779 192.339 283.843 198.477 288.361C198.526 288.406 198.581 288.438 198.629 288.477Z" fill="#FFA412"/>
<path d="M256.788 272.875H254.997V288.477H256.788V272.875Z" fill="#FFA412"/>
<path d="M250.729 272.875H248.938V288.477H250.729V272.875Z" fill="#FFA412"/>
<path d="M243.467 272.875H241.676V288.477H243.467V272.875Z" fill="#FFA412"/>
<path d="M232.332 272.875H230.541V288.477H232.332V272.875Z" fill="#FFA412"/>
<path d="M220.56 272.875H218.769V288.477H220.56V272.875Z" fill="#FFA412"/>
<path d="M202.509 272.875H200.718V288.477H202.509V272.875Z" fill="#FFA412"/>
<path d="M185.606 272.875H183.815V288.477H185.606V272.875Z" fill="#FFA412"/>
<path d="M170.513 272.874H168.721V288.477H170.513V272.874Z" fill="#FFA412"/>
<path d="M262.556 272.875H260.765V288.477H262.556V272.875Z" fill="#FFA412"/>
<path d="M266.363 272.875H264.572V288.477H266.363V272.875Z" fill="#FFA412"/>
<path d="M270.042 272.875H268.251V288.477H270.042V272.875Z" fill="#FFA412"/>
<path d="M272.811 272.926V288.419C272.592 288.451 272.367 288.47 272.137 288.47H271.02V272.868H272.137C272.367 272.874 272.592 272.894 272.811 272.926Z" fill="#FFA412"/>
<path d="M275.294 274.369V286.975C274.863 287.549 274.237 287.994 273.509 288.245V273.1C274.237 273.351 274.863 273.802 275.294 274.369Z" fill="#FFA412"/>
<path d="M284.079 261.048V269.858C284.079 270.561 283.836 271.218 283.423 271.759C282.992 272.327 282.373 272.778 281.638 273.029C281.414 273.106 281.183 273.164 280.94 273.203C280.722 273.242 280.497 273.261 280.272 273.261H122.815C122.184 273.261 121.589 273.119 121.06 272.874C120.016 272.391 119.251 271.482 119.051 270.412C119.039 270.342 119.033 270.264 119.02 270.193C119.014 270.142 119.008 270.097 119.008 270.045C119.002 269.987 119.002 269.929 119.002 269.865V261.055C119.002 260.997 119.002 260.932 119.008 260.874C119.014 260.765 119.02 260.655 119.045 260.546C119.324 258.915 120.915 257.652 122.815 257.652H280.278C280.503 257.652 280.734 257.671 280.946 257.71C281.189 257.749 281.426 257.807 281.645 257.884C282.379 258.135 282.998 258.58 283.43 259.16C283.842 259.701 284.079 260.346 284.079 261.048Z" fill="#FFB93E"/>
<path d="M206.765 273.261H122.408C121.844 273.261 121.309 273.119 120.842 272.874C119.907 272.391 119.221 271.482 119.051 270.412C119.039 270.342 119.033 270.264 119.02 270.193C119.014 270.142 119.008 270.097 119.008 270.045C119.002 269.987 119.002 269.929 119.002 269.865V261.055C119.002 260.997 119.002 260.932 119.008 260.874C119.014 260.765 119.02 260.655 119.045 260.546C119.069 260.423 119.099 260.301 119.136 260.185C119.518 258.735 120.842 257.652 122.408 257.652H196.407C197.561 262.118 200.196 268.253 206.249 272.874C206.413 273.003 206.589 273.126 206.765 273.261Z" fill="#FFA412"/>
<path d="M264.924 257.652H263.133V273.255H264.924V257.652Z" fill="#FFA412"/>
<path d="M258.864 257.652H257.073V273.255H258.864V257.652Z" fill="#FFA412"/>
<path d="M251.603 257.652H249.812V273.255H251.603V257.652Z" fill="#FFA412"/>
<path d="M240.468 257.652H238.677V273.255H240.468V257.652Z" fill="#FFA412"/>
<path d="M228.695 257.652H226.904V273.255H228.695V257.652Z" fill="#FFA412"/>
<path d="M210.645 257.652H208.854V273.255H210.645V257.652Z" fill="#FFA412"/>
<path d="M193.742 257.652H191.951V273.255H193.742V257.652Z" fill="#FFA412"/>
<path d="M178.648 257.652H176.857V273.255H178.648V257.652Z" fill="#FFA412"/>
<path d="M270.692 257.652H268.901V273.255H270.692V257.652Z" fill="#FFA412"/>
<path d="M274.498 257.652H272.707V273.255H274.498V257.652Z" fill="#FFA412"/>
<path d="M278.178 257.652H276.387V273.255H278.178V257.652Z" fill="#FFA412"/>
<path d="M280.946 257.71V273.203C280.728 273.235 280.503 273.255 280.272 273.255H279.155V257.652H280.272C280.503 257.652 280.728 257.671 280.946 257.71Z" fill="#FFA412"/>
<path d="M283.429 259.154V271.759C282.992 272.333 282.373 272.778 281.638 273.029V257.884C282.373 258.135 282.998 258.587 283.429 259.154Z" fill="#FFA412"/>
<path d="M296.951 245.446V254.262C296.951 254.958 296.708 255.609 296.301 256.15L296.295 256.157C296.24 256.228 296.18 256.299 296.125 256.363C295.882 256.634 295.603 256.872 295.281 257.066C295.123 257.162 294.959 257.246 294.777 257.323C294.771 257.323 294.771 257.33 294.771 257.33C294.686 257.368 294.601 257.401 294.504 257.433C294.279 257.51 294.049 257.568 293.806 257.607C293.587 257.646 293.362 257.658 293.138 257.658H135.681C133.78 257.658 132.196 256.402 131.91 254.771C131.892 254.662 131.88 254.552 131.874 254.436C131.868 254.378 131.868 254.32 131.868 254.262V245.446C131.868 245.388 131.868 245.33 131.874 245.272C131.965 243.622 133.404 242.269 135.231 242.075C135.377 242.056 135.529 242.049 135.681 242.049H293.144C293.369 242.049 293.599 242.069 293.812 242.101C294.055 242.146 294.291 242.198 294.51 242.281C295.147 242.501 295.7 242.874 296.125 243.338C296.186 243.409 296.246 243.474 296.295 243.545L296.301 243.551C296.708 244.099 296.951 244.743 296.951 245.446Z" fill="#FFB93E"/>
<path d="M219.631 257.652H135.274C133.707 257.652 132.39 256.576 132.001 255.126C131.965 255.01 131.934 254.887 131.91 254.765C131.892 254.655 131.88 254.546 131.874 254.43C131.868 254.372 131.868 254.314 131.868 254.256V245.446C131.868 245.388 131.868 245.33 131.874 245.272C131.959 243.622 133.24 242.269 134.861 242.075C134.994 242.056 135.128 242.049 135.268 242.049H209.267C209.267 242.056 209.273 242.062 209.273 242.075C210.463 246.664 213.219 253.005 219.631 257.652Z" fill="#FFA412"/>
<path d="M277.795 242.049H276.004V257.652H277.795V242.049Z" fill="#FFA412"/>
<path d="M271.736 242.049H269.945V257.652H271.736V242.049Z" fill="#FFA412"/>
<path d="M264.468 242.049H262.677V257.652H264.468V242.049Z" fill="#FFA412"/>
<path d="M253.333 242.049H251.542V257.652H253.333V242.049Z" fill="#FFA412"/>
<path d="M241.561 242.049H239.77V257.652H241.561V242.049Z" fill="#FFA412"/>
<path d="M223.51 242.049H221.719V257.652H223.51V242.049Z" fill="#FFA412"/>
<path d="M206.607 242.049H204.816V257.652H206.607V242.049Z" fill="#FFA412"/>
<path d="M191.52 242.049H189.729V257.652H191.52V242.049Z" fill="#FFA412"/>
<path d="M283.557 242.049H281.766V257.652H283.557V242.049Z" fill="#FFA412"/>
<path d="M287.37 242.049H285.579V257.652H287.37V242.049Z" fill="#FFA412"/>
<path d="M291.049 242.049H289.258V257.652H291.049V242.049Z" fill="#FFA412"/>
<path d="M293.812 242.107V257.6C293.593 257.639 293.369 257.652 293.138 257.652H292.021V242.049H293.138C293.369 242.049 293.593 242.069 293.812 242.107Z" fill="#FFA412"/>
<path d="M296.295 243.551V256.157C295.864 256.724 295.239 257.175 294.51 257.427V242.281C295.239 242.533 295.864 242.978 296.295 243.551Z" fill="#FFA412"/>
<path d="M276.277 229.869V238.679C276.277 239.381 276.041 240.032 275.628 240.574C275.197 241.147 274.571 241.598 273.837 241.85C273.612 241.927 273.381 241.985 273.145 242.024C273.072 242.037 272.999 242.043 272.926 242.056H272.896C272.847 242.069 272.798 242.069 272.75 242.069C272.72 242.069 272.689 242.075 272.659 242.075C272.592 242.075 272.537 242.082 272.471 242.082H115.013C113.647 242.082 112.439 241.437 111.771 240.464C111.443 239.994 111.243 239.446 111.207 238.859C111.2 238.795 111.2 238.737 111.2 238.679V229.869C111.2 229.805 111.2 229.747 111.207 229.689C111.292 228.245 112.409 227.027 113.908 226.621C114.26 226.524 114.631 226.466 115.013 226.466H272.471C272.537 226.466 272.604 226.473 272.671 226.473C272.707 226.473 272.738 226.479 272.768 226.486C272.896 226.492 273.017 226.505 273.145 226.531C273.381 226.569 273.618 226.627 273.837 226.705C273.952 226.743 274.055 226.782 274.158 226.834H274.165C274.583 227.014 274.954 227.265 275.27 227.568C275.276 227.575 275.282 227.581 275.282 227.588C275.294 227.6 275.312 227.613 275.324 227.626C275.433 227.729 275.531 227.845 275.622 227.968C276.041 228.516 276.277 229.167 276.277 229.869Z" fill="#FFB93E"/>
<path d="M198.957 242.075H114.607C113.423 242.075 112.366 241.457 111.765 240.535C111.443 240.045 111.237 239.472 111.207 238.853C111.2 238.788 111.2 238.73 111.2 238.672V229.863C111.2 229.798 111.2 229.74 111.207 229.682C111.292 228.129 112.427 226.84 113.914 226.537C114.133 226.492 114.37 226.466 114.6 226.466H188.593C188.624 226.589 188.66 226.705 188.691 226.827C189.917 231.377 192.686 237.512 198.915 242.049C198.933 242.056 198.945 242.069 198.957 242.075Z" fill="#FFA412"/>
<path d="M257.122 226.473H255.331V242.075H257.122V226.473Z" fill="#FFA412"/>
<path d="M251.063 226.473H249.271V242.075H251.063V226.473Z" fill="#FFA412"/>
<path d="M243.795 226.473H242.004V242.075H243.795V226.473Z" fill="#FFA412"/>
<path d="M232.666 226.473H230.875V242.075H232.666V226.473Z" fill="#FFA412"/>
<path d="M220.888 226.473H219.096V242.075H220.888V226.473Z" fill="#FFA412"/>
<path d="M202.837 226.473H201.046V242.075H202.837V226.473Z" fill="#FFA412"/>
<path d="M185.94 226.473H184.149V242.075H185.94V226.473Z" fill="#FFA412"/>
<path d="M170.847 226.473H169.055V242.075H170.847V226.473Z" fill="#FFA412"/>
<path d="M262.884 226.473H261.093V242.075H262.884V226.473Z" fill="#FFA412"/>
<path d="M266.697 226.473H264.906V242.075H266.697V226.473Z" fill="#FFA412"/>
<path d="M270.376 226.473H268.585V242.075H270.376V226.473Z" fill="#FFA412"/>
<path d="M273.139 226.524V242.017C272.92 242.049 272.695 242.069 272.465 242.069H271.347V226.466H272.465C272.701 226.473 272.92 226.492 273.139 226.524Z" fill="#FFA412"/>
<path d="M275.628 227.974V240.58C275.197 241.154 274.571 241.598 273.843 241.85V226.705C274.565 226.949 275.191 227.401 275.628 227.974Z" fill="#FFA412"/>
<path d="M287.856 214.627V223.437C287.856 224.14 287.613 224.791 287.2 225.332C286.769 225.905 286.144 226.35 285.409 226.602C285.184 226.679 284.954 226.737 284.711 226.775C284.492 226.814 284.267 226.827 284.037 226.827H126.586C125.972 226.827 125.396 226.698 124.886 226.466C123.738 225.957 122.918 224.932 122.791 223.747C122.785 223.701 122.785 223.656 122.779 223.605C122.779 223.547 122.773 223.489 122.773 223.431V214.621C122.773 214.563 122.773 214.505 122.779 214.447C122.876 212.791 124.309 211.444 126.136 211.25C126.282 211.231 126.434 211.224 126.586 211.224H284.043C284.274 211.224 284.498 211.244 284.717 211.276C284.96 211.315 285.19 211.373 285.415 211.45C286.144 211.701 286.769 212.153 287.206 212.72C287.613 213.274 287.856 213.925 287.856 214.627Z" fill="#FFB93E"/>
<path d="M210.536 226.833H126.179C125.632 226.833 125.116 226.705 124.661 226.473C123.635 225.963 122.906 224.939 122.791 223.753C122.785 223.708 122.785 223.663 122.779 223.611C122.779 223.553 122.773 223.495 122.773 223.437V214.627C122.773 214.569 122.773 214.511 122.779 214.453C122.864 212.803 124.145 211.45 125.772 211.257C125.899 211.237 126.039 211.231 126.173 211.231H200.172C200.172 211.237 200.178 211.25 200.178 211.257C201.331 215.729 203.978 221.865 210.044 226.473C210.208 226.595 210.372 226.711 210.536 226.833Z" fill="#FFA412"/>
<path d="M268.694 211.231H266.903V226.834H268.694V211.231Z" fill="#FFA412"/>
<path d="M262.641 211.231H260.85V226.834H262.641V211.231Z" fill="#FFA412"/>
<path d="M255.373 211.231H253.582V226.834H255.373V211.231Z" fill="#FFA412"/>
<path d="M244.238 211.231H242.447V226.834H244.238V211.231Z" fill="#FFA412"/>
<path d="M232.466 211.231H230.675V226.834H232.466V211.231Z" fill="#FFA412"/>
<path d="M214.415 211.231H212.624V226.834H214.415V211.231Z" fill="#FFA412"/>
<path d="M197.513 211.231H195.721V226.834H197.513V211.231Z" fill="#FFA412"/>
<path d="M182.425 211.231H180.634V226.833H182.425V211.231Z" fill="#FFA412"/>
<path d="M274.462 211.231H272.671V226.834H274.462V211.231Z" fill="#FFA412"/>
<path d="M278.275 211.231H276.484V226.834H278.275V211.231Z" fill="#FFA412"/>
<path d="M281.948 211.231H280.157V226.834H281.948V211.231Z" fill="#FFA412"/>
<path d="M284.717 211.282V226.775C284.498 226.814 284.274 226.827 284.043 226.827H282.926V211.224H284.043C284.274 211.231 284.498 211.25 284.717 211.282Z" fill="#FFA412"/>
<path d="M287.2 212.726V225.332C286.769 225.906 286.144 226.35 285.409 226.602V211.457C286.144 211.708 286.769 212.159 287.2 212.726Z" fill="#FFA412"/>
<path d="M292.78 199.044V207.854C292.78 208.556 292.537 209.207 292.124 209.749C291.693 210.322 291.067 210.767 290.333 211.018C290.108 211.095 289.877 211.153 289.635 211.192C289.562 211.205 289.489 211.212 289.416 211.224C289.374 211.224 289.331 211.231 289.295 211.237C289.252 211.244 289.216 211.244 289.167 211.244C289.1 211.25 289.034 211.25 288.967 211.25H131.516C129.488 211.25 127.812 209.813 127.709 208.028C127.709 207.97 127.703 207.912 127.703 207.854V199.044C127.703 198.986 127.703 198.928 127.709 198.87C127.812 197.085 129.482 195.648 131.516 195.648H288.973C289.204 195.648 289.428 195.667 289.647 195.706C289.89 195.744 290.12 195.802 290.345 195.88C291.074 196.131 291.699 196.582 292.136 197.149C292.543 197.691 292.78 198.341 292.78 199.044Z" fill="#FFB93E"/>
<path d="M215.466 211.257H131.109C129.299 211.257 127.806 209.819 127.715 208.034C127.715 207.976 127.709 207.918 127.709 207.86V199.044C127.709 198.986 127.709 198.928 127.715 198.87C127.806 197.085 129.299 195.648 131.109 195.648H205.108C206.286 200.236 209.036 206.571 215.435 211.224C215.441 211.237 215.453 211.244 215.466 211.257Z" fill="#FFA412"/>
<path d="M273.624 195.648H271.833V211.25H273.624V195.648Z" fill="#FFA412"/>
<path d="M267.565 195.648H265.774V211.25H267.565V195.648Z" fill="#FFA412"/>
<path d="M260.303 195.648H258.512V211.25H260.303V195.648Z" fill="#FFA412"/>
<path d="M249.168 195.648H247.377V211.25H249.168V195.648Z" fill="#FFA412"/>
<path d="M237.396 195.648H235.605V211.25H237.396V195.648Z" fill="#FFA412"/>
<path d="M219.345 195.648H217.554V211.25H219.345V195.648Z" fill="#FFA412"/>
<path d="M202.442 195.648H200.651V211.25H202.442V195.648Z" fill="#FFA412"/>
<path d="M187.349 195.648H185.558V211.25H187.349V195.648Z" fill="#FFA412"/>
<path d="M279.392 195.648H277.601V211.25H279.392V195.648Z" fill="#FFA412"/>
<path d="M283.199 195.648H281.408V211.25H283.199V195.648Z" fill="#FFA412"/>
<path d="M286.878 195.648H285.087V211.25H286.878V195.648Z" fill="#FFA412"/>
<path d="M289.647 195.706V211.199C289.428 211.237 289.204 211.25 288.973 211.25H287.856V195.648H288.973C289.204 195.648 289.428 195.667 289.647 195.706Z" fill="#FFA412"/>
<path d="M292.13 197.149V209.755C291.699 210.322 291.074 210.773 290.339 211.025V195.88C291.074 196.131 291.693 196.582 292.13 197.149Z" fill="#FFA412"/>
<path d="M242.872 106.73C242.872 106.73 234.603 119.091 227.02 119.259C219.436 119.433 207.901 113.53 207.901 113.53C207.901 113.53 200.937 97.0635 205.66 90.6188C205.66 90.6188 210.396 88.4147 215.344 92.3073C216.194 92.9775 217.056 93.8282 217.906 94.9109C219.109 96.4448 220.456 97.3148 221.889 97.7724C227.299 99.5189 233.723 95.4072 236.121 99.3771C237.523 101.684 239.047 103.418 240.304 104.636C241.792 106.047 242.872 106.73 242.872 106.73Z" fill="#CEFEE4"/>
<path d="M135.055 195.88C135.055 195.88 164.283 120.696 216.905 119.265C216.905 119.265 265.476 124.994 268.172 195.88H135.055Z" fill="#CEFEE4"/>
<path d="M202.485 121.56C202.485 121.56 223.577 126.535 230.08 123.615C230.08 123.615 231.063 114.251 222.181 115.566C216.103 116.462 212.145 113.362 209.813 112.105C206.522 110.32 201.611 117.641 202.485 121.56Z" fill="#00AA4E"/>
<path d="M220.839 107.446C219.491 108.522 215.35 92.3071 215.35 92.3071C216.2 92.9774 217.062 93.8281 217.912 94.9108C219.115 96.4446 220.463 97.3146 221.895 97.7722C221.908 98.2556 222.15 106.402 220.839 107.446Z" fill="#00AA4E"/>
<path d="M240.31 104.642C240.013 104.829 230.262 111.029 228.938 111.029C227.59 111.029 236.127 99.3834 236.127 99.3834C237.529 101.691 239.053 103.424 240.31 104.642Z" fill="#00AA4E"/>
<path d="M163.609 174.876C163.069 174.387 184.295 141.699 190.142 141.461C195.988 141.222 209.121 148.621 218.635 149.575C228.143 150.528 237.365 147.667 239.163 153.635C240.96 159.602 245.908 180.754 242.872 184.144C239.836 187.527 175.285 185.459 163.609 174.876Z" fill="#00AA4E"/>
<path opacity="0.5" d="M183.603 288.361C183.597 288.4 183.596 288.438 183.59 288.477C183.317 293.716 182.522 298.892 181.229 303.944C181.229 303.951 181.223 303.964 181.223 303.97C181.034 304.698 180.84 305.433 180.628 306.155C179.31 310.763 177.574 315.242 175.436 319.547C172.753 324.947 169.45 330.064 165.546 334.763C165.443 334.892 165.334 335.02 165.224 335.149C160.343 340.95 154.557 346.105 147.927 350.372C146.53 351.274 145.097 352.137 143.628 352.956C142.632 353.51 141.637 354.032 140.635 354.535C139.676 355.128 138.662 355.631 137.708 356.256C134.934 358.06 131.473 359.491 127.703 360.625V353.768C127.703 353.71 127.709 353.652 127.709 353.594C127.715 353.478 127.727 353.368 127.745 353.259C127.769 353.13 127.8 353.008 127.836 352.885C128.231 351.441 129.548 350.372 131.109 350.372H114.273C112.712 350.372 111.395 349.295 111.006 347.852C110.97 347.729 110.939 347.607 110.915 347.478C110.903 347.368 110.885 347.259 110.879 347.149C110.873 347.091 110.873 347.033 110.873 346.969V338.159C110.873 338.101 110.873 338.037 110.879 337.985C110.885 337.875 110.897 337.766 110.915 337.656C110.939 337.527 110.97 337.405 111.006 337.283C111.395 335.839 112.712 334.763 114.273 334.763H120.842C119.907 334.279 119.221 333.371 119.051 332.294C119.039 332.223 119.033 332.146 119.02 332.075C119.014 332.03 119.008 331.979 119.008 331.921C119.002 331.863 119.002 331.805 119.002 331.747V322.93C119.002 322.872 119.002 322.814 119.008 322.756C119.014 322.647 119.02 322.531 119.045 322.428C119.069 322.305 119.099 322.183 119.136 322.067C119.518 320.617 120.842 319.54 122.408 319.54H126.179C124.618 319.54 123.295 318.464 122.906 317.02C122.87 316.898 122.833 316.776 122.815 316.647C122.803 316.537 122.785 316.428 122.779 316.318V307.154C122.87 305.504 124.151 304.15 125.772 303.957H114.6C112.785 303.957 111.298 302.52 111.2 300.735C111.194 300.677 111.194 300.619 111.194 300.554V291.744C111.194 291.686 111.194 291.622 111.2 291.564C111.2 291.519 111.206 291.467 111.213 291.422C111.352 289.953 112.439 288.748 113.854 288.432C112.33 288.238 111.109 287.04 110.903 285.532C110.891 285.435 110.879 285.338 110.873 285.242C110.866 285.177 110.866 285.119 110.866 285.061V276.251C110.866 276.187 110.866 276.129 110.873 276.071C110.879 275.961 110.891 275.852 110.909 275.742C110.933 275.613 110.964 275.491 111 275.368C111.389 273.925 112.706 272.849 114.266 272.849H120.836C119.901 272.365 119.215 271.457 119.045 270.387C119.033 270.316 119.026 270.238 119.014 270.168C119.008 270.116 119.002 270.071 119.002 270.019C118.996 269.961 118.996 269.903 118.996 269.839V261.029C118.996 260.971 118.996 260.907 119.002 260.849C119.008 260.739 119.014 260.629 119.039 260.52C119.063 260.397 119.093 260.275 119.13 260.159C119.512 258.709 120.836 257.626 122.402 257.626H135.268C133.701 257.626 132.384 256.55 131.995 255.1C131.959 254.984 131.928 254.861 131.904 254.739C131.886 254.629 131.874 254.52 131.868 254.404C131.862 254.346 131.862 254.288 131.862 254.23V245.446C131.862 245.388 131.862 245.33 131.868 245.272C131.953 243.622 133.234 242.269 134.855 242.075H114.588C113.404 242.075 112.348 241.457 111.747 240.535L111.759 240.458L113.896 226.621L113.908 226.544L116.95 206.803C120.478 207.306 123.963 208.054 127.381 209.033C127.581 209.091 127.782 209.149 127.982 209.207C127.994 209.214 128.006 209.22 128.024 209.22C130.016 209.813 131.983 210.477 133.92 211.231C133.938 211.237 133.956 211.244 133.974 211.25C142.899 214.698 151.211 219.822 158.418 226.473C158.546 226.589 158.673 226.711 158.795 226.834C162.541 230.327 165.983 234.245 169.043 238.556C169.656 239.414 170.251 240.284 170.828 241.173C171.022 241.463 171.211 241.759 171.393 242.056C171.405 242.062 171.405 242.069 171.405 242.082C172.334 243.538 173.214 245.033 174.052 246.567C176.025 250.183 177.683 253.895 179.037 257.658C180.84 262.653 182.109 267.751 182.856 272.881C182.88 273.01 182.892 273.139 182.916 273.267C183.639 278.294 183.858 283.353 183.603 288.361Z" fill="#E2810E"/>
<path d="M142.654 338.442C173.389 306.337 173.389 254.287 142.654 222.182C111.92 190.078 62.0888 190.078 31.3541 222.182C0.619472 254.287 0.619464 306.337 31.3541 338.442C62.0888 370.546 111.92 370.546 142.654 338.442Z" fill="#E2810E"/>
<path d="M121.944 353.974C120.976 354.593 119.988 355.192 118.989 355.766C118.649 355.959 118.31 356.153 117.971 356.34C117.193 356.771 116.416 357.184 115.639 357.59C78.1572 376.814 32.4452 362.062 12.0664 323.452C-7.36838 286.627 3.07707 241.018 34.9687 217.07C37.5106 215.162 40.1883 213.39 43.0018 211.772C44.0074 211.192 45.0316 210.638 46.0496 210.11C47.043 209.594 48.0425 209.098 49.0481 208.634C52.1269 207.197 55.2611 205.992 58.42 204.999C63.1214 203.523 67.8907 202.524 72.6722 201.996C87.4982 200.352 102.417 203.182 115.639 209.942C129.675 217.109 141.805 228.703 149.918 244.08C170.346 282.799 157.76 331.225 121.944 353.974Z" fill="#FFB93E"/>
<path d="M81.5447 358.318C74.9616 358.318 68.3476 357.345 61.8508 355.386C43.7548 349.921 28.7807 337.418 19.6926 320.185C10.5984 302.952 8.47597 283.057 13.7079 264.155C18.9399 245.253 30.9093 229.611 47.4073 220.118C81.4584 200.507 124.437 213.493 143.212 249.068C161.98 284.636 149.548 329.53 115.497 349.141C104.916 355.218 93.292 358.318 81.5447 358.318ZM81.3288 212.958C70.1368 212.958 58.7967 215.82 48.3204 221.852C32.2728 231.094 20.6243 246.31 15.5342 264.703C10.438 283.096 12.511 302.456 21.3585 319.225C30.2059 335.994 44.779 348.155 62.3814 353.472C79.9899 358.789 98.524 356.63 114.578 347.388C147.71 328.305 159.808 284.63 141.546 250.015C129.046 226.35 105.539 212.958 81.3288 212.958Z" fill="#FFA412"/>
<path d="M34.5886 316.037L31.7156 305.383L95.6904 285.682L98.5634 296.336L34.5886 316.037ZM29.8686 298.533L26.9956 287.879L90.9704 268.178L93.8434 278.833L29.8686 298.533ZM99.6707 330.476C93.1822 332.474 86.8721 333.227 80.7403 332.734C74.6649 332.132 69.0507 330.381 63.8979 327.48C58.7451 324.579 54.3085 320.68 50.588 315.781C46.8675 310.882 44.1065 305.093 42.3052 298.413C40.5039 291.732 39.9585 285.261 40.6692 278.998C41.3798 272.734 43.1943 266.91 46.1125 261.523C49.0307 256.137 52.9233 251.504 57.7903 247.624C62.7136 243.636 68.4195 240.642 74.9079 238.644C82.1086 236.427 89.0014 235.769 95.5865 236.672C102.149 237.49 108.064 239.881 113.332 243.845L104.39 259.787C100.607 257.197 96.7465 255.593 92.8088 254.974C88.8483 254.27 84.7712 254.564 80.5774 255.855C76.7002 257.049 73.3218 258.822 70.4424 261.174C67.563 263.526 65.2784 266.336 63.5887 269.604C61.8989 272.872 60.8488 276.446 60.4385 280.328C60.1074 284.185 60.5118 288.227 61.6519 292.455C62.792 296.683 64.4625 300.335 66.6635 303.413C68.9435 306.465 71.6125 308.895 74.6704 310.7C77.7282 312.506 81.0617 313.586 84.6708 313.94C88.2799 314.294 92.023 313.874 95.9003 312.68C100.094 311.388 103.704 309.361 106.729 306.597C109.732 303.75 112.179 300.111 114.07 295.682L129.579 304.094C127.092 310.447 123.286 315.877 118.16 320.386C113.035 324.895 106.871 328.259 99.6707 330.476Z" fill="#FFEB36"/>
</g>
<g filter="url(#filter0_d_304_2441)">
<circle cx="335" cy="262" r="20" fill="white"/>
</g>
<path d="M331.913 249.518L332.202 250.687C331.065 250.968 329.976 251.419 328.973 252.024L328.355 250.99C329.46 250.322 330.659 249.825 331.913 249.518ZM338.087 249.518L337.798 250.687C338.935 250.968 340.024 251.419 341.027 252.024L341.652 250.99C340.545 250.322 339.343 249.826 338.087 249.518ZM323.99 255.352C323.322 256.458 322.826 257.658 322.518 258.913L323.687 259.202C323.968 258.065 324.419 256.976 325.024 255.973L323.99 255.352ZM323.347 262C323.347 261.415 323.391 260.832 323.479 260.254L322.288 260.071C322.094 261.349 322.094 262.648 322.288 263.925L323.479 263.746C323.391 263.168 323.347 262.584 323.347 262ZM341.645 273.006L341.027 271.976C340.026 272.582 338.938 273.032 337.802 273.313L338.09 274.482C339.343 274.172 340.541 273.674 341.645 273.006ZM346.653 262C346.653 262.584 346.609 263.168 346.521 263.746L347.712 263.925C347.906 262.648 347.906 261.349 347.712 260.071L346.521 260.254C346.609 260.832 346.653 261.415 346.653 262ZM347.482 265.083L346.313 264.794C346.032 265.933 345.582 267.023 344.976 268.027L346.01 268.648C346.678 267.541 347.175 266.339 347.482 265.083ZM336.746 273.521C335.589 273.696 334.411 273.696 333.254 273.521L333.075 274.712C334.351 274.906 335.649 274.906 336.925 274.712L336.746 273.521ZM344.381 268.911C343.686 269.853 342.854 270.684 341.911 271.377L342.627 272.349C343.665 271.584 344.584 270.67 345.352 269.634L344.381 268.911ZM341.911 252.619C342.854 253.314 343.686 254.146 344.381 255.089L345.352 254.366C344.586 253.329 343.67 252.414 342.634 251.648L341.911 252.619ZM325.619 255.089C326.314 254.146 327.146 253.314 328.089 252.619L327.365 251.648C326.329 252.414 325.413 253.329 324.648 254.366L325.619 255.089ZM346.01 255.352L344.976 255.973C345.582 256.974 346.032 258.062 346.313 259.198L347.482 258.91C347.174 257.656 346.678 256.456 346.01 255.352ZM333.254 250.479C334.411 250.304 335.589 250.304 336.746 250.479L336.925 249.288C335.649 249.094 334.351 249.094 333.075 249.288L333.254 250.479ZM326.237 272.67L323.749 273.247L324.33 270.76L323.157 270.486L322.577 272.973C322.54 273.127 322.535 273.287 322.56 273.444C322.586 273.6 322.642 273.75 322.725 273.885C322.809 274.019 322.918 274.136 323.047 274.229C323.175 274.321 323.321 274.387 323.475 274.423C323.656 274.464 323.843 274.464 324.023 274.423L326.511 273.85L326.237 272.67ZM323.406 269.412L324.582 269.682L324.984 267.958C324.397 266.973 323.96 265.907 323.687 264.794L322.518 265.083C322.781 266.148 323.179 267.176 323.702 268.14L323.406 269.412ZM329.031 272.02L327.307 272.422L327.581 273.598L328.849 273.302C329.813 273.826 330.84 274.224 331.906 274.485L332.195 273.317C331.085 273.04 330.023 272.601 329.042 272.012L329.031 272.02ZM335 251.553C329.228 251.556 324.556 256.236 324.556 262.004C324.56 263.968 325.115 265.892 326.16 267.556L325.156 271.844L329.44 270.84C334.324 273.912 340.775 272.447 343.847 267.567C346.919 262.687 345.458 256.236 340.578 253.16C338.907 252.109 336.974 251.552 335 251.553Z" fill="#3A76F0"/>
<g filter="url(#filter1_d_304_2441)">
<circle cx="385" cy="201" r="20" fill="white"/>
</g>
<g clip-path="url(#clip2_304_2441)">
<path d="M394.741 189.571H375.259C374.811 189.571 374.382 189.749 374.066 190.066C373.749 190.382 373.572 190.811 373.572 191.259V210.741C373.572 211.189 373.749 211.618 374.066 211.934C374.382 212.251 374.811 212.429 375.259 212.429H394.741C395.189 212.429 395.618 212.251 395.934 211.934C396.251 211.618 396.429 211.189 396.429 210.741V191.259C396.429 190.811 396.251 190.382 395.934 190.066C395.618 189.749 395.189 189.571 394.741 189.571ZM380.384 209.043H376.948V198.127H380.384V209.043ZM378.664 196.614C378.274 196.612 377.893 196.494 377.57 196.276C377.247 196.058 376.996 195.749 376.849 195.388C376.701 195.027 376.664 194.631 376.741 194.249C376.819 193.867 377.008 193.516 377.284 193.242C377.561 192.967 377.912 192.78 378.295 192.705C378.677 192.63 379.074 192.67 379.433 192.82C379.793 192.97 380.101 193.223 380.317 193.547C380.533 193.872 380.648 194.253 380.648 194.643C380.651 194.904 380.602 195.163 380.504 195.405C380.405 195.646 380.259 195.866 380.074 196.05C379.889 196.234 379.669 196.378 379.426 196.475C379.184 196.572 378.925 196.62 378.664 196.614ZM393.051 209.052H389.616V203.089C389.616 201.33 388.868 200.787 387.903 200.787C386.884 200.787 385.884 201.556 385.884 203.133V209.052H382.448V198.135H385.752V199.648H385.797C386.129 198.976 387.291 197.829 389.064 197.829C390.981 197.829 393.052 198.967 393.052 202.3L393.051 209.052Z" fill="#0A66C2"/>
</g>
<g filter="url(#filter2_d_304_2441)">
<circle cx="436" cy="265" r="20" fill="white"/>
</g>
<g clip-path="url(#clip3_304_2441)">
<path d="M419.589 264.795C419.588 267.676 420.347 270.488 421.789 272.968L419.451 281.438L428.187 279.165C430.604 280.471 433.311 281.154 436.062 281.155H436.07C445.152 281.155 452.545 273.821 452.549 264.808C452.551 260.44 450.838 256.333 447.726 253.243C444.615 250.153 440.478 248.451 436.069 248.449C426.985 248.449 419.593 255.782 419.589 264.795" fill="url(#paint20_linear_304_2441)"/>
<path d="M419 264.79C419 267.774 419.785 270.687 421.279 273.255L418.857 282.03L427.907 279.675C430.4 281.024 433.208 281.735 436.064 281.736H436.072C445.48 281.736 453.139 274.139 453.143 264.803C453.144 260.278 451.37 256.024 448.147 252.823C444.924 249.623 440.638 247.859 436.072 247.857C426.662 247.857 419.004 255.453 419 264.79ZM424.39 272.813L424.052 272.281C422.631 270.04 421.882 267.45 421.883 264.791C421.886 257.03 428.251 250.717 436.077 250.717C439.867 250.719 443.429 252.185 446.108 254.845C448.787 257.505 450.262 261.041 450.261 264.802C450.257 272.562 443.892 278.876 436.072 278.876H436.066C433.52 278.875 431.022 278.197 428.844 276.914L428.326 276.609L422.956 278.006L424.39 272.813V272.813Z" fill="url(#paint21_linear_304_2441)"/>
<path d="M431.805 257.711C431.485 257.006 431.149 256.992 430.845 256.979C430.596 256.969 430.312 256.97 430.028 256.97C429.743 256.97 429.281 257.076 428.89 257.499C428.499 257.923 427.397 258.946 427.397 261.029C427.397 263.111 428.926 265.124 429.139 265.406C429.352 265.688 432.09 270.098 436.425 271.795C440.029 273.204 440.762 272.924 441.544 272.853C442.326 272.783 444.068 271.83 444.423 270.842C444.779 269.853 444.779 269.006 444.672 268.829C444.565 268.653 444.281 268.547 443.854 268.335C443.428 268.124 441.331 267.1 440.94 266.959C440.549 266.817 440.264 266.747 439.98 267.171C439.695 267.594 438.878 268.547 438.63 268.829C438.381 269.112 438.132 269.147 437.705 268.936C437.279 268.723 435.905 268.277 434.275 266.835C433.007 265.713 432.151 264.328 431.902 263.904C431.653 263.481 431.875 263.252 432.089 263.041C432.281 262.851 432.516 262.547 432.73 262.3C432.942 262.052 433.013 261.876 433.155 261.594C433.298 261.311 433.227 261.064 433.12 260.852C433.013 260.641 432.184 258.548 431.805 257.711Z" fill="white"/>
</g>
<g filter="url(#filter3_d_304_2441)">
<circle cx="328" cy="183" r="20" fill="white"/>
</g>
<g clip-path="url(#clip4_304_2441)">
<path d="M328 197.286C335.89 197.286 342.286 190.89 342.286 183C342.286 175.11 335.89 168.714 328 168.714C320.11 168.714 313.714 175.11 313.714 183C313.714 190.89 320.11 197.286 328 197.286Z" fill="url(#paint22_linear_304_2441)"/>
<path fill-rule="evenodd" clip-rule="evenodd" d="M320.181 182.849C324.345 181.035 327.122 179.838 328.512 179.261C332.479 177.61 333.304 177.324 333.841 177.314C333.959 177.312 334.223 177.342 334.394 177.48C334.539 177.598 334.579 177.756 334.598 177.867C334.617 177.978 334.64 178.232 334.622 178.43C334.407 180.689 333.476 186.17 333.003 188.7C332.803 189.771 332.409 190.13 332.027 190.165C331.197 190.241 330.567 189.617 329.764 189.09C328.506 188.266 327.796 187.753 326.576 186.948C325.165 186.019 326.08 185.508 326.883 184.673C327.094 184.455 330.749 181.13 330.82 180.829C330.829 180.791 330.837 180.65 330.753 180.576C330.67 180.502 330.546 180.527 330.457 180.547C330.331 180.576 328.323 181.903 324.432 184.53C323.862 184.922 323.345 185.112 322.882 185.102C322.372 185.091 321.391 184.814 320.662 184.577C319.767 184.286 319.056 184.132 319.118 183.638C319.15 183.381 319.505 183.118 320.181 182.849Z" fill="white"/>
</g>
<g filter="url(#filter4_d_304_2441)">
<circle cx="383" cy="312" r="20" fill="white"/>
</g>
<g clip-path="url(#clip5_304_2441)">
<path d="M397.286 312C397.286 304.11 390.89 297.714 383 297.714C375.11 297.714 368.714 304.11 368.714 312C368.714 319.13 373.938 325.04 380.768 326.112V316.129H377.141V312H380.768V308.853C380.768 305.272 382.901 303.295 386.164 303.295C387.726 303.295 389.362 303.574 389.362 303.574V307.089H387.56C385.786 307.089 385.232 308.191 385.232 309.321V312H389.194L388.561 316.129H385.232V326.112C392.062 325.04 397.286 319.13 397.286 312Z" fill="#1877F2"/>
<path d="M388.561 316.129L389.194 312H385.232V309.321C385.232 308.192 385.786 307.089 387.56 307.089H389.362V303.574C389.362 303.574 387.727 303.295 386.164 303.295C382.901 303.295 380.768 305.272 380.768 308.853V312H377.141V316.129H380.768V326.112C382.247 326.343 383.753 326.343 385.232 326.112V316.129H388.561Z" fill="white"/>
</g>
<g filter="url(#filter5_d_304_2441)">
<circle cx="465" cy="336" r="20" fill="white"/>
</g>
<g clip-path="url(#clip6_304_2441)">
<path d="M479.007 336.329C479.007 335.358 478.929 334.382 478.761 333.426H465.286V338.927H473.002C472.682 340.702 471.653 342.271 470.147 343.269V346.838H474.75C477.454 344.35 479.007 340.675 479.007 336.329Z" fill="#4285F4"/>
<path d="M465.286 350.287C469.139 350.287 472.388 349.022 474.755 346.838L470.152 343.268C468.871 344.14 467.218 344.633 465.291 344.633C461.564 344.633 458.404 342.119 457.27 338.738H452.52V342.418C454.945 347.242 459.884 350.287 465.286 350.287Z" fill="#34A853"/>
<path d="M457.265 338.738C456.667 336.964 456.667 335.043 457.265 333.269V329.589H452.52C450.493 333.626 450.493 338.381 452.52 342.418L457.265 338.738Z" fill="#FBBC04"/>
<path d="M465.286 327.369C467.323 327.337 469.291 328.103 470.766 329.51L474.845 325.432C472.262 323.007 468.834 321.673 465.286 321.715C459.884 321.715 454.945 324.76 452.52 329.589L457.265 333.269C458.394 329.883 461.559 327.369 465.286 327.369Z" fill="#EA4335"/>
</g>
<defs>
<filter id="filter0_d_304_2441" x="289" y="216" width="92" height="92" filterUnits="userSpaceOnUse" color-interpolation-filters="sRGB">
<feFlood flood-opacity="0" result="BackgroundImageFix"/>
<feColorMatrix in="SourceAlpha" type="matrix" values="0 0 0 0 0 0 0 0 0 0 0 0 0 0 0 0 0 0 127 0" result="hardAlpha"/>
<feOffset/>
<feGaussianBlur stdDeviation="13"/>
<feComposite in2="hardAlpha" operator="out"/>
<feColorMatrix type="matrix" values="0 0 0 0 0 0 0 0 0 0 0 0 0 0 0 0 0 0 0.16 0"/>
<feBlend mode="normal" in2="BackgroundImageFix" result="effect1_dropShadow_304_2441"/>
<feBlend mode="normal" in="SourceGraphic" in2="effect1_dropShadow_304_2441" result="shape"/>
</filter>
<filter id="filter1_d_304_2441" x="339" y="155" width="92" height="92" filterUnits="userSpaceOnUse" color-interpolation-filters="sRGB">
<feFlood flood-opacity="0" result="BackgroundImageFix"/>
<feColorMatrix in="SourceAlpha" type="matrix" values="0 0 0 0 0 0 0 0 0 0 0 0 0 0 0 0 0 0 127 0" result="hardAlpha"/>
<feOffset/>
<feGaussianBlur stdDeviation="13"/>
<feComposite in2="hardAlpha" operator="out"/>
<feColorMatrix type="matrix" values="0 0 0 0 0 0 0 0 0 0 0 0 0 0 0 0 0 0 0.16 0"/>
<feBlend mode="normal" in2="BackgroundImageFix" result="effect1_dropShadow_304_2441"/>
<feBlend mode="normal" in="SourceGraphic" in2="effect1_dropShadow_304_2441" result="shape"/>
</filter>
<filter id="filter2_d_304_2441" x="390" y="219" width="92" height="92" filterUnits="userSpaceOnUse" color-interpolation-filters="sRGB">
<feFlood flood-opacity="0" result="BackgroundImageFix"/>
<feColorMatrix in="SourceAlpha" type="matrix" values="0 0 0 0 0 0 0 0 0 0 0 0 0 0 0 0 0 0 127 0" result="hardAlpha"/>
<feOffset/>
<feGaussianBlur stdDeviation="13"/>
<feComposite in2="hardAlpha" operator="out"/>
<feColorMatrix type="matrix" values="0 0 0 0 0 0 0 0 0 0 0 0 0 0 0 0 0 0 0.16 0"/>
<feBlend mode="normal" in2="BackgroundImageFix" result="effect1_dropShadow_304_2441"/>
<feBlend mode="normal" in="SourceGraphic" in2="effect1_dropShadow_304_2441" result="shape"/>
</filter>
<filter id="filter3_d_304_2441" x="282" y="137" width="92" height="92" filterUnits="userSpaceOnUse" color-interpolation-filters="sRGB">
<feFlood flood-opacity="0" result="BackgroundImageFix"/>
<feColorMatrix in="SourceAlpha" type="matrix" values="0 0 0 0 0 0 0 0 0 0 0 0 0 0 0 0 0 0 127 0" result="hardAlpha"/>
<feOffset/>
<feGaussianBlur stdDeviation="13"/>
<feComposite in2="hardAlpha" operator="out"/>
<feColorMatrix type="matrix" values="0 0 0 0 0 0 0 0 0 0 0 0 0 0 0 0 0 0 0.16 0"/>
<feBlend mode="normal" in2="BackgroundImageFix" result="effect1_dropShadow_304_2441"/>
<feBlend mode="normal" in="SourceGraphic" in2="effect1_dropShadow_304_2441" result="shape"/>
</filter>
<filter id="filter4_d_304_2441" x="337" y="266" width="92" height="92" filterUnits="userSpaceOnUse" color-interpolation-filters="sRGB">
<feFlood flood-opacity="0" result="BackgroundImageFix"/>
<feColorMatrix in="SourceAlpha" type="matrix" values="0 0 0 0 0 0 0 0 0 0 0 0 0 0 0 0 0 0 127 0" result="hardAlpha"/>
<feOffset/>
<feGaussianBlur stdDeviation="13"/>
<feComposite in2="hardAlpha" operator="out"/>
<feColorMatrix type="matrix" values="0 0 0 0 0 0 0 0 0 0 0 0 0 0 0 0 0 0 0.16 0"/>
<feBlend mode="normal" in2="BackgroundImageFix" result="effect1_dropShadow_304_2441"/>
<feBlend mode="normal" in="SourceGraphic" in2="effect1_dropShadow_304_2441" result="shape"/>
</filter>
<filter id="filter5_d_304_2441" x="419" y="290" width="92" height="92" filterUnits="userSpaceOnUse" color-interpolation-filters="sRGB">
<feFlood flood-opacity="0" result="BackgroundImageFix"/>
<feColorMatrix in="SourceAlpha" type="matrix" values="0 0 0 0 0 0 0 0 0 0 0 0 0 0 0 0 0 0 127 0" result="hardAlpha"/>
<feOffset/>
<feGaussianBlur stdDeviation="13"/>
<feComposite in2="hardAlpha" operator="out"/>
<feColorMatrix type="matrix" values="0 0 0 0 0 0 0 0 0 0 0 0 0 0 0 0 0 0 0.16 0"/>
<feBlend mode="normal" in2="BackgroundImageFix" result="effect1_dropShadow_304_2441"/>
<feBlend mode="normal" in="SourceGraphic" in2="effect1_dropShadow_304_2441" result="shape"/>
</filter>
<linearGradient id="paint0_linear_304_2441" x1="518.76" y1="357.513" x2="574.031" y2="280.3" gradientUnits="userSpaceOnUse">
<stop stop-color="#FCB148"/>
<stop offset="0.0521" stop-color="#FDBA46"/>
<stop offset="0.1424" stop-color="#FFC244"/>
<stop offset="0.3183" stop-color="#FFC444"/>
<stop offset="0.4849" stop-color="#FDB946"/>
<stop offset="0.7754" stop-color="#F99C4D"/>
<stop offset="0.8658" stop-color="#F8924F"/>
<stop offset="1" stop-color="#F8924F"/>
</linearGradient>
<linearGradient id="paint1_linear_304_2441" x1="499.397" y1="343.653" x2="554.669" y2="266.439" gradientUnits="userSpaceOnUse">
<stop stop-color="#FCB148"/>
<stop offset="0.0521" stop-color="#FDBA46"/>
<stop offset="0.1424" stop-color="#FFC244"/>
<stop offset="0.3183" stop-color="#FFC444"/>
<stop offset="0.4849" stop-color="#FDB946"/>
<stop offset="0.7754" stop-color="#F99C4D"/>
<stop offset="0.8658" stop-color="#F8924F"/>
<stop offset="1" stop-color="#F8924F"/>
</linearGradient>
<linearGradient id="paint2_linear_304_2441" x1="583.666" y1="67.4039" x2="454.335" y2="336.732" gradientUnits="userSpaceOnUse">
<stop stop-color="#FFED50"/>
<stop offset="0.0521" stop-color="#FDBA46"/>
<stop offset="0.1424" stop-color="#FFC244"/>
<stop offset="0.3183" stop-color="#FFC444"/>
<stop offset="0.4849" stop-color="#FDB946"/>
<stop offset="0.7754" stop-color="#F99C4D"/>
<stop offset="0.8658" stop-color="#F8924F"/>
<stop offset="1" stop-color="#F8924F"/>
</linearGradient>
<linearGradient id="paint3_linear_304_2441" x1="644.934" y1="74.7238" x2="515.603" y2="344.052" gradientUnits="userSpaceOnUse">
<stop stop-color="#FCB148"/>
<stop offset="0.0521" stop-color="#FDBA46"/>
<stop offset="0.1424" stop-color="#FFC244"/>
<stop offset="0.3183" stop-color="#FFC444"/>
<stop offset="0.4849" stop-color="#FDB946"/>
<stop offset="0.7754" stop-color="#F99C4D"/>
<stop offset="0.8658" stop-color="#F8924F"/>
<stop offset="1" stop-color="#F8924F"/>
</linearGradient>
<linearGradient id="paint4_linear_304_2441" x1="582.116" y1="70.3447" x2="465.185" y2="313.85" gradientUnits="userSpaceOnUse">
<stop stop-color="#FCB148"/>
<stop offset="0.0521" stop-color="#FDBA46"/>
<stop offset="0.1424" stop-color="#FFC244"/>
<stop offset="0.3183" stop-color="#FFC444"/>
<stop offset="0.4849" stop-color="#FDB946"/>
<stop offset="0.7754" stop-color="#F99C4D"/>
<stop offset="0.8658" stop-color="#F8924F"/>
<stop offset="1" stop-color="#F8924F"/>
</linearGradient>
<linearGradient id="paint5_linear_304_2441" x1="606.727" y1="371.325" x2="571.528" y2="382.29" gradientUnits="userSpaceOnUse">
<stop stop-color="#FCB148"/>
<stop offset="0.0521" stop-color="#FDBA46"/>
<stop offset="0.1424" stop-color="#FFC244"/>
<stop offset="0.3183" stop-color="#FFC444"/>
<stop offset="0.4849" stop-color="#FDB946"/>
<stop offset="0.7754" stop-color="#F99C4D"/>
<stop offset="0.8658" stop-color="#F8924F"/>
<stop offset="1" stop-color="#F8924F"/>
</linearGradient>
<linearGradient id="paint6_linear_304_2441" x1="635.048" y1="335.423" x2="602.219" y2="405.725" gradientUnits="userSpaceOnUse">
<stop stop-color="#FFDB44"/>
<stop offset="1" stop-color="#FEEF06"/>
</linearGradient>
<linearGradient id="paint7_linear_304_2441" x1="629.299" y1="410.431" x2="622.911" y2="376.557" gradientUnits="userSpaceOnUse">
<stop stop-color="#FCB148"/>
<stop offset="0.0521" stop-color="#FDBA46"/>
<stop offset="0.1424" stop-color="#FFC244"/>
<stop offset="0.3183" stop-color="#FFC444"/>
<stop offset="0.4849" stop-color="#FDB946"/>
<stop offset="0.7754" stop-color="#F99C4D"/>
<stop offset="0.8658" stop-color="#F8924F"/>
<stop offset="1" stop-color="#F8924F"/>
</linearGradient>
<linearGradient id="paint8_linear_304_2441" x1="616.513" y1="355.494" x2="642.6" y2="409.247" gradientUnits="userSpaceOnUse">
<stop stop-color="#FCB148"/>
<stop offset="0.0521" stop-color="#FDBA46"/>
<stop offset="0.1424" stop-color="#FFC244"/>
<stop offset="0.3183" stop-color="#FFC444"/>
<stop offset="0.4849" stop-color="#FDB946"/>
<stop offset="0.7754" stop-color="#F99C4D"/>
<stop offset="0.8658" stop-color="#F8924F"/>
<stop offset="1" stop-color="#F8924F"/>
</linearGradient>
<linearGradient id="paint9_linear_304_2441" x1="609.201" y1="359.011" x2="635.236" y2="412.656" gradientUnits="userSpaceOnUse">
<stop stop-color="#FCB148"/>
<stop offset="0.0521" stop-color="#FDBA46"/>
<stop offset="0.1424" stop-color="#FFC244"/>
<stop offset="0.3183" stop-color="#FFC444"/>
<stop offset="0.4849" stop-color="#FDB946"/>
<stop offset="0.7754" stop-color="#F99C4D"/>
<stop offset="0.8658" stop-color="#F8924F"/>
<stop offset="1" stop-color="#F8924F"/>
</linearGradient>
<linearGradient id="paint10_linear_304_2441" x1="690.141" y1="359.872" x2="628.243" y2="379.154" gradientUnits="userSpaceOnUse">
<stop stop-color="#FCB148"/>
<stop offset="0.0521" stop-color="#FDBA46"/>
<stop offset="0.1424" stop-color="#FFC244"/>
<stop offset="0.3183" stop-color="#FFC444"/>
<stop offset="0.4849" stop-color="#FDB946"/>
<stop offset="0.7754" stop-color="#F99C4D"/>
<stop offset="0.8658" stop-color="#F8924F"/>
<stop offset="1" stop-color="#F8924F"/>
</linearGradient>
<linearGradient id="paint11_linear_304_2441" x1="739.943" y1="296.738" x2="682.212" y2="420.365" gradientUnits="userSpaceOnUse">
<stop stop-color="#FFDB44"/>
<stop offset="1" stop-color="#FEEF06"/>
</linearGradient>
<linearGradient id="paint12_linear_304_2441" x1="729.833" y1="428.64" x2="718.599" y2="369.073" gradientUnits="userSpaceOnUse">
<stop stop-color="#FCB148"/>
<stop offset="0.0521" stop-color="#FDBA46"/>
<stop offset="0.1424" stop-color="#FFC244"/>
<stop offset="0.3183" stop-color="#FFC444"/>
<stop offset="0.4849" stop-color="#FDB946"/>
<stop offset="0.7754" stop-color="#F99C4D"/>
<stop offset="0.8658" stop-color="#F8924F"/>
<stop offset="1" stop-color="#F8924F"/>
</linearGradient>
<linearGradient id="paint13_linear_304_2441" x1="707.349" y1="332.033" x2="753.224" y2="426.559" gradientUnits="userSpaceOnUse">
<stop stop-color="#FCB148"/>
<stop offset="0.0521" stop-color="#FDBA46"/>
<stop offset="0.1424" stop-color="#FFC244"/>
<stop offset="0.3183" stop-color="#FFC444"/>
<stop offset="0.4849" stop-color="#FDB946"/>
<stop offset="0.7754" stop-color="#F99C4D"/>
<stop offset="0.8658" stop-color="#F8924F"/>
<stop offset="1" stop-color="#F8924F"/>
</linearGradient>
<linearGradient id="paint14_linear_304_2441" x1="694.491" y1="338.218" x2="740.274" y2="432.553" gradientUnits="userSpaceOnUse">
<stop stop-color="#FCB148"/>
<stop offset="0.0521" stop-color="#FDBA46"/>
<stop offset="0.1424" stop-color="#FFC244"/>
<stop offset="0.3183" stop-color="#FFC444"/>
<stop offset="0.4849" stop-color="#FDB946"/>
<stop offset="0.7754" stop-color="#F99C4D"/>
<stop offset="0.8658" stop-color="#F8924F"/>
<stop offset="1" stop-color="#F8924F"/>
</linearGradient>
<linearGradient id="paint15_linear_304_2441" x1="733.061" y1="246.774" x2="643.318" y2="274.73" gradientUnits="userSpaceOnUse">
<stop stop-color="#FCB148"/>
<stop offset="0.0521" stop-color="#FDBA46"/>
<stop offset="0.1424" stop-color="#FFC244"/>
<stop offset="0.3183" stop-color="#FFC444"/>
<stop offset="0.4849" stop-color="#FDB946"/>
<stop offset="0.7754" stop-color="#F99C4D"/>
<stop offset="0.8658" stop-color="#F8924F"/>
<stop offset="1" stop-color="#F8924F"/>
</linearGradient>
<linearGradient id="paint16_linear_304_2441" x1="805.266" y1="155.24" x2="721.566" y2="334.479" gradientUnits="userSpaceOnUse">
<stop stop-color="#FFDB44"/>
<stop offset="1" stop-color="#FEEF06"/>
</linearGradient>
<linearGradient id="paint17_linear_304_2441" x1="790.608" y1="346.477" x2="774.322" y2="260.114" gradientUnits="userSpaceOnUse">
<stop stop-color="#FCB148"/>
<stop offset="0.0521" stop-color="#FDBA46"/>
<stop offset="0.1424" stop-color="#FFC244"/>
<stop offset="0.3183" stop-color="#FFC444"/>
<stop offset="0.4849" stop-color="#FDB946"/>
<stop offset="0.7754" stop-color="#F99C4D"/>
<stop offset="0.8658" stop-color="#F8924F"/>
<stop offset="1" stop-color="#F8924F"/>
</linearGradient>
<linearGradient id="paint18_linear_304_2441" x1="758.01" y1="206.411" x2="824.522" y2="343.46" gradientUnits="userSpaceOnUse">
<stop stop-color="#FCB148"/>
<stop offset="0.0521" stop-color="#FDBA46"/>
<stop offset="0.1424" stop-color="#FFC244"/>
<stop offset="0.3183" stop-color="#FFC444"/>
<stop offset="0.4849" stop-color="#FDB946"/>
<stop offset="0.7754" stop-color="#F99C4D"/>
<stop offset="0.8658" stop-color="#F8924F"/>
<stop offset="1" stop-color="#F8924F"/>
</linearGradient>
<linearGradient id="paint19_linear_304_2441" x1="739.368" y1="215.379" x2="805.746" y2="352.151" gradientUnits="userSpaceOnUse">
<stop stop-color="#FCB148"/>
<stop offset="0.0521" stop-color="#FDBA46"/>
<stop offset="0.1424" stop-color="#FFC244"/>
<stop offset="0.3183" stop-color="#FFC444"/>
<stop offset="0.4849" stop-color="#FDB946"/>
<stop offset="0.7754" stop-color="#F99C4D"/>
<stop offset="0.8658" stop-color="#F8924F"/>
<stop offset="1" stop-color="#F8924F"/>
</linearGradient>
<linearGradient id="paint20_linear_304_2441" x1="2074.36" y1="3547.39" x2="2074.36" y2="248.449" gradientUnits="userSpaceOnUse">
<stop stop-color="#1FAF38"/>
<stop offset="1" stop-color="#60D669"/>
</linearGradient>
<linearGradient id="paint21_linear_304_2441" x1="2133.14" y1="3665.09" x2="2133.14" y2="247.857" gradientUnits="userSpaceOnUse">
<stop stop-color="#F9F9F9"/>
<stop offset="1" stop-color="white"/>
</linearGradient>
<linearGradient id="paint22_linear_304_2441" x1="328" y1="168.714" x2="328" y2="197.074" gradientUnits="userSpaceOnUse">
<stop stop-color="#2AABEE"/>
<stop offset="1" stop-color="#229ED9"/>
</linearGradient>
<clipPath id="clip0_304_2441">
<rect width="260" height="255.089" fill="white" transform="translate(587 154.175)"/>
</clipPath>
<clipPath id="clip1_304_2441">
<rect width="301" height="276" fill="white" transform="translate(0 90)"/>
</clipPath>
<clipPath id="clip2_304_2441">
<rect width="22.8571" height="22.8571" fill="white" transform="translate(373.572 189.571)"/>
</clipPath>
<clipPath id="clip3_304_2441">
<rect width="34.2857" height="34.2857" fill="white" transform="translate(418.857 247.857)"/>
</clipPath>
<clipPath id="clip4_304_2441">
<rect width="28.5714" height="28.5714" fill="white" transform="translate(313.714 168.714)"/>
</clipPath>
<clipPath id="clip5_304_2441">
<rect width="28.5714" height="28.5714" fill="white" transform="translate(368.714 297.714)"/>
</clipPath>
<clipPath id="clip6_304_2441">
<rect width="28.5714" height="28.5714" fill="white" transform="translate(450.714 321.714)"/>
</clipPath>
</defs>
</svg>
