<svg width="24" height="20" viewBox="0 0 24 20" fill="none" xmlns="http://www.w3.org/2000/svg">
<path fill-rule="evenodd" clip-rule="evenodd" d="M17.9268 0C19.536 0 21.084 0.588889 22.2228 1.64556C23.3628 2.7 24 4.12222 24 5.61111V14.3889C24 17.4889 21.276 20 17.9268 20H6.072C2.7228 20 0 17.4889 0 14.3889V5.61111C0 2.51111 2.7108 0 6.072 0H17.9268ZM19.836 7.26676L19.932 7.17787C20.2188 6.85565 20.2188 6.38898 19.9188 6.06676C19.752 5.90121 19.5228 5.80009 19.284 5.77787C19.032 5.76565 18.792 5.84454 18.6108 6.00009L13.2 10.0001C12.504 10.5345 11.5068 10.5345 10.8 10.0001L5.39999 6.00009C5.02679 5.74454 4.51079 5.77787 4.19999 6.07787C3.87599 6.37787 3.83999 6.85565 4.11479 7.18898L4.27199 7.33343L9.73199 11.2779C10.404 11.7668 11.2188 12.0334 12.072 12.0334C12.9228 12.0334 13.752 11.7668 14.4228 11.2779L19.836 7.26676Z" fill="black"/>
</svg>
