<svg width="30" height="30" viewBox="0 0 30 30" fill="none" xmlns="http://www.w3.org/2000/svg">
<g clip-path="url(#clip0_309_2808)">
<path d="M29.2858 14.9999C29.2858 7.11016 22.8899 0.714233 15.0001 0.714233C7.11028 0.714233 0.714355 7.11016 0.714355 14.9999C0.714355 22.1302 5.93841 28.0404 12.7679 29.1121V19.1294H9.14069V14.9999H12.7679V11.8526C12.7679 8.27227 14.9007 6.29459 18.1639 6.29459C19.7264 6.29459 21.3617 6.57361 21.3617 6.57361V10.0892H19.5603C17.7858 10.0892 17.2322 11.1905 17.2322 12.3214V14.9999H21.1943L20.5609 19.1294H17.2322V29.1121C24.0617 28.0404 29.2858 22.1302 29.2858 14.9999Z" fill="#1877F2"/>
<path d="M20.5608 19.1294L21.1942 14.9999H17.2321V12.3213C17.2321 11.1916 17.7857 10.0892 19.5603 10.0892H21.3616V6.57357C21.3616 6.57357 19.7268 6.29456 18.1638 6.29456C14.9007 6.29456 12.7679 8.27223 12.7679 11.8526V14.9999H9.14062V19.1294H12.7679V29.1121C14.247 29.3435 15.753 29.3435 17.2321 29.1121V19.1294H20.5608Z" fill="white"/>
</g>
<defs>
<clipPath id="clip0_309_2808">
<rect width="28.5714" height="28.5714" fill="white" transform="translate(0.714355 0.714233)"/>
</clipPath>
</defs>
</svg>
