<?xml version="1.0" encoding="UTF-8"?>
<!DOCTYPE svg PUBLIC "-//W3C//DTD SVG 1.1//EN" "http://www.w3.org/Graphics/SVG/1.1/DTD/svg11.dtd">
<!-- Creator: CorelDRAW -->
<svg xmlns="http://www.w3.org/2000/svg" xml:space="preserve" width="124.883mm" height="108.02mm" version="1.1" style="shape-rendering:geometricPrecision; text-rendering:geometricPrecision; image-rendering:optimizeQuality; fill-rule:evenodd; clip-rule:evenodd"
viewBox="0 0 124.883 108.02"
 xmlns:xlink="http://www.w3.org/1999/xlink"
 xmlns:xodm="http://www.corel.com/coreldraw/odm/2003">
 <defs>
  <style type="text/css">
   <![CDATA[
    .fil8 {fill:none;fill-rule:nonzero}
    .fil0 {fill:#006CEB;fill-rule:nonzero}
    .fil1 {fill:#2D8DFF;fill-rule:nonzero}
    .fil3 {fill:#69ADFE;fill-rule:nonzero}
    .fil11 {fill:#FFB800;fill-rule:nonzero}
    .fil20 {fill:#FFE70C;fill-rule:nonzero}
    .fil6 {fill:white;fill-rule:nonzero;fill-opacity:0.000000}
    .fil5 {fill:#F2F8FF;fill-rule:nonzero;fill-opacity:0.301961}
    .fil2 {fill:#F4F7FA;fill-rule:nonzero;fill-opacity:0.301961}
    .fil15 {fill:#FFEB33;fill-rule:nonzero;fill-opacity:0.501961}
    .fil4 {fill:white;fill-rule:nonzero;fill-opacity:0.529412}
    .fil7 {fill:white;fill-rule:nonzero}
    .fil10 {fill:url(#id11);fill-rule:nonzero}
    .fil17 {fill:url(#id12);fill-rule:nonzero}
    .fil27 {fill:url(#id13);fill-rule:nonzero}
    .fil9 {fill:url(#id14);fill-rule:nonzero}
    .fil16 {fill:url(#id15);fill-rule:nonzero}
    .fil23 {fill:url(#id16);fill-rule:nonzero}
    .fil28 {fill:url(#id17);fill-rule:nonzero}
    .fil22 {fill:url(#id18);fill-rule:nonzero}
    .fil19 {fill:url(#id19);fill-rule:nonzero}
    .fil14 {fill:url(#id20);fill-rule:nonzero}
    .fil24 {fill:url(#id21);fill-rule:nonzero}
    .fil25 {fill:url(#id22);fill-rule:nonzero}
    .fil30 {fill:url(#id23);fill-rule:nonzero}
    .fil18 {fill:url(#id24);fill-rule:nonzero}
    .fil13 {fill:url(#id25);fill-rule:nonzero}
    .fil29 {fill:url(#id26);fill-rule:nonzero}
    .fil12 {fill:url(#id27);fill-rule:nonzero}
    .fil21 {fill:url(#id28);fill-rule:nonzero;fill-opacity:0.301961}
    .fil26 {fill:url(#id29);fill-rule:nonzero;fill-opacity:0.301961}
    .fil31 {fill:url(#id30);fill-rule:nonzero;fill-opacity:0.301961}
   ]]>
  </style>
   <clipPath id="id0" style="clip-rule:nonzero">
    <path d="M67.8017 28.6455c0,4.5114 -3.4287,8.0502 -7.7994,7.8991 -4.5344,-0.1569 -8.3367,-4.1979 -8.3367,-9.0202 0,-4.8221 3.8026,-8.3347 8.3367,-7.8616 4.3707,0.456 7.7994,4.4712 7.7994,8.9827z"/>
   </clipPath>
   <clipPath id="id1" style="clip-rule:nonzero">
    <path d="M67.8017 28.6455c0,4.5114 -3.4287,8.0502 -7.7994,7.8991 -4.5344,-0.1569 -8.3367,-4.1979 -8.3367,-9.0202 0,-4.8221 3.8026,-8.3347 8.3367,-7.8616 4.3707,0.456 7.7994,4.4712 7.7994,8.9827z"/>
   </clipPath>
   <clipPath id="id2" style="clip-rule:nonzero">
    <path d="M52.3622 8.1907c0,3.3836 -2.5717,6.0376 -5.8497,5.9242 -3.4009,-0.1176 -6.2526,-3.1483 -6.2526,-6.7649 0,-3.6167 2.8519,-6.2511 6.2526,-5.8963 3.278,0.3419 5.8497,3.3534 5.8497,6.737z"/>
   </clipPath>
   <clipPath id="id3" style="clip-rule:nonzero">
    <path d="M52.3622 8.1907c0,3.3836 -2.5717,6.0376 -5.8497,5.9242 -3.4009,-0.1176 -6.2526,-3.1483 -6.2526,-6.7649 0,-3.6167 2.8519,-6.2511 6.2526,-5.8963 3.278,0.3419 5.8497,3.3534 5.8497,6.737z"/>
   </clipPath>
   <clipPath id="id4" style="clip-rule:nonzero">
    <path d="M30.6664 14.8052c0,3.3836 -2.5718,6.0377 -5.8497,5.9243 -3.401,-0.1177 -6.2526,-3.1483 -6.2526,-6.765 0,-3.6166 2.8519,-6.2511 6.2526,-5.8963 3.2779,0.342 5.8497,3.3534 5.8497,6.737z"/>
   </clipPath>
   <clipPath id="id5" style="clip-rule:nonzero">
    <path d="M30.6664 14.8052c0,3.3836 -2.5718,6.0377 -5.8497,5.9243 -3.401,-0.1177 -6.2526,-3.1483 -6.2526,-6.765 0,-3.6166 2.8519,-6.2511 6.2526,-5.8963 3.2779,0.342 5.8497,3.3534 5.8497,6.737z"/>
   </clipPath>
   <clipPath id="id6" style="clip-rule:nonzero">
    <path d="M16.6435 27.5051c0,3.3838 -2.5718,6.0378 -5.8497,5.9243 -3.401,-0.1175 -6.2527,-3.1483 -6.2527,-6.7649 0,-3.6166 2.852,-6.2511 6.2527,-5.8963 3.2779,0.342 5.8497,3.3534 5.8497,6.7369z"/>
   </clipPath>
   <clipPath id="id7" style="clip-rule:nonzero">
    <path d="M16.6435 27.5051c0,3.3838 -2.5718,6.0378 -5.8497,5.9243 -3.401,-0.1175 -6.2527,-3.1483 -6.2527,-6.7649 0,-3.6166 2.852,-6.2511 6.2527,-5.8963 3.2779,0.342 5.8497,3.3534 5.8497,6.7369z"/>
   </clipPath>
   <clipPath id="id8" style="clip-rule:nonzero">
    <path d="M43.8955 31.2093c0,3.3837 -2.5717,6.0378 -5.8496,5.9243 -3.401,-0.1175 -6.2527,-3.1483 -6.2527,-6.7649 0,-3.6166 2.852,-6.2511 6.2527,-5.8963 3.2779,0.342 5.8496,3.3534 5.8496,6.7369z"/>
   </clipPath>
   <clipPath id="id9" style="clip-rule:nonzero">
    <path d="M43.8955 31.2093c0,3.3837 -2.5717,6.0378 -5.8496,5.9243 -3.401,-0.1175 -6.2527,-3.1483 -6.2527,-6.7649 0,-3.6166 2.852,-6.2511 6.2527,-5.8963 3.2779,0.342 5.8496,3.3534 5.8496,6.7369z"/>
   </clipPath>
   <clipPath id="id10" style="clip-rule:nonzero">
    <path d="M56.0492 108.0273l68.7917 0 0 -67.4922 -68.7917 0 0 67.4922z"/>
   </clipPath>
  <linearGradient id="id11" gradientUnits="userSpaceOnUse" x1="32.7658" y1="90.495" x2="47.3179" y2="70.122">
   <stop offset="0" style="stop-opacity:1; stop-color:#FCB148"/>
   <stop offset="0.0509804" style="stop-opacity:1; stop-color:#FDBA46"/>
   <stop offset="0.141176" style="stop-opacity:1; stop-color:#FFC244"/>
   <stop offset="0.321569" style="stop-opacity:1; stop-color:#FFC444"/>
   <stop offset="0.490196" style="stop-opacity:1; stop-color:#FDB946"/>
   <stop offset="0.780392" style="stop-opacity:1; stop-color:#F99C4D"/>
   <stop offset="0.870588" style="stop-opacity:1; stop-color:#F8924F"/>
   <stop offset="1" style="stop-opacity:1; stop-color:#F8924F"/>
  </linearGradient>
  <linearGradient id="id12" gradientUnits="userSpaceOnUse" x1="68.7491" y1="88.7987" x2="60.0179" y2="106.7098">
   <stop offset="0" style="stop-opacity:1; stop-color:#FFDB44"/>
   <stop offset="1" style="stop-opacity:1; stop-color:#FEEF06"/>
  </linearGradient>
  <linearGradient id="id13" gradientUnits="userSpaceOnUse" xlink:href="#id11" x1="94.6783" y1="65.1354" x2="70.8658" y2="72.2998">
  </linearGradient>
  <linearGradient id="id14" gradientUnits="userSpaceOnUse" xlink:href="#id11" x1="37.7929" y1="94.1991" x2="52.6095" y2="73.8262">
  </linearGradient>
  <linearGradient id="id15" gradientUnits="userSpaceOnUse" xlink:href="#id11" x1="61.0762" y1="98.023" x2="51.8158" y2="100.8376">
  </linearGradient>
  <linearGradient id="id16" gradientUnits="userSpaceOnUse" xlink:href="#id12" x1="96.2658" y1="78.7992" x2="81.1845" y2="110.5279">
  </linearGradient>
  <linearGradient id="id17" gradientUnits="userSpaceOnUse" xlink:href="#id12" x1="113.7283" y1="41.8187" x2="91.5033" y2="87.62">
  </linearGradient>
  <linearGradient id="id18" gradientUnits="userSpaceOnUse" xlink:href="#id11" x1="83.3012" y1="94.9415" x2="66.897" y2="100.059">
  </linearGradient>
  <linearGradient id="id19" gradientUnits="userSpaceOnUse" xlink:href="#id11" x1="63.722" y1="93.8949" x2="70.6012" y2="107.7119">
  </linearGradient>
  <linearGradient id="id20" gradientUnits="userSpaceOnUse" xlink:href="#id11" x1="54.7262" y1="18.2638" x2="23.77" y2="82.5575">
  </linearGradient>
  <linearGradient id="id21" gradientUnits="userSpaceOnUse" xlink:href="#id11" x1="93.62" y1="112.5516" x2="90.7095" y2="97.4553">
  </linearGradient>
  <linearGradient id="id22" gradientUnits="userSpaceOnUse" xlink:href="#id11" x1="87.7991" y1="87.9725" x2="99.97" y2="112.0237">
  </linearGradient>
  <linearGradient id="id23" gradientUnits="userSpaceOnUse" xlink:href="#id11" x1="101.2929" y1="54.8127" x2="118.7554" y2="89.8661">
  </linearGradient>
  <linearGradient id="id24" gradientUnits="userSpaceOnUse" xlink:href="#id11" x1="67.1616" y1="107.9761" x2="65.3095" y2="99.2766">
  </linearGradient>
  <linearGradient id="id25" gradientUnits="userSpaceOnUse" xlink:href="#id11" x1="71.1304" y1="19.3221" x2="36.9991" y2="90.7595">
  </linearGradient>
  <linearGradient id="id26" gradientUnits="userSpaceOnUse" xlink:href="#id11" x1="109.7595" y1="90.6571" x2="105.5262" y2="68.6524">
  </linearGradient>
  <linearGradient id="id27" gradientUnits="userSpaceOnUse" x1="54.9908" y1="17.47" x2="20.8595" y2="88.6429">
   <stop offset="0" style="stop-opacity:1; stop-color:#FFED50"/>
   <stop offset="0.0509804" style="stop-opacity:1; stop-color:#FDBA46"/>
   <stop offset="0.141176" style="stop-opacity:1; stop-color:#FFC244"/>
   <stop offset="0.321569" style="stop-opacity:1; stop-color:#FFC444"/>
   <stop offset="0.490196" style="stop-opacity:1; stop-color:#FDB946"/>
   <stop offset="0.780392" style="stop-opacity:1; stop-color:#F99C4D"/>
   <stop offset="0.870588" style="stop-opacity:1; stop-color:#F8924F"/>
   <stop offset="1" style="stop-opacity:1; stop-color:#F8924F"/>
  </linearGradient>
  <linearGradient id="id28" gradientUnits="userSpaceOnUse" xlink:href="#id11" x1="61.87" y1="94.7248" x2="68.7491" y2="108.7389">
  </linearGradient>
  <linearGradient id="id29" gradientUnits="userSpaceOnUse" xlink:href="#id11" x1="84.3595" y1="89.1657" x2="96.5304" y2="114.0207">
  </linearGradient>
  <linearGradient id="id30" gradientUnits="userSpaceOnUse" xlink:href="#id11" x1="96.2658" y1="56.6192" x2="113.7283" y2="92.8442">
  </linearGradient>
 </defs>
 <g id="Слой_x0020_1">
  <metadata id="CorelCorpID_0Corel-Layer"/>
  <path class="fil0" d="M82.9425 13.5567l-1.1599 -1.1138 -1.4254 6.9527 -8.9437 18.3293 0.9946 1.1136 6.1799 -0.0026 0 25.6085c0,16.7685 -13.52,30.7136 -31.0364,32.0122l-47.5941 2.5157 0.0897 0.8194 19.7162 5.3848 34.924 -2.9083c19.9199,-1.6444 35.2128,-17.5575 35.2128,-36.6409l0 -26.97 5.5722 -0.3069 -12.5299 -24.7937z"/>
  <path class="fil1" d="M81.7826 12.4429l-10.3693 25.282 6.0825 -0.0026 0 25.6082c0,16.7688 -13.3078,30.7136 -30.5496,32.0125l-46.9887 3.6293 19.9208 5.0352 34.0923 -2.8538c19.6075,-1.6443 34.6604,-17.5572 34.6604,-36.6408l0 -26.9692 5.4848 -0.3069 -12.3332 -24.7939z"/>
  <g id="_2322354744224">
   <path class="fil2" d="M85.5523 65.9184c-1.611,-6.8715 -5.4163,-10.0851 -5.2554,-18.4155 0.126,-6.5316 2.5612,-9.5237 4.0344,-14.7612 0.9975,-3.5451 1.5589,-8.1384 0.6098,-13.9496l-3.1585 -6.3492 -10.3693 25.282 6.0825 -0.0026 0 25.6082c0,16.7688 -13.3078,30.7136 -30.5496,32.0125l-46.9887 3.6293 19.9208 5.0352 34.0923 -2.8538c14.1081,-1.1829 25.8577,-9.7538 31.3394,-21.577 1.0617,-4.4072 1.3134,-9.0898 0.2423,-13.6583z"/>
  </g>
  <path class="fil0" d="M68.1017 29.2405c0,5.4991 -4.173,9.8248 -9.5067,9.656 -5.5504,-0.1754 -10.2187,-5.1152 -10.2187,-11.0263 0,-5.9109 4.6683,-10.2018 10.2187,-9.6063 5.3337,0.5724 9.5067,5.4778 9.5067,10.9766z"/>
  <path class="fil3" d="M69.5429 28.7664c0,5.4991 -4.173,9.8248 -9.5065,9.6562 -5.5506,-0.1759 -10.219,-5.1154 -10.219,-11.0262 0,-5.9112 4.6684,-10.2021 10.219,-9.6065 5.3335,0.5721 9.5065,5.4775 9.5065,10.9765z"/>
  <path class="fil1" d="M69.1244 28.7373c0,5.2567 -3.9929,9.385 -9.0877,9.2152 -5.293,-0.1765 -9.7369,-4.8906 -9.7369,-10.5228 0,-5.6322 4.4439,-9.7287 9.7366,-9.17 5.0951,0.5378 9.088,5.2209 9.088,10.4776z"/>
  <path class="fil4" d="M68.6828 28.7066c0,5.0043 -3.8032,8.9294 -8.6514,8.7617 -5.0294,-0.1739 -9.2472,-4.6559 -9.2472,-10.0047 0,-5.349 4.218,-9.2451 9.2475,-8.7205 4.8479,0.5059 8.6511,4.9593 8.6511,9.9635z"/>
  <path class="fil5" d="M58.446 29.9612c0.2969,-3.0215 2.9919,-4.3007 2.6403,-7.0803 -0.2167,-1.7131 -1.4769,-3.1569 -2.8826,-4.2842 -4.2635,0.4609 -7.5608,4.0989 -7.5608,8.8568 0,5.4338 4.2844,9.9867 9.3933,10.1632 0.4961,0.0172 0.9805,-0.0093 1.4518,-0.073 -2.0289,-2.0804 -3.297,-4.9864 -3.042,-7.5825z"/>
  <g style="clip-path:url(#id0)">
   <polygon class="fil6" points="51.6656,19.6201 67.8017,19.6201 67.8017,36.5493 51.6656,36.5493 "/>
  </g>
  <g style="clip-path:url(#id1)">
   <g id="_2322354775520">
    <path id="_1" class="fil7" d="M59.9849 29.3326c1.5012,-0.2093 2.4394,-2.504 2.1579,-4.6463 -0.2815,-2.1423 -1.6756,-3.3216 -3.1769,-3.1121 -1.5012,0.2095 -2.541,1.7281 -2.2598,3.8704 0.2816,2.1425 1.7778,4.0975 3.2788,3.888z"/>
    <path class="fil7" d="M60.083 30.0779c-3.7341,0.5207 -6.351,4.0619 -5.8457,7.9095l0.0429 0.3267 13.5215 -1.8859 -0.0429 -0.3268c-0.5053,-3.8475 -3.942,-6.5442 -7.6758,-6.0235z"/>
   </g>
  </g>
  <path class="fil8" d="M67.8017 28.6455c0,4.5114 -3.4287,8.0502 -7.7994,7.8991 -4.5344,-0.1569 -8.3367,-4.1979 -8.3367,-9.0202 0,-4.8221 3.8026,-8.3347 8.3367,-7.8616 4.3707,0.456 7.7994,4.4712 7.7994,8.9827z"/>
  <path class="fil0" d="M52.5871 8.637c0,4.1242 -3.1298,7.3685 -7.13,7.242 -4.1629,-0.1317 -7.6642,-3.8364 -7.6642,-8.2697 0,-4.4333 3.5013,-7.6514 7.6642,-7.2048 4.0002,0.4293 7.13,4.1084 7.13,8.2325z"/>
  <path class="fil3" d="M53.6679 8.2814c0,4.1243 -3.1297,7.3686 -7.13,7.2421 -4.1629,-0.1319 -7.6642,-3.8366 -7.6642,-8.2697 0,-4.4333 3.5013,-7.6515 7.6642,-7.2048 4.0003,0.4291 7.13,4.1081 7.13,8.2324z"/>
  <path class="fil1" d="M53.3541 8.2596c0,3.9425 -2.9948,7.0388 -6.8159,6.9113 -3.9698,-0.1324 -7.3025,-3.6679 -7.3025,-7.8921 0,-4.2241 3.3327,-7.2965 7.3022,-6.8774 3.8214,0.4033 6.8162,3.9157 6.8162,7.8582z"/>
  <path class="fil4" d="M53.0229 8.2366c0,3.7532 -2.8525,6.697 -6.4884,6.5712 -3.7722,-0.1304 -6.9355,-3.492 -6.9355,-7.5036 0,-4.0117 3.1633,-6.9338 6.9355,-6.5403 3.6359,0.3794 6.4884,3.7195 6.4884,7.4727z"/>
  <path class="fil5" d="M45.3452 9.1776c0.2228,-2.2664 2.2439,-3.2256 1.9804,-5.3104 -0.1627,-1.2847 -1.1078,-2.3676 -2.1622,-3.2131 -3.1977,0.3457 -5.6705,3.0742 -5.6705,6.6427 0,4.0752 3.2133,7.4899 7.045,7.6224 0.372,0.0127 0.7353,-0.0071 1.0888,-0.0549 -1.5216,-1.5602 -2.4728,-3.7397 -2.2815,-5.6867z"/>
  <g style="clip-path:url(#id2)">
   <polygon class="fil6" points="40.2599,1.4216 52.3622,1.4216 52.3622,14.1185 40.2599,14.1185 "/>
  </g>
  <g style="clip-path:url(#id3)">
   <g id="_2357637460016">
    <path id="_1_0" class="fil7" d="M46.4996 8.706c1.1258,-0.1571 1.8293,-1.8779 1.6182,-3.4847 -0.2109,-1.6068 -1.2568,-2.4912 -2.3826,-2.3341 -1.1258,0.1571 -1.9058,1.2961 -1.6947,2.9028 0.2112,1.607 1.3333,3.0732 2.4591,2.916z"/>
    <path class="fil7" d="M46.5731 9.265c-2.8006,0.3905 -4.7633,3.0464 -4.3844,5.932l0.0323 0.2451 10.1409 -1.4144 -0.032 -0.2451c-0.3791,-2.8856 -2.9567,-4.9081 -5.7568,-4.5176z"/>
   </g>
  </g>
  <path class="fil8" d="M52.3622 8.1907c0,3.3836 -2.5717,6.0376 -5.8497,5.9242 -3.4009,-0.1176 -6.2526,-3.1483 -6.2526,-6.7649 0,-3.6167 2.8519,-6.2511 6.2526,-5.8963 3.278,0.3419 5.8497,3.3534 5.8497,6.737z"/>
  <path class="fil0" d="M30.8913 15.2515c0,4.1243 -3.1298,7.3686 -7.13,7.2421 -4.163,-0.1317 -7.6642,-3.8364 -7.6642,-8.2697 0,-4.4333 3.5012,-7.6515 7.6642,-7.2048 4.0002,0.4293 7.13,4.1084 7.13,8.2324z"/>
  <path class="fil3" d="M31.9721 14.896c0,4.1243 -3.1298,7.3686 -7.13,7.242 -4.163,-0.1319 -7.6642,-3.8365 -7.6642,-8.2696 0,-4.4333 3.5012,-7.6515 7.6642,-7.2048 4.0002,0.429 7.13,4.1081 7.13,8.2324z"/>
  <path class="fil1" d="M31.6583 14.8742c0,3.9425 -2.9948,7.0388 -6.8159,6.9113 -3.9698,-0.1325 -7.3025,-3.668 -7.3025,-7.8921 0,-4.2241 3.3327,-7.2965 7.3022,-6.8774 3.8214,0.4033 6.8162,3.9156 6.8162,7.8582z"/>
  <path class="fil4" d="M31.327 14.8512c0,3.7532 -2.8524,6.697 -6.4883,6.5712 -3.7722,-0.1304 -6.9356,-3.492 -6.9356,-7.5036 0,-4.0117 3.1634,-6.9338 6.9356,-6.5403 3.6359,0.3794 6.4883,3.7195 6.4883,7.4727z"/>
  <path class="fil5" d="M23.6494 15.7921c0.2227,-2.2663 2.2439,-3.2255 1.9804,-5.3103 -0.1628,-1.2848 -1.1078,-2.3676 -2.1622,-3.2132 -3.1978,0.3458 -5.6706,3.0743 -5.6706,6.6428 0,4.0751 3.2134,7.4899 7.0451,7.6223 0.372,0.0128 0.7353,-0.007 1.0888,-0.0548 -1.5217,-1.5603 -2.4728,-3.7397 -2.2815,-5.6868z"/>
  <g style="clip-path:url(#id4)">
   <polygon class="fil6" points="18.5641,8.0361 30.6664,8.0361 30.6664,20.7331 18.5641,20.7331 "/>
  </g>
  <g style="clip-path:url(#id5)">
   <g id="_2357637420080">
    <path id="_1_1" class="fil7" d="M24.8037 15.3206c1.1258,-0.1571 1.8294,-1.878 1.6182,-3.4847 -0.2108,-1.6068 -1.2567,-2.4912 -2.3825,-2.3341 -1.1258,0.1571 -1.9058,1.296 -1.6947,2.9028 0.2111,1.607 1.3332,3.0731 2.459,2.916z"/>
    <path class="fil7" d="M24.8773 15.8796c-2.8006,0.3905 -4.7633,3.0464 -4.3844,5.932l0.0323 0.2451 10.1409 -1.4145 -0.032 -0.2451c-0.3792,-2.8856 -2.9567,-4.9081 -5.7568,-4.5175z"/>
   </g>
  </g>
  <path class="fil8" d="M30.6664 14.8052c0,3.3836 -2.5718,6.0377 -5.8497,5.9243 -3.401,-0.1177 -6.2526,-3.1483 -6.2526,-6.765 0,-3.6166 2.8519,-6.2511 6.2526,-5.8963 3.2779,0.342 5.8497,3.3534 5.8497,6.737z"/>
  <path class="fil0" d="M16.8684 27.9515c0,4.1243 -3.1298,7.3686 -7.13,7.2421 -4.163,-0.1317 -7.6642,-3.8364 -7.6642,-8.2698 0,-4.4332 3.5012,-7.6514 7.6642,-7.2047 4.0002,0.4293 7.13,4.1084 7.13,8.2324z"/>
  <path class="fil3" d="M17.9492 27.5961c0,4.1241 -3.1298,7.3684 -7.13,7.2419 -4.163,-0.132 -7.6642,-3.8364 -7.6642,-8.2695 0,-4.4334 3.5012,-7.6516 7.6642,-7.2049 4.0002,0.429 7.13,4.1081 7.13,8.2325z"/>
  <path class="fil1" d="M17.6354 27.5742c0,3.9425 -2.9948,7.0387 -6.816,6.9114 -3.9698,-0.1325 -7.3025,-3.6682 -7.3025,-7.8922 0,-4.2241 3.3327,-7.2965 7.3023,-6.8774 3.8214,0.4033 6.8162,3.9156 6.8162,7.8582z"/>
  <path class="fil4" d="M17.3041 27.5512c0,3.7531 -2.8525,6.6971 -6.4884,6.5711 -3.7721,-0.1304 -6.9355,-3.4919 -6.9355,-7.5035 0,-4.0117 3.1634,-6.9338 6.9355,-6.5403 3.6359,0.3794 6.4884,3.7195 6.4884,7.4727z"/>
  <path class="fil5" d="M9.6264 28.492c0.2228,-2.2661 2.244,-3.2254 1.9804,-5.3102 -0.1627,-1.2848 -1.1078,-2.3676 -2.1621,-3.2132 -3.1978,0.3458 -5.6706,3.0743 -5.6706,6.6428 0,4.0751 3.2134,7.4898 7.0451,7.6223 0.372,0.0127 0.7353,-0.0071 1.0887,-0.0547 -1.5216,-1.5603 -2.4728,-3.7397 -2.2815,-5.687z"/>
  <g style="clip-path:url(#id6)">
   <polygon class="fil6" points="4.5411,20.7361 16.6435,20.7361 16.6435,33.433 4.5411,33.433 "/>
  </g>
  <g style="clip-path:url(#id7)">
   <g id="_2357637487520">
    <path id="_1_2" class="fil7" d="M10.7808 28.0205c1.1258,-0.1569 1.8293,-1.8779 1.6182,-3.4846 -0.2109,-1.6068 -1.2568,-2.4912 -2.3826,-2.3341 -1.1258,0.1571 -1.9058,1.296 -1.6946,2.9028 0.2111,1.607 1.3332,3.0731 2.459,2.9159z"/>
    <path class="fil7" d="M10.8544 28.5796c-2.8006,0.3905 -4.7633,3.0464 -4.3844,5.9319l0.0322 0.2453 10.141 -1.4144 -0.032 -0.2453c-0.3792,-2.8856 -2.9567,-4.908 -5.7568,-4.5175z"/>
   </g>
  </g>
  <path class="fil8" d="M16.6435 27.5051c0,3.3838 -2.5718,6.0378 -5.8497,5.9243 -3.401,-0.1175 -6.2527,-3.1483 -6.2527,-6.7649 0,-3.6166 2.852,-6.2511 6.2527,-5.8963 3.2779,0.342 5.8497,3.3534 5.8497,6.7369z"/>
  <path class="fil0" d="M44.1204 31.6556c0,4.1244 -3.1297,7.3687 -7.13,7.2422 -4.1629,-0.1318 -7.6641,-3.8364 -7.6641,-8.2698 0,-4.4332 3.5012,-7.6514 7.6641,-7.2047 4.0003,0.4292 7.13,4.1083 7.13,8.2323z"/>
  <path class="fil3" d="M45.2013 31.3003c0,4.1241 -3.1298,7.3684 -7.13,7.2419 -4.163,-0.132 -7.6642,-3.8364 -7.6642,-8.2695 0,-4.4335 3.5012,-7.6516 7.6642,-7.205 4.0002,0.4291 7.13,4.1083 7.13,8.2326z"/>
  <path class="fil1" d="M44.8875 31.2783c0,3.9426 -2.9949,7.0387 -6.816,6.9115 -3.9698,-0.1326 -7.3025,-3.6682 -7.3025,-7.8923 0,-4.2241 3.3327,-7.2964 7.3023,-6.8774 3.8213,0.4033 6.8162,3.9157 6.8162,7.8582z"/>
  <path class="fil4" d="M44.5562 31.2553c0,3.7531 -2.8525,6.6972 -6.4884,6.5712 -3.7721,-0.1304 -6.9355,-3.492 -6.9355,-7.5036 0,-4.0116 3.1634,-6.9337 6.9355,-6.5402 3.6359,0.3794 6.4884,3.7195 6.4884,7.4726z"/>
  <path class="fil5" d="M36.8785 32.1962c0.2228,-2.2662 2.244,-3.2256 1.9804,-5.3102 -0.1627,-1.2848 -1.1078,-2.3677 -2.1621,-3.2132 -3.1978,0.3457 -5.6706,3.0743 -5.6706,6.6427 0,4.0751 3.2134,7.4898 7.0451,7.6224 0.372,0.0127 0.7352,-0.0071 1.0887,-0.0548 -1.5216,-1.5602 -2.4728,-3.7396 -2.2815,-5.6869z"/>
  <g style="clip-path:url(#id8)">
   <polygon class="fil6" points="31.7932,24.4403 43.8955,24.4403 43.8955,37.1372 31.7932,37.1372 "/>
  </g>
  <g style="clip-path:url(#id9)">
   <g id="_2357637486560">
    <path id="_1_3" class="fil7" d="M38.0329 31.7247c1.1258,-0.1569 1.8293,-1.878 1.6182,-3.4846 -0.2109,-1.6068 -1.2568,-2.4913 -2.3826,-2.3342 -1.1258,0.1571 -1.9058,1.296 -1.6946,2.9028 0.2111,1.6071 1.3332,3.0732 2.459,2.916z"/>
    <path class="fil7" d="M38.1065 32.2838c-2.8007,0.3905 -4.7633,3.0464 -4.3845,5.9319l0.0323 0.2453 10.141 -1.4145 -0.032 -0.2452c-0.3792,-2.8856 -2.9568,-4.9081 -5.7568,-4.5175z"/>
   </g>
  </g>
  <path class="fil8" d="M43.8955 31.2093c0,3.3837 -2.5717,6.0378 -5.8496,5.9243 -3.401,-0.1175 -6.2527,-3.1483 -6.2527,-6.7649 0,-3.6166 2.852,-6.2511 6.2527,-5.8963 3.2779,0.342 5.8496,3.3534 5.8496,6.7369z"/>
  <path class="fil9" d="M43.6725 88.3029c3.1776,0 5.7539,-0.5347 5.7539,-1.1943 0,-0.6596 -2.5763,-1.1943 -5.7539,-1.1943 -3.1779,0 -5.7542,0.5347 -5.7542,1.1943 0,0.6596 2.5763,1.1943 5.7542,1.1943z"/>
  <polygon class="fil10" points="53.619,72.0707 49.4267,87.1086 37.9183,87.1086 33.7258,72.0707 "/>
  <path class="fil11" d="M43.6725 40.9055c17.7943,0 32.2196,-1.6785 32.2196,-3.7492 0,-2.0706 -14.4253,-3.7491 -32.2196,-3.7491 -17.7946,0 -32.2199,1.6785 -32.2199,3.7491 0,2.0707 14.4253,3.7492 32.2199,3.7492z"/>
  <polygon class="fil11" points="11.4529,39.5751 75.8921,39.5751 75.8921,37.1563 11.4529,37.1563 "/>
  <path class="fil12" d="M43.6725 43.1317c17.7943,0 32.2196,-1.6785 32.2196,-3.7492 0,-2.0706 -14.4253,-3.7491 -32.2196,-3.7491 -17.7946,0 -32.2199,1.6785 -32.2199,3.7491 0,2.0707 14.4253,3.7492 32.2199,3.7492z"/>
  <path class="fil13" d="M43.6725 73.228c5.4933,0 9.9465,-0.5183 9.9465,-1.1573 0,-0.6392 -4.4532,-1.1575 -9.9465,-1.1575 -5.4935,0 -9.9467,0.5183 -9.9467,1.1575 0,0.639 4.4532,1.1573 9.9467,1.1573z"/>
  <polygon class="fil14" points="75.8921,39.3825 53.619,72.0707 33.7258,72.0707 11.4529,39.3825 "/>
  <g id="_2357637478064">
   <path class="fil15" d="M44.235 63.6665c3.0697,-4.3775 -0.0529,-7.149 3.1745,-11.9938 5.4091,-8.1195 18.6616,-7.0615 20.3012,-12.7775 0.1585,-0.5528 0.2214,-1.215 0.0611,-2.0016 5.0522,0.662 8.1209,1.5338 8.1209,2.4889 0,0.2032 -0.1397,0.4027 -0.4067,0.5969l-21.8665 32.0913c0,0.639 -4.4529,1.1573 -9.9465,1.1573 -5.4933,0 -9.9465,-0.5183 -9.9465,-1.1573l-1.2562 -1.8433c5.0049,-1.1885 9.4054,-3.1956 11.7647,-6.5609z"/>
  </g>
  <g>
  </g>
  <g style="clip-path:url(#id10)">
   <g id="_2357637463328">
    <path class="fil16" d="M71.9324 97.6432c0,4.4271 -3.3602,7.9098 -7.6549,7.7738 -4.4694,-0.1416 -8.2283,-4.118 -8.2283,-8.8773 0,-4.7586 3.7589,-8.2132 8.2283,-7.7338 4.2947,0.4606 7.6549,4.4098 7.6549,8.8373z"/>
    <path class="fil17" d="M73.0928 97.2612c0,4.427 -3.3602,7.91 -7.6546,7.7737 -4.4696,-0.141 -8.2286,-4.118 -8.2286,-8.877 0,-4.7588 3.759,-8.2132 8.2286,-7.7341 4.2944,0.4612 7.6546,4.4104 7.6546,8.8374z"/>
    <path class="fil18" d="M72.756 97.2382c0,4.232 -3.2152,7.5557 -7.3178,7.4186 -4.2622,-0.1421 -7.8402,-3.9372 -7.8402,-8.4714 0,-4.5344 3.5785,-7.8327 7.8402,-7.3829 4.1026,0.4331 7.3178,4.2034 7.3178,8.4357z"/>
    <path class="fil19" d="M72.5142 97.2212c0,4.0929 -3.111,7.3025 -7.076,7.1657 -4.1138,-0.1426 -7.5637,-3.8076 -7.5637,-8.1822 0,-4.3749 3.4499,-7.561 7.5637,-7.1318 3.965,0.4138 7.076,4.0558 7.076,8.1483z"/>
    <path class="fil20" d="M65.3974 90.4651c0.2112,0.0206 0.3818,0.2164 0.3818,0.4374l0 0.7535c0.422,0.0487 0.8446,0.1241 1.2679,0.2267 0.312,0.0754 0.6218,0.1657 0.9298,0.2697 0.1844,0.0624 0.3098,0.2545 0.2913,0.4521l-0.0903 0.9451c-0.0235,0.2508 -0.2643,0.3979 -0.4905,0.294 -0.2029,-0.0932 -0.4109,-0.1728 -0.6236,-0.2395 -0.3718,-0.1159 -0.7641,-0.1913 -1.1766,-0.2265l-0.108 -0.009 0 2.158c1.1007,0.317 1.9093,0.744 2.4318,1.2811 0.5199,0.5342 0.7789,1.1999 0.7789,1.9995 0,0.8643 -0.2862,1.5565 -0.8614,2.0788 -0.5782,0.5249 -1.3886,0.8202 -2.4371,0.8842l0 0.8319c0,0.2209 -0.1707,0.3929 -0.3821,0.3839l-0.0066 -0.0003c-0.2117,-0.0087 -0.3836,-0.1952 -0.3836,-0.4172l0 -0.8205 -0.1699 -0.0079c-0.4916,-0.0228 -0.962,-0.0747 -1.4118,-0.1548 -0.3329,-0.0598 -0.6583,-0.1371 -0.9758,-0.2313 -0.1921,-0.0571 -0.3236,-0.2455 -0.3061,-0.4476l0.1058 -1.2147c0.023,-0.2628 0.2786,-0.4154 0.5212,-0.3168 0.2824,0.1146 0.5686,0.2117 0.8581,0.2903 0.4511,0.1225 0.9086,0.2011 1.3719,0.236l0.0066 -2.4006c-1.0565,-0.2693 -1.8476,-0.668 -2.3675,-1.1964 -0.522,-0.531 -0.784,-1.2102 -0.784,-2.0365 0,-0.8549 0.2842,-1.515 0.8504,-1.978 0.563,-0.4609 1.3636,-0.6903 2.3966,-0.6898l0 -0.7705c0,-0.2222 0.1714,-0.3849 0.3828,-0.3643zm-0.3828 2.8803c-0.3268,0.0246 -0.5813,0.1166 -0.7636,0.2772 -0.1826,0.1606 -0.2741,0.3768 -0.2741,0.6477 0,0.2567 0.0844,0.4713 0.2532,0.6438 0.1688,0.172 0.4302,0.3093 0.784,0.4119l0 -1.9806 0.0005 0zm0.6768 4.3468l0 2.2013c0.3551,0.0008 0.6273,-0.0868 0.8173,-0.2619 0.1897,-0.1746 0.2847,-0.422 0.2847,-0.7411 0,-0.291 -0.0879,-0.5326 -0.2641,-0.7244 -0.1772,-0.1921 -0.4559,-0.3498 -0.8379,-0.4739z"/>
    <path class="fil21" d="M64.1576 98.2235c0.2392,-2.4326 2.409,-3.4626 2.1259,-5.7005 -0.1746,-1.3792 -1.1893,-2.5416 -2.3212,-3.4488 -3.4332,0.3707 -6.088,3.2996 -6.088,7.1305 0,4.3746 3.4496,8.0396 7.5636,8.1822 0.3993,0.0138 0.7893,-0.0076 1.1689,-0.0587 -1.6335,-1.6751 -2.6545,-4.0145 -2.4492,-6.1047z"/>
    <path class="fil22" d="M102.0906 94.35c0,7.7851 -5.9086,13.9094 -13.4606,13.6705 -7.8592,-0.2485 -14.4698,-7.2417 -14.4698,-15.6102 0,-8.3688 6.6101,-14.4433 14.4698,-13.6004 7.552,0.8102 13.4606,7.7552 13.4606,15.5401z"/>
    <path class="fil23" d="M104.1311 93.6787c0,7.7851 -5.9089,13.9094 -13.4607,13.6705 -7.8594,-0.2484 -14.4698,-7.2416 -14.4698,-15.6101 0,-8.3688 6.6101,-14.4434 14.4698,-13.6004 7.5518,0.8101 13.4607,7.7552 13.4607,15.54z"/>
    <path class="fil24" d="M103.5384 93.6377c0,7.4425 -5.6536,13.2866 -12.8685,13.0461 -7.4943,-0.25 -13.7869,-6.9239 -13.7869,-14.8971 0,-7.9735 6.2926,-13.7734 13.7869,-12.9823 7.2149,0.7612 12.8685,7.3914 12.8685,14.8333z"/>
    <path class="fil25" d="M103.1138 93.6081c0,7.1964 -5.4705,12.8415 -12.4434,12.6002 -7.2345,-0.25 -13.3008,-6.696 -13.3008,-14.3883 0,-7.6922 6.0663,-13.2955 13.3008,-12.5407 6.9729,0.7276 12.4434,7.1321 12.4434,14.3288z"/>
    <path class="fil20" d="M90.5987 81.7275c0.3712,0.0365 0.6715,0.3807 0.6715,0.7686l0 1.3248c0.7419,0.0854 1.4852,0.218 2.2292,0.3984 0.5487,0.1331 1.0935,0.2911 1.6348,0.4742 0.3244,0.1098 0.5453,0.4471 0.5123,0.7953l-0.158 1.6613c-0.0421,0.4408 -0.4649,0.6996 -0.8631,0.5168 -0.3566,-0.1641 -0.722,-0.3043 -1.0969,-0.421 -0.6536,-0.204 -1.3431,-0.3365 -2.0688,-0.3984l-0.1895 -0.0159 0 3.7949c1.936,0.558 3.3573,1.3086 4.276,2.2529 0.9144,0.9393 1.3697,2.1106 1.3697,3.5161 0,1.5203 -0.5037,2.7374 -1.5147,3.6555 -1.0165,0.9226 -2.4421,1.4419 -4.2849,1.5544l0 1.4626c0,0.3884 -0.3006,0.6911 -0.6721,0.6755l-0.0122 -0.0003c-0.372,-0.0156 -0.6744,-0.3437 -0.6744,-0.7334l0 -1.4425 -0.299 -0.0138c-0.8641,-0.0405 -1.6917,-0.1309 -2.4825,-0.2725 -0.5858,-0.1053 -1.1576,-0.2405 -1.7156,-0.4064 -0.3373,-0.1005 -0.5689,-0.4318 -0.5382,-0.7877l0.1858 -2.1359c0.0402,-0.4617 0.4905,-0.7306 0.9165,-0.5573 0.4966,0.2019 0.9999,0.3723 1.5089,0.5104 0.7932,0.2154 1.5976,0.3538 2.412,0.4152l0.0121 -4.2212c-1.8579,-0.4739 -3.2488,-1.175 -4.1629,-2.1048 -0.9181,-0.9334 -1.3788,-2.1283 -1.3788,-3.5808 0,-1.5037 0.4993,-2.6641 1.4949,-3.4785 0.9904,-0.8104 2.3985,-1.2134 4.2143,-1.2126l0 -1.3544c0,-0.3895 0.3022,-0.6755 0.6736,-0.6395zm-0.6736 5.0655c-0.5741,0.0431 -1.0218,0.2055 -1.3428,0.4876 -0.3212,0.2826 -0.4815,0.6622 -0.4815,1.139 0,0.4517 0.1487,0.8292 0.4458,1.1322 0.2966,0.3026 0.7565,0.5442 1.3785,0.7244l0 -3.4832zm1.1912 7.6435l0 3.8706c0.6238,0.0013 1.103,-0.1524 1.4372,-0.4601 0.3336,-0.3072 0.5003,-0.7416 0.5003,-1.3028 0,-0.5123 -0.155,-0.9367 -0.4651,-1.274 -0.3107,-0.3381 -0.8009,-0.6157 -1.4724,-0.8337z"/>
    <path class="fil26" d="M88.4183 95.3707c0.4204,-4.278 4.2368,-6.0888 3.7386,-10.024 -0.3072,-2.4254 -2.0913,-4.469 -4.0818,-6.0653 -6.0372,0.6525 -10.7055,5.8026 -10.7055,12.5386 0,7.6928 6.0663,14.138 13.3008,14.3883 0.7022,0.0246 1.3886,-0.0132 2.0553,-0.1034 -2.8731,-2.9451 -4.6686,-7.0591 -4.3074,-10.7342z"/>
    <path class="fil27" d="M121.8817 64.1526c0,11.2868 -8.5666,20.1662 -19.5162,19.8199 -11.395,-0.3606 -20.9788,-10.4995 -20.9788,-22.6325 0,-12.133 9.5838,-20.9407 20.9788,-19.7183 10.9496,1.1742 19.5162,11.2437 19.5162,22.5309z"/>
    <path class="fil28" d="M124.8408 63.1792c0,11.2871 -8.5672,20.1662 -19.5162,19.8196 -11.3953,-0.3606 -20.9788,-10.4994 -20.9788,-22.6324 0,-12.133 9.5835,-20.9407 20.9788,-19.7184 10.949,1.175 19.5162,11.244 19.5162,22.5312z"/>
    <path class="fil29" d="M123.9815 63.1194c0,10.7902 -8.1968,19.2637 -18.6569,18.915 -10.8661,-0.3622 -19.989,-10.0385 -19.989,-21.599 0,-11.5604 9.1229,-19.9694 19.989,-18.8222 10.4596,1.1039 18.6569,10.7162 18.6569,21.5062z"/>
    <path class="fil30" d="M123.3658 63.077c0,10.4341 -7.9314,18.6182 -18.0417,18.2684 -10.4883,-0.3624 -19.2841,-9.708 -19.2841,-20.861 0,-11.1533 8.7958,-19.2768 19.2846,-18.1825 10.1098,1.0547 18.0412,10.3407 18.0412,20.7751z"/>
    <path class="fil20" d="M105.2209 45.8519c0.5379,0.0526 0.9734,0.5513 0.9734,1.1144l0 1.9211c1.0758,0.1236 2.1529,0.3162 3.2319,0.5776 0.7954,0.1926 1.5857,0.422 2.3704,0.6877 0.4704,0.159 0.7909,0.6484 0.743,1.1527l-0.2292 2.4088c-0.0608,0.6392 -0.6741,1.0147 -1.2514,0.7496 -0.517,-0.2374 -1.047,-0.4408 -1.5902,-0.6104 -0.9477,-0.2953 -1.9476,-0.4879 -2.9993,-0.5773l-0.2752 -0.0231 0 5.5015c2.8067,0.8091 4.8676,1.8971 6.1997,3.2663 1.3256,1.3621 1.986,3.0599 1.986,5.0983 0,2.2037 -0.7302,3.969 -2.1963,5.2998 -1.474,1.3383 -3.5406,2.0905 -6.2129,2.2538l0 2.1201c0,0.563 -0.4358,1.0017 -0.9745,0.9797l-0.0169 -0.0008c-0.5395,-0.0225 -0.9779,-0.4982 -0.9779,-1.0631l0 -2.0923 -0.4337 -0.0201c-1.2525,-0.0585 -2.4527,-0.1897 -3.5991,-0.3953 -0.8491,-0.1524 -1.6785,-0.3485 -2.4876,-0.5892 -0.489,-0.1455 -0.8253,-0.6258 -0.7803,-1.1417l0.2696 -3.0964c0.0582,-0.6697 0.7112,-1.0589 1.329,-0.8078 0.7202,0.2926 1.4492,0.539 2.1873,0.7398 1.1502,0.3125 2.3162,0.513 3.4973,0.6022l0.0175 -6.1201c-2.694,-0.6869 -4.7107,-1.7039 -6.036,-3.0512 -1.3314,-1.3536 -1.9992,-3.0858 -1.9992,-5.1922 0,-2.1799 0.7245,-3.8621 2.1678,-5.0432 1.4359,-1.1753 3.4766,-1.7592 6.11,-1.7579l0 -1.964c0,-0.5651 0.4376,-0.9803 0.9768,-0.9273zm-0.9768 7.3435c-0.8329,0.0624 -1.4819,0.2979 -1.9463,0.7069 -0.4654,0.4099 -0.6988,0.9605 -0.6988,1.6516 0,0.6545 0.2154,1.202 0.6462,1.6412 0.4299,0.4387 1.0969,0.7887 1.9989,1.0506l0 -5.0503zm1.7267 11.0823l0 5.6126c0.9051,0.0016 1.5991,-0.2207 2.0838,-0.6675 0.4837,-0.4456 0.7252,-1.075 0.7252,-1.8892 0,-0.7421 -0.2246,-1.3575 -0.6741,-1.8473 -0.4503,-0.49 -1.1613,-0.8929 -2.1349,-1.2086z"/>
    <path class="fil31" d="M102.06 65.6318c0.6093,-6.2026 6.1423,-8.8278 5.4205,-14.5333 -0.4451,-3.5163 -3.0319,-6.4799 -5.918,-8.7934 -8.7534,0.9459 -15.522,8.4127 -15.522,18.1793 0,11.1527 8.7953,20.498 19.2841,20.861 1.0187,0.0352 2.013,-0.0193 2.9803,-0.1497 -4.1659,-4.2704 -6.7688,-10.2352 -6.2449,-15.5639z"/>
   </g>
  </g>
  <polygon class="fil8" points="56.0492,108.0273 124.8409,108.0273 124.8409,40.5351 56.0492,40.5351 "/>
 </g>
</svg>
