<?xml version="1.0" encoding="UTF-8"?>
<!DOCTYPE svg PUBLIC "-//W3C//DTD SVG 1.1//EN" "http://www.w3.org/Graphics/SVG/1.1/DTD/svg11.dtd">
<!-- Creator: CorelDRAW -->
<svg xmlns="http://www.w3.org/2000/svg" xml:space="preserve" width="124.883mm" height="95.584mm" version="1.1" style="shape-rendering:geometricPrecision; text-rendering:geometricPrecision; image-rendering:optimizeQuality; fill-rule:evenodd; clip-rule:evenodd"
viewBox="0 0 124.883 95.584"
 xmlns:xlink="http://www.w3.org/1999/xlink"
 xmlns:xodm="http://www.corel.com/coreldraw/odm/2003">
 <defs>
  <style type="text/css">
   <![CDATA[
    .fil26 {fill:none;fill-rule:nonzero}
    .fil0 {fill:#006CEB;fill-rule:nonzero}
    .fil1 {fill:#2D8DFF;fill-rule:nonzero}
    .fil5 {fill:#FFB800;fill-rule:nonzero}
    .fil14 {fill:#FFE70C;fill-rule:nonzero}
    .fil2 {fill:#F4F7FA;fill-rule:nonzero;fill-opacity:0.301961}
    .fil9 {fill:#FFEB33;fill-rule:nonzero;fill-opacity:0.501961}
    .fil4 {fill:url(#id1);fill-rule:nonzero}
    .fil11 {fill:url(#id2);fill-rule:nonzero}
    .fil21 {fill:url(#id3);fill-rule:nonzero}
    .fil3 {fill:url(#id4);fill-rule:nonzero}
    .fil10 {fill:url(#id5);fill-rule:nonzero}
    .fil17 {fill:url(#id6);fill-rule:nonzero}
    .fil22 {fill:url(#id7);fill-rule:nonzero}
    .fil16 {fill:url(#id8);fill-rule:nonzero}
    .fil13 {fill:url(#id9);fill-rule:nonzero}
    .fil8 {fill:url(#id10);fill-rule:nonzero}
    .fil18 {fill:url(#id11);fill-rule:nonzero}
    .fil19 {fill:url(#id12);fill-rule:nonzero}
    .fil24 {fill:url(#id13);fill-rule:nonzero}
    .fil12 {fill:url(#id14);fill-rule:nonzero}
    .fil7 {fill:url(#id15);fill-rule:nonzero}
    .fil23 {fill:url(#id16);fill-rule:nonzero}
    .fil6 {fill:url(#id17);fill-rule:nonzero}
    .fil15 {fill:url(#id18);fill-rule:nonzero;fill-opacity:0.301961}
    .fil20 {fill:url(#id19);fill-rule:nonzero;fill-opacity:0.301961}
    .fil25 {fill:url(#id20);fill-rule:nonzero;fill-opacity:0.301961}
   ]]>
  </style>
   <clipPath id="id0" style="clip-rule:nonzero">
    <path d="M56.0492 95.6287l68.7917 0 0 -67.4922 -68.7917 0 0 67.4922z"/>
   </clipPath>
  <linearGradient id="id1" gradientUnits="userSpaceOnUse" x1="32.7658" y1="78.0964" x2="47.3179" y2="57.7234">
   <stop offset="0" style="stop-opacity:1; stop-color:#FCB148"/>
   <stop offset="0.0509804" style="stop-opacity:1; stop-color:#FDBA46"/>
   <stop offset="0.141176" style="stop-opacity:1; stop-color:#FFC244"/>
   <stop offset="0.321569" style="stop-opacity:1; stop-color:#FFC444"/>
   <stop offset="0.490196" style="stop-opacity:1; stop-color:#FDB946"/>
   <stop offset="0.780392" style="stop-opacity:1; stop-color:#F99C4D"/>
   <stop offset="0.870588" style="stop-opacity:1; stop-color:#F8924F"/>
   <stop offset="1" style="stop-opacity:1; stop-color:#F8924F"/>
  </linearGradient>
  <linearGradient id="id2" gradientUnits="userSpaceOnUse" x1="68.7491" y1="76.4001" x2="60.0179" y2="94.3112">
   <stop offset="0" style="stop-opacity:1; stop-color:#FFDB44"/>
   <stop offset="1" style="stop-opacity:1; stop-color:#FEEF06"/>
  </linearGradient>
  <linearGradient id="id3" gradientUnits="userSpaceOnUse" xlink:href="#id1" x1="94.6783" y1="52.7368" x2="70.8658" y2="59.9012">
  </linearGradient>
  <linearGradient id="id4" gradientUnits="userSpaceOnUse" xlink:href="#id1" x1="37.7929" y1="81.8005" x2="52.6095" y2="61.4276">
  </linearGradient>
  <linearGradient id="id5" gradientUnits="userSpaceOnUse" xlink:href="#id1" x1="61.0762" y1="85.6244" x2="51.8158" y2="88.439">
  </linearGradient>
  <linearGradient id="id6" gradientUnits="userSpaceOnUse" xlink:href="#id2" x1="96.2658" y1="66.4006" x2="81.1845" y2="98.1293">
  </linearGradient>
  <linearGradient id="id7" gradientUnits="userSpaceOnUse" xlink:href="#id2" x1="113.7283" y1="29.4201" x2="91.5033" y2="75.2214">
  </linearGradient>
  <linearGradient id="id8" gradientUnits="userSpaceOnUse" xlink:href="#id1" x1="83.3012" y1="82.5429" x2="66.897" y2="87.6604">
  </linearGradient>
  <linearGradient id="id9" gradientUnits="userSpaceOnUse" xlink:href="#id1" x1="63.722" y1="81.4963" x2="70.6012" y2="95.3133">
  </linearGradient>
  <linearGradient id="id10" gradientUnits="userSpaceOnUse" xlink:href="#id1" x1="54.7262" y1="5.8652" x2="23.77" y2="70.1589">
  </linearGradient>
  <linearGradient id="id11" gradientUnits="userSpaceOnUse" xlink:href="#id1" x1="93.62" y1="100.153" x2="90.7095" y2="85.0567">
  </linearGradient>
  <linearGradient id="id12" gradientUnits="userSpaceOnUse" xlink:href="#id1" x1="87.7991" y1="75.5739" x2="99.97" y2="99.6251">
  </linearGradient>
  <linearGradient id="id13" gradientUnits="userSpaceOnUse" xlink:href="#id1" x1="101.2929" y1="42.4141" x2="118.7554" y2="77.4675">
  </linearGradient>
  <linearGradient id="id14" gradientUnits="userSpaceOnUse" xlink:href="#id1" x1="67.1616" y1="95.5775" x2="65.3095" y2="86.878">
  </linearGradient>
  <linearGradient id="id15" gradientUnits="userSpaceOnUse" xlink:href="#id1" x1="71.1304" y1="6.9235" x2="36.9991" y2="78.3609">
  </linearGradient>
  <linearGradient id="id16" gradientUnits="userSpaceOnUse" xlink:href="#id1" x1="109.7595" y1="78.2585" x2="105.5262" y2="56.2538">
  </linearGradient>
  <linearGradient id="id17" gradientUnits="userSpaceOnUse" x1="54.9908" y1="5.0714" x2="20.8595" y2="76.2443">
   <stop offset="0" style="stop-opacity:1; stop-color:#FFED50"/>
   <stop offset="0.0509804" style="stop-opacity:1; stop-color:#FDBA46"/>
   <stop offset="0.141176" style="stop-opacity:1; stop-color:#FFC244"/>
   <stop offset="0.321569" style="stop-opacity:1; stop-color:#FFC444"/>
   <stop offset="0.490196" style="stop-opacity:1; stop-color:#FDB946"/>
   <stop offset="0.780392" style="stop-opacity:1; stop-color:#F99C4D"/>
   <stop offset="0.870588" style="stop-opacity:1; stop-color:#F8924F"/>
   <stop offset="1" style="stop-opacity:1; stop-color:#F8924F"/>
  </linearGradient>
  <linearGradient id="id18" gradientUnits="userSpaceOnUse" xlink:href="#id1" x1="61.87" y1="82.3262" x2="68.7491" y2="96.3403">
  </linearGradient>
  <linearGradient id="id19" gradientUnits="userSpaceOnUse" xlink:href="#id1" x1="84.3595" y1="76.7671" x2="96.5304" y2="101.6221">
  </linearGradient>
  <linearGradient id="id20" gradientUnits="userSpaceOnUse" xlink:href="#id1" x1="96.2658" y1="44.2206" x2="113.7283" y2="80.4456">
  </linearGradient>
 </defs>
 <g id="Слой_x0020_1">
  <metadata id="CorelCorpID_0Corel-Layer"/>
  <path class="fil0" d="M82.9425 1.1581l-1.1599 -1.1138 -1.4254 6.9527 -8.9437 18.3293 0.9946 1.1136 6.1799 -0.0026 0 25.6085c0,16.7685 -13.52,30.7136 -31.0364,32.0122l-47.5941 2.5157 0.0897 0.8194 19.7162 5.3848 34.924 -2.9083c19.9199,-1.6444 35.2128,-17.5575 35.2128,-36.6409l0 -26.97 5.5722 -0.3069 -12.5299 -24.7937z"/>
  <path class="fil1" d="M81.7826 0.0443l-10.3693 25.282 6.0825 -0.0026 0 25.6082c0,16.7688 -13.3078,30.7136 -30.5496,32.0125l-46.9887 3.6293 19.9208 5.0352 34.0923 -2.8538c19.6075,-1.6443 34.6604,-17.5572 34.6604,-36.6408l0 -26.9692 5.4848 -0.3069 -12.3332 -24.7939z"/>
  <g id="_2357644173872">
   <path class="fil2" d="M85.5523 53.5198c-1.611,-6.8715 -5.4163,-10.0851 -5.2554,-18.4155 0.126,-6.5316 2.5612,-9.5237 4.0344,-14.7612 0.9975,-3.5451 1.5589,-8.1384 0.6098,-13.9496l-3.1585 -6.3492 -10.3693 25.282 6.0825 -0.0026 0 25.6082c0,16.7688 -13.3078,30.7136 -30.5496,32.0125l-46.9887 3.6293 19.9208 5.0352 34.0923 -2.8538c14.1081,-1.1829 25.8577,-9.7538 31.3394,-21.577 1.0617,-4.4072 1.3134,-9.0898 0.2423,-13.6583z"/>
  </g>
  <path class="fil3" d="M43.6725 75.9043c3.1776,0 5.7539,-0.5347 5.7539,-1.1943 0,-0.6596 -2.5763,-1.1943 -5.7539,-1.1943 -3.1779,0 -5.7542,0.5347 -5.7542,1.1943 0,0.6596 2.5763,1.1943 5.7542,1.1943z"/>
  <polygon class="fil4" points="53.619,59.6721 49.4267,74.71 37.9183,74.71 33.7258,59.6721 "/>
  <path class="fil5" d="M43.6725 28.5069c17.7943,0 32.2196,-1.6785 32.2196,-3.7492 0,-2.0706 -14.4253,-3.7491 -32.2196,-3.7491 -17.7946,0 -32.2199,1.6785 -32.2199,3.7491 0,2.0707 14.4253,3.7492 32.2199,3.7492z"/>
  <polygon class="fil5" points="11.4529,27.1765 75.8921,27.1765 75.8921,24.7577 11.4529,24.7577 "/>
  <path class="fil6" d="M43.6725 30.7331c17.7943,0 32.2196,-1.6785 32.2196,-3.7492 0,-2.0706 -14.4253,-3.7491 -32.2196,-3.7491 -17.7946,0 -32.2199,1.6785 -32.2199,3.7491 0,2.0707 14.4253,3.7492 32.2199,3.7492z"/>
  <path class="fil7" d="M43.6725 60.8294c5.4933,0 9.9465,-0.5183 9.9465,-1.1573 0,-0.6392 -4.4532,-1.1575 -9.9465,-1.1575 -5.4935,0 -9.9467,0.5183 -9.9467,1.1575 0,0.639 4.4532,1.1573 9.9467,1.1573z"/>
  <polygon class="fil8" points="75.8921,26.9839 53.619,59.6721 33.7258,59.6721 11.4529,26.9839 "/>
  <g id="_2357644228448">
   <path class="fil9" d="M44.235 51.2679c3.0697,-4.3775 -0.0529,-7.149 3.1745,-11.9938 5.4091,-8.1195 18.6616,-7.0615 20.3012,-12.7775 0.1585,-0.5528 0.2214,-1.215 0.0611,-2.0016 5.0522,0.662 8.1209,1.5338 8.1209,2.4889 0,0.2032 -0.1397,0.4027 -0.4067,0.5969l-21.8665 32.0913c0,0.639 -4.4529,1.1573 -9.9465,1.1573 -5.4933,0 -9.9465,-0.5183 -9.9465,-1.1573l-1.2562 -1.8433c5.0049,-1.1885 9.4054,-3.1956 11.7647,-6.5609z"/>
  </g>
  <g>
  </g>
  <g style="clip-path:url(#id0)">
   <g id="_2357644202768">
    <path class="fil10" d="M71.9324 85.2446c0,4.4271 -3.3602,7.9098 -7.6549,7.7738 -4.4694,-0.1416 -8.2283,-4.118 -8.2283,-8.8773 0,-4.7586 3.7589,-8.2132 8.2283,-7.7338 4.2947,0.4606 7.6549,4.4098 7.6549,8.8373z"/>
    <path class="fil11" d="M73.0928 84.8626c0,4.427 -3.3602,7.91 -7.6546,7.7737 -4.4696,-0.141 -8.2286,-4.118 -8.2286,-8.877 0,-4.7588 3.759,-8.2132 8.2286,-7.7341 4.2944,0.4612 7.6546,4.4104 7.6546,8.8374z"/>
    <path class="fil12" d="M72.756 84.8396c0,4.232 -3.2152,7.5557 -7.3178,7.4186 -4.2622,-0.1421 -7.8402,-3.9372 -7.8402,-8.4714 0,-4.5344 3.5785,-7.8327 7.8402,-7.3829 4.1026,0.4331 7.3178,4.2034 7.3178,8.4357z"/>
    <path class="fil13" d="M72.5142 84.8226c0,4.0929 -3.111,7.3025 -7.076,7.1657 -4.1138,-0.1426 -7.5637,-3.8076 -7.5637,-8.1822 0,-4.3749 3.4499,-7.561 7.5637,-7.1318 3.965,0.4138 7.076,4.0558 7.076,8.1483z"/>
    <path class="fil14" d="M65.3974 78.0665c0.2112,0.0206 0.3818,0.2164 0.3818,0.4374l0 0.7535c0.422,0.0487 0.8446,0.1241 1.2679,0.2267 0.312,0.0754 0.6218,0.1657 0.9298,0.2697 0.1844,0.0624 0.3098,0.2545 0.2913,0.4521l-0.0903 0.9451c-0.0235,0.2508 -0.2643,0.3979 -0.4905,0.294 -0.2029,-0.0932 -0.4109,-0.1728 -0.6236,-0.2395 -0.3718,-0.1159 -0.7641,-0.1913 -1.1766,-0.2265l-0.108 -0.009 0 2.158c1.1007,0.317 1.9093,0.744 2.4318,1.2811 0.5199,0.5342 0.7789,1.1999 0.7789,1.9995 0,0.8643 -0.2862,1.5565 -0.8614,2.0788 -0.5782,0.5249 -1.3886,0.8202 -2.4371,0.8842l0 0.8319c0,0.2209 -0.1707,0.3929 -0.3821,0.3839l-0.0066 -0.0003c-0.2117,-0.0087 -0.3836,-0.1952 -0.3836,-0.4172l0 -0.8205 -0.1699 -0.0079c-0.4916,-0.0228 -0.962,-0.0747 -1.4118,-0.1548 -0.3329,-0.0598 -0.6583,-0.1371 -0.9758,-0.2313 -0.1921,-0.0571 -0.3236,-0.2455 -0.3061,-0.4476l0.1058 -1.2147c0.023,-0.2628 0.2786,-0.4154 0.5212,-0.3168 0.2824,0.1146 0.5686,0.2117 0.8581,0.2903 0.4511,0.1225 0.9086,0.2011 1.3719,0.236l0.0066 -2.4006c-1.0565,-0.2693 -1.8476,-0.668 -2.3675,-1.1964 -0.522,-0.531 -0.784,-1.2102 -0.784,-2.0365 0,-0.8549 0.2842,-1.515 0.8504,-1.978 0.563,-0.4609 1.3636,-0.6903 2.3966,-0.6898l0 -0.7705c0,-0.2222 0.1714,-0.3849 0.3828,-0.3643zm-0.3828 2.8803c-0.3268,0.0246 -0.5813,0.1166 -0.7636,0.2772 -0.1826,0.1606 -0.2741,0.3768 -0.2741,0.6477 0,0.2567 0.0844,0.4713 0.2532,0.6438 0.1688,0.172 0.4302,0.3093 0.784,0.4119l0 -1.9806 0.0005 0zm0.6768 4.3468l0 2.2013c0.3551,0.0008 0.6273,-0.0868 0.8173,-0.2619 0.1897,-0.1746 0.2847,-0.422 0.2847,-0.7411 0,-0.291 -0.0879,-0.5326 -0.2641,-0.7244 -0.1772,-0.1921 -0.4559,-0.3498 -0.8379,-0.4739z"/>
    <path class="fil15" d="M64.1576 85.8249c0.2392,-2.4326 2.409,-3.4626 2.1259,-5.7005 -0.1746,-1.3792 -1.1893,-2.5416 -2.3212,-3.4488 -3.4332,0.3707 -6.088,3.2996 -6.088,7.1305 0,4.3746 3.4496,8.0396 7.5636,8.1822 0.3993,0.0138 0.7893,-0.0076 1.1689,-0.0587 -1.6335,-1.6751 -2.6545,-4.0145 -2.4492,-6.1047z"/>
    <path class="fil16" d="M102.0906 81.9514c0,7.7851 -5.9086,13.9094 -13.4606,13.6705 -7.8592,-0.2485 -14.4698,-7.2417 -14.4698,-15.6102 0,-8.3688 6.6101,-14.4433 14.4698,-13.6004 7.552,0.8102 13.4606,7.7552 13.4606,15.5401z"/>
    <path class="fil17" d="M104.1311 81.2801c0,7.7851 -5.9089,13.9094 -13.4607,13.6705 -7.8594,-0.2484 -14.4698,-7.2416 -14.4698,-15.6101 0,-8.3688 6.6101,-14.4434 14.4698,-13.6004 7.5518,0.8101 13.4607,7.7552 13.4607,15.54z"/>
    <path class="fil18" d="M103.5384 81.2391c0,7.4425 -5.6536,13.2866 -12.8685,13.0461 -7.4943,-0.25 -13.7869,-6.9239 -13.7869,-14.8971 0,-7.9735 6.2926,-13.7734 13.7869,-12.9823 7.2149,0.7612 12.8685,7.3914 12.8685,14.8333z"/>
    <path class="fil19" d="M103.1138 81.2095c0,7.1964 -5.4705,12.8415 -12.4434,12.6002 -7.2345,-0.25 -13.3008,-6.696 -13.3008,-14.3883 0,-7.6922 6.0663,-13.2955 13.3008,-12.5407 6.9729,0.7276 12.4434,7.1321 12.4434,14.3288z"/>
    <path class="fil14" d="M90.5987 69.3289c0.3712,0.0365 0.6715,0.3807 0.6715,0.7686l0 1.3248c0.7419,0.0854 1.4852,0.218 2.2292,0.3984 0.5487,0.1331 1.0935,0.2911 1.6348,0.4742 0.3244,0.1098 0.5453,0.4471 0.5123,0.7953l-0.158 1.6613c-0.0421,0.4408 -0.4649,0.6996 -0.8631,0.5168 -0.3566,-0.1641 -0.722,-0.3043 -1.0969,-0.421 -0.6536,-0.204 -1.3431,-0.3365 -2.0688,-0.3984l-0.1895 -0.0159 0 3.7949c1.936,0.558 3.3573,1.3086 4.276,2.2529 0.9144,0.9393 1.3697,2.1106 1.3697,3.5161 0,1.5203 -0.5037,2.7374 -1.5147,3.6555 -1.0165,0.9226 -2.4421,1.4419 -4.2849,1.5544l0 1.4626c0,0.3884 -0.3006,0.6911 -0.6721,0.6755l-0.0122 -0.0003c-0.372,-0.0156 -0.6744,-0.3437 -0.6744,-0.7334l0 -1.4425 -0.299 -0.0138c-0.8641,-0.0405 -1.6917,-0.1309 -2.4825,-0.2725 -0.5858,-0.1053 -1.1576,-0.2405 -1.7156,-0.4064 -0.3373,-0.1005 -0.5689,-0.4318 -0.5382,-0.7877l0.1858 -2.1359c0.0402,-0.4617 0.4905,-0.7306 0.9165,-0.5573 0.4966,0.2019 0.9999,0.3723 1.5089,0.5104 0.7932,0.2154 1.5976,0.3538 2.412,0.4152l0.0121 -4.2212c-1.8579,-0.4739 -3.2488,-1.175 -4.1629,-2.1048 -0.9181,-0.9334 -1.3788,-2.1283 -1.3788,-3.5808 0,-1.5037 0.4993,-2.6641 1.4949,-3.4785 0.9904,-0.8104 2.3985,-1.2134 4.2143,-1.2126l0 -1.3544c0,-0.3895 0.3022,-0.6755 0.6736,-0.6395zm-0.6736 5.0655c-0.5741,0.0431 -1.0218,0.2055 -1.3428,0.4876 -0.3212,0.2826 -0.4815,0.6622 -0.4815,1.139 0,0.4517 0.1487,0.8292 0.4458,1.1322 0.2966,0.3026 0.7565,0.5442 1.3785,0.7244l0 -3.4832zm1.1912 7.6435l0 3.8706c0.6238,0.0013 1.103,-0.1524 1.4372,-0.4601 0.3336,-0.3072 0.5003,-0.7416 0.5003,-1.3028 0,-0.5123 -0.155,-0.9367 -0.4651,-1.274 -0.3107,-0.3381 -0.8009,-0.6157 -1.4724,-0.8337z"/>
    <path class="fil20" d="M88.4183 82.9721c0.4204,-4.278 4.2368,-6.0888 3.7386,-10.024 -0.3072,-2.4254 -2.0913,-4.469 -4.0818,-6.0653 -6.0372,0.6525 -10.7055,5.8026 -10.7055,12.5386 0,7.6928 6.0663,14.138 13.3008,14.3883 0.7022,0.0246 1.3886,-0.0132 2.0553,-0.1034 -2.8731,-2.9451 -4.6686,-7.0591 -4.3074,-10.7342z"/>
    <path class="fil21" d="M121.8817 51.754c0,11.2868 -8.5666,20.1662 -19.5162,19.8199 -11.395,-0.3606 -20.9788,-10.4995 -20.9788,-22.6325 0,-12.133 9.5838,-20.9407 20.9788,-19.7183 10.9496,1.1742 19.5162,11.2437 19.5162,22.5309z"/>
    <path class="fil22" d="M124.8408 50.7806c0,11.2871 -8.5672,20.1662 -19.5162,19.8196 -11.3953,-0.3606 -20.9788,-10.4994 -20.9788,-22.6324 0,-12.133 9.5835,-20.9407 20.9788,-19.7184 10.949,1.175 19.5162,11.244 19.5162,22.5312z"/>
    <path class="fil23" d="M123.9815 50.7208c0,10.7902 -8.1968,19.2637 -18.6569,18.915 -10.8661,-0.3622 -19.989,-10.0385 -19.989,-21.599 0,-11.5604 9.1229,-19.9694 19.989,-18.8222 10.4596,1.1039 18.6569,10.7162 18.6569,21.5062z"/>
    <path class="fil24" d="M123.3658 50.6784c0,10.4341 -7.9314,18.6182 -18.0417,18.2684 -10.4883,-0.3624 -19.2841,-9.708 -19.2841,-20.861 0,-11.1533 8.7958,-19.2768 19.2846,-18.1825 10.1098,1.0547 18.0412,10.3407 18.0412,20.7751z"/>
    <path class="fil14" d="M105.2209 33.4533c0.5379,0.0526 0.9734,0.5513 0.9734,1.1144l0 1.9211c1.0758,0.1236 2.1529,0.3162 3.2319,0.5776 0.7954,0.1926 1.5857,0.422 2.3704,0.6877 0.4704,0.159 0.7909,0.6484 0.743,1.1527l-0.2292 2.4088c-0.0608,0.6392 -0.6741,1.0147 -1.2514,0.7496 -0.517,-0.2374 -1.047,-0.4408 -1.5902,-0.6104 -0.9477,-0.2953 -1.9476,-0.4879 -2.9993,-0.5773l-0.2752 -0.0231 0 5.5015c2.8067,0.8091 4.8676,1.8971 6.1997,3.2663 1.3256,1.3621 1.986,3.0599 1.986,5.0983 0,2.2037 -0.7302,3.969 -2.1963,5.2998 -1.474,1.3383 -3.5406,2.0905 -6.2129,2.2538l0 2.1201c0,0.563 -0.4358,1.0017 -0.9745,0.9797l-0.0169 -0.0008c-0.5395,-0.0225 -0.9779,-0.4982 -0.9779,-1.0631l0 -2.0923 -0.4337 -0.0201c-1.2525,-0.0585 -2.4527,-0.1897 -3.5991,-0.3953 -0.8491,-0.1524 -1.6785,-0.3485 -2.4876,-0.5892 -0.489,-0.1455 -0.8253,-0.6258 -0.7803,-1.1417l0.2696 -3.0964c0.0582,-0.6697 0.7112,-1.0589 1.329,-0.8078 0.7202,0.2926 1.4492,0.539 2.1873,0.7398 1.1502,0.3125 2.3162,0.513 3.4973,0.6022l0.0175 -6.1201c-2.694,-0.6869 -4.7107,-1.7039 -6.036,-3.0512 -1.3314,-1.3536 -1.9992,-3.0858 -1.9992,-5.1922 0,-2.1799 0.7245,-3.8621 2.1678,-5.0432 1.4359,-1.1753 3.4766,-1.7592 6.11,-1.7579l0 -1.964c0,-0.5651 0.4376,-0.9803 0.9768,-0.9273zm-0.9768 7.3435c-0.8329,0.0624 -1.4819,0.2979 -1.9463,0.7069 -0.4654,0.4099 -0.6988,0.9605 -0.6988,1.6516 0,0.6545 0.2154,1.202 0.6462,1.6412 0.4299,0.4387 1.0969,0.7887 1.9989,1.0506l0 -5.0503zm1.7267 11.0823l0 5.6126c0.9051,0.0016 1.5991,-0.2207 2.0838,-0.6675 0.4837,-0.4456 0.7252,-1.075 0.7252,-1.8892 0,-0.7421 -0.2246,-1.3575 -0.6741,-1.8473 -0.4503,-0.49 -1.1613,-0.8929 -2.1349,-1.2086z"/>
    <path class="fil25" d="M102.06 53.2332c0.6093,-6.2026 6.1423,-8.8278 5.4205,-14.5333 -0.4451,-3.5163 -3.0319,-6.4799 -5.918,-8.7934 -8.7534,0.9459 -15.522,8.4127 -15.522,18.1793 0,11.1527 8.7953,20.498 19.2841,20.861 1.0187,0.0352 2.013,-0.0193 2.9803,-0.1497 -4.1659,-4.2704 -6.7688,-10.2352 -6.2449,-15.5639z"/>
   </g>
  </g>
  <polygon class="fil26" points="56.0492,95.6287 124.8409,95.6287 124.8409,28.1365 56.0492,28.1365 "/>
 </g>
</svg>
