<svg width="30" height="30" viewBox="0 0 30 30" fill="none" xmlns="http://www.w3.org/2000/svg">
<g clip-path="url(#clip0_309_2794)">
<path d="M29.0073 15.3291C29.0073 14.358 28.9286 13.3816 28.7606 12.4263H15.2859V17.9274H23.0022C22.682 19.7017 21.6532 21.2712 20.1467 22.2685V25.838H24.7502C27.4536 23.3499 29.0073 19.6754 29.0073 15.3291Z" fill="#4285F4"/>
<path d="M15.2858 29.2867C19.1388 29.2867 22.388 28.0216 24.7554 25.8379L20.1519 22.2685C18.8711 23.1398 17.2176 23.6333 15.2911 23.6333C11.5642 23.6333 8.40414 21.1189 7.27031 17.7384H2.51978V21.4181C4.94491 26.2421 9.88441 29.2867 15.2858 29.2867Z" fill="#34A853"/>
<path d="M7.26493 17.7384C6.66652 15.9641 6.66652 14.0429 7.26493 12.2687V8.58899H2.51964C0.493452 12.6256 0.493452 17.3814 2.51964 21.418L7.26493 17.7384Z" fill="#FBBC04"/>
<path d="M15.2858 6.36859C17.3225 6.3371 19.291 7.10348 20.766 8.51027L24.8446 4.43163C22.262 2.0065 18.8343 0.673202 15.2858 0.715196C9.88441 0.715196 4.94491 3.75974 2.51978 8.589L7.26506 12.2687C8.39364 8.88296 11.5589 6.36859 15.2858 6.36859Z" fill="#EA4335"/>
</g>
<defs>
<clipPath id="clip0_309_2794">
<rect width="28.5714" height="28.5714" fill="white" transform="translate(0.714355 0.714233)"/>
</clipPath>
</defs>
</svg>
