<svg width="780" height="500" viewBox="0 0 780 500" fill="none" xmlns="http://www.w3.org/2000/svg">
<path d="M415.019 283.182C415.019 288.488 410.695 292.796 405.358 292.796C400.02 292.796 395.686 288.498 395.686 283.182V276.511C395.686 271.206 400.01 266.908 405.358 266.908C410.695 266.908 415.019 271.206 415.019 276.511V283.182Z" fill="#FFBC45"/>
<path d="M513.51 388.079C510.842 375.135 499.304 340.143 471.202 327.488C443.091 314.844 416.755 325.135 406.993 331.019C397.231 336.902 385.985 359.848 380.958 381.308C375.922 402.778 358.766 402.489 345.453 407.196L351.663 429.553L488.96 430.431C488.96 430.431 488.96 430.431 489.251 426.9C525.048 424.846 516.179 401.023 513.51 388.079ZM373.103 422.343C378.581 422.343 402.99 404.104 408.017 404.693C410.535 418.075 410.826 425.135 411.127 426.013C411.428 426.9 374.588 433.372 373.103 422.343Z" fill="#FFBC45"/>
<path d="M421.882 337.201C420.106 345.628 412.812 397.203 425.233 431.119C434.894 431.906 449.301 431.119 449.301 431.119C446.542 413.278 441.014 363.867 452.451 335.626C441.014 335.825 421.882 337.201 421.882 337.201Z" fill="#FFE4B5"/>
<path d="M428.192 321.904C418.43 322.492 416.163 332.983 420.598 339.455C425.032 345.927 433.419 340.632 434.894 337.401C445.449 347.303 459.163 338.378 462.113 323.679C462.123 322.492 445.358 319.261 428.192 321.904Z" fill="#FFE4B5"/>
<path d="M456.003 268.743C455.561 258.96 445.448 240.282 421.48 241.339C404.415 242.646 402.348 258.711 402.348 258.711C401.756 260.516 398.696 264.325 398.696 264.325C397.813 256.796 402.599 236.852 424.149 236.314C448.408 235.715 459.996 254.582 460.447 268.144C458.521 271.306 456.003 268.743 456.003 268.743Z" fill="#FFBC45"/>
<path d="M408.407 250.225C400.211 255.809 395.305 265.093 399.458 274.327C403.612 283.561 404.786 287.63 400.763 294.86C395.094 305.021 392.706 314.515 396.97 323.151C422.674 319.62 433.981 316.749 433.981 316.749C433.981 316.749 424.038 249.148 408.407 250.225Z" fill="#31241C"/>
<path d="M446.562 296.744C446.562 296.744 452.923 315.781 453.525 323.829C454.076 331.208 429.516 336.124 427.771 328.396C425.955 319.192 423.256 303.555 423.256 303.555" fill="#C97440"/>
<path d="M448.598 304.692L446.562 296.744L423.256 303.555C423.256 303.555 424.089 308.362 425.152 314.385C426.888 314.714 428.674 314.874 430.51 314.784C438.094 314.445 444.646 310.496 448.598 304.692Z" fill="#AB5D2D"/>
<path d="M405.819 287.49C406.391 300.165 417.196 309.987 429.938 309.419C442.689 308.851 452.571 298.121 452 285.436L450.906 261.164C450.334 248.489 439.529 238.667 426.777 239.235C414.026 239.804 404.144 250.534 404.716 263.208L405.819 287.49Z" fill="#C97440"/>
<path d="M436.329 262.361C433.409 260.805 429.577 260.077 426.527 261.643C425.383 262.231 426.396 263.936 427.53 263.348C429.908 262.131 433.068 262.859 435.316 264.066C436.449 264.674 437.452 262.959 436.329 262.361Z" fill="#31241C"/>
<path d="M408.448 265.562C409.823 264.265 411.799 263.787 413.635 264.166C414.889 264.425 415.421 262.51 414.167 262.261C411.618 261.742 408.95 262.361 407.044 264.166C406.111 265.043 407.525 266.439 408.448 265.562Z" fill="#31241C"/>
<path d="M422.223 283.262C422.042 283.262 421.872 283.202 421.721 283.073L417.217 279.134C417.036 278.974 416.936 278.735 416.966 278.496C416.996 278.256 417.136 278.037 417.347 277.917L421.882 275.384C422.243 275.185 422.704 275.314 422.905 275.673C423.106 276.032 422.985 276.491 422.614 276.691L419.002 278.715L422.714 281.956C423.025 282.225 423.056 282.704 422.785 283.013C422.644 283.182 422.434 283.262 422.223 283.262Z" fill="#31241C"/>
<path d="M423.888 289.614C422.674 289.614 421.48 289.295 420.547 288.667C420.206 288.438 420.116 287.969 420.347 287.63C420.577 287.291 421.049 287.201 421.39 287.431C422.664 288.298 424.821 288.338 426.286 287.53C427.169 287.042 428.202 286.034 428.112 284.01C428.092 283.601 428.413 283.252 428.824 283.232C429.236 283.212 429.587 283.531 429.607 283.94C429.707 286.114 428.784 287.849 427.018 288.837C426.085 289.355 424.982 289.614 423.888 289.614Z" fill="#31241C"/>
<path d="M427.279 274.985C427.831 276.431 429.446 277.159 430.901 276.611C432.346 276.072 433.088 274.457 432.536 273.011C431.985 271.565 430.369 270.837 428.915 271.385C427.46 271.934 426.738 273.549 427.279 274.985Z" fill="#1A191F"/>
<path d="M410.485 275.993C411.036 277.429 412.652 278.166 414.106 277.618C415.551 277.079 416.294 275.454 415.742 274.018C415.19 272.572 413.575 271.854 412.12 272.393C410.665 272.931 409.933 274.547 410.485 275.993Z" fill="#1A191F"/>
<path d="M411.207 275.334C411.087 275.334 410.966 275.304 410.866 275.235L408.127 273.569C407.816 273.38 407.716 272.971 407.906 272.662C408.097 272.353 408.508 272.253 408.819 272.442L411.558 274.108C411.869 274.297 411.97 274.706 411.779 275.015C411.648 275.215 411.428 275.334 411.207 275.334Z" fill="#1A191F"/>
<path d="M431.111 274.347C430.901 274.347 430.7 274.247 430.57 274.068C430.359 273.769 430.439 273.36 430.74 273.15L433.61 271.176C433.911 270.967 434.322 271.046 434.533 271.346C434.743 271.645 434.663 272.054 434.362 272.263L431.493 274.237C431.372 274.307 431.242 274.347 431.111 274.347Z" fill="#1A191F"/>
<path d="M473.982 287.64C470.149 279.433 474.885 274.337 472.838 266.509C471.052 259.668 462.855 259.878 458.632 250.185C452.16 235.326 418.842 221.944 406.421 252.099C420.226 242.795 434.383 247.632 439.76 254.513C450.595 268.384 439.479 274.267 443.663 282.514C446.713 288.527 448.709 292.576 444.766 301.671C440.834 310.765 446.341 319.421 446.341 319.421C459.234 318.005 473.811 316.739 487.054 314.515C487.054 292.317 477.814 295.847 473.982 287.64Z" fill="#31241C"/>
<path d="M415.371 401.312C404.124 402.289 399.79 405.63 389.727 410.925C379.664 416.22 377.497 417.397 379.865 418.374C373.946 418.763 377.397 421.904 381.54 420.528C378.781 421.705 382.624 422.981 388.152 420.917C389.536 423.071 396.64 422.094 401.174 419.541C405.709 416.988 416.565 414.834 426.427 418.165C427.611 412.092 423.868 401.501 423.868 401.501L415.371 401.312Z" fill="#C97440"/>
<path d="M422.523 401.462C428.593 400.135 445.559 398.759 455.621 399.357C456.213 407.196 451.869 423.081 451.869 423.081L425.042 417.198C425.032 417.198 426.366 408.811 422.523 401.462Z" fill="#FFBC45"/>
<path d="M422.012 401.601C433.991 399.876 446.101 399.916 458.18 399.577C463.999 399.417 469.577 398.739 475.336 398.091C480.814 397.473 487.305 398.649 492.562 400.235C493.184 400.424 493.445 399.457 492.833 399.278C487.967 397.812 482.279 396.854 477.192 396.964C474.674 397.014 472.136 397.533 469.658 397.902C466.196 398.41 462.665 398.45 459.173 398.56C446.673 398.959 434.162 398.869 421.751 400.654C421.109 400.734 421.38 401.691 422.012 401.601Z" fill="#1F0E03"/>
<path d="M475.446 371.057C476.59 379.333 477.182 387.66 477.202 396.027C477.202 396.665 478.205 396.665 478.205 396.027C478.185 387.58 477.563 379.164 476.409 370.797C476.329 370.159 475.356 370.428 475.446 371.057Z" fill="#1F0E03"/>
<path d="M424.25 417.696C427.881 417.656 431.232 419.252 434.674 420.179C438.767 421.286 442.77 422.662 446.853 423.779C455.11 426.033 463.698 427.459 472.246 427.947C485.85 428.725 502.304 428.067 512.577 417.945C513.039 417.497 512.327 416.789 511.865 417.237C501.13 427.818 483.483 427.828 469.397 426.761C460.969 426.123 452.522 424.407 444.415 422.054C440.773 420.997 437.142 419.89 433.51 418.813C430.45 417.906 427.49 416.659 424.24 416.699C423.598 416.709 423.598 417.706 424.25 417.696Z" fill="#1F0E03"/>
<path d="M404.234 360.795C403.341 363.468 403.602 366.35 403.642 369.132C403.692 372.961 403.983 376.771 404.184 380.59C404.385 384.359 404.495 388.129 404.806 391.898C405.087 395.369 406.411 398.669 406.592 402.11C406.622 402.748 407.625 402.748 407.595 402.11C407.425 398.959 406.211 395.987 405.9 392.836C405.549 389.395 405.438 385.925 405.288 382.465C405.137 378.974 404.896 375.494 404.746 372.014C404.595 368.524 404.094 364.415 405.217 361.065C405.408 360.446 404.435 360.187 404.234 360.795Z" fill="#1F0E03"/>
<path d="M419.424 326.671C417.849 332.195 416.745 339.236 422.965 342.337C425.213 343.454 427.771 342.905 429.938 341.928C431.463 341.24 432.787 340.083 434.042 339.016C435.316 337.929 435.868 339.575 437.001 340.372C446.151 346.874 458.2 337.869 461.23 328.895C461.441 328.286 460.468 328.027 460.267 328.625C457.037 338.199 443.211 346.994 435.266 337.231C435.085 337.012 434.744 337.062 434.553 337.231C431.252 340.183 426.969 343.673 422.464 340.911C417.558 337.899 419.133 331.388 420.397 326.93C420.568 326.322 419.594 326.052 419.424 326.671Z" fill="#1F0E03"/>
<path d="M387.69 421.795C390.851 421.236 393.389 419.272 396.047 417.616C399.719 415.333 403.833 414.016 407.816 412.381C408.408 412.142 408.147 411.174 407.545 411.424C404.264 412.77 400.903 413.907 397.723 415.512C394.272 417.247 391.332 420.149 387.419 420.837C386.787 420.947 387.058 421.904 387.69 421.795Z" fill="#1F0E03"/>
<path d="M380.507 421.745C388.493 418.394 395.857 413.677 404.054 410.815C404.656 410.606 404.395 409.639 403.783 409.858C395.496 412.75 388.061 417.507 379.995 420.887C379.413 421.137 379.925 421.994 380.507 421.745Z" fill="#1F0E03"/>
<path d="M378.731 419.391C381.892 417.487 385.483 416.599 388.734 414.894C391.944 413.199 395.135 411.464 398.466 409.988C399.057 409.728 398.546 408.871 397.964 409.13C394.643 410.606 391.443 412.341 388.232 414.036C384.992 415.752 381.39 416.629 378.23 418.534C377.678 418.863 378.179 419.73 378.731 419.391Z" fill="#1F0E03"/>
<path d="M430.76 345.717C431.101 347.493 433.62 347.423 434.432 346.057C434.884 345.299 434.392 344.401 433.69 344.002C432.837 343.514 431.543 343.603 430.961 344.441C430.59 344.97 431.463 345.468 431.824 344.94C432.265 344.301 434.111 344.97 433.459 345.678C432.967 346.216 431.874 346.256 431.723 345.438C431.613 344.82 430.64 345.089 430.76 345.717Z" fill="#1F0E03"/>
<path d="M429.436 353.097C429.185 354.862 431.242 355.36 432.436 354.373C433.048 353.875 433.359 352.907 432.847 352.229C432.315 351.521 431.272 351.631 430.53 351.87C429.918 352.06 430.178 353.027 430.8 352.828C431.172 352.708 431.663 352.568 432.024 352.788C432.335 352.967 431.914 353.526 431.754 353.645C431.382 353.915 430.299 354.104 430.409 353.356C430.489 352.728 429.526 352.459 429.436 353.097Z" fill="#1F0E03"/>
<path d="M428.824 362.64C428.915 364.645 431.884 363.847 432.175 362.331C432.536 360.486 429.306 359.479 428.985 361.473C428.885 362.102 429.858 362.371 429.948 361.743C430.068 360.975 431.172 361.503 431.192 362.102C431.202 362.57 429.848 363.219 429.818 362.64C429.798 361.992 428.794 361.992 428.824 362.64Z" fill="#1F0E03"/>
<path d="M409.291 417.198C409.14 418.663 409.351 420.369 409.903 421.745C410.144 422.333 411.107 422.074 410.866 421.476C410.344 420.159 410.144 418.594 410.294 417.198C410.364 416.559 409.361 416.559 409.291 417.198Z" fill="#1F0E03"/>
<path d="M421.821 401.741C423.698 403.047 423.838 405.64 424.37 407.664C425.072 410.337 425.594 413.647 424.4 416.26C424.139 416.839 425.002 417.347 425.263 416.759C426.607 413.817 426.045 410.446 425.333 407.395C424.781 405.032 424.45 402.369 422.323 400.883C421.801 400.514 421.3 401.382 421.821 401.741Z" fill="#1F0E03"/>
<path d="M397.623 288.926C396.048 300.554 413.334 300.594 420.798 300.245C421.44 300.215 421.44 299.218 420.798 299.247C414.207 299.557 397.151 299.876 398.596 289.196C398.676 288.567 397.713 288.298 397.623 288.926Z" fill="#1F0E03"/>
<path d="M426.617 299.606C426.617 301.262 424.961 302.598 422.915 302.598C420.868 302.598 419.223 301.262 419.223 299.606C419.223 297.951 420.878 296.615 422.915 296.615C424.961 296.605 426.617 297.951 426.617 299.606Z" fill="#FFBC45"/>
<path d="M424.149 236.314C411.859 236.623 405.027 243.234 401.586 250.265C402.76 250.394 404.024 250.733 405.077 251.232C407.626 246.844 412.451 242.028 421.481 241.329C445.449 240.272 455.562 258.95 456.003 268.733C456.003 268.733 458.521 271.296 460.438 268.135C459.996 254.592 448.409 235.715 424.149 236.314Z" fill="#FFBC45"/>
<path d="M468.243 283.182C468.243 288.488 463.919 292.796 458.582 292.796C453.244 292.796 448.91 288.498 448.91 283.182V276.511C448.91 271.206 453.234 266.908 458.582 266.908C463.919 266.908 468.243 271.206 468.243 276.511V283.182Z" fill="#FFBC45"/>
<path d="M465.965 282.155C465.614 288.637 456.856 290.123 454.458 284.04C453.745 282.225 454.147 279.652 454.147 277.738C454.147 271.106 463.327 269.959 465.654 275.853C466.367 277.668 465.965 280.241 465.965 282.155C465.965 282.803 466.969 282.803 466.969 282.155C466.969 278.156 467.36 274.297 463.547 271.804C458.922 268.783 453.414 272.841 453.144 277.738C452.933 281.677 452.893 285.695 456.565 288.089C461.19 291.11 466.698 287.052 466.969 282.155C466.999 281.507 465.995 281.517 465.965 282.155Z" fill="#1F0E03"/>
<path d="M352.836 421.705C358.364 421.705 426.416 421.705 429.968 421.705C433.519 421.705 434.312 428.765 428.393 428.765C422.473 428.765 251.446 428.765 251.446 428.765C246.119 418.175 222.251 353.476 219.883 347.393C217.515 341.32 219.682 334.26 229.354 334.26C239.015 334.26 290.112 334.26 297.215 334.26C304.318 334.26 312.204 335.436 317.14 346.216C322.066 357.006 352.836 421.705 352.836 421.705Z" fill="#83BCFF"/>
<path d="M430.209 428.486C430.439 428.406 430.65 428.306 430.851 428.207C430.871 428.197 430.891 428.187 430.901 428.177C433.931 426.492 432.887 421.705 429.968 421.705C429.386 421.705 427.098 421.705 423.657 421.705C405.929 421.705 357.461 421.705 352.836 421.705C352.836 421.705 352.816 421.655 352.776 421.575C352.736 421.505 352.696 421.406 352.626 421.266C352.355 420.688 351.813 419.561 351.061 417.975C344.439 404.054 321.344 355.44 317.13 346.216C312.194 335.426 304.308 334.26 297.205 334.26C296.081 334.26 293.864 334.26 290.895 334.26C297.998 334.26 305.883 335.436 310.819 346.216C315.746 357.006 346.526 421.705 346.526 421.705L349.195 428.576C349.195 428.576 352.515 428.655 357.833 428.765C385.463 428.765 410.655 428.765 422.092 428.765C425.594 428.765 427.821 428.765 428.403 428.765C428.754 428.765 429.085 428.735 429.396 428.685C429.597 428.655 429.767 428.606 429.948 428.556C430.018 428.526 430.118 428.516 430.209 428.486Z" fill="#3994FF"/>
<path d="M288.727 382.495C290.674 387.281 288.366 391.16 283.57 391.16C278.775 391.16 273.307 387.281 271.361 382.495C269.414 377.708 271.722 373.829 276.517 373.829C281.313 373.829 286.781 377.708 288.727 382.495Z" stroke="#1F0E03" stroke-miterlimit="10"/>
<path d="M520.453 434.24H242.196V478.087C272.745 484.549 313.91 489.226 354.452 489.735C409.953 490.433 467.51 489.804 520.453 487.242V434.24Z" fill="#F5CDB3"/>
<path d="M532 433.143C532 435.756 529.863 437.88 527.235 437.88H235.413C232.785 437.88 230.648 435.756 230.648 433.143C230.648 430.53 232.785 428.406 235.413 428.406H527.235C529.873 428.406 532 430.53 532 433.143Z" fill="#C97440"/>
<g clip-path="url(#clip0_300_1415)">
<path d="M780 247.213C780 269.191 759.627 287 734.51 287H567.49C542.373 287 522 269.181 522 247.213V194.787C522 172.819 542.373 155 567.49 155H734.498C759.627 155 779.989 172.819 779.989 194.787V247.213H780Z" fill="#FFBC45"/>
<path d="M599.05 309.89C592.21 316.36 586.63 316.36 586.64 309.89C586.65 303.42 586.68 292.82 586.69 286.34C586.7 279.86 592.3 274.57 599.12 274.57C605.94 274.57 617.11 274.57 623.93 274.57C630.75 274.57 630.74 279.87 623.91 286.34C617.07 292.82 605.88 303.41 599.05 309.89Z" fill="#FFBC45"/>
<path d="M710.75 261.73C713.79 254.19 724.29 248.8 729.66 248.87H747.79C753.75 249.43 763.66 254.19 766.7 261.73C759.6 268.76 749.7 273.12 738.73 273.12C727.75 273.12 717.85 268.75 710.75 261.73Z" fill="#31241C"/>
<path d="M746.12 233.4C746.12 233.4 747.86 247.66 749.05 255.72C749.93 261.61 728.79 263.26 728.15 256.92C727.59 249.39 726.94 236.63 726.94 236.63" fill="#C97440"/>
<path d="M746.98 239.95L746.12 233.4L726.95 236.63C726.95 236.63 727.15 240.55 727.42 245.47C728.77 245.9 730.17 246.19 731.64 246.3C737.7 246.75 743.28 244.21 746.98 239.95Z" fill="#AB5D2D"/>
<path d="M714.63 222.12C713.87 232.31 721.51 241.19 731.7 241.95C741.89 242.71 750.77 235.07 751.53 224.87L752.99 205.36C753.75 195.17 746.11 186.29 735.92 185.53C725.73 184.77 716.85 192.41 716.09 202.6L714.63 222.12Z" fill="#C97440"/>
<path d="M739.96 205.6C738.96 203.67 736.73 202.33 734.52 202.58C733.26 202.73 733.25 204.71 734.52 204.56C736.08 204.38 737.53 205.21 738.24 206.59C738.84 207.73 740.55 206.73 739.96 205.6Z" fill="#31241C"/>
<path d="M719.86 205.05C720.73 204.14 722.32 203.52 723.56 203.82C724.8 204.12 725.33 202.21 724.09 201.91C722.17 201.45 719.82 202.23 718.46 203.65C717.58 204.57 718.98 205.98 719.86 205.05Z" fill="#31241C"/>
<path d="M728.15 220.46C727.94 220.46 727.74 220.38 727.59 220.21L724.39 216.63C724.23 216.45 724.16 216.2 724.22 215.96C724.27 215.72 724.44 215.53 724.66 215.43L728.51 213.83C728.89 213.67 729.33 213.85 729.49 214.24C729.65 214.62 729.47 215.06 729.08 215.22L726.21 216.41L728.71 219.2C728.99 219.51 728.96 219.98 728.65 220.26C728.5 220.4 728.32 220.46 728.15 220.46Z" fill="#31241C"/>
<path d="M727.85 230.73C725.79 230.73 724.4 228.55 723.6 224.07C723.56 223.83 723.63 223.59 723.8 223.42C723.97 223.25 724.21 223.17 724.45 223.2C725.71 223.39 727.32 223.58 729.64 223.58C730.83 223.58 732.13 223.53 733.61 223.43C733.88 223.41 734.15 223.55 734.3 223.78C734.45 224.02 734.45 224.32 734.31 224.55C731.85 228.71 729.74 230.73 727.85 230.73ZM725.28 224.83C725.91 227.65 726.83 229.24 727.85 229.24C728.51 229.24 729.92 228.66 732.26 225.02C729.56 225.14 727.5 225.09 725.28 224.83Z" fill="#31241C"/>
<path d="M732.88 214.17C733.18 215.38 734.4 216.11 735.6 215.82C736.8 215.52 737.54 214.3 737.24 213.1C736.94 211.89 735.73 211.16 734.52 211.45C733.32 211.74 732.59 212.96 732.88 214.17Z" fill="#1A191F"/>
<path d="M719.44 213.37C719.74 214.57 720.96 215.31 722.16 215.01C723.36 214.71 724.1 213.49 723.81 212.29C723.51 211.08 722.29 210.35 721.09 210.65C719.88 210.94 719.14 212.16 719.44 213.37Z" fill="#1A191F"/>
<path d="M747.99 219.98C747.11 223.59 749.33 227.22 752.93 228.1C756.54 228.98 760.17 226.77 761.05 223.16L761.55 221.1C762.43 217.49 760.22 213.86 756.61 212.98C753 212.1 749.37 214.32 748.49 217.92L747.99 219.98Z" fill="#C97440"/>
<path d="M758.12 213.65C759.7 209.15 767.4 190.85 755.95 190.3C755.24 183.11 745.25 179.33 732.78 176.88C720.31 174.43 712.53 180.28 713.47 186.12C714.42 191.96 722.08 194.09 728.15 192.36C729.89 198.68 738.26 196.54 740.07 195.28C741.47 201.4 748.42 202.88 747.63 207.14C746.84 211.4 746.48 215.75 746.33 216.62C746.17 217.49 749.8 219.18 750.6 217.45C751.39 215.7 754.51 212.58 758.12 213.65Z" fill="#31241C"/>
<path d="M598.82 306.23C603.86 301.7 608.91 297.19 613.64 292.34C615.83 290.1 617.78 287.17 620.43 285.39C622 284.34 623.94 284.17 625.77 284.06C629.37 283.85 633 283.95 636.61 283.9C643.15 283.81 649.68 283.46 656.23 283.47C663.24 283.48 670.25 283.8 677.25 284.12C690.89 284.74 704.56 285.39 718.17 283.98C718.8 283.91 718.81 282.91 718.17 282.98C704.24 284.41 690.26 283.71 676.31 283.07C668.98 282.74 661.64 282.45 654.3 282.46C647.75 282.47 641.2 282.84 634.65 282.91C630.18 282.96 623.96 281.97 619.94 284.51C617.45 286.09 615.58 288.85 613.6 290.94C608.73 296.08 603.39 300.77 598.13 305.5C597.64 305.95 598.35 306.66 598.82 306.23Z" fill="#1F0E03"/>
<path d="M546.024 212L540.528 195.2H544.56L549.336 210.08H547.32L552.312 195.2H555.912L560.712 210.08H558.768L563.664 195.2H567.384L561.888 212H557.712L553.464 198.944H554.568L550.2 212H546.024ZM574.474 212.192C573.098 212.192 571.874 211.904 570.802 211.328C569.746 210.752 568.906 209.968 568.282 208.976C567.674 207.968 567.37 206.824 567.37 205.544C567.37 204.248 567.674 203.104 568.282 202.112C568.906 201.104 569.746 200.32 570.802 199.76C571.874 199.184 573.098 198.896 574.474 198.896C575.834 198.896 577.05 199.184 578.122 199.76C579.194 200.32 580.034 201.096 580.642 202.088C581.25 203.08 581.554 204.232 581.554 205.544C581.554 206.824 581.25 207.968 580.642 208.976C580.034 209.968 579.194 210.752 578.122 211.328C577.05 211.904 575.834 212.192 574.474 212.192ZM574.474 209.12C575.098 209.12 575.658 208.976 576.154 208.688C576.65 208.4 577.042 207.992 577.33 207.464C577.618 206.92 577.762 206.28 577.762 205.544C577.762 204.792 577.618 204.152 577.33 203.624C577.042 203.096 576.65 202.688 576.154 202.4C575.658 202.112 575.098 201.968 574.474 201.968C573.85 201.968 573.29 202.112 572.794 202.4C572.298 202.688 571.898 203.096 571.594 203.624C571.306 204.152 571.162 204.792 571.162 205.544C571.162 206.28 571.306 206.92 571.594 207.464C571.898 207.992 572.298 208.4 572.794 208.688C573.29 208.976 573.85 209.12 574.474 209.12ZM586.657 212L582.001 199.088H585.529L589.393 210.2H587.713L591.745 199.088H594.913L598.825 210.2H597.145L601.129 199.088H604.441L599.761 212H596.137L592.705 202.472H593.809L590.257 212H586.657ZM604.76 215.696L606.344 209.936L606.872 212.096C606.184 212.096 605.616 211.896 605.168 211.496C604.736 211.096 604.52 210.544 604.52 209.84C604.52 209.136 604.744 208.576 605.192 208.16C605.64 207.744 606.192 207.536 606.848 207.536C607.52 207.536 608.072 207.752 608.504 208.184C608.936 208.6 609.152 209.152 609.152 209.84C609.152 210.048 609.136 210.256 609.104 210.464C609.072 210.656 609.008 210.896 608.912 211.184C608.832 211.456 608.696 211.808 608.504 212.24L607.136 215.696H604.76ZM622.83 212.192C621.726 212.192 620.662 212.064 619.638 211.808C618.63 211.536 617.83 211.2 617.238 210.8L618.486 208.112C619.078 208.48 619.774 208.784 620.574 209.024C621.39 209.248 622.19 209.36 622.974 209.36C623.838 209.36 624.446 209.256 624.798 209.048C625.166 208.84 625.35 208.552 625.35 208.184C625.35 207.88 625.206 207.656 624.918 207.512C624.646 207.352 624.278 207.232 623.814 207.152C623.35 207.072 622.838 206.992 622.278 206.912C621.734 206.832 621.182 206.728 620.622 206.6C620.062 206.456 619.55 206.248 619.086 205.976C618.622 205.704 618.246 205.336 617.958 204.872C617.686 204.408 617.55 203.808 617.55 203.072C617.55 202.256 617.782 201.536 618.246 200.912C618.726 200.288 619.414 199.8 620.31 199.448C621.206 199.08 622.278 198.896 623.526 198.896C624.406 198.896 625.302 198.992 626.214 199.184C627.126 199.376 627.886 199.656 628.494 200.024L627.246 202.688C626.622 202.32 625.99 202.072 625.35 201.944C624.726 201.8 624.118 201.728 623.526 201.728C622.694 201.728 622.086 201.84 621.702 202.064C621.318 202.288 621.126 202.576 621.126 202.928C621.126 203.248 621.262 203.488 621.534 203.648C621.822 203.808 622.198 203.936 622.662 204.032C623.126 204.128 623.63 204.216 624.174 204.296C624.734 204.36 625.294 204.464 625.854 204.608C626.414 204.752 626.918 204.96 627.366 205.232C627.83 205.488 628.206 205.848 628.494 206.312C628.782 206.76 628.926 207.352 628.926 208.088C628.926 208.888 628.686 209.6 628.206 210.224C627.726 210.832 627.03 211.312 626.118 211.664C625.222 212.016 624.126 212.192 622.83 212.192ZM637.38 212.192C636.004 212.192 634.78 211.904 633.708 211.328C632.652 210.752 631.812 209.968 631.188 208.976C630.58 207.968 630.276 206.824 630.276 205.544C630.276 204.248 630.58 203.104 631.188 202.112C631.812 201.104 632.652 200.32 633.708 199.76C634.78 199.184 636.004 198.896 637.38 198.896C638.74 198.896 639.956 199.184 641.028 199.76C642.1 200.32 642.94 201.096 643.548 202.088C644.156 203.08 644.46 204.232 644.46 205.544C644.46 206.824 644.156 207.968 643.548 208.976C642.94 209.968 642.1 210.752 641.028 211.328C639.956 211.904 638.74 212.192 637.38 212.192ZM637.38 209.12C638.004 209.12 638.564 208.976 639.06 208.688C639.556 208.4 639.948 207.992 640.236 207.464C640.524 206.92 640.668 206.28 640.668 205.544C640.668 204.792 640.524 204.152 640.236 203.624C639.948 203.096 639.556 202.688 639.06 202.4C638.564 202.112 638.004 201.968 637.38 201.968C636.756 201.968 636.196 202.112 635.7 202.4C635.204 202.688 634.804 203.096 634.5 203.624C634.212 204.152 634.068 204.792 634.068 205.544C634.068 206.28 634.212 206.92 634.5 207.464C634.804 207.992 635.204 208.4 635.7 208.688C636.196 208.976 636.756 209.12 637.38 209.12ZM654.215 212V198.8C654.215 197.344 654.647 196.184 655.511 195.32C656.375 194.44 657.607 194 659.207 194C659.751 194 660.271 194.056 660.767 194.168C661.279 194.28 661.711 194.456 662.063 194.696L661.079 197.408C660.871 197.264 660.639 197.152 660.383 197.072C660.127 196.992 659.855 196.952 659.567 196.952C659.023 196.952 658.599 197.112 658.295 197.432C658.007 197.736 657.863 198.2 657.863 198.824V200.024L657.959 201.632V212H654.215ZM652.223 202.256V199.376H661.175V202.256H652.223ZM670.726 212V209.48L670.486 208.928V204.416C670.486 203.616 670.238 202.992 669.742 202.544C669.262 202.096 668.518 201.872 667.51 201.872C666.822 201.872 666.142 201.984 665.47 202.208C664.814 202.416 664.254 202.704 663.79 203.072L662.446 200.456C663.15 199.96 663.998 199.576 664.99 199.304C665.982 199.032 666.99 198.896 668.014 198.896C669.982 198.896 671.51 199.36 672.598 200.288C673.686 201.216 674.23 202.664 674.23 204.632V212H670.726ZM666.79 212.192C665.782 212.192 664.918 212.024 664.198 211.688C663.478 211.336 662.926 210.864 662.542 210.272C662.158 209.68 661.966 209.016 661.966 208.28C661.966 207.512 662.15 206.84 662.518 206.264C662.902 205.688 663.502 205.24 664.318 204.92C665.134 204.584 666.198 204.416 667.51 204.416H670.942V206.6H667.918C667.038 206.6 666.43 206.744 666.094 207.032C665.774 207.32 665.614 207.68 665.614 208.112C665.614 208.592 665.798 208.976 666.166 209.264C666.55 209.536 667.07 209.672 667.726 209.672C668.35 209.672 668.91 209.528 669.406 209.24C669.902 208.936 670.262 208.496 670.486 207.92L671.062 209.648C670.79 210.48 670.294 211.112 669.574 211.544C668.854 211.976 667.926 212.192 666.79 212.192ZM681.963 212.192C680.859 212.192 679.795 212.064 678.771 211.808C677.763 211.536 676.963 211.2 676.371 210.8L677.619 208.112C678.211 208.48 678.907 208.784 679.707 209.024C680.523 209.248 681.323 209.36 682.107 209.36C682.971 209.36 683.579 209.256 683.931 209.048C684.299 208.84 684.483 208.552 684.483 208.184C684.483 207.88 684.339 207.656 684.051 207.512C683.779 207.352 683.411 207.232 682.947 207.152C682.483 207.072 681.971 206.992 681.411 206.912C680.867 206.832 680.315 206.728 679.755 206.6C679.195 206.456 678.683 206.248 678.219 205.976C677.755 205.704 677.379 205.336 677.091 204.872C676.819 204.408 676.683 203.808 676.683 203.072C676.683 202.256 676.915 201.536 677.379 200.912C677.859 200.288 678.547 199.8 679.443 199.448C680.339 199.08 681.411 198.896 682.659 198.896C683.539 198.896 684.435 198.992 685.347 199.184C686.259 199.376 687.019 199.656 687.627 200.024L686.379 202.688C685.755 202.32 685.123 202.072 684.483 201.944C683.859 201.8 683.251 201.728 682.659 201.728C681.827 201.728 681.219 201.84 680.835 202.064C680.451 202.288 680.259 202.576 680.259 202.928C680.259 203.248 680.395 203.488 680.667 203.648C680.955 203.808 681.331 203.936 681.795 204.032C682.259 204.128 682.763 204.216 683.307 204.296C683.867 204.36 684.427 204.464 684.987 204.608C685.547 204.752 686.051 204.96 686.499 205.232C686.963 205.488 687.339 205.848 687.627 206.312C687.915 206.76 688.059 207.352 688.059 208.088C688.059 208.888 687.819 209.6 687.339 210.224C686.859 210.832 686.163 211.312 685.251 211.664C684.355 212.016 683.259 212.192 681.963 212.192ZM695.649 212.192C694.129 212.192 692.945 211.808 692.097 211.04C691.249 210.256 690.825 209.096 690.825 207.56V196.232H694.569V207.512C694.569 208.056 694.713 208.48 695.001 208.784C695.289 209.072 695.681 209.216 696.177 209.216C696.769 209.216 697.273 209.056 697.689 208.736L698.697 211.376C698.313 211.648 697.849 211.856 697.305 212C696.777 212.128 696.225 212.192 695.649 212.192ZM688.833 202.256V199.376H697.785V202.256H688.833ZM549.648 248V245.48L549.408 244.928V240.416C549.408 239.616 549.16 238.992 548.664 238.544C548.184 238.096 547.44 237.872 546.432 237.872C545.744 237.872 545.064 237.984 544.392 238.208C543.736 238.416 543.176 238.704 542.712 239.072L541.368 236.456C542.072 235.96 542.92 235.576 543.912 235.304C544.904 235.032 545.912 234.896 546.936 234.896C548.904 234.896 550.432 235.36 551.52 236.288C552.608 237.216 553.152 238.664 553.152 240.632V248H549.648ZM545.712 248.192C544.704 248.192 543.84 248.024 543.12 247.688C542.4 247.336 541.848 246.864 541.464 246.272C541.08 245.68 540.888 245.016 540.888 244.28C540.888 243.512 541.072 242.84 541.44 242.264C541.824 241.688 542.424 241.24 543.24 240.92C544.056 240.584 545.12 240.416 546.432 240.416H549.864V242.6H546.84C545.96 242.6 545.352 242.744 545.016 243.032C544.696 243.32 544.536 243.68 544.536 244.112C544.536 244.592 544.72 244.976 545.088 245.264C545.472 245.536 545.992 245.672 546.648 245.672C547.272 245.672 547.832 245.528 548.328 245.24C548.824 244.936 549.184 244.496 549.408 243.92L549.984 245.648C549.712 246.48 549.216 247.112 548.496 247.544C547.776 247.976 546.848 248.192 545.712 248.192ZM564.389 234.896C565.413 234.896 566.325 235.104 567.125 235.52C567.941 235.92 568.581 236.544 569.045 237.392C569.509 238.224 569.741 239.296 569.741 240.608V248H565.997V241.184C565.997 240.144 565.765 239.376 565.301 238.88C564.853 238.384 564.213 238.136 563.381 238.136C562.789 238.136 562.253 238.264 561.773 238.52C561.309 238.76 560.941 239.136 560.669 239.648C560.413 240.16 560.285 240.816 560.285 241.616V248H556.541V235.088H560.117V238.664L559.445 237.584C559.909 236.72 560.573 236.056 561.437 235.592C562.301 235.128 563.285 234.896 564.389 234.896ZM578.772 248.192C577.556 248.192 576.46 247.92 575.484 247.376C574.508 246.816 573.732 246.04 573.156 245.048C572.596 244.056 572.316 242.888 572.316 241.544C572.316 240.184 572.596 239.008 573.156 238.016C573.732 237.024 574.508 236.256 575.484 235.712C576.46 235.168 577.556 234.896 578.772 234.896C579.86 234.896 580.812 235.136 581.628 235.616C582.444 236.096 583.076 236.824 583.524 237.8C583.972 238.776 584.196 240.024 584.196 241.544C584.196 243.048 583.98 244.296 583.548 245.288C583.116 246.264 582.492 246.992 581.676 247.472C580.876 247.952 579.908 248.192 578.772 248.192ZM579.42 245.12C580.028 245.12 580.58 244.976 581.076 244.688C581.572 244.4 581.964 243.992 582.252 243.464C582.556 242.92 582.708 242.28 582.708 241.544C582.708 240.792 582.556 240.152 582.252 239.624C581.964 239.096 581.572 238.688 581.076 238.4C580.58 238.112 580.028 237.968 579.42 237.968C578.796 237.968 578.236 238.112 577.74 238.4C577.244 238.688 576.844 239.096 576.54 239.624C576.252 240.152 576.108 240.792 576.108 241.544C576.108 242.28 576.252 242.92 576.54 243.464C576.844 243.992 577.244 244.4 577.74 244.688C578.236 244.976 578.796 245.12 579.42 245.12ZM582.804 248V245.36L582.876 241.52L582.636 237.704V230.192H586.38V248H582.804ZM603.05 248.192C601.578 248.192 600.282 247.904 599.162 247.328C598.058 246.752 597.202 245.968 596.594 244.976C595.986 243.968 595.682 242.824 595.682 241.544C595.682 240.248 595.978 239.104 596.57 238.112C597.178 237.104 598.002 236.32 599.042 235.76C600.082 235.184 601.258 234.896 602.57 234.896C603.834 234.896 604.97 235.168 605.978 235.712C607.002 236.24 607.81 237.008 608.402 238.016C608.994 239.008 609.29 240.2 609.29 241.592C609.29 241.736 609.282 241.904 609.266 242.096C609.25 242.272 609.234 242.44 609.218 242.6H598.73V240.416H607.25L605.81 241.064C605.81 240.392 605.674 239.808 605.402 239.312C605.13 238.816 604.754 238.432 604.274 238.16C603.794 237.872 603.234 237.728 602.594 237.728C601.954 237.728 601.386 237.872 600.89 238.16C600.41 238.432 600.034 238.824 599.762 239.336C599.49 239.832 599.354 240.424 599.354 241.112V241.688C599.354 242.392 599.506 243.016 599.81 243.56C600.13 244.088 600.57 244.496 601.13 244.784C601.706 245.056 602.378 245.192 603.146 245.192C603.834 245.192 604.434 245.088 604.946 244.88C605.474 244.672 605.954 244.36 606.386 243.944L608.378 246.104C607.786 246.776 607.042 247.296 606.146 247.664C605.25 248.016 604.218 248.192 603.05 248.192ZM619.351 248V245.48L619.111 244.928V240.416C619.111 239.616 618.863 238.992 618.367 238.544C617.887 238.096 617.143 237.872 616.135 237.872C615.447 237.872 614.767 237.984 614.095 238.208C613.439 238.416 612.879 238.704 612.415 239.072L611.071 236.456C611.775 235.96 612.623 235.576 613.615 235.304C614.607 235.032 615.615 234.896 616.639 234.896C618.607 234.896 620.135 235.36 621.223 236.288C622.311 237.216 622.855 238.664 622.855 240.632V248H619.351ZM615.415 248.192C614.407 248.192 613.543 248.024 612.823 247.688C612.103 247.336 611.551 246.864 611.167 246.272C610.783 245.68 610.591 245.016 610.591 244.28C610.591 243.512 610.775 242.84 611.143 242.264C611.527 241.688 612.127 241.24 612.943 240.92C613.759 240.584 614.823 240.416 616.135 240.416H619.567V242.6H616.543C615.663 242.6 615.055 242.744 614.719 243.032C614.399 243.32 614.239 243.68 614.239 244.112C614.239 244.592 614.423 244.976 614.791 245.264C615.175 245.536 615.695 245.672 616.351 245.672C616.975 245.672 617.535 245.528 618.031 245.24C618.527 244.936 618.887 244.496 619.111 243.92L619.687 245.648C619.415 246.48 618.919 247.112 618.199 247.544C617.479 247.976 616.551 248.192 615.415 248.192ZM630.588 248.192C629.484 248.192 628.42 248.064 627.396 247.808C626.388 247.536 625.588 247.2 624.996 246.8L626.244 244.112C626.836 244.48 627.532 244.784 628.332 245.024C629.148 245.248 629.948 245.36 630.732 245.36C631.596 245.36 632.204 245.256 632.556 245.048C632.924 244.84 633.108 244.552 633.108 244.184C633.108 243.88 632.964 243.656 632.676 243.512C632.404 243.352 632.036 243.232 631.572 243.152C631.108 243.072 630.596 242.992 630.036 242.912C629.492 242.832 628.94 242.728 628.38 242.6C627.82 242.456 627.308 242.248 626.844 241.976C626.38 241.704 626.004 241.336 625.716 240.872C625.444 240.408 625.308 239.808 625.308 239.072C625.308 238.256 625.54 237.536 626.004 236.912C626.484 236.288 627.172 235.8 628.068 235.448C628.964 235.08 630.036 234.896 631.284 234.896C632.164 234.896 633.06 234.992 633.972 235.184C634.884 235.376 635.644 235.656 636.252 236.024L635.004 238.688C634.38 238.32 633.748 238.072 633.108 237.944C632.484 237.8 631.876 237.728 631.284 237.728C630.452 237.728 629.844 237.84 629.46 238.064C629.076 238.288 628.884 238.576 628.884 238.928C628.884 239.248 629.02 239.488 629.292 239.648C629.58 239.808 629.956 239.936 630.42 240.032C630.884 240.128 631.388 240.216 631.932 240.296C632.492 240.36 633.052 240.464 633.612 240.608C634.172 240.752 634.676 240.96 635.124 241.232C635.588 241.488 635.964 241.848 636.252 242.312C636.54 242.76 636.684 243.352 636.684 244.088C636.684 244.888 636.444 245.6 635.964 246.224C635.484 246.832 634.788 247.312 633.876 247.664C632.98 248.016 631.884 248.192 630.588 248.192ZM640.391 252.848C639.719 252.848 639.055 252.744 638.399 252.536C637.743 252.328 637.207 252.04 636.791 251.672L638.159 249.008C638.447 249.264 638.775 249.464 639.143 249.608C639.527 249.752 639.903 249.824 640.271 249.824C640.799 249.824 641.215 249.696 641.519 249.44C641.839 249.2 642.127 248.792 642.383 248.216L643.055 246.632L643.343 246.224L647.975 235.088H651.575L645.743 248.792C645.327 249.832 644.847 250.648 644.303 251.24C643.775 251.832 643.183 252.248 642.527 252.488C641.887 252.728 641.175 252.848 640.391 252.848ZM642.599 248.504L636.839 235.088H640.703L645.167 245.888L642.599 248.504ZM653.367 242.168L652.623 231.2H657.087L656.343 242.168H653.367ZM654.855 248.192C654.183 248.192 653.631 247.976 653.199 247.544C652.767 247.112 652.551 246.6 652.551 246.008C652.551 245.4 652.767 244.896 653.199 244.496C653.631 244.08 654.183 243.872 654.855 243.872C655.543 243.872 656.095 244.08 656.511 244.496C656.943 244.896 657.159 245.4 657.159 246.008C657.159 246.6 656.943 247.112 656.511 247.544C656.095 247.976 655.543 248.192 654.855 248.192Z" fill="white"/>
</g>
<g clip-path="url(#clip1_300_1415)">
<path d="M110.42 239.4C117.01 245.65 122.4 245.65 122.38 239.4C122.37 233.15 122.34 222.93 122.33 216.69C122.32 210.44 116.92 205.33 110.34 205.33C103.76 205.33 92.9902 205.33 86.4102 205.33C79.8302 205.33 79.8402 210.44 86.4302 216.69C93.0302 222.93 103.82 233.15 110.42 239.4Z" fill="#FFBC45"/>
<path d="M303 178.719C303 199.865 283.032 217 258.391 217H94.6095C69.9685 217 50 199.855 50 178.719V128.281C50 107.135 69.9685 90 94.6095 90H258.379C283.02 90 302.988 107.135 302.988 128.281V178.719H303Z" fill="#FFBC45"/>
<path d="M141.826 127V111.6H144.774L153.86 122.688H152.43V111.6H155.95V127H153.024L143.916 115.912H145.346V127H141.826Z" fill="white"/>
<path d="M165.226 127.176C163.876 127.176 162.688 126.912 161.662 126.384C160.65 125.856 159.865 125.137 159.308 124.228C158.75 123.304 158.472 122.255 158.472 121.082C158.472 119.894 158.743 118.845 159.286 117.936C159.843 117.012 160.598 116.293 161.552 115.78C162.505 115.252 163.583 114.988 164.786 114.988C165.944 114.988 166.986 115.237 167.91 115.736C168.848 116.22 169.589 116.924 170.132 117.848C170.674 118.757 170.946 119.85 170.946 121.126C170.946 121.258 170.938 121.412 170.924 121.588C170.909 121.749 170.894 121.903 170.88 122.05H161.266V120.048H169.076L167.756 120.642C167.756 120.026 167.631 119.491 167.382 119.036C167.132 118.581 166.788 118.229 166.348 117.98C165.908 117.716 165.394 117.584 164.808 117.584C164.221 117.584 163.7 117.716 163.246 117.98C162.806 118.229 162.461 118.589 162.212 119.058C161.962 119.513 161.838 120.055 161.838 120.686V121.214C161.838 121.859 161.977 122.431 162.256 122.93C162.549 123.414 162.952 123.788 163.466 124.052C163.994 124.301 164.61 124.426 165.314 124.426C165.944 124.426 166.494 124.331 166.964 124.14C167.448 123.949 167.888 123.663 168.284 123.282L170.11 125.262C169.567 125.878 168.885 126.355 168.064 126.692C167.242 127.015 166.296 127.176 165.226 127.176Z" fill="white"/>
<path d="M179.105 127.176C177.755 127.176 176.567 126.912 175.541 126.384C174.529 125.856 173.744 125.137 173.187 124.228C172.629 123.304 172.351 122.255 172.351 121.082C172.351 119.894 172.622 118.845 173.165 117.936C173.722 117.012 174.477 116.293 175.431 115.78C176.384 115.252 177.462 114.988 178.665 114.988C179.823 114.988 180.865 115.237 181.789 115.736C182.727 116.22 183.468 116.924 184.011 117.848C184.553 118.757 184.825 119.85 184.825 121.126C184.825 121.258 184.817 121.412 184.803 121.588C184.788 121.749 184.773 121.903 184.759 122.05H175.145V120.048H182.955L181.635 120.642C181.635 120.026 181.51 119.491 181.261 119.036C181.011 118.581 180.667 118.229 180.227 117.98C179.787 117.716 179.273 117.584 178.687 117.584C178.1 117.584 177.579 117.716 177.125 117.98C176.685 118.229 176.34 118.589 176.091 119.058C175.841 119.513 175.717 120.055 175.717 120.686V121.214C175.717 121.859 175.856 122.431 176.135 122.93C176.428 123.414 176.831 123.788 177.345 124.052C177.873 124.301 178.489 124.426 179.193 124.426C179.823 124.426 180.373 124.331 180.843 124.14C181.327 123.949 181.767 123.663 182.163 123.282L183.989 125.262C183.446 125.878 182.764 126.355 181.943 126.692C181.121 127.015 180.175 127.176 179.105 127.176Z" fill="white"/>
<path d="M192.192 127.176C191.077 127.176 190.072 126.927 189.178 126.428C188.283 125.915 187.572 125.203 187.044 124.294C186.53 123.385 186.274 122.314 186.274 121.082C186.274 119.835 186.53 118.757 187.044 117.848C187.572 116.939 188.283 116.235 189.178 115.736C190.072 115.237 191.077 114.988 192.192 114.988C193.189 114.988 194.062 115.208 194.81 115.648C195.558 116.088 196.137 116.755 196.548 117.65C196.958 118.545 197.164 119.689 197.164 121.082C197.164 122.461 196.966 123.605 196.57 124.514C196.174 125.409 195.602 126.076 194.854 126.516C194.12 126.956 193.233 127.176 192.192 127.176ZM192.786 124.36C193.343 124.36 193.849 124.228 194.304 123.964C194.758 123.7 195.118 123.326 195.382 122.842C195.66 122.343 195.8 121.757 195.8 121.082C195.8 120.393 195.66 119.806 195.382 119.322C195.118 118.838 194.758 118.464 194.304 118.2C193.849 117.936 193.343 117.804 192.786 117.804C192.214 117.804 191.7 117.936 191.246 118.2C190.791 118.464 190.424 118.838 190.146 119.322C189.882 119.806 189.75 120.393 189.75 121.082C189.75 121.757 189.882 122.343 190.146 122.842C190.424 123.326 190.791 123.7 191.246 123.964C191.7 124.228 192.214 124.36 192.786 124.36ZM195.888 127V124.58L195.954 121.06L195.734 117.562V110.676H199.166V127H195.888Z" fill="white"/>
<path d="M215.832 127V124.69L215.612 124.184V120.048C215.612 119.315 215.385 118.743 214.93 118.332C214.49 117.921 213.808 117.716 212.884 117.716C212.254 117.716 211.63 117.819 211.014 118.024C210.413 118.215 209.9 118.479 209.474 118.816L208.242 116.418C208.888 115.963 209.665 115.611 210.574 115.362C211.484 115.113 212.408 114.988 213.346 114.988C215.15 114.988 216.551 115.413 217.548 116.264C218.546 117.115 219.044 118.442 219.044 120.246V127H215.832ZM212.224 127.176C211.3 127.176 210.508 127.022 209.848 126.714C209.188 126.391 208.682 125.959 208.33 125.416C207.978 124.873 207.802 124.265 207.802 123.59C207.802 122.886 207.971 122.27 208.308 121.742C208.66 121.214 209.21 120.803 209.958 120.51C210.706 120.202 211.682 120.048 212.884 120.048H216.03V122.05H213.258C212.452 122.05 211.894 122.182 211.586 122.446C211.293 122.71 211.146 123.04 211.146 123.436C211.146 123.876 211.315 124.228 211.652 124.492C212.004 124.741 212.481 124.866 213.082 124.866C213.654 124.866 214.168 124.734 214.622 124.47C215.077 124.191 215.407 123.788 215.612 123.26L216.14 124.844C215.891 125.607 215.436 126.186 214.776 126.582C214.116 126.978 213.266 127.176 212.224 127.176Z" fill="white"/>
<path d="M227.501 131.444C226.973 131.444 226.467 131.385 225.983 131.268C225.499 131.165 225.088 131.004 224.751 130.784L225.675 128.298C226.071 128.577 226.555 128.716 227.127 128.716C227.552 128.716 227.89 128.569 228.139 128.276C228.403 127.997 228.535 127.572 228.535 127V115.164H231.967V126.978C231.967 128.342 231.578 129.427 230.801 130.234C230.024 131.041 228.924 131.444 227.501 131.444ZM230.251 113.514C229.62 113.514 229.107 113.331 228.711 112.964C228.315 112.597 228.117 112.143 228.117 111.6C228.117 111.057 228.315 110.603 228.711 110.236C229.107 109.869 229.62 109.686 230.251 109.686C230.882 109.686 231.395 109.862 231.791 110.214C232.187 110.551 232.385 110.991 232.385 111.534C232.385 112.106 232.187 112.583 231.791 112.964C231.41 113.331 230.896 113.514 230.251 113.514Z" fill="white"/>
<path d="M240.759 127.176C239.498 127.176 238.376 126.912 237.393 126.384C236.425 125.856 235.655 125.137 235.083 124.228C234.526 123.304 234.247 122.255 234.247 121.082C234.247 119.894 234.526 118.845 235.083 117.936C235.655 117.012 236.425 116.293 237.393 115.78C238.376 115.252 239.498 114.988 240.759 114.988C242.006 114.988 243.12 115.252 244.103 115.78C245.086 116.293 245.856 117.005 246.413 117.914C246.97 118.823 247.249 119.879 247.249 121.082C247.249 122.255 246.97 123.304 246.413 124.228C245.856 125.137 245.086 125.856 244.103 126.384C243.12 126.912 242.006 127.176 240.759 127.176ZM240.759 124.36C241.331 124.36 241.844 124.228 242.299 123.964C242.754 123.7 243.113 123.326 243.377 122.842C243.641 122.343 243.773 121.757 243.773 121.082C243.773 120.393 243.641 119.806 243.377 119.322C243.113 118.838 242.754 118.464 242.299 118.2C241.844 117.936 241.331 117.804 240.759 117.804C240.187 117.804 239.674 117.936 239.219 118.2C238.764 118.464 238.398 118.838 238.119 119.322C237.855 119.806 237.723 120.393 237.723 121.082C237.723 121.757 237.855 122.343 238.119 122.842C238.398 123.326 238.764 123.7 239.219 123.964C239.674 124.228 240.187 124.36 240.759 124.36Z" fill="white"/>
<path d="M256.539 127.176C255.498 127.176 254.603 126.956 253.855 126.516C253.107 126.076 252.535 125.409 252.139 124.514C251.743 123.605 251.545 122.461 251.545 121.082C251.545 119.689 251.75 118.545 252.161 117.65C252.586 116.755 253.173 116.088 253.921 115.648C254.669 115.208 255.542 114.988 256.539 114.988C257.654 114.988 258.651 115.237 259.531 115.736C260.426 116.235 261.13 116.939 261.643 117.848C262.171 118.757 262.435 119.835 262.435 121.082C262.435 122.314 262.171 123.385 261.643 124.294C261.13 125.203 260.426 125.915 259.531 126.428C258.651 126.927 257.654 127.176 256.539 127.176ZM249.543 127V110.676H252.975V117.562L252.755 121.06L252.821 124.58V127H249.543ZM255.945 124.36C256.517 124.36 257.023 124.228 257.463 123.964C257.918 123.7 258.277 123.326 258.541 122.842C258.82 122.343 258.959 121.757 258.959 121.082C258.959 120.393 258.82 119.806 258.541 119.322C258.277 118.838 257.918 118.464 257.463 118.2C257.023 117.936 256.517 117.804 255.945 117.804C255.373 117.804 254.86 117.936 254.405 118.2C253.95 118.464 253.591 118.838 253.327 119.322C253.063 119.806 252.931 120.393 252.931 121.082C252.931 121.757 253.063 122.343 253.327 122.842C253.591 123.326 253.95 123.7 254.405 123.964C254.86 124.228 255.373 124.36 255.945 124.36Z" fill="white"/>
<path d="M240.09 139.98H141.82V146.37H240.09V139.98Z" fill="white"/>
<path d="M226.68 155.5H141.82V161.89H226.68V155.5Z" fill="white"/>
<path d="M198.11 171.03H141.82V177.42H198.11V171.03Z" fill="white"/>
<path d="M232.86 186.55H141.82V192.94H232.86V186.55Z" fill="white"/>
<path d="M123.31 190.57C120.38 183.3 110.25 178.1 105.07 178.17H87.6003C81.8503 178.71 72.2904 183.3 69.3604 190.57C76.2104 197.35 85.7604 201.56 96.3404 201.56C106.91 201.56 116.47 197.35 123.31 190.57Z" fill="#31241C"/>
<path d="M89.2005 163.25C89.2005 163.25 87.5305 177 86.3705 184.78C85.5305 190.46 105.91 192.06 106.53 185.93C107.07 178.67 107.69 166.36 107.69 166.36" fill="#C97440"/>
<path d="M88.3701 169.57L89.2001 163.25L107.7 166.36C107.7 166.36 107.51 170.14 107.25 174.89C105.95 175.3 104.6 175.59 103.18 175.69C97.3201 176.12 91.9401 173.68 88.3701 169.57Z" fill="#AB5D2D"/>
<path d="M119.57 152.37C120.31 162.2 112.93 170.76 103.1 171.5C93.2704 172.23 84.7104 164.86 83.9704 155.03L82.5604 136.21C81.8204 126.38 89.2004 117.82 99.0304 117.08C108.86 116.34 117.42 123.72 118.16 133.54L119.57 152.37Z" fill="#C97440"/>
<path d="M95.2703 138.18C97.7703 137.65 99.7803 136.53 101.28 134.44C102.03 133.4 100.3 132.41 99.5703 133.44C98.3803 135.11 96.7003 135.85 94.7403 136.27C93.4903 136.53 94.0203 138.44 95.2703 138.18Z" fill="#31241C"/>
<path d="M115.471 134.27C114.071 134.01 113.211 133.34 112.521 132.1C111.901 130.98 110.191 131.98 110.811 133.1C111.721 134.75 113.071 135.83 114.941 136.18C116.191 136.42 116.721 134.51 115.471 134.27Z" fill="#31241C"/>
<path d="M106.54 150.79C106.36 150.79 106.18 150.73 106.04 150.6C105.73 150.32 105.7 149.85 105.98 149.54L108.36 146.87L105.62 145.73C105.24 145.57 105.06 145.13 105.21 144.75C105.37 144.37 105.81 144.18 106.19 144.34L109.9 145.88C110.12 145.97 110.29 146.17 110.34 146.41C110.39 146.65 110.33 146.9 110.17 147.08L107.08 150.54C106.95 150.71 106.74 150.79 106.54 150.79Z" fill="#31241C"/>
<path d="M102.031 158.38C101.801 158.38 101.561 158.27 101.421 158.06C101.181 157.72 101.261 157.25 101.601 157.01C104.551 154.92 107.201 154.08 109.491 154.51C109.901 154.59 110.161 154.98 110.091 155.39C110.011 155.8 109.621 156.06 109.211 155.99C107.351 155.64 105.081 156.39 102.471 158.24C102.331 158.33 102.181 158.38 102.031 158.38Z" fill="#31241C"/>
<path d="M101.96 144.7C101.67 145.86 100.5 146.57 99.3304 146.29C98.1704 146 97.4604 144.83 97.7504 143.66C98.0404 142.5 99.2104 141.78 100.37 142.07C101.54 142.36 102.25 143.54 101.96 144.7Z" fill="#1A191F"/>
<path d="M114.94 143.92C114.65 145.08 113.48 145.8 112.31 145.51C111.15 145.23 110.44 144.05 110.72 142.88C111.01 141.72 112.18 141.01 113.35 141.3C114.51 141.59 115.22 142.76 114.94 143.92Z" fill="#1A191F"/>
<path d="M87.4003 150.3C88.2503 153.78 86.1103 157.28 82.6303 158.13C79.1503 158.98 75.6503 156.84 74.8003 153.36L74.3203 151.37C73.4803 147.89 75.6103 144.39 79.0903 143.54C82.5703 142.7 86.0703 144.83 86.9203 148.31L87.4003 150.3Z" fill="#C97440"/>
<path d="M77.6202 144.2C76.1002 139.86 68.6702 122.21 79.7102 121.68C80.4002 114.75 90.0302 111.1 102.06 108.73C114.1 106.37 121.6 112 120.69 117.64C119.78 123.28 112.39 125.33 106.53 123.66C104.85 129.75 96.7802 127.7 95.0302 126.48C93.6802 132.38 86.9802 133.81 87.7402 137.92C88.5002 142.03 88.8402 146.22 89.0002 147.06C89.1502 147.9 85.6502 149.54 84.8902 147.86C84.1102 146.18 81.1102 143.17 77.6202 144.2Z" fill="#31241C"/>
<path d="M115.438 240.938C124.347 242.407 119.246 217.308 119.185 213.519C118.977 213.691 118.782 213.853 118.575 214.025C137.758 214.167 156.929 214.208 176.113 214.066C189.817 213.964 203.521 213.671 217.238 213.671C225.67 213.671 234.054 213.417 242.474 213.144C251.504 212.85 260.51 212.88 269.296 210.935C286.125 207.226 292.251 192.442 293.996 179.483C294.081 178.834 292.861 178.844 292.775 179.483C291.482 189.109 287.967 199.657 278.644 206.061C271.615 210.894 261.267 211.502 252.554 211.857C243.877 212.212 235.164 212.516 226.463 212.617C198.982 212.941 171.475 213.164 143.982 213.113C135.513 213.093 127.031 213.063 118.562 213.002C118.233 213.002 117.952 213.235 117.952 213.509C118.001 216.7 121.979 240.979 115.756 239.955C114.999 239.834 114.67 240.806 115.438 240.938Z" fill="#1F0E03"/>
</g>
<g clip-path="url(#clip2_300_1415)">
<path d="M602.6 70.22C602.6 81.72 593.27 91.05 581.77 91.05H387.83C376.33 91.05 367 81.72 367 70.22V50.83C367 39.33 376.33 30 387.83 30H581.77C593.27 30 602.6 39.33 602.6 50.83V70.22Z" fill="#D3E7FF"/>
<path d="M399.4 44.58C400.13 43.1 401.32 43.1 402.05 44.58L404.38 49.3C405.11 50.78 407.04 52.18 408.68 52.42L413.89 53.18C415.52 53.42 415.89 54.55 414.71 55.71L410.94 59.39C409.76 60.54 409.02 62.81 409.3 64.44L410.19 69.63C410.47 71.26 409.5 71.96 408.04 71.19L403.37 68.74C401.91 67.97 399.52 67.97 398.06 68.74L393.4 71.19C391.94 71.96 390.97 71.26 391.25 69.63L392.14 64.44C392.42 62.81 391.68 60.54 390.5 59.39L386.73 55.71C385.55 54.56 385.92 53.42 387.55 53.18L392.76 52.42C394.39 52.18 396.33 50.78 397.06 49.3L399.4 44.58Z" fill="#00AA4E"/>
<path d="M441.07 44.58C441.8 43.1 442.99 43.1 443.73 44.58L446.06 49.3C446.79 50.78 448.72 52.18 450.36 52.42L455.57 53.18C457.2 53.42 457.57 54.55 456.39 55.71L452.62 59.39C451.44 60.54 450.7 62.81 450.98 64.44L451.87 69.63C452.15 71.26 451.18 71.96 449.72 71.19L445.06 68.74C443.6 67.97 441.21 67.97 439.75 68.74L435.08 71.19C433.62 71.96 432.65 71.25 432.93 69.63L433.82 64.44C434.1 62.81 433.36 60.54 432.18 59.39L428.41 55.71C427.23 54.56 427.6 53.42 429.23 53.18L434.44 52.42C436.07 52.18 438.01 50.78 438.74 49.3L441.07 44.58Z" fill="#00AA4E"/>
<path d="M482.74 44.58C483.47 43.1 484.67 43.1 485.4 44.58L487.73 49.3C488.46 50.78 490.39 52.18 492.03 52.42L497.24 53.18C498.87 53.42 499.24 54.55 498.06 55.71L494.29 59.39C493.11 60.54 492.37 62.81 492.65 64.44L493.54 69.63C493.82 71.26 492.85 71.96 491.39 71.19L486.73 68.74C485.27 67.97 482.88 67.97 481.42 68.74L476.76 71.19C475.3 71.96 474.33 71.26 474.61 69.63L475.5 64.44C475.78 62.81 475.04 60.54 473.86 59.39L470.09 55.71C468.91 54.56 469.28 53.42 470.91 53.18L476.12 52.42C477.75 52.18 479.69 50.78 480.42 49.3L482.74 44.58Z" fill="#00AA4E"/>
<path d="M524.41 44.58C525.14 43.1 526.34 43.1 527.07 44.58L529.4 49.3C530.13 50.78 532.06 52.18 533.7 52.42L538.91 53.18C540.54 53.42 540.91 54.55 539.73 55.71L535.96 59.39C534.78 60.54 534.04 62.81 534.32 64.44L535.21 69.63C535.49 71.26 534.52 71.96 533.06 71.19L528.4 68.74C526.94 67.97 524.55 67.97 523.09 68.74L518.43 71.19C516.97 71.96 516 71.26 516.28 69.63L517.17 64.44C517.45 62.81 516.71 60.54 515.53 59.39L511.76 55.71C510.58 54.56 510.95 53.42 512.58 53.18L517.79 52.42C519.42 52.18 521.36 50.78 522.09 49.3L524.41 44.58Z" fill="#00AA4E"/>
<path d="M566.07 44.58C566.8 43.1 568 43.1 568.73 44.58L571.06 49.3C571.79 50.78 573.72 52.18 575.36 52.42L580.57 53.18C582.2 53.42 582.57 54.55 581.39 55.71L577.62 59.39C576.44 60.54 575.7 62.81 575.98 64.44L576.87 69.63C577.15 71.26 576.18 71.96 574.72 71.19L570.05 68.74C568.59 67.97 566.2 67.97 564.74 68.74L560.08 71.19C558.62 71.96 557.65 71.26 557.93 69.63L558.82 64.44C559.1 62.81 558.36 60.54 557.18 59.39L553.41 55.71C552.23 54.56 552.6 53.42 554.23 53.18L559.44 52.42C561.07 52.18 563.01 50.78 563.74 49.3L566.07 44.58Z" fill="#00AA4E"/>
<path d="M471.23 87.99C474.52 87.95 477.81 87.66 481.1 87.62C481.74 87.61 481.75 86.61 481.1 86.62C477.81 86.66 474.52 86.95 471.23 86.99C470.58 86.99 470.58 87.99 471.23 87.99Z" fill="#1F0E03"/>
<path d="M485.67 87.62C497.43 87.36 509.19 87.88 520.94 87.69C526.81 87.59 532.63 87.05 538.48 86.76C544.63 86.46 550.8 86.56 556.95 86.72C562.83 86.87 568.7 87.1 574.59 87.19C578.65 87.25 582.77 87.45 586.76 86.58C593.29 85.17 596.07 79.88 596.5 73.6C596.54 72.96 595.54 72.96 595.5 73.6C595.26 77.09 594.45 80.51 591.86 83.01C589.5 85.28 585.94 85.89 582.81 86.14C578.15 86.51 573.37 86.19 568.7 86.07C563.16 85.93 557.62 85.71 552.07 85.62C541 85.43 530.03 86.58 518.98 86.73C507.87 86.87 496.77 86.38 485.67 86.63C485.03 86.64 485.03 87.64 485.67 87.62Z" fill="#1F0E03"/>
</g>
<g clip-path="url(#clip3_300_1415)">
<path d="M185 414.232C185 430.114 171.075 443 153.91 443H31.0896C13.9254 443 0 430.114 0 414.232V380.768C0 364.886 13.9254 352 31.0896 352H153.91C171.075 352 185 364.886 185 380.768V414.232Z" fill="#D3E7FF"/>
<path d="M62.2654 391V371.4H71.8414C74.3054 371.4 76.1534 371.867 77.3854 372.8C78.6361 373.733 79.2614 374.965 79.2614 376.496C79.2614 377.523 79.0094 378.419 78.5054 379.184C78.0014 379.931 77.3107 380.509 76.4334 380.92C75.5561 381.331 74.5481 381.536 73.4094 381.536L73.9414 380.388C75.1734 380.388 76.2654 380.593 77.2174 381.004C78.1694 381.396 78.9067 381.984 79.4294 382.768C79.9707 383.552 80.2414 384.513 80.2414 385.652C80.2414 387.332 79.5787 388.648 78.2534 389.6C76.9281 390.533 74.9774 391 72.4014 391H62.2654ZM66.7734 387.584H72.0654C73.2414 387.584 74.1281 387.397 74.7254 387.024C75.3414 386.632 75.6494 386.016 75.6494 385.176C75.6494 384.355 75.3414 383.748 74.7254 383.356C74.1281 382.945 73.2414 382.74 72.0654 382.74H66.4374V379.436H71.2814C72.3827 379.436 73.2227 379.249 73.8014 378.876C74.3987 378.484 74.6974 377.896 74.6974 377.112C74.6974 376.347 74.3987 375.777 73.8014 375.404C73.2227 375.012 72.3827 374.816 71.2814 374.816H66.7734V387.584ZM90.8436 391.224C89.1262 391.224 87.6142 390.888 86.3076 390.216C85.0196 389.544 84.0209 388.629 83.3116 387.472C82.6022 386.296 82.2476 384.961 82.2476 383.468C82.2476 381.956 82.5929 380.621 83.2836 379.464C83.9929 378.288 84.9542 377.373 86.1676 376.72C87.3809 376.048 88.7529 375.712 90.2836 375.712C91.7582 375.712 93.0836 376.029 94.2596 376.664C95.4542 377.28 96.3969 378.176 97.0876 379.352C97.7782 380.509 98.1236 381.9 98.1236 383.524C98.1236 383.692 98.1142 383.888 98.0956 384.112C98.0769 384.317 98.0582 384.513 98.0396 384.7H85.8036V382.152H95.7436L94.0636 382.908C94.0636 382.124 93.9049 381.443 93.5876 380.864C93.2702 380.285 92.8316 379.837 92.2716 379.52C91.7116 379.184 91.0582 379.016 90.3116 379.016C89.5649 379.016 88.9022 379.184 88.3236 379.52C87.7636 379.837 87.3249 380.295 87.0076 380.892C86.6902 381.471 86.5316 382.161 86.5316 382.964V383.636C86.5316 384.457 86.7089 385.185 87.0636 385.82C87.4369 386.436 87.9502 386.912 88.6036 387.248C89.2756 387.565 90.0596 387.724 90.9556 387.724C91.7582 387.724 92.4582 387.603 93.0556 387.36C93.6716 387.117 94.2316 386.753 94.7356 386.268L97.0596 388.788C96.3689 389.572 95.5009 390.179 94.4556 390.608C93.4102 391.019 92.2062 391.224 90.8436 391.224ZM106.1 391.224C104.812 391.224 103.57 391.075 102.376 390.776C101.2 390.459 100.266 390.067 99.5756 389.6L101.032 386.464C101.722 386.893 102.534 387.248 103.468 387.528C104.42 387.789 105.353 387.92 106.268 387.92C107.276 387.92 107.985 387.799 108.396 387.556C108.825 387.313 109.04 386.977 109.04 386.548C109.04 386.193 108.872 385.932 108.536 385.764C108.218 385.577 107.789 385.437 107.248 385.344C106.706 385.251 106.109 385.157 105.456 385.064C104.821 384.971 104.177 384.849 103.524 384.7C102.87 384.532 102.273 384.289 101.732 383.972C101.19 383.655 100.752 383.225 100.416 382.684C100.098 382.143 99.9396 381.443 99.9396 380.584C99.9396 379.632 100.21 378.792 100.752 378.064C101.312 377.336 102.114 376.767 103.16 376.356C104.205 375.927 105.456 375.712 106.912 375.712C107.938 375.712 108.984 375.824 110.048 376.048C111.112 376.272 111.998 376.599 112.708 377.028L111.252 380.136C110.524 379.707 109.786 379.417 109.04 379.268C108.312 379.1 107.602 379.016 106.912 379.016C105.941 379.016 105.232 379.147 104.784 379.408C104.336 379.669 104.112 380.005 104.112 380.416C104.112 380.789 104.27 381.069 104.588 381.256C104.924 381.443 105.362 381.592 105.904 381.704C106.445 381.816 107.033 381.919 107.668 382.012C108.321 382.087 108.974 382.208 109.628 382.376C110.281 382.544 110.869 382.787 111.392 383.104C111.933 383.403 112.372 383.823 112.708 384.364C113.044 384.887 113.212 385.577 113.212 386.436C113.212 387.369 112.932 388.2 112.372 388.928C111.812 389.637 111 390.197 109.936 390.608C108.89 391.019 107.612 391.224 106.1 391.224ZM122.067 391.224C120.293 391.224 118.912 390.776 117.923 389.88C116.933 388.965 116.439 387.612 116.439 385.82V372.604H120.807V385.764C120.807 386.399 120.975 386.893 121.311 387.248C121.647 387.584 122.104 387.752 122.683 387.752C123.373 387.752 123.961 387.565 124.447 387.192L125.623 390.272C125.175 390.589 124.633 390.832 123.999 391C123.383 391.149 122.739 391.224 122.067 391.224ZM114.115 379.632V376.272H124.559V379.632H114.115ZM66.7235 425.336C65.2115 425.336 63.8022 425.093 62.4955 424.608C61.2075 424.104 60.0875 423.395 59.1355 422.48C58.1835 421.565 57.4369 420.492 56.8955 419.26C56.3729 418.028 56.1115 416.675 56.1115 415.2C56.1115 413.725 56.3729 412.372 56.8955 411.14C57.4369 409.908 58.1835 408.835 59.1355 407.92C60.1062 407.005 61.2355 406.305 62.5235 405.82C63.8115 405.316 65.2209 405.064 66.7515 405.064C68.4502 405.064 69.9809 405.363 71.3435 405.96C72.7249 406.539 73.8822 407.397 74.8155 408.536L71.9035 411.224C71.2315 410.459 70.4849 409.889 69.6635 409.516C68.8422 409.124 67.9462 408.928 66.9755 408.928C66.0609 408.928 65.2209 409.077 64.4555 409.376C63.6902 409.675 63.0275 410.104 62.4675 410.664C61.9075 411.224 61.4689 411.887 61.1515 412.652C60.8529 413.417 60.7035 414.267 60.7035 415.2C60.7035 416.133 60.8529 416.983 61.1515 417.748C61.4689 418.513 61.9075 419.176 62.4675 419.736C63.0275 420.296 63.6902 420.725 64.4555 421.024C65.2209 421.323 66.0609 421.472 66.9755 421.472C67.9462 421.472 68.8422 421.285 69.6635 420.912C70.4849 420.52 71.2315 419.932 71.9035 419.148L74.8155 421.836C73.8822 422.975 72.7249 423.843 71.3435 424.44C69.9809 425.037 68.4409 425.336 66.7235 425.336ZM77.8787 425V405.4H86.3627C88.1174 405.4 89.6294 405.689 90.8987 406.268C92.168 406.828 93.148 407.64 93.8387 408.704C94.5294 409.768 94.8747 411.037 94.8747 412.512C94.8747 413.968 94.5294 415.228 93.8387 416.292C93.148 417.337 92.168 418.14 90.8987 418.7C89.6294 419.26 88.1174 419.54 86.3627 419.54H80.3987L82.4147 417.552V425H77.8787ZM90.3387 425L85.4387 417.888H90.2827L95.2387 425H90.3387ZM82.4147 418.056L80.3987 415.928H86.1107C87.5107 415.928 88.556 415.629 89.2467 415.032C89.9374 414.416 90.2827 413.576 90.2827 412.512C90.2827 411.429 89.9374 410.589 89.2467 409.992C88.556 409.395 87.5107 409.096 86.1107 409.096H80.3987L82.4147 406.94V418.056ZM98.4685 425V405.4H102.221L110.565 419.232H108.577L116.781 405.4H120.505L120.561 425H116.305L116.277 411.924H117.061L110.509 422.928H108.465L101.773 411.924H102.725V425H98.4685ZM125.211 418.196L124.343 405.4H129.551L128.683 418.196H125.211ZM126.947 425.224C126.163 425.224 125.519 424.972 125.015 424.468C124.511 423.964 124.259 423.367 124.259 422.676C124.259 421.967 124.511 421.379 125.015 420.912C125.519 420.427 126.163 420.184 126.947 420.184C127.749 420.184 128.393 420.427 128.879 420.912C129.383 421.379 129.635 421.967 129.635 422.676C129.635 423.367 129.383 423.964 128.879 424.468C128.393 424.972 127.749 425.224 126.947 425.224Z" fill="#006CEB"/>
<path d="M106.612 438.042C127.896 433.222 151.627 442.903 171.015 430.777C171.806 430.28 171.06 429.079 170.269 429.59C151.105 441.564 127.314 431.937 106.224 436.716C105.269 436.923 105.672 438.263 106.612 438.042Z" fill="#1F0E03"/>
<path d="M178.06 387.038C178.388 390.008 178.224 392.977 178.672 395.946C179.179 399.385 179.732 402.7 179.687 406.166C179.612 412.74 179.015 419.729 174.896 425.308C174.343 426.04 175.642 426.731 176.179 425.999C179.806 421.11 180.717 415.212 181.075 409.412C181.254 406.415 181.329 403.349 180.881 400.366C180.209 395.905 180.045 391.499 179.552 387.038C179.463 386.168 177.97 386.154 178.06 387.038Z" fill="#1F0E03"/>
</g>
<defs>
<clipPath id="clip0_300_1415">
<rect width="258" height="160" fill="white" transform="translate(522 155)"/>
</clipPath>
<clipPath id="clip1_300_1415">
<rect width="253" height="154" fill="white" transform="translate(50 90)"/>
</clipPath>
<clipPath id="clip2_300_1415">
<rect width="235.6" height="61.05" fill="white" transform="translate(367 30)"/>
</clipPath>
<clipPath id="clip3_300_1415">
<rect width="185" height="91" fill="white" transform="translate(0 352)"/>
</clipPath>
</defs>
</svg>
