<?xml version="1.0" encoding="UTF-8"?>
<!DOCTYPE svg PUBLIC "-//W3C//DTD SVG 1.1//EN" "http://www.w3.org/Graphics/SVG/1.1/DTD/svg11.dtd">
<!-- Creator: CorelDRAW -->
<svg xmlns="http://www.w3.org/2000/svg" xml:space="preserve" width="168mm" height="111mm" version="1.1" style="shape-rendering:geometricPrecision; text-rendering:geometricPrecision; image-rendering:optimizeQuality; fill-rule:evenodd; clip-rule:evenodd"
viewBox="0 0 168 111"
 xmlns:xlink="http://www.w3.org/1999/xlink"
 xmlns:xodm="http://www.corel.com/coreldraw/odm/2003">
 <defs>
  <style type="text/css">
   <![CDATA[
    .str0 {stroke:#1F0E03;stroke-width:0.2196;stroke-miterlimit:22.9256}
    .fil9 {fill:none;fill-rule:nonzero}
    .fil12 {fill:#00AA4E;fill-rule:nonzero}
    .fil5 {fill:#1A191F;fill-rule:nonzero}
    .fil13 {fill:#1C1C1C;fill-rule:nonzero}
    .fil6 {fill:#1F0E03;fill-rule:nonzero}
    .fil2 {fill:#31241C;fill-rule:nonzero}
    .fil8 {fill:#3994FF;fill-rule:nonzero}
    .fil7 {fill:#83BCFF;fill-rule:nonzero}
    .fil4 {fill:#AB5D2D;fill-rule:nonzero}
    .fil3 {fill:#C97440;fill-rule:nonzero}
    .fil11 {fill:#D3E7FF;fill-rule:nonzero}
    .fil10 {fill:#F5CDB3;fill-rule:nonzero}
    .fil0 {fill:#FFBC45;fill-rule:nonzero}
    .fil1 {fill:moccasin;fill-rule:nonzero}
   ]]>
  </style>
   <clipPath id="id0" style="clip-rule:nonzero">
    <path d="M81.1805 21.556l86.0321 0 0 -21.2399 -86.0321 0 0 21.2399z"/>
   </clipPath>
   <clipPath id="id1" style="clip-rule:nonzero">
    <path d="M-0.0739 96.4367l69.57 0 0 -88.1577 -69.57 0 0 88.1577z"/>
   </clipPath>
 </defs>
 <g id="Слой_x0020_1">
  <metadata id="CorelCorpID_0Corel-Layer"/>
  <path class="fil0" d="M130.5412 55.267c0,1.4288 -1.1591,2.5912 -2.5879,2.5912 -1.432,0 -2.5944,-1.1591 -2.5944,-2.5912l0 -1.7982c0,-1.432 1.1591,-2.5912 2.5944,-2.5912 1.4288,0 2.5879,1.1591 2.5879,2.5912l0 1.7982z"/>
  <path class="fil0" d="M156.9441 83.5546c-0.716,-3.4902 -3.8082,-12.9269 -11.3408,-16.34 -7.536,-3.41 -14.5967,-0.6325 -17.2135,0.9536 -2.6169,1.5861 -5.6319,7.7735 -6.9804,13.5627 -1.3486,5.7891 -5.9465,5.7121 -9.5171,6.9804l1.6665 6.03 36.8062 0.2344c0,0 0,0 0.0771,-0.9505 9.5973,-0.5554 7.218,-6.9772 6.502,-10.4707l0 0.0001zm-37.6378 9.241c1.4673,0 8.0112,-4.919 9.3565,-4.7585 0.6776,3.609 0.7546,5.5131 0.8349,5.7475 0.0802,0.2407 -9.7964,1.9842 -10.1914,-0.989z"/>
  <path class="fil1" d="M132.3809 69.8346c-0.4752,2.2734 -2.4306,16.1828 0.899,25.3273 2.588,0.2119 6.4507,0 6.4507,0 -0.7384,-4.8099 -2.2187,-18.135 0.8445,-25.7512 -3.0631,0.0514 -8.1942,0.4239 -8.1942,0.4239l0 0z"/>
  <path class="fil1" d="M134.0731 65.7087c-2.6169,0.1605 -3.2237,2.9893 -2.0357,4.7328 1.1881,1.7467 3.4356,0.3179 3.8306,-0.5523 2.8319,2.6714 6.5084,0.2634 7.2983,-3.702 0.0032,-0.3179 -4.492,-1.1913 -9.0932,-0.4784l0 0 0 -0.0001z"/>
  <path class="fil0" d="M141.5287 51.3722c-0.1188,-2.6361 -2.8288,-7.674 -9.2537,-7.3914 -4.5755,0.3531 -5.1309,4.6847 -5.1309,4.6847 -0.1573,0.488 -0.9761,1.5154 -0.9761,1.5154 -0.2376,-2.0293 1.0436,-7.4074 6.8231,-7.5551 6.502,-0.1605 9.6069,4.9288 9.729,8.5859 -0.517,0.8509 -1.1912,0.1606 -1.1912,0.1606l0 0 -0.0002 -0.0001z"/>
  <path class="fil2" d="M128.7688 46.3792c-2.1963,1.5059 -3.5127,4.0104 -2.3985,6.4989 1.1142,2.4917 1.4289,3.5865 0.35,5.5388 -1.5188,2.7389 -2.1609,5.3012 -1.0178,7.629 6.8906,-0.9536 9.9216,-1.7275 9.9216,-1.7275 0,0 -2.665,-18.2313 -6.8553,-17.9392l0 0z"/>
  <path class="fil3" d="M138.9986 58.9241c0,0 1.7049,5.1342 1.8655,7.3048 0.1477,1.9907 -6.4347,3.3136 -6.9033,1.2298 -0.4881,-2.4788 -1.2106,-6.6978 -1.2106,-6.6978l6.2484 -1.8366 0 -0.0002zm0 0l0 0 0 0z"/>
  <path class="fil4" d="M139.5445 61.069l-0.5459 -2.1449 -6.2484 1.8366c0,0 0.2216,1.2972 0.5073,2.9219 0.4655,0.0867 0.944,0.1317 1.4384,0.106 2.0325,-0.09 3.7889,-1.1559 4.8484,-2.7196l0 0 0.0002 0z"/>
  <path class="fil3" d="M128.0752 56.4292c0.1542,3.4164 3.0503,6.0653 6.4667,5.9112 3.4164,-0.1509 6.0654,-3.0439 5.9144,-6.4667l-0.2922 -6.5437c-0.1541,-3.4196 -3.0503,-6.0685 -6.47,-5.9144 -3.4195,0.1541 -6.0685,3.0471 -5.9144,6.4635l0.2954 6.5502 0.0001 -0.0001z"/>
  <path class="fil2" d="M136.2533 49.6511c-0.7802,-0.4206 -1.8077,-0.6165 -2.6265,-0.1927 -0.3083,0.1573 -0.0353,0.6165 0.2698,0.4592 0.6357,-0.3275 1.4834,-0.1317 2.087,0.1927 0.3018,0.1637 0.5716,-0.2986 0.2698,-0.4592l-0.0001 0z"/>
  <path class="fil2" d="M128.7815 50.5148c0.366,-0.35 0.8959,-0.4784 1.3903,-0.3757 0.334,0.0674 0.4784,-0.4464 0.1412,-0.5137 -0.6839,-0.1413 -1.3999,0.0257 -1.9105,0.5137 -0.2504,0.2343 0.1284,0.6133 0.3789,0.3757l0 0 0.0001 0z"/>
  <path class="fil2" d="M132.474 55.2894c-0.0482,0 -0.0963,-0.016 -0.1348,-0.0513l-1.2072 -1.0629c-0.0514,-0.0417 -0.0771,-0.1059 -0.0675,-0.1734 0.0064,-0.0642 0.0449,-0.1219 0.1028,-0.1541l1.2136 -0.684c0.0964,-0.0546 0.2216,-0.0192 0.2761,0.0771 0.0514,0.0995 0.0193,0.2216 -0.0802,0.2761l-0.9665 0.5458 0.9954 0.8734c0.0835,0.0707 0.0899,0.2023 0.0193,0.2858 -0.0386,0.0449 -0.0964,0.0675 -0.151,0.0675l0 0z"/>
  <path class="fil2" d="M132.9204 57.0008c-0.3276,0 -0.6454,-0.0867 -0.8959,-0.2537 -0.0931,-0.0642 -0.1156,-0.1894 -0.0546,-0.2825 0.0611,-0.0899 0.1895,-0.1124 0.2794,-0.0513 0.3404,0.2343 0.9216,0.244 1.3132,0.0257 0.2376,-0.1317 0.5137,-0.4013 0.4881,-0.9504 -0.0032,-0.1093 0.0802,-0.2023 0.1927,-0.2088 0.1092,-0.0031 0.2054,0.0802 0.2087,0.1927 0.0289,0.5844 -0.2216,1.0532 -0.6935,1.3197 -0.2505,0.1381 -0.5459,0.2087 -0.8381,0.2087l0 -0.0001z"/>
  <path class="fil5" d="M133.8291 53.0546c0.1477,0.3918 0.5812,0.5877 0.9696,0.44 0.3885,-0.1446 0.5876,-0.5812 0.4399,-0.9729 -0.1477,-0.3885 -0.5811,-0.5844 -0.9729,-0.4367 -0.3884,0.1477 -0.5812,0.5843 -0.4366,0.9696z"/>
  <path class="fil5" d="M129.3274 53.3276c0.1477,0.3884 0.5812,0.5876 0.9696,0.4399 0.3885,-0.1477 0.5876,-0.5843 0.4399,-0.9729 -0.1509,-0.3885 -0.5811,-0.5812 -0.9729,-0.4367 -0.3884,0.1446 -0.5843,0.5812 -0.4366,0.9697z"/>
  <path class="fil5" d="M129.5201 53.151c-0.0322,0 -0.0642,-0.0096 -0.0899,-0.0257l-0.7353 -0.4495c-0.0835,-0.0514 -0.1124,-0.1637 -0.0611,-0.2472 0.0514,-0.0835 0.1638,-0.1092 0.2472,-0.0578l0.7322 0.4495c0.0835,0.0513 0.1124,0.1606 0.061,0.2441 -0.0353,0.0546 -0.0963,0.0866 -0.1541,0.0866l0 0z"/>
  <path class="fil5" d="M134.8566 52.8844c-0.0578,0 -0.1124,-0.0289 -0.1445,-0.0771 -0.0578,-0.0802 -0.0353,-0.1894 0.0449,-0.2472l0.7674 -0.533c0.0802,-0.0546 0.1927,-0.0321 0.2472,0.0482 0.0578,0.0802 0.0353,0.1894 -0.0449,0.2472l-0.7674 0.533c-0.0322,0.016 -0.0675,0.0289 -0.1028,0.0289l0 0 0.0001 0z"/>
  <path class="fil2" d="M146.3483 56.4678c-1.0276,-2.2123 0.2407,-3.5866 -0.3051,-5.6961 -0.4817,-1.8463 -2.6779,-1.7884 -3.8113,-4.4053 -1.734,-4.004 -10.6666,-7.613 -13.9962,0.5169 3.7021,-2.5077 7.4973,-1.204 8.939,0.6518 2.9059,3.7407 -0.077,5.3268 1.0467,7.552 0.8155,1.6214 1.3518,2.7132 0.2954,5.1663 -1.0564,2.453 0.4206,4.7873 0.4206,4.7873 3.4582,-0.3821 7.3657,-0.7257 10.917,-1.3229 0,-5.9883 -2.4789,-5.0347 -3.5064,-7.2501l0 0 0.0003 0.0001z"/>
  <path class="fil3" d="M130.6374 87.1252c-3.0182,0.2633 -4.1773,1.1623 -6.8777,2.5911 -2.6971,1.4289 -3.2751,1.7467 -2.6425,2.0101 -1.5861,0.1028 -0.6614,0.9504 0.4495,0.5811 -0.7385,0.3179 0.2889,0.6614 1.7724,0.1028 0.3724,0.5812 2.2765,0.3179 3.4902,-0.3693 1.2169,-0.6904 4.126,-1.2683 6.7685,-0.3724 0.3178,-1.6376 -0.684,-4.492 -0.684,-4.492l-2.2765 -0.0513 0 0 0.0001 -0.0001z"/>
  <path class="fil0" d="M132.5544 87.1637c1.6247,-0.3564 6.1744,-0.7288 8.8716,-0.5651 0.1572,2.1128 -1.005,6.3961 -1.005,6.3961l-7.1924 -1.5862c-0.0031,0 0.3532,-2.2605 -0.6742,-4.2448z"/>
  <path class="fil6" d="M132.4163 87.2022c3.2108,-0.4655 6.4571,-0.4559 9.6968,-0.5458 1.5605,-0.0418 3.0535,-0.2248 4.5979,-0.4014 1.4706,-0.1669 3.2077,0.151 4.6172,0.5781 0.167,0.0513 0.2376,-0.2088 0.0739,-0.257 -1.3036,-0.3948 -2.8288,-0.655 -4.1934,-0.626 -0.6743,0.016 -1.355,0.1541 -2.0196,0.2536 -0.9279,0.1381 -1.8752,0.1477 -2.8095,0.1799 -3.3522,0.1059 -6.7075,0.0834 -10.034,0.5651 -0.1701,0.0193 -0.0995,0.2794 0.0707,0.2536l0 -0.0001z"/>
  <path class="fil6" d="M146.74 78.9664c0.3082,2.2316 0.4655,4.476 0.472,6.7332 0,0.1701 0.2697,0.1701 0.2697,0 -0.0064,-2.2797 -0.1734,-4.5498 -0.4816,-6.8038 -0.0225,-0.1734 -0.2825,-0.0995 -0.2601,0.0706z"/>
  <path class="fil6" d="M133.0167 91.5434c0.9729,-0.0096 1.8719,0.4174 2.7935,0.6678 1.0982,0.2986 2.1706,0.6711 3.2655,0.9729 2.2123,0.6069 4.5144,0.9922 6.807,1.1237 3.6476,0.2088 8.0593,0.0322 10.811,-2.6971 0.1253,-0.122 -0.0674,-0.3114 -0.1894,-0.1927 -2.877,2.8544 -7.6097,2.8577 -11.3857,2.5687 -2.2572,-0.1701 -4.5242,-0.6357 -6.6979,-1.2683 -0.9761,-0.2857 -1.949,-0.5843 -2.9219,-0.8734 -0.8188,-0.244 -1.6151,-0.5811 -2.4852,-0.5715 -0.1734,0.0031 -0.1734,0.2729 0.0031,0.2697l0 0 0 0.0002z"/>
  <path class="fil6" d="M127.6513 76.1985c-0.2407,0.7193 -0.1701,1.4963 -0.1605,2.2477 0.016,1.0306 0.0931,2.0582 0.1477,3.0888 0.0513,1.0178 0.0802,2.0358 0.1637,3.0503 0.0771,0.9376 0.4335,1.827 0.4817,2.7549 0.0064,0.1701 0.276,0.1701 0.2665,0 -0.045,-0.8508 -0.3693,-1.6536 -0.4528,-2.5013 -0.0931,-0.9278 -0.1253,-1.8654 -0.1637,-2.7966 -0.0418,-0.9408 -0.106,-1.8816 -0.1446,-2.8191 -0.0417,-0.9408 -0.1765,-2.0485 0.1253,-2.954 0.0513,-0.167 -0.2119,-0.2344 -0.2634,-0.0707l0 0 0.0001 0z"/>
  <path class="fil6" d="M131.7227 66.9962c-0.4239,1.4899 -0.7193,3.3876 0.9505,4.2224 0.6004,0.3018 1.2876,0.1541 1.8687,-0.1092 0.4078,-0.1863 0.7642,-0.4977 1.0982,-0.7867 0.3435,-0.2922 0.4912,0.151 0.793,0.366 2.4531,1.7564 5.6832,-0.6742 6.4956,-3.0953 0.0578,-0.1637 -0.2023,-0.2343 -0.2569,-0.0706 -0.867,2.5816 -4.5723,4.9512 -6.7043,2.3214 -0.0482,-0.061 -0.1381,-0.0482 -0.1894,0 -0.8863,0.7964 -2.0325,1.7371 -3.2398,0.9922 -1.3164,-0.8123 -0.8925,-2.5687 -0.5554,-3.7728 0.0449,-0.1637 -0.2152,-0.2343 -0.2601,-0.0675l0 0 -0.0001 0.0001z"/>
  <path class="fil6" d="M123.214 92.6478c0.8476,-0.151 1.5283,-0.6807 2.2412,-1.127 0.9857,-0.6165 2.087,-0.9696 3.1563,-1.4128 0.1573,-0.0642 0.0867,-0.3243 -0.0739,-0.2569 -0.8798,0.3628 -1.7788,0.6678 -2.6329,1.1013 -0.9248,0.4688 -1.7114,1.2522 -2.7614,1.4384 -0.1701,0.0289 -0.0963,0.2858 0.0707,0.2569l0 0.0001z"/>
  <path class="fil6" d="M121.2906 92.6351c2.1384,-0.9023 4.1131,-2.177 6.3126,-2.9476 0.1605,-0.0578 0.0899,-0.3179 -0.0739,-0.2601 -2.2219,0.7802 -4.2159,2.0646 -6.3768,2.9765 -0.1573,0.0675 -0.0193,0.2986 0.1381,0.2312l0 0z"/>
  <path class="fil6" d="M120.8154 91.9993c0.8445,-0.5137 1.8077,-0.7513 2.6811,-1.2105 0.8605,-0.4592 1.7146,-0.9279 2.6072,-1.3261 0.1606,-0.0675 0.0224,-0.2986 -0.1348,-0.2312 -0.8894,0.3982 -1.7467,0.867 -2.6072,1.3229 -0.8702,0.4655 -1.8335,0.7 -2.6843,1.2137 -0.1477,0.0899 -0.0129,0.3243 0.1381,0.2312l0 0 -0.0001 0z"/>
  <path class="fil6" d="M134.7602 72.1304c0.0931,0.4784 0.7675,0.4624 0.9858,0.0931 0.122,-0.2054 -0.0096,-0.4463 -0.199,-0.5554 -0.228,-0.1317 -0.5747,-0.106 -0.7321,0.1188 -0.0996,0.1412 0.1348,0.2761 0.2311,0.1348 0.1188,-0.1734 0.6134,0.0064 0.44,0.199 -0.1317,0.1446 -0.4271,0.1542 -0.4656,-0.0642 -0.0288,-0.167 -0.2922,-0.093 -0.26,0.0739l0 0 -0.0002 0z"/>
  <path class="fil6" d="M134.407 74.1212c-0.0675,0.4752 0.4848,0.61 0.8027,0.3435 0.1638,-0.1317 0.2473,-0.3949 0.1124,-0.578 -0.1445,-0.1894 -0.4239,-0.1606 -0.6229,-0.0964 -0.1637,0.0514 -0.0931,0.3114 0.0739,0.257 0.0995,-0.0322 0.2312,-0.0675 0.3276,-0.0096 0.0834,0.0481 -0.0289,0.199 -0.0707,0.2311 -0.1028,0.074 -0.3917,0.1253 -0.3628,-0.077 0.0224,-0.1702 -0.2344,-0.2441 -0.2601,-0.0706l0 0 -0.0001 0z"/>
  <path class="fil6" d="M134.2433 76.6962c0.0224,0.5394 0.8188,0.3243 0.8958,-0.0835 0.0995,-0.4977 -0.7674,-0.7706 -0.8541,-0.2312 -0.0257,0.167 0.2344,0.2408 0.2601,0.0707 0.0321,-0.2055 0.3275,-0.0642 0.3307,0.0963 0.0031,0.1284 -0.3596,0.3018 -0.366,0.1477 -0.0065,-0.1766 -0.2761,-0.1766 -0.2665,0z"/>
  <path class="fil6" d="M129.0063 91.4085c-0.0418,0.3949 0.016,0.8541 0.1637,1.2266 0.0642,0.1573 0.3243,0.0899 0.2601,-0.0739 -0.1413,-0.3532 -0.1959,-0.7771 -0.1542,-1.1528 0.0161,-0.1734 -0.2504,-0.1734 -0.2697,0l0 0 0.0001 0.0001z"/>
  <path class="fil6" d="M132.3649 87.2408c0.5041,0.35 0.5426,1.05 0.684,1.5958 0.1863,0.7225 0.3275,1.6152 0.0064,2.3183 -0.0675,0.1573 0.1637,0.2922 0.2312,0.1348 0.3629,-0.793 0.2119,-1.7017 0.0193,-2.5237 -0.1477,-0.6389 -0.2343,-1.3582 -0.8059,-1.7564 -0.1413,-0.0995 -0.273,0.1349 -0.1349,0.2312l0 0 -0.0001 0z"/>
  <path class="fil6" d="M125.8789 56.8178c-0.4238,3.1337 4.2095,3.1434 6.2131,3.0502 0.1701,-0.0064 0.1701,-0.276 0,-0.2697 -1.7692,0.0835 -6.3414,0.1701 -5.953,-2.71 0.0225,-0.1702 -0.2376,-0.2408 -0.2601,-0.0707l0 0.0002z"/>
  <path class="fil0" d="M133.6525 59.6947c0,0.4464 -0.4463,0.8092 -0.9953,0.8092 -0.5459,0 -0.989,-0.3628 -0.989,-0.8092 0,-0.4463 0.4431,-0.8059 0.989,-0.8059 0.549,-0.0031 0.9953,0.3596 0.9953,0.8059z"/>
  <path class="fil0" d="M132.991 42.6257c-3.2976,0.0835 -5.1278,1.8688 -6.0493,3.7631 0.3146,0.0353 0.6518,0.1253 0.9343,0.2601 0.6839,-1.1817 1.9778,-2.482 4.3989,-2.6683 6.4249,-0.2858 9.1349,4.7521 9.2537,7.3883 0,0 0.6743,0.6935 1.1881,-0.1606 -0.1188,-3.6507 -3.2237,-8.7432 -9.7257,-8.5826z"/>
  <path class="fil0" d="M144.8102 55.267c0,1.4288 -1.1591,2.5912 -2.5912,2.5912 -1.4288,0 -2.5912,-1.1591 -2.5912,-2.5912l0 -1.7982c0,-1.432 1.1591,-2.5912 2.5912,-2.5912 1.432,0 2.5912,1.1591 2.5912,2.5912l0 1.7982z"/>
  <path class="fil6" d="M144.2001 54.9908c-0.093,1.7466 -2.4435,2.1481 -3.0855,0.5072 -0.1895,-0.4912 -0.0835,-1.1816 -0.0835,-1.6985 0,-1.7884 2.4595,-2.0999 3.0856,-0.5105 0.1894,0.4912 0.0834,1.1848 0.0834,1.7018 0,0.1734 0.2698,0.1734 0.2698,0 0,-1.0789 0.1028,-2.1193 -0.9183,-2.7935 -1.2394,-0.8155 -2.7164,0.2793 -2.7902,1.6022 -0.0546,1.0596 -0.0675,2.1449 0.9183,2.7902 1.2394,0.8156 2.7164,-0.2793 2.7902,-1.5989 0.0065,-0.1766 -0.2633,-0.1735 -0.2698,0l0 0z"/>
  <path class="fil7" d="M113.8703 92.6254c1.4835,0 19.7276,0 20.6781,0 0.9536,0 1.1655,1.904 -0.4207,1.904 -1.5861,0 -47.4373,0 -47.4373,0 -1.4257,-2.8576 -7.8249,-20.3055 -8.4607,-21.9463 -0.6358,-1.6376 -0.0546,-3.5417 2.5399,-3.5417 2.5911,0 16.2887,0 18.1928,0 1.904,0 4.0167,0.3179 5.3396,3.2237 1.3196,2.9123 9.5684,20.3601 9.5684,20.3601l-0.0001 0.0002z"/>
  <path class="fil8" d="M134.6126 94.4524c0.0642,-0.0225 0.1188,-0.0482 0.1734,-0.0771 0.0064,0 0.0096,-0.0031 0.0128,-0.0064 0.8124,-0.4528 0.533,-1.7435 -0.2504,-1.7435 -0.1542,0 -0.7675,0 -1.6922,0 -4.7521,0 -17.7433,0 -18.9859,0 0,0 -0.0031,-0.0161 -0.016,-0.0386 -0.0096,-0.016 -0.0193,-0.0449 -0.0386,-0.0802 -0.0739,-0.1573 -0.2183,-0.4624 -0.4206,-0.8895 -1.7756,-3.7535 -7.9662,-16.8634 -9.0964,-19.3518 -1.3229,-2.9091 -3.4355,-3.2237 -5.3396,-3.2237 -0.3018,0 -0.8959,0 -1.6922,0 1.9041,0 4.0168,0.3178 5.3429,3.2237 1.3197,2.9123 9.5716,20.3601 9.5716,20.3601l0.7128 1.8526c0,0 0.8926,0.0193 2.3183,0.0513 7.4074,0 14.1599,0 17.2263,0 0.9376,0 1.5348,0 1.6922,0 0.0931,0 0.183,-0.0096 0.2665,-0.0224 0.0513,-0.0096 0.0995,-0.0225 0.1477,-0.0353 0.0193,-0.0096 0.0449,-0.0096 0.0675,-0.0193l0 0 -0.0001 0.0001z"/>
  <path class="fil9 str0" d="M96.6857 82.0488c0.5202,1.2908 -0.0963,2.3376 -1.3839,2.3376 -1.2843,0 -2.7485,-1.0467 -3.2719,-2.3376 -0.5234,-1.2907 0.0964,-2.3375 1.384,-2.3375 1.2843,0 2.7484,1.0467 3.2718,2.3375l0 0z"/>
  <path class="fil10" d="M158.8064 96.0032l-74.595 0 0 11.8256c8.1878,1.7435 19.2235,3.0054 30.0924,3.1402 14.8792,0.1895 30.3107,0.0193 44.5026,-0.6711l0 -14.2947 0 0z"/>
  <path class="fil3" d="M161.9017 95.7078c0,0.7064 -0.5716,1.2779 -1.2779,1.2779l-78.2297 0c-0.7064,0 -1.2778,-0.5716 -1.2778,-1.2779 0,-0.7031 0.5716,-1.2779 1.2778,-1.2779l78.2297 0c0.7096,0 1.2779,0.5748 1.2779,1.2779z"/>
  <g>
  </g>
  <g style="clip-path:url(#id0)">
   <g id="_1808141634464">
    <path class="fil11" d="M167.2125 14.309c0,4.0008 -3.4067,7.2469 -7.6066,7.2469l-70.819 0c-4.1999,0 -7.6066,-3.2461 -7.6066,-7.2469l0 -6.746c0,-4.0008 3.4067,-7.2469 7.6066,-7.2469l70.819 0c4.1999,0 7.6066,3.2461 7.6066,7.2469l0 6.746z"/>
    <path class="fil12" d="M93.0093 5.386c0.2697,-0.5137 0.7031,-0.5137 0.9696,0l0.8508 1.644c0.2665,0.5137 0.9696,1.0018 1.5701,1.0853l1.9008 0.2633c0.5972,0.0867 0.7321,0.4784 0.3018,0.883l-1.3775 1.2812c-0.4302,0.3981 -0.7,1.188 -0.6005,1.7563l0.3276 1.8046c0.0995,0.5683 -0.2537,0.8123 -0.7866,0.5426l-1.705 -0.8509c-0.533,-0.2697 -1.4064,-0.2697 -1.9394,0l-1.7017 0.8509c-0.533,0.2697 -0.8863,0.0257 -0.7835,-0.5426l0.3243 -1.8046c0.1027,-0.5683 -0.167,-1.3582 -0.6005,-1.7563l-1.3742 -1.2812c-0.4335,-0.4013 -0.2987,-0.7963 0.2986,-0.883l1.9008 -0.2633c0.5972,-0.0835 1.3036,-0.5716 1.5734,-1.0853l0.8508 -1.644 0 0 0.0003 0z"/>
    <path class="fil12" d="M108.2256 5.386c0.2697,-0.5137 0.7031,-0.5137 0.9729,0l0.8508 1.644c0.2665,0.5137 0.9696,1.0018 1.5701,1.0853l1.9041 0.2633c0.594,0.0867 0.7288,0.4784 0.2986,0.883l-1.3775 1.2812c-0.4302,0.3981 -0.7,1.188 -0.5972,1.7563l0.3243 1.8046c0.1028,0.5683 -0.2536,0.8123 -0.7866,0.5426l-1.7018 -0.8509c-0.533,-0.2697 -1.4031,-0.2697 -1.9394,0l-1.7049 0.8509c-0.533,0.2697 -0.8863,0.0224 -0.7835,-0.5426l0.3243 -1.8046c0.1028,-0.5683 -0.167,-1.3582 -0.6005,-1.7563l-1.3742 -1.2812c-0.4302,-0.4013 -0.2954,-0.7963 0.2986,-0.883l1.9041 -0.2633c0.594,-0.0835 1.3036,-0.5716 1.5701,-1.0853l0.8477 -1.644z"/>
    <path class="fil12" d="M123.4452 5.386c0.2665,-0.5137 0.7031,-0.5137 0.9696,0l0.8508 1.644c0.2665,0.5137 0.9729,1.0018 1.5701,1.0853l1.9041 0.2633c0.594,0.0867 0.7289,0.4784 0.2986,0.883l-1.3775 1.2812c-0.4302,0.3981 -0.6999,1.188 -0.5972,1.7563l0.3243 1.8046c0.1028,0.5683 -0.2536,0.8123 -0.7835,0.5426l-1.7017 -0.8509c-0.5363,-0.2697 -1.4064,-0.2697 -1.9426,0l-1.7018 0.8509c-0.5298,0.2697 -0.8862,0.0257 -0.7834,-0.5426l0.3242 -1.8046c0.1028,-0.5683 -0.1669,-1.3582 -0.5972,-1.7563l-1.3775 -1.2812c-0.4302,-0.4013 -0.2953,-0.7963 0.2987,-0.883l1.9041 -0.2633c0.594,-0.0835 1.3036,-0.5716 1.5701,-1.0853l0.8476 -1.644 0.0002 0z"/>
    <path class="fil12" d="M138.6615 5.386c0.2665,-0.5137 0.7031,-0.5137 0.9696,0l0.8508 1.644c0.2665,0.5137 0.9729,1.0018 1.5701,1.0853l1.9041 0.2633c0.594,0.0867 0.7289,0.4784 0.2987,0.883l-1.3776 1.2812c-0.4302,0.3981 -0.6999,1.188 -0.5971,1.7563l0.3242 1.8046c0.1028,0.5683 -0.2536,0.8123 -0.7866,0.5426l-1.7018 -0.8509c-0.533,-0.2697 -1.4031,-0.2697 -1.9361,0l-1.7049 0.8509c-0.5299,0.2697 -0.8863,0.0257 -0.7835,-0.5426l0.3243 -1.8046c0.1028,-0.5683 -0.167,-1.3582 -0.5972,-1.7563l-1.3775 -1.2812c-0.4302,-0.4013 -0.2954,-0.7963 0.2986,-0.883l1.9041 -0.2633c0.594,-0.0835 1.3036,-0.5716 1.5701,-1.0853l0.8477 -1.644 0 0z"/>
    <path class="fil12" d="M153.8745 5.386c0.2634,-0.5137 0.7031,-0.5137 0.9696,0l0.8509 1.644c0.2665,0.5137 0.9729,1.0018 1.5701,1.0853l1.904 0.2633c0.5941,0.0867 0.7289,0.4784 0.2987,0.883l-1.3775 1.2812c-0.4302,0.3981 -0.7,1.188 -0.5972,1.7563l0.3243 1.8046c0.1027,0.5683 -0.2537,0.8123 -0.7867,0.5426l-1.7049 -0.8509c-0.533,-0.2697 -1.4064,-0.2697 -1.9394,0l-1.7018 0.8509c-0.533,0.2697 -0.8862,0.0257 -0.7834,-0.5426l0.3242 -1.8046c0.1028,-0.5683 -0.167,-1.3582 -0.5972,-1.7563l-1.3775 -1.2812c-0.4302,-0.4013 -0.2953,-0.7963 0.2987,-0.883l1.9041 -0.2633c0.594,-0.0835 1.3004,-0.5716 1.5701,-1.0853l0.8508 -1.644 0.0001 0z"/>
    <path class="fil6" d="M119.2388 20.4932c1.2041,-0.016 2.405,-0.1157 3.6059,-0.1284 0.2343,-0.0032 0.2376,-0.3531 0,-0.35 -1.2008,0.016 -2.4018,0.1157 -3.6059,0.1284 -0.2343,0 -0.2343,0.35 0,0.35z"/>
    <path class="fil6" d="M124.5143 20.3647c4.293,-0.0899 8.5891,0.0899 12.8788,0.0224 2.1448,-0.0353 4.2705,-0.2216 6.4056,-0.3242 2.2444,-0.1028 4.4984,-0.0675 6.7429,-0.0129 2.1481,0.0513 4.293,0.1317 6.4442,0.1637 1.4802,0.0225 2.9861,0.0899 4.4438,-0.2119 2.3825,-0.4912 3.3971,-2.3311 3.5544,-4.5177 0.016,-0.2216 -0.35,-0.2216 -0.3628,0 -0.09,1.217 -0.3853,2.4049 -1.3325,3.2752 -0.8606,0.7899 -2.1609,1.0018 -3.304,1.0884 -1.7018,0.1284 -3.4453,0.0193 -5.1503,-0.0224 -2.0228,-0.0514 -4.0457,-0.1253 -6.0718,-0.1573 -4.0457,-0.0675 -8.0496,0.3339 -12.0857,0.3853 -4.0553,0.0482 -8.1107,-0.122 -12.1627,-0.0353 -0.2344,0.0031 -0.2344,0.3531 0,0.3468l0 0 0.0001 -0.0001z"/>
   </g>
  </g>
  <polygon class="fil9" points="81.1805,21.556 167.2126,21.556 167.2126,0.3161 81.1805,0.3161 "/>
  <polygon class="fil9" points="81.1805,21.556 167.2125,21.556 167.2125,0.3161 81.1805,0.3161 "/>
  <polygon class="fil9" points="81.1805,21.556 167.2125,21.556 167.2125,0.3161 81.1805,0.3161 "/>
  <g>
  </g>
  <g style="clip-path:url(#id1)">
   <g id="_1808141628416">
    <path class="fil0" d="M33.0591 77.1008l-2.5654 -1.7755 -2.9348 1.0884c-0.3275,0.122 -0.6614,0.183 -1.0082,0.183 -0.8412,0 -1.6407,-0.3629 -2.1866,-0.9889l-2.0389 -2.3505 -3.1177 0.3372c-1.1817,0.1284 -2.3696,-0.5137 -2.8866,-1.5701l-1.3614 -2.7325c-1.432,7.3177 -3.1306,14.5806 -5.1084,21.7794 3.8145,-0.8348 7.6354,-1.7307 11.4499,-2.694 2.8994,2.6329 5.7667,5.3204 8.6051,8.0592 1.7146,-6.2355 3.2365,-12.5223 4.5659,-18.8381 -0.5042,-0.0386 -0.989,-0.2088 -1.4129,-0.4977l0 0 0 0.0001z"/>
    <path class="fil0" d="M53.0981 72.0245c-0.5265,1.0564 -1.6953,1.7049 -2.8961,1.5701l-3.1113 -0.3371 -2.0389 2.3504c-0.5459,0.6325 -1.3454,0.9889 -2.1835,0.9889 -0.35,0 -0.6904,-0.061 -1.0114,-0.183l-2.9347 -1.0884 -2.5655 1.7755c-0.443,0.3114 -0.9633,0.4784 -1.5027,0.5073 1.3325,6.319 2.8544,12.6027 4.5659,18.8286 2.8384,-2.7389 5.7056,-5.4264 8.6051,-8.0593 3.8145,0.9569 7.6386,1.8591 11.4532,2.694 -1.9651,-7.1506 -3.6572,-14.3751 -5.0861,-21.6445l-1.294 2.5976 0 0 0 -0.0001z"/>
    <path class="fil0" d="M67.3255 40.3813l1.4673 -3.2172c0.35,-0.7675 0.1766,-1.6696 -0.4366,-2.2572l-2.5655 -2.4628 0.6134 -3.4806c0.1445,-0.8284 -0.2505,-1.6632 -0.989,-2.0807l-3.1113 -1.7499 -0.2858 -3.5224c-0.0706,-0.8412 -0.6646,-1.5476 -1.4834,-1.7692l-3.4518 -0.9376 -1.1655 -3.3394c-0.2825,-0.793 -1.0306,-1.3325 -1.8847,-1.3518l-3.5834 -0.061 -1.9714 -2.9508c-0.3758,-0.5715 -1.0114,-0.9022 -1.6858,-0.9022 -0.1573,0 -0.3147,0.0224 -0.472,0.0546l-3.4806 0.8219 -2.6489 -2.376c-0.3885,-0.3436 -0.8734,-0.5201 -1.3711,-0.5201 -0.3211,0 -0.6486,0.0739 -0.9472,0.2311l-3.1691 1.6472 -3.1659 -1.6472c-0.2922,-0.1572 -0.6196,-0.2311 -0.9407,-0.2311 -0.4913,0 -0.9825,0.1765 -1.3647,0.5201l-2.6489 2.376 -3.4806 -0.8219c-0.1637,-0.0386 -0.3211,-0.0546 -0.4784,-0.0546 -0.6678,0 -1.3101,0.3307 -1.6922,0.9022l-1.9651 2.9508 -3.5834 0.061c-0.8508,0.0129 -1.6023,0.5523 -1.8816,1.3518l-1.1688 3.3394 -3.4517 0.9376c-0.8253,0.2216 -1.4129,0.9279 -1.4802,1.7692l-0.289 3.5224 -3.1113 1.7499c-0.7449,0.4175 -1.1399,1.2459 -0.9889,2.0807l0.6133 3.4806 -2.5654 2.4628c-0.6134,0.5876 -0.7835,1.4898 -0.4367,2.2572l1.4673 3.2172 -1.8687 3.015c-0.4464,0.7224 -0.3918,1.6376 0.1412,2.2925l2.238 2.7582 -1.05 3.3811c-0.2536,0.8059 0.0417,1.676 0.716,2.1802l2.8608 2.1288 -0.1637 3.5255c-0.0417,0.8412 0.456,1.6183 1.249,1.9394l3.3072 1.3549 0.7321 3.4582c0.1702,0.8219 0.8541,1.4545 1.6985,1.5765l3.5417 0.4977 1.5765 3.1723c0.3436,0.6872 1.0531,1.1175 1.8238,1.1175 0.0739,0 0.1509,-0.0064 0.2183,-0.0129l3.5608 -0.3853 2.3278 2.6876c0.3949,0.4495 0.9634,0.6999 1.5413,0.6999 0.2407,0 0.4783,-0.0417 0.7192,-0.1284l3.349 -1.2458 2.9347 2.026c0.35,0.2441 0.7578,0.3661 1.1688,0.3661 0.4077,0 0.8123,-0.122 1.1655,-0.3661l2.9347 -2.026 3.3522 1.2458c0.2312,0.0867 0.4753,0.1284 0.716,0.1284 0.5781,0 1.1464,-0.2504 1.5413,-0.6999l2.3278 -2.6876 3.5608 0.3853c0.0771,0.0065 0.151,0.0129 0.2183,0.0129 0.7675,0 1.4771,-0.4302 1.8238,-1.1175l1.5765 -3.1723 3.5417 -0.4977c0.8476,-0.122 1.5219,-0.7482 1.6985,-1.5765l0.7321 -3.4582 3.3105 -1.3549c0.7834,-0.3211 1.2875,-1.0982 1.249,-1.9394l-0.1638 -3.5255 2.8577 -2.1288c0.684,-0.5042 0.9697,-1.3807 0.716,-2.1802l-1.0499 -3.3811 2.2379 -2.7582c0.533,-0.6614 0.594,-1.5765 0.1445,-2.2925l-1.8783 -3.015 0 0 0.0002 0zm-32.6128 31.2322c-16.2567,0 -29.4758,-13.0458 -29.4758,-29.0777 0,-16.0351 13.2256,-29.0777 29.4758,-29.0777 16.2535,0 29.4726,13.049 29.4726,29.0777 0,16.0318 -13.2256,29.0777 -29.4726,29.0777z"/>
    <path class="fil0" d="M63.3472 40.2721c-0.3082,-3.9044 -1.4866,-7.5873 -3.1883,-10.7436 -1.6985,-3.1659 -3.9109,-5.8117 -6.258,-7.8924 -2.36,-2.0646 -4.858,-3.5672 -7.1924,-4.5883 -2.3343,-1.0307 -4.4888,-1.6312 -6.2837,-1.9619 -1.8013,-0.3435 -3.243,-0.4046 -4.2126,-0.4559 -0.9761,-0.0064 -1.493,-0.0129 -1.493,-0.0129 0,0 0.5169,0.0193 1.493,0.0642 0.9696,0.09 2.3953,0.2184 4.1773,0.5941 1.7756,0.3757 3.8916,1.0307 6.168,2.1064 2.2734,1.0724 4.6815,2.62 6.9677,4.6749 2.2669,2.0711 4.3893,4.6912 5.9883,7.8089 1.6022,3.1018 2.6682,6.6915 2.9605,10.4739 0.2953,3.7855 -0.2055,7.7574 -1.583,11.5013 -1.3711,3.7439 -3.6379,7.2245 -6.5309,10.079 -2.893,2.8544 -6.4218,5.0892 -10.2169,6.441 -3.7953,1.3613 -7.8153,1.8526 -11.6555,1.5636 -3.8306,-0.2889 -7.4749,-1.3389 -10.6151,-2.9218 -3.1499,-1.583 -5.8118,-3.6701 -7.9149,-5.9049 -2.0806,-2.254 -3.6507,-4.6332 -4.736,-6.8744 -1.0917,-2.2476 -1.7531,-4.3347 -2.1352,-6.0847 -0.3822,-1.7499 -0.5202,-3.1659 -0.6005,-4.1228 -0.0418,-0.96 -0.0706,-1.4737 -0.0706,-1.4737 0,0 0.0064,0.5137 0.016,1.4802 0.0546,0.9633 0.1156,2.3857 0.4623,4.1548 0.334,1.7724 0.9441,3.898 1.9876,6.2002 1.0371,2.3022 2.559,4.7682 4.6525,7.0992 2.1031,2.315 4.7843,4.4953 7.9984,6.1713 3.2012,1.676 6.929,2.8352 10.9009,3.1435 3.9365,0.3242 8.1074,-0.1606 12.0375,-1.5477 3.9301,-1.3806 7.5969,-3.67 10.6119,-6.6112 2.983,-2.9765 5.3044,-6.5919 6.7012,-10.4674 1.3935,-3.8852 1.8848,-7.9951 1.5637,-11.8931l0 0 -0.0002 0.0002z"/>
    <path class="fil12" d="M21.8789 52.0946l0 -3.3458 0.7737 0 0 3.3458 -0.7737 0zm2.2603 0l0 -2.7164 -1.0692 0 0 -0.6294 2.9123 0 0 0.6294 -1.0693 0 0 2.7164 -0.7738 0zm4.7136 0.0578c-0.2665,0 -0.5234,-0.0386 -0.7706,-0.106 -0.244,-0.0739 -0.4399,-0.167 -0.5907,-0.2825l0.2633 -0.5843c0.1445,0.1028 0.3114,0.1863 0.5073,0.2536 0.1958,0.0642 0.3949,0.0964 0.5972,0.0964 0.1509,0 0.276,-0.016 0.366,-0.0418 0.0963,-0.0321 0.167,-0.077 0.2119,-0.1316 0.0449,-0.0514 0.0674,-0.1157 0.0674,-0.1863 0,-0.09 -0.0353,-0.1573 -0.1059,-0.2088 -0.0706,-0.0546 -0.1637,-0.0995 -0.2761,-0.1284 -0.1157,-0.0353 -0.244,-0.0674 -0.3853,-0.0963 -0.1348,-0.0322 -0.2729,-0.0706 -0.4142,-0.1157 -0.1381,-0.0449 -0.2633,-0.1028 -0.3789,-0.1701 -0.1123,-0.0706 -0.2087,-0.1637 -0.2793,-0.2794 -0.0707,-0.1123 -0.106,-0.26 -0.106,-0.4399 0,-0.1894 0.0514,-0.3628 0.151,-0.5201 0.1059,-0.1606 0.2633,-0.2858 0.4688,-0.3789 0.2119,-0.0931 0.4752,-0.1412 0.7899,-0.1412 0.2087,0 0.4175,0.0257 0.6196,0.077 0.2055,0.0482 0.3853,0.1188 0.5426,0.2183l-0.2407 0.5876c-0.1542,-0.0899 -0.3114,-0.1541 -0.4688,-0.1958 -0.1542,-0.0449 -0.3083,-0.0675 -0.4593,-0.0675 -0.1476,0 -0.2697,0.0193 -0.366,0.0546 -0.0963,0.0353 -0.1637,0.0802 -0.2054,0.1381 -0.0418,0.0546 -0.0642,0.1188 -0.0642,0.1894 0,0.0867 0.0353,0.1573 0.1059,0.2119 0.0707,0.0514 0.1637,0.0931 0.2794,0.1253 0.1124,0.0289 0.2376,0.061 0.3757,0.0931 0.1413,0.0321 0.2794,0.0706 0.4175,0.1123 0.1381,0.0386 0.2665,0.0964 0.3821,0.167 0.1124,0.0675 0.2055,0.1606 0.2761,0.2761 0.0739,0.1157 0.1092,0.2601 0.1092,0.4366 0,0.1863 -0.0513,0.3596 -0.1573,0.5137 -0.1059,0.1573 -0.2633,0.2826 -0.4719,0.3789 -0.2087,0.0964 -0.472,0.1445 -0.7899,0.1445l0 0 -0.0004 0.0002zm3.1211 -0.0225c-0.2761,0 -0.5202,-0.0546 -0.7322,-0.1701 -0.2119,-0.1157 -0.3789,-0.2698 -0.5009,-0.4688 -0.122,-0.199 -0.183,-0.4271 -0.183,-0.684 0,-0.2569 0.061,-0.4848 0.183,-0.6839 0.1219,-0.1991 0.2889,-0.3565 0.5009,-0.4688 0.2119,-0.1124 0.4559,-0.1702 0.7322,-0.1702 0.2697,0 0.5137,0.0578 0.7257,0.1702 0.2118,0.1123 0.3821,0.2665 0.5009,0.4655 0.122,0.1958 0.183,0.427 0.183,0.6871 0,0.2569 -0.061,0.4848 -0.183,0.684 -0.1188,0.199 -0.2889,0.3531 -0.5009,0.4688 -0.2119,0.1156 -0.456,0.1701 -0.7257,0.1701l0 0.0001zm0 -0.61c0.1219,0 0.2343,-0.0289 0.3339,-0.0867 0.0995,-0.0578 0.1766,-0.1381 0.2344,-0.244 0.0577,-0.1093 0.0866,-0.2344 0.0866,-0.3822 0,-0.1477 -0.0289,-0.2761 -0.0866,-0.3821 -0.0578,-0.106 -0.1349,-0.1863 -0.2344,-0.2441 -0.0995,-0.0577 -0.2119,-0.0866 -0.3339,-0.0866 -0.1253,0 -0.2377,0.0289 -0.334,0.0866 -0.0995,0.0578 -0.1799,0.1381 -0.2408,0.2441 -0.0578,0.1059 -0.0866,0.2343 -0.0866,0.3821 0,0.1477 0.0288,0.2729 0.0866,0.3822 0.0611,0.1059 0.1413,0.1862 0.2408,0.244 0.0963,0.0578 0.2087,0.0867 0.334,0.0867zm1.9072 0.5747l0 -3.548 0.7449 0 0 3.548 -0.7449 0zm2.5237 0.0353c-0.2152,0 -0.4046,-0.0386 -0.5747,-0.1219 -0.1638,-0.0835 -0.2954,-0.2088 -0.3885,-0.3789 -0.0899,-0.1702 -0.1381,-0.3885 -0.1381,-0.6551l0 -1.4513 0.7481 0 0 1.3422c0,0.2152 0.0418,0.3724 0.1317,0.472 0.0931,0.0995 0.2216,0.1509 0.3885,0.1509 0.1156,0 0.2151,-0.0257 0.3051,-0.0739 0.0899,-0.0513 0.1605,-0.1284 0.2087,-0.228 0.0513,-0.106 0.0771,-0.2376 0.0771,-0.3917l0 -1.2716 0.7481 0 0 2.5719 -0.7095 0 0 -0.7096 0.1283 0.2055c-0.0834,0.1798 -0.2118,0.3146 -0.3821,0.4077 -0.1637,0.0899 -0.3468,0.1349 -0.5426,0.1349l0 -0.0032 -0.0001 0.0001zm3.2461 0c-0.3018,0 -0.5362,-0.0739 -0.7064,-0.228 -0.1701,-0.1573 -0.2536,-0.3885 -0.2536,-0.6936l0 -2.254 0.7449 0 0 2.2443c0,0.1093 0.0289,0.1927 0.0866,0.2537 0.0578,0.0577 0.1349,0.0866 0.2344,0.0866 0.1188,0 0.2183,-0.0321 0.3018,-0.0963l0.199 0.5265c-0.0771,0.0546 -0.167,0.0964 -0.2761,0.1253 -0.1059,0.0257 -0.2152,0.0353 -0.3307,0.0353l0.0001 0.0002zm-1.3581 -1.978l0 -0.5715 1.7853 0 0 0.5715 -1.7853 0zm2.3857 1.9427l0 -2.5719 0.7448 0 0 2.5719 -0.7448 0zm0.3724 -2.9316c-0.1381,0 -0.2505,-0.0386 -0.334,-0.1188 -0.0866,-0.0802 -0.1316,-0.1798 -0.1316,-0.2954 0,-0.1188 0.0449,-0.2183 0.1316,-0.2986 0.0835,-0.0771 0.1959,-0.1188 0.334,-0.1188 0.1348,0 0.2472,0.0386 0.334,0.1156 0.0866,0.0739 0.1284,0.1702 0.1284,0.2858 0,0.1252 -0.0418,0.228 -0.1284,0.3114 -0.0835,0.0802 -0.1959,0.1188 -0.334,0.1188zm2.2862 2.9669c-0.2729,0 -0.517,-0.0546 -0.7288,-0.1701 -0.2119,-0.1157 -0.3789,-0.2698 -0.5042,-0.4688 -0.1188,-0.199 -0.1798,-0.4271 -0.1798,-0.684 0,-0.2569 0.061,-0.4848 0.1798,-0.6839 0.1253,-0.1991 0.2923,-0.3565 0.5042,-0.4688 0.2118,-0.1124 0.4559,-0.1702 0.7288,-0.1702 0.273,0 0.5137,0.0578 0.7289,0.1702 0.2119,0.1123 0.3789,0.2665 0.5009,0.4655 0.122,0.1958 0.183,0.427 0.183,0.6871 0,0.2569 -0.061,0.4848 -0.183,0.684 -0.1219,0.199 -0.2889,0.3531 -0.5009,0.4688 -0.2152,0.1156 -0.4559,0.1701 -0.7289,0.1701l0 0.0001zm0 -0.61c0.1253,0 0.2376,-0.0289 0.3371,-0.0867 0.0964,-0.0578 0.1766,-0.1381 0.2344,-0.244 0.0546,-0.1093 0.0835,-0.2344 0.0835,-0.3822 0,-0.1477 -0.0289,-0.2761 -0.0835,-0.3821 -0.0578,-0.106 -0.1381,-0.1863 -0.2344,-0.2441 -0.0995,-0.0577 -0.2118,-0.0866 -0.3371,-0.0866 -0.1219,0 -0.2343,0.0289 -0.3339,0.0866 -0.0996,0.0578 -0.1766,0.1381 -0.2377,0.2441 -0.0577,0.1059 -0.0866,0.2343 -0.0866,0.3821 0,0.1477 0.0289,0.2729 0.0866,0.3822 0.0611,0.1059 0.1381,0.1862 0.2377,0.244 0.0995,0.0578 0.2118,0.0867 0.3339,0.0867zm3.4742 -2.0358c0.2023,0 0.3853,0.0418 0.5426,0.1253 0.1637,0.0802 0.2922,0.2023 0.3821,0.3724 0.0931,0.1637 0.1413,0.3789 0.1413,0.6389l0 1.4738 -0.7482 0 0 -1.3582c0,-0.2088 -0.0449,-0.3596 -0.1381,-0.4592 -0.0899,-0.0996 -0.2151,-0.1477 -0.3821,-0.1477 -0.1188,0 -0.2248,0.0257 -0.3211,0.077 -0.0931,0.0449 -0.1637,0.122 -0.2184,0.2248 -0.0513,0.0995 -0.077,0.2312 -0.077,0.3917l0 1.2716 -0.7449 0 0 -2.5719 0.7128 0 0 0.7128 -0.1348 -0.2151c0.0931,-0.1734 0.2248,-0.3051 0.3949,-0.3982 0.1734,-0.0931 0.3693,-0.1381 0.5908,-0.1381l0 0 0.0001 0.0001zm-28.4901 9.8156c-0.2761,0 -0.517,-0.0577 -0.7321,-0.1701 -0.2088,-0.1157 -0.3789,-0.2729 -0.501,-0.4688 -0.122,-0.2023 -0.183,-0.4302 -0.183,-0.684 0,-0.2569 0.061,-0.4848 0.183,-0.6839 0.122,-0.199 0.2922,-0.3564 0.501,-0.4688 0.2151,-0.1124 0.4559,-0.1702 0.7321,-0.1702 0.2698,0 0.5137,0.0578 0.7257,0.1702 0.2119,0.1124 0.3789,0.2665 0.501,0.4655 0.1219,0.1959 0.183,0.4271 0.183,0.6871 0,0.2536 -0.0611,0.4817 -0.183,0.684 -0.122,0.1958 -0.289,0.3531 -0.501,0.4688 -0.2119,0.1123 -0.4559,0.1701 -0.7257,0.1701l0 0.0001zm0 -0.61c0.122,0 0.2343,-0.0289 0.334,-0.0867 0.0995,-0.0577 0.1766,-0.1381 0.2343,-0.244 0.0578,-0.1092 0.0867,-0.2344 0.0867,-0.3822 0,-0.1509 -0.0289,-0.276 -0.0867,-0.3821 -0.0577,-0.106 -0.1348,-0.1863 -0.2343,-0.2441 -0.0995,-0.0577 -0.2119,-0.0866 -0.334,-0.0866 -0.1252,0 -0.2376,0.0289 -0.3371,0.0866 -0.0964,0.0578 -0.1766,0.1381 -0.2376,0.2441 -0.0578,0.1059 -0.0867,0.2312 -0.0867,0.3821 0,0.1477 0.0289,0.273 0.0867,0.3822 0.061,0.1059 0.1412,0.1863 0.2376,0.244 0.0995,0.0578 0.2119,0.0867 0.3371,0.0867zm1.9972 0.5747l0 -2.6296c0,-0.2923 0.0866,-0.5234 0.26,-0.6936 0.1702,-0.1766 0.4175,-0.2633 0.7353,-0.2633 0.1092,0 0.2119,0.0128 0.3114,0.0353 0.0995,0.0193 0.1863,0.0546 0.2569,0.1028l-0.1958 0.5394c-0.0418,-0.0257 -0.0867,-0.0513 -0.1381,-0.0642 -0.0514,-0.016 -0.106,-0.0257 -0.1638,-0.0257 -0.1059,0 -0.1927,0.0321 -0.2504,0.0963 -0.0578,0.0611 -0.0867,0.1542 -0.0867,0.2761l0 0.2408 0.0193 0.3178 0 2.0678 -0.7481 0 0 0 0 0.0001zm-0.3951 -1.9425l0 -0.5716 1.782 0 0 0.5716 -1.782 0zm4.5595 1.9778c-0.3018,0 -0.5394,-0.0739 -0.7096,-0.228 -0.1669,-0.1573 -0.2504,-0.3885 -0.2504,-0.6935l0 -2.2541 0.7448 0 0 2.2444c0,0.1092 0.0289,0.1927 0.0867,0.2536 0.0546,0.0578 0.1348,0.0866 0.2343,0.0866 0.1157,0 0.2152,-0.0321 0.2987,-0.0963l0.2023 0.5265c-0.0771,0.0547 -0.1702,0.0964 -0.2794,0.1253 -0.1028,0.0257 -0.2119,0.0353 -0.3275,0.0353l0 0 0.0001 0.0002zm-1.3582 -1.9778l0 -0.5716 1.782 0 0 0.5716 -1.782 0zm3.9462 -0.6678c0.2023,0 0.3853,0.0417 0.5459,0.1219 0.1605,0.0802 0.2889,0.2055 0.3821,0.3725 0.0931,0.1669 0.1381,0.3821 0.1381,0.6422l0 1.4737 -0.7448 0 0 -1.3582c0,-0.2087 -0.0482,-0.3596 -0.1413,-0.4592 -0.0866,-0.0995 -0.2152,-0.1477 -0.3821,-0.1477 -0.1157,0 -0.2248,0.0257 -0.3179,0.0771 -0.0931,0.0449 -0.167,0.1219 -0.2216,0.2216 -0.0513,0.1028 -0.0739,0.2343 -0.0739,0.3917l0 1.2747 -0.7481 0 0 -3.5479 0.7481 0 0 1.6857 -0.1701 -0.2151c0.0931,-0.1702 0.2247,-0.3019 0.3982,-0.3949 0.1701,-0.0931 0.3692,-0.1381 0.5876,-0.1381l0 0 -0.0002 0zm3.0375 2.6456c-0.2954,0 -0.5523,-0.0577 -0.7771,-0.1701 -0.2183,-0.1157 -0.3885,-0.2729 -0.5105,-0.4688 -0.1188,-0.2023 -0.1799,-0.4302 -0.1799,-0.684 0,-0.2569 0.0578,-0.4848 0.1766,-0.6839 0.1188,-0.199 0.2825,-0.3564 0.4912,-0.4688 0.2088,-0.1124 0.4431,-0.1702 0.7032,-0.1702 0.2505,0 0.4784,0.0546 0.6775,0.1606 0.2055,0.1059 0.366,0.2601 0.4848,0.4592 0.1157,0.199 0.1766,0.4366 0.1766,0.7128 0,0.0289 -0.0032,0.0611 -0.0064,0.0996 -0.0032,0.0353 -0.0065,0.0706 -0.0096,0.1027l-2.0871 0 0 -0.4366 1.6953 0 -0.2858 0.1284c0,-0.1348 -0.0288,-0.2505 -0.0802,-0.3468 -0.0546,-0.0995 -0.1316,-0.1766 -0.2247,-0.2312 -0.0964,-0.0578 -0.2088,-0.0867 -0.3372,-0.0867 -0.1252,0 -0.2376,0.0289 -0.3371,0.0867 -0.0963,0.0546 -0.1701,0.1317 -0.2247,0.2343 -0.0546,0.0995 -0.0835,0.2183 -0.0835,0.3532l0 0.1156c0,0.1413 0.0321,0.2634 0.0931,0.3725 0.0642,0.1059 0.1509,0.1862 0.2633,0.244 0.1124,0.0546 0.2472,0.0802 0.4013,0.0802 0.1349,0 0.2569,-0.0193 0.3564,-0.061 0.106,-0.0418 0.2023,-0.1028 0.289,-0.1863l0.3949 0.4302c-0.1188,0.1348 -0.2665,0.2376 -0.4431,0.3114 -0.1798,0.0706 -0.3853,0.1028 -0.6165,0.1028l0 0 0.0002 0.0002zm4.7457 0.0193c-0.2569,0 -0.501,-0.0386 -0.7224,-0.1219 -0.2184,-0.0867 -0.4111,-0.2088 -0.5716,-0.366 -0.1637,-0.1542 -0.2923,-0.3372 -0.3853,-0.5491 -0.0867,-0.2087 -0.1317,-0.4399 -0.1317,-0.6903 0,-0.2537 0.0449,-0.4849 0.1317,-0.6936 0.093,-0.2119 0.2216,-0.3949 0.3853,-0.5523 0.1637,-0.1541 0.3564,-0.2729 0.578,-0.3564 0.2183,-0.0867 0.4592,-0.1284 0.7193,-0.1284 0.2922,0 0.5523,0.0482 0.7866,0.151 0.2343,0.0995 0.4335,0.2472 0.5908,0.4399l-0.4977 0.4592c-0.1124,-0.1317 -0.2408,-0.228 -0.3822,-0.2922 -0.1381,-0.0675 -0.2922,-0.0995 -0.4592,-0.0995 -0.1541,0 -0.2986,0.0257 -0.4302,0.077 -0.1284,0.0513 -0.244,0.1253 -0.3371,0.2183 -0.0964,0.0964 -0.1702,0.2088 -0.2248,0.3404 -0.0513,0.1317 -0.077,0.2761 -0.077,0.4367 0,0.1573 0.0257,0.3018 0.077,0.4335 0.0546,0.1316 0.1284,0.244 0.2248,0.3404 0.0931,0.093 0.2087,0.1669 0.3371,0.2183 0.1317,0.0513 0.2761,0.077 0.4302,0.077 0.167,0 0.3211,-0.0321 0.4592,-0.0963 0.1413,-0.0675 0.2698,-0.167 0.3822,-0.3018l0.4977 0.4592c-0.1573,0.1959 -0.3565,0.3435 -0.5908,0.4463 -0.2343,0.0995 -0.4977,0.151 -0.7899,0.151l0 0 0 -0.0004zm3.0374 -0.0193c-0.2922,0 -0.549,-0.0577 -0.7738,-0.1701 -0.2183,-0.1157 -0.3884,-0.2729 -0.5105,-0.4688 -0.122,-0.2023 -0.183,-0.4302 -0.183,-0.684 0,-0.2569 0.061,-0.4848 0.1766,-0.6839 0.1219,-0.199 0.2858,-0.3564 0.4945,-0.4688 0.2054,-0.1124 0.4399,-0.1702 0.7031,-0.1702 0.2505,0 0.4753,0.0546 0.6776,0.1606 0.2054,0.1059 0.366,0.2601 0.4816,0.4592 0.1188,0.199 0.1766,0.4366 0.1766,0.7128 0,0.0289 0,0.0611 -0.0032,0.0996 -0.0031,0.0353 -0.0064,0.0706 -0.0096,0.1027l-2.087 0 0 -0.4366 1.6953 0 -0.2889 0.1284c0,-0.1348 -0.0258,-0.2505 -0.0803,-0.3468 -0.0546,-0.0995 -0.1284,-0.1766 -0.2247,-0.2312 -0.0931,-0.0578 -0.2055,-0.0867 -0.334,-0.0867 -0.1284,0 -0.2407,0.0289 -0.3404,0.0867 -0.0931,0.0546 -0.1701,0.1317 -0.2216,0.2343 -0.0546,0.0995 -0.0835,0.2183 -0.0835,0.3532l0 0.1156c0,0.1413 0.0322,0.2634 0.09,0.3725 0.0642,0.1059 0.1541,0.1862 0.2633,0.244 0.1156,0.0546 0.2505,0.0802 0.4013,0.0802 0.1381,0 0.2569,-0.0193 0.3596,-0.061 0.1059,-0.0418 0.199,-0.1028 0.2858,-0.1863l0.3982 0.4302c-0.1188,0.1348 -0.2665,0.2376 -0.4464,0.3114 -0.1766,0.0706 -0.3821,0.1028 -0.6165,0.1028l0 0 -0.0001 0.0002zm3.304 -2.6456c0.2023,0 0.3853,0.0417 0.5426,0.1219 0.1637,0.0802 0.2922,0.2055 0.3822,0.3725 0.093,0.1669 0.1412,0.3821 0.1412,0.6422l0 1.4737 -0.7449 0 0 -1.3582c0,-0.2087 -0.0481,-0.3596 -0.1412,-0.4592 -0.0867,-0.0995 -0.2152,-0.1477 -0.3822,-0.1477 -0.1156,0 -0.2247,0.0257 -0.3178,0.0771 -0.0931,0.0449 -0.167,0.1219 -0.2216,0.2216 -0.0513,0.1028 -0.0771,0.2343 -0.0771,0.3917l0 1.2747 -0.7448 0 0 -2.5719 0.7128 0 0 0.7096 -0.1348 -0.2152c0.0931,-0.1701 0.2247,-0.3018 0.3982,-0.3949 0.1701,-0.093 0.366,-0.1381 0.5876,-0.1381l-0.0002 0.0002zm2.7935 2.6456c-0.3018,0 -0.5394,-0.0739 -0.7095,-0.228 -0.167,-0.1573 -0.2505,-0.3885 -0.2505,-0.6935l0 -2.2541 0.7449 0 0 2.2444c0,0.1092 0.0288,0.1927 0.0866,0.2536 0.0546,0.0578 0.1348,0.0866 0.2343,0.0866 0.1157,0 0.2152,-0.0321 0.2987,-0.0963l0.2023 0.5265c-0.0771,0.0547 -0.1701,0.0964 -0.2794,0.1253 -0.1027,0.0257 -0.2118,0.0353 -0.3275,0.0353l0 0 0.0001 0.0002zm-1.3582 -1.9778l0 -0.5716 1.782 0 0 0.5716 -1.782 0zm3.4678 1.9778c-0.2119,0 -0.4046,-0.0417 -0.5748,-0.1219 -0.1637,-0.0835 -0.2922,-0.2088 -0.3853,-0.3789 -0.0931,-0.1701 -0.1381,-0.3885 -0.1381,-0.6551l0 -1.4513 0.7449 0 0 1.3422c0,0.2119 0.0449,0.3725 0.1348,0.472 0.0899,0.0995 0.2216,0.1477 0.3853,0.1477 0.1157,0 0.2183,-0.0225 0.3051,-0.0707 0.0899,-0.0513 0.1606,-0.1284 0.2119,-0.228 0.0513,-0.1059 0.0771,-0.2376 0.0771,-0.3917l0 -1.2716 0.7448 0 0 2.5719 -0.7064 0 0 -0.7096 0.1284 0.2055c-0.0866,0.1798 -0.2151,0.3147 -0.3821,0.4077 -0.167,0.0867 -0.35,0.1317 -0.5459,0.1317l0 0 0.0003 0.0001zm2.1961 -0.0353l0 -2.5719 0.7129 0 0 0.7257 -0.0995 -0.2119c0.0739,-0.1798 0.1958,-0.3178 0.366,-0.411 0.1701,-0.0931 0.3757,-0.1412 0.6165,-0.1412l0 0.6871c-0.0322,-0.0032 -0.0611,-0.0032 -0.0867,-0.0032 -0.0224,-0.0031 -0.0513,-0.0064 -0.0802,-0.0064 -0.2023,0 -0.3693,0.0578 -0.4977,0.1766 -0.122,0.1156 -0.1863,0.2953 -0.1863,0.5394l0 1.2169 -0.7449 0 0 0 -0.0001 -0.0001zm2.4531 0.9633c-0.1348,0 -0.2665,-0.0193 -0.3949,-0.061 -0.1317,-0.0417 -0.2376,-0.0995 -0.3211,-0.1734l0.2729 -0.5299c0.0578,0.0514 0.122,0.09 0.1959,0.1189 0.0739,0.0288 0.151,0.0449 0.2248,0.0449 0.1027,0 0.1862,-0.0258 0.2472,-0.0771 0.0642,-0.0482 0.1219,-0.1284 0.1734,-0.2441l0.1317 -0.3146 0.0577 -0.0835 0.9247 -2.2155 0.716 0 -1.1623 2.7293c-0.0835,0.2055 -0.1798,0.3693 -0.2858,0.4848 -0.1059,0.1188 -0.2247,0.2023 -0.3531,0.2505 -0.1284,0.0482 -0.2698,0.0706 -0.4271,0.0706l0 0 0 0.0001zm0.4399 -0.8638l-1.1463 -2.6714 0.7706 0 0.8863 2.1513 -0.5106 0.5201z"/>
    <path class="fil13" d="M29.5977 27.1333l0 -3.3458 1.6343 0c0.4206,0 0.7353,0.0802 0.9472,0.2408 0.2119,0.1573 0.3211,0.3693 0.3211,0.6293 0,0.1735 -0.0449,0.3276 -0.1317,0.4593 -0.0835,0.1252 -0.2023,0.2247 -0.3531,0.2953 -0.151,0.0707 -0.3211,0.106 -0.517,0.106l0.0931 -0.1959c0.2087,0 0.3949,0.0353 0.5587,0.1059 0.1606,0.0642 0.289,0.167 0.3789,0.2987 0.0899,0.1348 0.1381,0.2987 0.1381,0.4945 0,0.2858 -0.1124,0.5106 -0.3404,0.6743 -0.2248,0.1573 -0.5587,0.2376 -0.9987,0.2376l-1.7306 0 0 0 0.0001 0zm0.7706 -0.5845l0.9023 0c0.199,0 0.3531,-0.0288 0.4528,-0.093 0.1059,-0.0675 0.1573,-0.1734 0.1573,-0.3179 0,-0.1381 -0.0514,-0.244 -0.1573,-0.3082 -0.0995,-0.0706 -0.2537,-0.1059 -0.4528,-0.1059l-0.96 0 0 -0.5652 0.8252 0c0.1894,0 0.3307,-0.0322 0.4302,-0.0964 0.1028,-0.0642 0.1541,-0.1669 0.1541,-0.2986 0,-0.1317 -0.0513,-0.228 -0.1541,-0.2922 -0.0995,-0.0675 -0.2408,-0.0996 -0.4302,-0.0996l-0.7675 0 0 2.177 0 0zm4.1068 0.623c-0.2922,0 -0.549,-0.0578 -0.7737,-0.1734 -0.2184,-0.1124 -0.3885,-0.2698 -0.5106,-0.4656 -0.122,-0.2023 -0.183,-0.4302 -0.183,-0.6839 0,-0.2601 0.061,-0.4881 0.1766,-0.684 0.1219,-0.2023 0.2858,-0.3596 0.4945,-0.4688 0.2055,-0.1156 0.4399,-0.1734 0.7,-0.1734 0.2536,0 0.4784,0.0546 0.6807,0.1637 0.2023,0.1059 0.366,0.2569 0.4816,0.4592 0.1188,0.1959 0.1766,0.4335 0.1766,0.7096 0,0.0289 0,0.0642 -0.0032,0.1028 -0.0031,0.0353 -0.0064,0.0674 -0.0095,0.0995l-2.0903 0 0 -0.4335 1.6985 0 -0.2858 0.1284c0,-0.1348 -0.0289,-0.2505 -0.0835,-0.35 -0.0546,-0.0995 -0.1284,-0.1734 -0.2247,-0.228 -0.0964,-0.0578 -0.2055,-0.0867 -0.334,-0.0867 -0.1284,0 -0.2408,0.0289 -0.3404,0.0867 -0.0931,0.0546 -0.1701,0.1316 -0.2247,0.2312 -0.0514,0.0995 -0.0803,0.2183 -0.0803,0.3564l0 0.1156c0,0.1381 0.0289,0.2634 0.09,0.3725 0.0642,0.1028 0.1541,0.1863 0.2633,0.244 0.1157,0.0514 0.2505,0.0802 0.4013,0.0802 0.1381,0 0.2569,-0.0224 0.3596,-0.0642 0.106,-0.0386 0.2023,-0.1028 0.2858,-0.183l0.3982 0.4271c-0.1188,0.1348 -0.2665,0.2376 -0.4464,0.3114 -0.1765,0.0706 -0.3821,0.1059 -0.6165,0.1059l0 0 -0.0001 0.0003zm2.6039 0c-0.2183,0 -0.4302,-0.0258 -0.6357,-0.0771 -0.1991,-0.0546 -0.3596,-0.122 -0.4784,-0.199l0.2505 -0.5363c0.1188,0.0739 0.2569,0.1348 0.4141,0.1799 0.1638,0.0449 0.3243,0.0674 0.4784,0.0674 0.1734,0 0.2954,-0.0193 0.3629,-0.061 0.0739,-0.0418 0.1124,-0.0995 0.1124,-0.1734 0,-0.0578 -0.0289,-0.1028 -0.0867,-0.1317 -0.0546,-0.0322 -0.1284,-0.0578 -0.2216,-0.0739 -0.0899,-0.016 -0.1927,-0.0322 -0.3051,-0.0449 -0.1092,-0.0193 -0.2183,-0.0386 -0.3307,-0.0642 -0.1092,-0.0289 -0.2119,-0.0706 -0.3051,-0.1252 -0.093,-0.0514 -0.1669,-0.1253 -0.2247,-0.2184 -0.0546,-0.093 -0.0802,-0.2118 -0.0802,-0.3595 0,-0.1606 0.0449,-0.3051 0.1381,-0.4302 0.0963,-0.122 0.2312,-0.2216 0.411,-0.2923 0.1799,-0.0706 0.3917,-0.1092 0.639,-0.1092 0.1765,0 0.3564,0.0193 0.5362,0.0578 0.183,0.0386 0.334,0.0931 0.456,0.167l-0.2505 0.533c-0.122,-0.0739 -0.2505,-0.1253 -0.3757,-0.151 -0.1253,-0.0289 -0.2472,-0.0418 -0.366,-0.0418 -0.1638,0 -0.2858,0.0225 -0.3629,0.0675 -0.0739,0.0449 -0.1124,0.0995 -0.1124,0.1702 0,0.0642 0.0257,0.1123 0.0802,0.1445 0.0578,0.0322 0.1317,0.0578 0.2248,0.0771 0.0931,0.0193 0.1927,0.0353 0.3018,0.0513 0.1092,0.0129 0.2216,0.0353 0.334,0.0642 0.1123,0.0257 0.2119,0.0675 0.3018,0.1219 0.0899,0.0514 0.167,0.122 0.2247,0.2152 0.0546,0.0899 0.0835,0.2087 0.0835,0.3532 0,0.1605 -0.0449,0.3018 -0.1412,0.427 -0.0964,0.122 -0.2344,0.2152 -0.4175,0.2858 -0.1766,0.0706 -0.3949,0.1059 -0.6551,0.1059l0 0 0.0001 0.0002zm2.7261 0c-0.3018,0 -0.5363,-0.0771 -0.7065,-0.2312 -0.1701,-0.1541 -0.2536,-0.3853 -0.2536,-0.6904l0 -2.2572 0.7449 0 0 2.2476c0,0.1059 0.0289,0.1927 0.0866,0.2536 0.0578,0.0546 0.1349,0.0835 0.2344,0.0835 0.1188,0 0.2183,-0.0321 0.3018,-0.0963l0.199 0.5265c-0.0739,0.0546 -0.167,0.0964 -0.2761,0.1253 -0.1059,0.0257 -0.2151,0.0386 -0.3307,0.0386l0 0 0.0002 0zm-1.355 -1.9779l0 -0.5747 1.782 0 0 0.5747 -1.782 0zm-20.2188 9.1092l0 -3.3458 1.5219 0c0.3629,0 0.684,0.0707 0.9601,0.2088 0.276,0.1381 0.4945,0.3307 0.6486,0.578 0.1573,0.2505 0.2343,0.5458 0.2343,0.8863 0,0.3371 -0.077,0.6325 -0.2343,0.8829 -0.1541,0.2505 -0.3724,0.4431 -0.6486,0.5844 -0.2761,0.1348 -0.5972,0.2054 -0.9601,0.2054l-1.5219 0 0 0zm0.7737 -0.6358l0.7096 0c0.2216,0 0.4142,-0.0417 0.578,-0.1252 0.1637,-0.0867 0.2923,-0.2055 0.3822,-0.3629 0.0931,-0.1572 0.1381,-0.3404 0.1381,-0.549 0,-0.2151 -0.0449,-0.3981 -0.1381,-0.549 -0.0899,-0.1573 -0.2183,-0.2761 -0.3822,-0.3596 -0.1637,-0.0866 -0.3564,-0.1284 -0.578,-0.1284l-0.7096 0 0 2.0743 0 0 0 -0.0002zm4.399 0.6744c-0.2923,0 -0.5491,-0.0578 -0.7738,-0.1734 -0.2216,-0.1157 -0.3885,-0.2698 -0.5106,-0.4688 -0.1219,-0.199 -0.183,-0.4271 -0.183,-0.6807 0,-0.2601 0.0611,-0.4881 0.1766,-0.684 0.122,-0.2023 0.2858,-0.3595 0.4945,-0.4687 0.2055,-0.1157 0.44,-0.1735 0.7,-0.1735 0.2536,0 0.4784,0.0546 0.6807,0.1637 0.2023,0.1028 0.3629,0.257 0.4817,0.4593 0.1188,0.1958 0.1765,0.4334 0.1765,0.7095 0,0.0289 0,0.0642 -0.0031,0.1028 -0.0032,0.0353 -0.0065,0.0675 -0.0096,0.0995l-2.0902 0 0 -0.4366 1.6985 0 -0.289 0.1317c0,-0.1349 -0.0257,-0.2505 -0.0802,-0.35 -0.0546,-0.0995 -0.1284,-0.1766 -0.2248,-0.2312 -0.0963,-0.0546 -0.2054,-0.0835 -0.3339,-0.0835 -0.1284,0 -0.2408,0.0289 -0.3404,0.0835 -0.0931,0.0546 -0.1702,0.1348 -0.2248,0.2343 -0.0546,0.0995 -0.0802,0.2183 -0.0802,0.3564l0 0.1124c0,0.1413 0.0289,0.2665 0.0899,0.3725 0.0642,0.1059 0.151,0.1894 0.2634,0.244 0.1156,0.0546 0.2504,0.0835 0.4013,0.0835 0.1381,0 0.2569,-0.0225 0.3596,-0.0642 0.1059,-0.0417 0.199,-0.1028 0.2858,-0.1863l0.3981 0.4302c-0.1188,0.1349 -0.2665,0.2376 -0.4463,0.3114 -0.1766,0.0707 -0.3822,0.106 -0.6165,0.106l0 0 -0.0002 0.0002zm2.3921 -0.0386l-1.082 -2.5719 0.7706 0 0.899 2.2123 -0.3821 0 0.9311 -2.2123 0.716 0 -1.0853 2.5719 -0.7674 0 0 0 0.0001 0zm3.3618 0.0386c-0.2922,0 -0.549,-0.0578 -0.7738,-0.1734 -0.2183,-0.1157 -0.3884,-0.2698 -0.5105,-0.4688 -0.122,-0.199 -0.183,-0.4271 -0.183,-0.6807 0,-0.2601 0.061,-0.4881 0.1799,-0.684 0.1188,-0.2023 0.2825,-0.3595 0.4912,-0.4687 0.2087,-0.1157 0.4399,-0.1735 0.7031,-0.1735 0.2505,0 0.4784,0.0546 0.6776,0.1637 0.2054,0.1028 0.366,0.257 0.4848,0.4593 0.1156,0.1958 0.1766,0.4334 0.1766,0.7095 0,0.0289 -0.0032,0.0642 -0.0065,0.1028 -0.0031,0.0353 -0.0064,0.0675 -0.0096,0.0995l-2.087 0 0 -0.4366 1.6953 0 -0.2858 0.1317c0,-0.1349 -0.0289,-0.2505 -0.0802,-0.35 -0.0546,-0.0995 -0.1317,-0.1766 -0.228,-0.2312 -0.0931,-0.0546 -0.2055,-0.0835 -0.334,-0.0835 -0.1284,0 -0.2408,0.0289 -0.3371,0.0835 -0.0964,0.0546 -0.1735,0.1348 -0.2248,0.2343 -0.0546,0.0995 -0.0835,0.2183 -0.0835,0.3564l0 0.1124c0,0.1413 0.0322,0.2665 0.0931,0.3725 0.061,0.1059 0.151,0.1894 0.2601,0.244 0.1156,0.0546 0.2504,0.0835 0.4046,0.0835 0.1348,0 0.2536,-0.0225 0.3564,-0.0642 0.1059,-0.0417 0.2023,-0.1028 0.2858,-0.1863l0.3981 0.4302c-0.1188,0.1349 -0.2664,0.2376 -0.443,0.3114 -0.1799,0.0707 -0.3853,0.106 -0.6197,0.106l0 0 -0.0001 0.0002zm1.7403 -0.0386l0 -3.5479 0.7448 0 0 3.5479 -0.7448 0zm2.6618 0.0386c-0.273,0 -0.517,-0.0578 -0.7322,-0.1734 -0.2087,-0.1157 -0.3757,-0.2698 -0.5009,-0.4688 -0.122,-0.199 -0.183,-0.4271 -0.183,-0.6807 0,-0.2601 0.061,-0.4881 0.183,-0.684 0.1252,-0.2023 0.2922,-0.3595 0.5009,-0.4687 0.2152,-0.1157 0.4592,-0.1735 0.7322,-0.1735 0.2697,0 0.5137,0.0578 0.7257,0.1735 0.2151,0.1092 0.3821,0.2664 0.5041,0.4623 0.1188,0.199 0.1798,0.4271 0.1798,0.6904 0,0.2536 -0.061,0.4817 -0.1798,0.6807 -0.122,0.199 -0.289,0.3531 -0.5041,0.4688 -0.2119,0.1156 -0.456,0.1734 -0.7257,0.1734zm0 -0.6133c0.1252,0 0.2343,-0.0289 0.3339,-0.0835 0.0996,-0.0578 0.1766,-0.1413 0.2344,-0.2441 0.0577,-0.1092 0.0866,-0.2376 0.0866,-0.3821 0,-0.151 -0.0289,-0.2794 -0.0866,-0.3853 -0.0578,-0.1028 -0.1348,-0.1863 -0.2344,-0.2441 -0.0995,-0.0546 -0.2087,-0.0835 -0.3339,-0.0835 -0.1253,0 -0.2344,0.0289 -0.334,0.0835 -0.0995,0.0578 -0.1798,0.1413 -0.2408,0.2441 -0.0577,0.1059 -0.0866,0.2343 -0.0866,0.3853 0,0.1445 0.0289,0.2729 0.0866,0.3821 0.0611,0.1028 0.1413,0.1863 0.2408,0.2441 0.0995,0.0546 0.2087,0.0835 0.334,0.0835zm3.4292 0.6133c-0.2183,0 -0.4077,-0.0482 -0.5715,-0.1445 -0.1606,-0.0964 -0.289,-0.2408 -0.3822,-0.4335 -0.0866,-0.199 -0.1317,-0.4464 -0.1317,-0.7449 0,-0.3051 0.0418,-0.5523 0.1284,-0.7481 0.0867,-0.1928 0.2088,-0.3372 0.3725,-0.4335 0.1637,-0.0964 0.3564,-0.1446 0.5843,-0.1446 0.2408,0 0.4592,0.0546 0.6486,0.167 0.1959,0.1092 0.3469,0.2634 0.4593,0.4592 0.1156,0.1991 0.1734,0.4302 0.1734,0.7 0,0.2698 -0.0578,0.5041 -0.1734,0.7 -0.1124,0.199 -0.2634,0.35 -0.4593,0.4592 -0.1894,0.1092 -0.4077,0.1637 -0.6486,0.1637l0 0 0.0002 0zm-1.522 0.8894l0 -3.4999 0.7128 0 0 0.5266 -0.0128 0.7642 0.0482 0.761 0 1.4481 -0.7482 0zm1.3935 -1.5027c0.122,0 0.2344,-0.0289 0.3276,-0.0835 0.0995,-0.0578 0.1765,-0.1413 0.2343,-0.2441 0.061,-0.1092 0.0931,-0.2376 0.0931,-0.3821 0,-0.151 -0.0322,-0.2794 -0.0931,-0.3853 -0.0578,-0.1028 -0.1348,-0.1863 -0.2343,-0.2441 -0.0931,-0.0546 -0.2055,-0.0835 -0.3276,-0.0835 -0.1252,0 -0.2376,0.0289 -0.3371,0.0835 -0.0964,0.0578 -0.1766,0.1413 -0.2312,0.2441 -0.0577,0.1059 -0.0866,0.2343 -0.0866,0.3853 0,0.1445 0.0289,0.2729 0.0866,0.3821 0.0546,0.1028 0.1348,0.1863 0.2312,0.2441 0.0995,0.0546 0.2119,0.0835 0.3371,0.0835zm5.2017 -2.0358c0.2023,0 0.3821,0.0418 0.5394,0.1253 0.1573,0.0802 0.2825,0.2023 0.3725,0.3724 0.093,0.1637 0.1381,0.3789 0.1381,0.639l0 1.4737 -0.7449 0 0 -1.3582c0,-0.2087 -0.0449,-0.3596 -0.1284,-0.4592 -0.0867,-0.0995 -0.2087,-0.1477 -0.3629,-0.1477 -0.1092,0 -0.2054,0.0257 -0.2922,0.077 -0.0866,0.0482 -0.1541,0.122 -0.2023,0.2184 -0.0482,0.0995 -0.0706,0.2247 -0.0706,0.3788l0 1.2908 -0.7449 0 0 -1.3582c0,-0.2088 -0.0449,-0.3596 -0.1317,-0.4592 -0.0802,-0.0996 -0.199,-0.1477 -0.3564,-0.1477 -0.1092,0 -0.2054,0.0257 -0.2922,0.077 -0.0867,0.0482 -0.1541,0.122 -0.199,0.2183 -0.0482,0.0996 -0.0739,0.2248 -0.0739,0.3789l0 1.2908 -0.7449 0 0 -2.5719 0.7128 0 0 0.7031 -0.1348 -0.2055c0.0899,-0.1765 0.2152,-0.3082 0.3789,-0.3981 0.1637,-0.09 0.3531,-0.1381 0.5618,-0.1381 0.2377,0 0.4431,0.061 0.6197,0.183 0.1766,0.1156 0.2954,0.2986 0.3531,0.5426l-0.2633 -0.0707c0.0866,-0.199 0.2216,-0.3596 0.411,-0.4784 0.1895,-0.1156 0.4078,-0.1765 0.6551,-0.1765l0 0 0 0.0003zm3.015 2.6491c-0.2954,0 -0.5523,-0.0578 -0.7771,-0.1734 -0.2183,-0.1157 -0.3884,-0.2698 -0.5105,-0.4688 -0.1188,-0.199 -0.1799,-0.4271 -0.1799,-0.6807 0,-0.2601 0.0578,-0.4881 0.1766,-0.684 0.1188,-0.2023 0.2825,-0.3595 0.4913,-0.4687 0.2087,-0.1157 0.443,-0.1735 0.7031,-0.1735 0.2505,0 0.4784,0.0546 0.6775,0.1637 0.2055,0.1028 0.366,0.257 0.4848,0.4593 0.1157,0.1958 0.1766,0.4334 0.1766,0.7095 0,0.0289 -0.0032,0.0642 -0.0064,0.1028 -0.0032,0.0353 -0.0065,0.0675 -0.0096,0.0995l-2.0871 0 0 -0.4366 1.6953 0 -0.2857 0.1317c0,-0.1349 -0.0289,-0.2505 -0.0803,-0.35 -0.0546,-0.0995 -0.1316,-0.1766 -0.2247,-0.2312 -0.0964,-0.0546 -0.2087,-0.0835 -0.3371,-0.0835 -0.1253,0 -0.2377,0.0289 -0.3372,0.0835 -0.0963,0.0546 -0.1701,0.1348 -0.2247,0.2343 -0.0546,0.0995 -0.0835,0.2183 -0.0835,0.3564l0 0.1124c0,0.1413 0.0322,0.2665 0.0931,0.3725 0.0642,0.1059 0.1509,0.1894 0.2633,0.244 0.1124,0.0546 0.2472,0.0835 0.4013,0.0835 0.1349,0 0.2569,-0.0225 0.3565,-0.0642 0.1059,-0.0417 0.2023,-0.1028 0.2889,-0.1863l0.3949 0.4302c-0.1188,0.1349 -0.2665,0.2376 -0.4431,0.3114 -0.1798,0.0707 -0.3853,0.106 -0.6165,0.106l0 0 0.0002 0.0002zm3.3007 -2.6491c0.2023,0 0.3853,0.0418 0.5459,0.1253 0.1605,0.0802 0.2889,0.2023 0.3821,0.3724 0.09,0.1637 0.1381,0.3789 0.1381,0.639l0 1.4737 -0.7449 0 0 -1.3582c0,-0.2087 -0.0481,-0.3596 -0.1381,-0.4592 -0.0899,-0.0995 -0.2183,-0.1477 -0.3821,-0.1477 -0.1188,0 -0.228,0.0257 -0.3211,0.077 -0.0931,0.0482 -0.167,0.122 -0.2216,0.2248 -0.0513,0.1028 -0.0771,0.2312 -0.0771,0.3917l0 1.2716 -0.7449 0 0 -2.5719 0.7129 0 0 0.7128 -0.1348 -0.2151c0.093,-0.1734 0.2247,-0.3051 0.3981,-0.3982 0.1735,-0.0899 0.366,-0.1381 0.5876,-0.1381l-0.0001 0.0001zm2.7935 2.6491c-0.3018,0 -0.5394,-0.0771 -0.7064,-0.2312 -0.1701,-0.1541 -0.2536,-0.3853 -0.2536,-0.6935l0 -2.2541 0.7448 0 0 2.2476c0,0.106 0.0289,0.1928 0.0867,0.2505 0.0546,0.0578 0.1348,0.0867 0.2343,0.0867 0.1157,0 0.2183,-0.0322 0.2987,-0.0964l0.2023 0.5266c-0.0771,0.0546 -0.1702,0.0963 -0.2761,0.1252 -0.1059,0.0257 -0.2152,0.0386 -0.3307,0.0386zm-1.3582 -1.978l0 -0.5747 1.782 0 0 0.5747 -1.782 0zm-26.9039 9.1447c-0.2729,0 -0.5169,-0.0546 -0.7288,-0.1702 -0.2119,-0.1156 -0.3789,-0.2697 -0.5041,-0.4688 -0.1188,-0.199 -0.1799,-0.427 -0.1799,-0.6839 0,-0.2569 0.0611,-0.4848 0.1799,-0.684 0.1252,-0.199 0.2922,-0.3564 0.5041,-0.4688 0.2119,-0.1124 0.4559,-0.1701 0.7288,-0.1701 0.273,0 0.5137,0.0577 0.7289,0.1701 0.2119,0.1124 0.3789,0.2698 0.501,0.4655 0.1219,0.1991 0.183,0.4271 0.183,0.6872 0,0.2569 -0.0611,0.4848 -0.183,0.6839 -0.122,0.199 -0.289,0.3532 -0.501,0.4688 -0.2152,0.1157 -0.4559,0.1702 -0.7289,0.1702l0 0 0 0.0001zm0 -0.6101c0.1253,0 0.2377,-0.0289 0.3372,-0.0866 0.0963,-0.0546 0.1765,-0.1381 0.2343,-0.2441 0.0546,-0.1059 0.0835,-0.2343 0.0835,-0.3821 0,-0.1477 -0.0289,-0.2761 -0.0835,-0.3822 -0.0578,-0.1059 -0.1381,-0.1863 -0.2343,-0.244 -0.0995,-0.0578 -0.2119,-0.0867 -0.3372,-0.0867 -0.1219,0 -0.2343,0.0289 -0.3339,0.0867 -0.0995,0.0577 -0.1766,0.1381 -0.2376,0.244 -0.0578,0.106 -0.0867,0.2344 -0.0867,0.3822 0,0.1477 0.0289,0.2761 0.0867,0.3821 0.061,0.106 0.1381,0.1895 0.2376,0.2441 0.0995,0.0577 0.2119,0.0866 0.3339,0.0866zm2.0004 0.5748l0 -2.6297c0,-0.2889 0.0866,-0.5201 0.2569,-0.6935 0.1734,-0.1766 0.4206,-0.2634 0.7384,-0.2634 0.106,0 0.2119,0.0129 0.3083,0.0353 0.1027,0.0225 0.1894,0.0578 0.26,0.1028l-0.1958 0.5426c-0.0418,-0.0289 -0.09,-0.0513 -0.1381,-0.0675 -0.0514,-0.016 -0.106,-0.0257 -0.1638,-0.0257 -0.1092,0 -0.1927,0.0322 -0.2536,0.0964 -0.0578,0.061 -0.0866,0.1541 -0.0866,0.276l0 0.2408 0.0193 0.3211 0 2.0646 -0.7449 0 0 0 -0.0001 0.0002zm-0.3949 -1.9427l0 -0.5716 1.782 0 0 0.5716 -1.782 0zm4.5561 1.978c-0.3018,0 -0.5362,-0.0739 -0.7064,-0.2281 -0.167,-0.1541 -0.2536,-0.3853 -0.2536,-0.6935l0 -2.2541 0.7482 0 0 2.2444c0,0.1092 0.0288,0.1927 0.0834,0.2536 0.0578,0.0578 0.1382,0.0867 0.2344,0.0867 0.1188,0 0.2183,-0.0322 0.3018,-0.0964l0.199 0.5266c-0.0739,0.0546 -0.167,0.0963 -0.2761,0.1252 -0.1059,0.0257 -0.2151,0.0353 -0.3307,0.0353l0 0 0 0.0003zm-1.3549 -1.978l0 -0.5716 1.782 0 0 0.5716 -1.782 0zm3.9461 -0.6678c0.2023,0 0.3853,0.0417 0.5426,0.1252 0.1637,0.0771 0.2922,0.2023 0.3822,0.3725 0.093,0.1637 0.1412,0.3788 0.1412,0.6389l0 1.4737 -0.7481 0 0 -1.3582c0,-0.2087 -0.0449,-0.3596 -0.1381,-0.4592 -0.09,-0.0995 -0.2152,-0.1477 -0.3822,-0.1477 -0.1188,0 -0.2247,0.0258 -0.3211,0.0771 -0.0899,0.0482 -0.1637,0.1219 -0.2183,0.2247 -0.0513,0.0995 -0.0771,0.2312 -0.0771,0.3918l0 1.2715 -0.7449 0 0 -3.5479 0.7449 0 0 1.6889 -0.167 -0.2152c0.0931,-0.1734 0.2248,-0.3051 0.3982,-0.3981 0.1701,-0.0931 0.366,-0.1381 0.5876,-0.1381l0 0 0.0001 0.0001zm3.0343 2.6458c-0.2922,0 -0.549,-0.0546 -0.7738,-0.1702 -0.2183,-0.1156 -0.3884,-0.2697 -0.5105,-0.4688 -0.122,-0.199 -0.183,-0.427 -0.183,-0.6839 0,-0.2569 0.061,-0.4848 0.1766,-0.684 0.1219,-0.199 0.2857,-0.3564 0.4945,-0.4688 0.2054,-0.1124 0.4399,-0.1701 0.7,-0.1701 0.2536,0 0.4783,0.0546 0.6806,0.1637 0.2023,0.1028 0.366,0.2569 0.4817,0.4559 0.1188,0.199 0.1766,0.4367 0.1766,0.7129 0,0.0288 0,0.0642 -0.0032,0.1028 -0.0031,0.0321 -0.0064,0.0674 -0.0096,0.0995l-2.0902 0 0 -0.4367 1.6985 0 -0.2858 0.1317c0,-0.1348 -0.0289,-0.2505 -0.0835,-0.35 -0.0513,-0.0995 -0.1284,-0.1766 -0.2247,-0.2312 -0.0964,-0.0546 -0.2055,-0.0835 -0.334,-0.0835 -0.1284,0 -0.2408,0.0289 -0.3404,0.0835 -0.0931,0.0546 -0.1702,0.1348 -0.2248,0.2344 -0.0546,0.0995 -0.0802,0.2183 -0.0802,0.3531l0 0.1157c0,0.1412 0.0322,0.2665 0.0899,0.3724 0.0642,0.1059 0.1542,0.1863 0.2634,0.244 0.1156,0.0547 0.2505,0.0803 0.4013,0.0803 0.1381,0 0.2569,-0.0193 0.3596,-0.0611 0.1059,-0.0417 0.2023,-0.1028 0.2858,-0.1863l0.3981 0.4302c-0.1188,0.1349 -0.2665,0.2377 -0.4463,0.3114 -0.1766,0.0707 -0.3821,0.1028 -0.6165,0.1028l0 0 -0.0001 0.0003zm3.9783 -0.0353l0 -1.3678 0.1765 0.4688 -1.4737 -2.4467 0.8252 0 1.1271 1.8783 -0.472 0 1.1302 -1.8783 0.761 0 -1.4706 2.4467 0.1702 -0.4688 0 1.3678 -0.7738 0 0 0 -0.0001 0zm3.336 0.0353c-0.2922,0 -0.549,-0.0546 -0.7737,-0.1702 -0.2183,-0.1156 -0.3885,-0.2697 -0.5106,-0.4688 -0.1219,-0.199 -0.183,-0.427 -0.183,-0.6839 0,-0.2569 0.0611,-0.4848 0.1766,-0.684 0.122,-0.199 0.2858,-0.3564 0.4945,-0.4688 0.2055,-0.1124 0.4399,-0.1701 0.7,-0.1701 0.2536,0 0.4784,0.0546 0.6807,0.1637 0.2023,0.1028 0.366,0.2569 0.4817,0.4559 0.1188,0.199 0.1765,0.4367 0.1765,0.7129 0,0.0288 0,0.0642 -0.0031,0.1028 -0.0032,0.0321 -0.0065,0.0674 -0.0096,0.0995l-2.0902 0 0 -0.4367 1.6984 0 -0.2857 0.1317c0,-0.1348 -0.0289,-0.2505 -0.0835,-0.35 -0.0546,-0.0995 -0.1284,-0.1766 -0.2248,-0.2312 -0.0963,-0.0546 -0.2054,-0.0835 -0.334,-0.0835 -0.1284,0 -0.2407,0.0289 -0.3404,0.0835 -0.093,0.0546 -0.1701,0.1348 -0.2247,0.2344 -0.0546,0.0995 -0.0802,0.2183 -0.0802,0.3531l0 0.1157c0,0.1412 0.0289,0.2665 0.0899,0.3724 0.0642,0.1059 0.1541,0.1863 0.2633,0.244 0.1157,0.0547 0.2505,0.0803 0.4014,0.0803 0.1381,0 0.2569,-0.0193 0.3595,-0.0611 0.106,-0.0417 0.2023,-0.1028 0.2858,-0.1863l0.3982 0.4302c-0.1188,0.1349 -0.2665,0.2377 -0.4463,0.3114 -0.1766,0.0707 -0.3822,0.1028 -0.6165,0.1028l0 0 -0.0002 0.0003zm3.2463 -0.0353l0 -0.5042 -0.0482 -0.1092 0 -0.899c0,-0.1573 -0.0481,-0.2825 -0.1477,-0.3724 -0.093,-0.0899 -0.244,-0.1317 -0.443,-0.1317 -0.1381,0 -0.273,0.0225 -0.4078,0.0642 -0.1284,0.0418 -0.2408,0.0995 -0.334,0.1734l-0.2664 -0.5201c0.1381,-0.0995 0.3082,-0.1766 0.5041,-0.2312 0.199,-0.0546 0.4013,-0.0802 0.6036,-0.0802 0.3917,0 0.6967,0.0931 0.9119,0.2761 0.2183,0.1863 0.3275,0.4752 0.3275,0.8669l0 1.4674 -0.7 0zm-0.7835 0.0353c-0.199,0 -0.3724,-0.0322 -0.5169,-0.0995 -0.1413,-0.0675 -0.2537,-0.1637 -0.3276,-0.2826 -0.077,-0.1156 -0.1156,-0.2472 -0.1156,-0.3948 0,-0.1542 0.0353,-0.2858 0.1092,-0.4014 0.0771,-0.1156 0.1959,-0.2054 0.3596,-0.2665 0.1605,-0.0674 0.3724,-0.1028 0.6358,-0.1028l0.6839 0 0 0.4367 -0.6036 0c-0.1766,0 -0.2954,0.0289 -0.3629,0.0866 -0.0642,0.0578 -0.0963,0.1284 -0.0963,0.2152 0,0.0931 0.0386,0.1701 0.1124,0.228 0.0739,0.0546 0.1798,0.0802 0.3082,0.0802 0.1252,0 0.2376,-0.0288 0.334,-0.0835 0.0995,-0.061 0.1734,-0.1509 0.2151,-0.2633l0.1157 0.3436c-0.0546,0.1637 -0.1541,0.2922 -0.2954,0.3788 -0.1445,0.0835 -0.3275,0.1253 -0.5554,0.1253l0 0 -0.0002 0zm2.1577 -0.0353l0 -2.5719 0.7129 0 0 0.7257 -0.1028 -0.2088c0.0771,-0.183 0.199,-0.3211 0.3693,-0.411 0.1701,-0.0963 0.3724,-0.1445 0.6165,-0.1445l0 0.6871c-0.0322,-0.0032 -0.0611,-0.0032 -0.0867,-0.0032 -0.0257,-0.0031 -0.0513,-0.0064 -0.0802,-0.0064 -0.2023,0 -0.3693,0.061 -0.4977,0.1766 -0.1252,0.1156 -0.1863,0.2954 -0.1863,0.5426l0 1.2136 -0.7448 0 -0.0002 0.0002z"/>
   </g>
  </g>
  <polygon class="fil9" points="-0.0739,96.4367 69.4961,96.4367 69.4961,8.279 -0.0739,8.279 "/>
  <polygon class="fil9" points="-0.0739,96.4367 69.4961,96.4367 69.4961,8.279 -0.0739,8.279 "/>
  <polygon class="fil9" points="-0.0739,96.4367 69.4961,96.4367 69.4961,8.279 -0.0739,8.279 "/>
 </g>
</svg>
