<svg width="24" height="24" viewBox="0 0 24 24" fill="none" xmlns="http://www.w3.org/2000/svg">
<g clip-path="url(#clip0_311_2842)">
<path d="M21.7414 0.571411H2.25883C1.81133 0.571411 1.38216 0.74918 1.06573 1.06561C0.749302 1.38204 0.571533 1.81121 0.571533 2.25871V21.7413C0.571533 22.1888 0.749302 22.6179 1.06573 22.9344C1.38216 23.2508 1.81133 23.4286 2.25883 23.4286H21.7414C22.1889 23.4286 22.618 23.2508 22.9345 22.9344C23.2509 22.6179 23.4287 22.1888 23.4287 21.7413V2.25871C23.4287 1.81121 23.2509 1.38204 22.9345 1.06561C22.618 0.74918 22.1889 0.571411 21.7414 0.571411ZM7.38423 20.0428H3.94772V9.12697H7.38423V20.0428ZM5.6636 7.61427C5.27378 7.61207 4.89336 7.49445 4.57033 7.27626C4.2473 7.05806 3.99614 6.74906 3.84856 6.38826C3.70098 6.02746 3.66358 5.63102 3.74109 5.24899C3.81859 4.86695 4.00753 4.51644 4.28406 4.24168C4.56059 3.96692 4.91231 3.78024 5.29483 3.70518C5.67736 3.63013 6.07355 3.67007 6.43339 3.81997C6.79324 3.96987 7.10062 4.223 7.31674 4.54742C7.53286 4.87185 7.64803 5.25302 7.64772 5.64284C7.6514 5.90382 7.6025 6.16288 7.50393 6.40456C7.40535 6.64624 7.25913 6.8656 7.07398 7.04957C6.88883 7.23354 6.66853 7.37835 6.42622 7.47536C6.18391 7.57238 5.92455 7.61962 5.6636 7.61427ZM20.0509 20.0524H16.616V14.0889C16.616 12.3301 15.8684 11.7873 14.9033 11.7873C13.8842 11.7873 12.8842 12.5555 12.8842 14.1333V20.0524H9.44772V9.1349H12.7525V10.6476H12.7969C13.1287 9.97617 14.2906 8.82856 16.0636 8.82856C17.9811 8.82856 20.0525 9.96665 20.0525 13.3L20.0509 20.0524Z" fill="#0A66C2"/>
</g>
<defs>
<clipPath id="clip0_311_2842">
<rect width="22.8571" height="22.8571" fill="white" transform="translate(0.571533 0.571411)"/>
</clipPath>
</defs>
</svg>
