<svg width="390" height="290" viewBox="0 0 390 290" fill="none" xmlns="http://www.w3.org/2000/svg">
<g clip-path="url(#clip0_300_1253)">
<path d="M141.377 130.814C139.05 132.786 136.67 134.634 134.562 136.828C132.361 139.121 130.373 141.593 128.588 144.181C124.856 149.59 121.982 155.493 119.764 161.581C115.194 174.119 113.189 187.601 113.689 200.83C113.818 204.285 114.145 207.731 114.656 211.154C115.136 214.379 115.896 217.557 116.508 220.761C116.568 221.074 116.133 221.177 116.006 220.891C113.557 215.367 112.858 209.063 112.483 203.139C112.065 196.523 112.332 189.859 113.224 183.285C115.015 170.086 119.083 156.811 126.54 145.401C128.453 142.475 130.6 139.671 133.029 137.1C135.361 134.632 137.984 132.087 141.003 130.358C141.298 130.191 141.64 130.59 141.377 130.814Z" fill="#1C1C1C"/>
<path d="M134.605 120.896C125.08 121.499 115.864 123.804 107.373 127.904C98.5223 132.179 90.6171 138.018 83.5927 144.598C76.1548 151.566 69.6472 159.387 63.96 167.665C58.4085 175.748 53.5914 184.297 49.6592 193.175C46.1384 201.119 43.4445 209.232 41.3234 217.591C41.0929 218.499 40.8475 219.402 40.63 220.314C40.5309 220.725 39.7858 220.645 39.8332 220.213C40.757 211.807 43.6318 203.541 46.933 195.712C50.7338 186.695 55.5079 178.005 60.9948 169.789C66.6324 161.347 73.0948 153.347 80.4703 146.165C87.4602 139.359 95.3331 133.222 104.141 128.582C112.216 124.326 121.65 120.9 131.019 120.664C132.215 120.634 133.412 120.642 134.607 120.682C134.754 120.688 134.751 120.886 134.605 120.896Z" fill="#1C1C1C"/>
<path d="M111.826 150.332C109.503 153.319 107.511 156.644 105.596 159.873C103.71 163.057 102.005 166.349 100.508 169.71C97.5857 176.269 95.5034 183.172 94.1898 190.168C93.421 194.258 93.1023 198.412 92.3163 202.492C92.2496 202.835 91.7112 202.732 91.694 202.413C91.4916 198.727 92.0299 194.939 92.6329 191.301C93.2315 187.699 94.0283 184.126 95.049 180.607C97.0517 173.705 100.03 167.018 103.811 160.807C104.929 158.971 106.113 157.174 107.373 155.422C108.678 153.607 110.144 151.927 111.518 150.162C111.652 149.991 111.962 150.158 111.826 150.332Z" fill="#1C1C1C"/>
<path d="M106.568 140.557C98.6906 147.807 89.8186 154.246 82.9363 162.394C79.3034 166.695 76.237 171.527 74.0728 176.626C71.9539 181.615 70.5692 186.83 69.2772 192.052C67.8387 197.868 66.5574 203.771 64.0573 209.288C63.941 209.545 63.4995 209.361 63.5814 209.101C65.261 203.833 66.5875 198.491 67.8085 193.116C69.0231 187.774 70.272 182.398 72.3565 177.283C76.4157 167.319 83.4703 159.133 91.8062 152.01C96.52 147.982 101.525 144.274 106.288 140.301C106.477 140.145 106.747 140.391 106.568 140.557Z" fill="#1C1C1C"/>
<path d="M84.3855 179.223C81.4289 183.394 78.9201 187.853 76.9455 192.505C75.9721 194.796 75.1581 197.138 74.4561 199.513C73.7455 201.915 73.3127 204.378 72.6429 206.786C72.5568 207.094 72.0529 207.03 72.0529 206.711C72.0572 201.744 74.0233 196.613 76.0432 192.086C78.1169 187.439 80.7893 183.059 83.9096 178.961C84.112 178.695 84.5836 178.943 84.3855 179.223Z" fill="#1C1C1C"/>
<path d="M134.525 234.671C136.343 234.084 138.128 233.836 139.517 232.473C140.839 231.174 141.543 229.399 141.875 227.657C142.568 224.025 141.617 219.638 138.57 217.117C136.606 215.492 134.321 215.413 131.868 215.092C131.502 215.044 131.42 214.465 131.76 214.328C134.006 213.427 136.899 213.981 138.849 215.258C140.826 216.551 142.164 218.485 142.943 220.598C144.427 224.623 144.084 229.837 141.005 233.156C139.452 234.832 136.784 236.159 134.454 235.185C134.198 235.078 134.306 234.741 134.525 234.671Z" fill="#1C1C1C"/>
<path d="M131.05 220.673C131.64 219.929 131.894 218.535 131.885 217.621C131.874 216.549 131.521 215.468 130.94 214.546C130.326 213.572 129.465 212.777 128.44 212.184C127.432 211.6 126.039 211.374 125.154 210.65C124.973 210.5 125.018 210.178 125.233 210.077C126.512 209.478 128.308 210.208 129.409 210.874C130.679 211.642 131.76 212.719 132.467 213.973C133.117 215.129 133.481 216.417 133.354 217.728C133.296 218.335 133.169 218.952 132.884 219.503C132.551 220.15 132.045 220.509 131.56 221.04C131.323 221.3 130.83 220.951 131.05 220.673Z" fill="#1C1C1C"/>
<path d="M129.669 212.041C130.74 210.72 131.851 209.157 131.997 207.457C132.133 205.868 131.564 204.319 130.645 203C128.782 200.33 125.21 198.358 121.738 198.814C119.284 199.136 117.658 200.598 115.898 202.075C115.532 202.383 115.063 202 115.248 201.605C117.173 197.462 122.639 196.371 126.752 198.009C130.455 199.485 133.619 203.045 133.606 206.937C133.599 209.292 132.413 211.396 130.227 212.562C129.9 212.735 129.411 212.36 129.669 212.041Z" fill="#1C1C1C"/>
<path d="M42.5361 200.266C41.2678 198.888 39.4223 197.523 37.3593 197.92C35.32 198.311 33.6554 199.887 32.4603 201.391C30.9529 203.287 29.8439 205.479 29.1763 207.756C28.849 208.873 28.6251 210.012 28.5691 211.17C28.5411 211.739 28.5346 212.301 28.47 212.868C28.4162 213.346 28.4937 213.885 28.203 214.302C28.0673 214.496 27.7723 214.605 27.5484 214.463C26.8162 214.004 26.6095 212.804 26.5535 212.031C26.476 210.974 26.6612 209.861 26.87 208.825C27.305 206.665 28.1599 204.559 29.2991 202.641C31.0369 199.711 34.2347 196.025 38.2336 196.24C40.6239 196.369 42.198 197.854 43.264 199.741C43.4965 200.155 42.8936 200.655 42.5361 200.266Z" fill="#1C1C1C"/>
<path d="M33.1923 210.648C31.911 211.301 30.6944 211.856 29.6456 212.84C28.5431 213.874 27.6839 215.121 27.0013 216.43C26.2971 217.777 25.7953 219.213 25.3733 220.657C24.9921 221.959 24.7703 223.442 24.1178 224.65C24.0015 224.865 23.629 224.811 23.5687 224.583C23.1962 223.151 23.6118 221.421 23.9886 220.021C24.4236 218.414 25.0653 216.835 25.8966 215.369C27.2554 212.973 29.8158 210.012 33.0308 210.095C33.3344 210.103 33.4766 210.502 33.1923 210.648Z" fill="#1C1C1C"/>
<path d="M25.6231 216.238C24.1501 215.357 22.4403 214.913 20.7671 215.589C19.1197 216.256 17.8837 217.722 17.0008 219.134C14.828 222.609 13.9537 227.193 15.1187 231.105C15.769 233.293 17.0309 235.072 18.8441 236.566C19.0853 236.766 18.8312 237.171 18.5276 237.075C13.4692 235.473 12.5109 229.601 13.1182 225.299C13.6781 221.324 15.6614 216.214 19.9122 214.492C22.1216 213.598 24.3676 214.165 26.1033 215.651C26.4371 215.938 26.0042 216.466 25.6231 216.238Z" fill="#1C1C1C"/>
<path d="M39.4888 219.929C36.7949 219.126 34.5834 220.917 33.1535 222.895C32.3072 224.067 31.6784 225.37 31.3188 226.745C30.9699 228.076 31.0432 229.415 30.8429 230.756C30.7869 231.133 30.2076 231.135 30.0267 230.857C29.1374 229.484 29.4432 227.582 29.8739 226.11C30.3584 224.454 31.196 222.877 32.318 221.52C34.0063 219.479 37.2514 217.41 39.8442 219.356C40.1327 219.574 39.8205 220.027 39.4888 219.929Z" fill="#1C1C1C"/>
<path d="M48.2082 214.687C47.8787 212.136 49.315 209.561 51.3888 207.963C52.4159 207.173 53.6197 206.556 54.9161 206.257C56.0811 205.989 57.7176 205.737 58.7427 206.467C58.902 206.58 58.9709 206.854 58.7427 206.953C57.7844 207.371 56.6043 207.286 55.5858 207.538C54.4122 207.828 53.2881 208.32 52.3449 209.042C50.4111 210.521 49.6617 212.59 49.2913 214.826C49.188 215.454 48.2749 215.212 48.2082 214.687Z" fill="#1C1C1C"/>
<path d="M58.9601 210.392C58.6069 207.877 59.5394 205.775 61.2535 203.833C62.7609 202.123 65.2287 200.161 67.7654 200.328C68.0367 200.346 68.0992 200.637 67.8968 200.782C66.0341 202.121 63.9754 202.992 62.4206 204.714C61.0145 206.269 59.8882 208.449 59.5221 210.462C59.4597 210.787 58.9989 210.66 58.9601 210.392Z" fill="#1C1C1C"/>
<path d="M109.587 215.332C109.143 213.977 109.049 212.557 108.409 211.247C107.83 210.059 106.992 208.927 105.933 208.074C104.912 207.252 103.626 206.679 102.265 206.634C100.73 206.584 99.4186 207.161 97.9866 207.588C97.7518 207.659 97.5128 207.385 97.6571 207.187C99.72 204.333 104.027 204.835 106.592 206.735C108.993 208.514 111.331 212.503 109.809 215.361C109.759 215.451 109.615 215.421 109.587 215.332Z" fill="#1C1C1C"/>
<path d="M99.5542 209.861C99.242 208.099 98.5529 206.296 97.4805 204.809C96.9077 204.015 96.2121 203.317 95.4433 202.688C94.6875 202.067 93.6883 201.546 93.0681 200.81C92.8937 200.602 92.9798 200.223 93.3201 200.239C95.4261 200.338 97.3685 202.419 98.484 203.916C99.7911 205.672 100.502 207.651 100.207 209.778C100.166 210.089 99.621 210.244 99.5542 209.861Z" fill="#1C1C1C"/>
<path d="M87.8934 203.323C86.4506 202.514 84.7365 202.185 83.1925 202.966C81.5236 203.809 80.7979 205.436 79.9581 206.931C79.7535 207.294 79.0472 207.145 79.0946 206.713C79.5576 202.538 84.7731 199.582 88.3349 202.788C88.6363 203.055 88.2509 203.523 87.8934 203.323Z" fill="#1C1C1C"/>
<path d="M157.911 113.726C168.213 123.87 162.231 140.855 156.499 147.599C155.299 149.011 156.387 150.737 158.605 149.505C189.426 132.373 182.551 100.114 182.551 100.114C182.551 100.114 180.979 101.382 172.199 106.868C163.422 112.355 157.911 113.726 157.911 113.726Z" fill="#EAEAEA" stroke="#006CEB" stroke-width="2" stroke-miterlimit="10" stroke-linecap="round" stroke-linejoin="round"/>
<path d="M140.895 99.8252C128.763 91.6454 111.609 99.5065 105.254 105.738C103.923 107.043 101.946 106.269 102.95 104.044C116.887 73.1178 151.946 75.1144 151.946 75.1144C151.946 75.1144 150.818 76.7459 146.21 85.6376C141.595 94.5273 140.895 99.8252 140.895 99.8252Z" fill="#EAEAEA" stroke="#006CEB" stroke-width="2" stroke-miterlimit="10" stroke-linecap="round" stroke-linejoin="round"/>
<path d="M230.608 20.1293C235.161 23.7542 226.463 51.6772 226.463 51.6772L197.591 28.6874C197.591 28.6874 226.058 16.5024 230.608 20.1293Z" fill="#EAEAEA" stroke="#006CEB" stroke-width="2" stroke-miterlimit="10" stroke-linecap="round" stroke-linejoin="round"/>
<path d="M197.043 28.6049L211.622 40.5136L226.201 52.4203C214.404 77.0767 199.804 98.2259 158.756 116.864L138.031 99.9361C152.173 59.3175 172.561 42.8994 197.043 28.6049Z" fill="#EAEAEA" stroke="#006CEB" stroke-width="2" stroke-miterlimit="10" stroke-linecap="round" stroke-linejoin="round"/>
<path d="M204.767 47.8706C211.557 53.4146 212.264 63.0625 206.339 69.4212C200.42 75.7779 190.118 76.4374 183.328 70.8914C176.538 65.3454 175.836 55.6975 181.756 49.3408C187.678 42.9841 197.98 42.3267 204.767 47.8706ZM186.552 67.4327C191.3 71.3129 198.505 70.8531 202.646 66.4042C206.79 61.9574 206.296 55.2074 201.548 51.3293C196.8 47.4491 189.592 47.911 185.451 52.3578C181.308 56.8047 181.801 63.5546 186.552 67.4327Z" fill="#EAEAEA" stroke="#006CEB" stroke-width="2" stroke-miterlimit="10" stroke-linecap="round" stroke-linejoin="round"/>
<path d="M185.449 52.3578C181.308 56.8046 181.799 63.5546 186.55 67.4327C191.298 71.3129 198.503 70.8531 202.644 66.4042C206.787 61.9573 206.294 55.2074 201.546 51.3293C196.8 47.4491 189.59 47.9109 185.449 52.3578Z" fill="#EAEAEA" stroke="#006CEB" stroke-width="2" stroke-miterlimit="10" stroke-linecap="round" stroke-linejoin="round"/>
<path d="M195.747 69.9436L186.19 51.6358C187.785 50.21 189.734 49.2944 191.784 48.9072L201.479 67.4872C199.817 68.8283 197.82 69.6532 195.747 69.9436Z" fill="#EAEAEA" stroke="#006CEB" stroke-width="2" stroke-miterlimit="10" stroke-linecap="round" stroke-linejoin="round"/>
<path d="M148.017 121.876L134.224 110.609C109.979 122.836 113.049 144.846 113.049 144.846C140.417 145.754 148.017 121.876 148.017 121.876Z" fill="#EAEAEA" stroke="#FFBF1C" stroke-width="2" stroke-miterlimit="10" stroke-linecap="round" stroke-linejoin="round"/>
<path d="M136.392 112.381L145.859 120.113C142.069 125.472 134.517 133.561 122.688 135.17C122.686 135.17 123.332 123.007 136.392 112.381Z" fill="#EAEAEA" stroke="#FFBF1C" stroke-width="2" stroke-miterlimit="10" stroke-linecap="round" stroke-linejoin="round"/>
<path d="M131.866 125.677C131.866 125.677 132.697 120.125 138.24 113.89L143.975 118.575C141.061 121.517 136.998 124.52 131.866 125.677Z" fill="#EAEAEA" stroke="#FFBF1C" stroke-width="2" stroke-miterlimit="10" stroke-linecap="round" stroke-linejoin="round"/>
<path d="M132.695 109.36L149.522 123.104L158.756 116.866L138.04 99.9442L132.695 109.36Z" fill="#EAEAEA" stroke="#006CEB" stroke-width="2" stroke-miterlimit="10" stroke-linecap="round" stroke-linejoin="round"/>
<g clip-path="url(#clip1_300_1253)">
<path d="M149.927 38.3186C154.613 38.3186 154.618 32.2222 149.927 32.2222C145.246 32.2176 145.235 38.3186 149.927 38.3186Z" fill="#1C1C1C"/>
<path d="M81.6149 89.0361C81.5486 88.476 81.5099 87.8927 81.3662 87.3465C81.1286 86.4346 80.1284 85.4579 79.0232 85.3283C79.3879 85.5042 79.7526 85.6847 80.1118 85.8606C78.7855 84.833 76.6414 84.9209 75.2268 85.8004C74.2597 86.4022 74.2597 87.3928 75.2268 87.9945C75.5473 88.1936 75.8788 88.3278 76.2601 88.4389C76.3707 88.4713 76.4812 88.513 76.5972 88.5454C76.7962 88.6009 76.0667 88.3186 76.4425 88.4945C76.5033 88.5223 76.5641 88.55 76.6249 88.5778C77.0061 88.7398 76.1938 88.263 76.3928 88.425C76.6027 88.5963 76.0004 87.9436 76.1441 88.1612C75.7683 87.6103 75.9286 87.6566 75.9783 87.8788C76.1883 87.2076 76.4038 86.5364 76.6138 85.8652C75.5583 86.7308 75.6136 87.902 75.4754 89.0407C75.4036 89.6564 75.8733 90.4386 76.3762 90.8553C76.9067 91.2996 77.7798 91.6375 78.5424 91.6098C80.0731 91.5496 81.7917 90.471 81.6149 89.0361Z" fill="#1C1C1C"/>
<path d="M72.2067 27.9041C72.6654 28.1032 73.1241 28.2976 73.5772 28.4967C76.4894 29.7465 79.0646 26.0711 76.1468 24.812C75.2129 24.4093 74.5332 24.1593 73.4501 24.3028C72.8422 24.3861 72.1515 24.9601 72.0575 25.4693C71.8862 26.3766 72.1846 26.946 72.6654 27.7282C74.1298 27.0108 75.5942 26.2933 77.0641 25.5758C76.8265 25.1916 76.5944 24.8074 76.3568 24.4278C74.0359 20.6506 67.6698 25.9507 72.2067 27.9041Z" fill="#1C1C1C"/>
<path d="M148.124 276.444C148.876 276.495 149.627 276.555 150.384 276.569C157.778 276.712 157.778 267.089 150.384 266.945C149.633 266.931 148.876 266.917 148.124 266.899C140.664 266.755 140.653 276.758 148.124 276.61C148.876 276.596 149.633 276.583 150.384 276.564C157.767 276.421 157.795 266.797 150.384 266.94C149.627 266.954 148.876 267.014 148.124 267.065C140.935 267.57 140.924 275.944 148.124 276.444Z" fill="#1C1C1C"/>
<path d="M179.002 219.649C186.418 221.334 193.872 222.186 201.454 223.075C201.454 222.01 201.454 220.945 201.454 219.885C193.447 221.311 186.114 224.088 179.162 227.671C180.068 228.652 180.974 229.634 181.875 230.62C186.959 225.759 192.038 220.894 197.133 216.039C195.839 215.59 194.552 215.145 193.259 214.696C193.264 221.399 191.966 228.041 191.955 234.74C193.403 234.411 194.856 234.082 196.304 233.754C194.325 230.393 191.772 227.255 189.275 224.153C188.158 222.769 187.048 221.385 185.832 220.061C185.412 219.603 185.014 219.061 184.423 218.746C184.395 218.733 183.655 218.436 183.461 218.441C182.953 218.459 182.792 217.571 183.986 218.95C182.77 217.543 179.941 218.899 181.173 220.33C180.731 219.816 180.847 219.765 180.93 220.427C181.03 221.191 181.477 221.709 181.964 222.334C183.036 223.718 184.202 225.046 185.318 226.407C187.788 229.416 190.302 232.462 192.275 235.73C193.342 237.494 196.646 236.614 196.624 234.744C196.558 228.046 197.845 221.399 197.796 214.701C197.785 213.145 195.254 212.076 193.922 213.358C188.86 218.237 183.776 223.102 178.703 227.972C177.139 229.476 179.206 232.217 181.416 230.921C187.794 227.176 194.9 224.533 202.498 223.084C204.62 222.676 204.206 219.584 201.973 219.834C194.281 220.691 186.705 217.131 178.996 218.177C178.079 218.297 178.189 219.464 179.002 219.649Z" fill="#1C1C1C"/>
<path d="M360.254 14.2714C366.415 15.6859 372.609 16.4009 378.908 17.1471C378.908 16.2533 378.908 15.3595 378.908 14.4695C372.255 15.6665 366.163 17.9981 360.387 21.006C361.14 21.8298 361.893 22.6537 362.641 23.4814C366.865 19.401 371.084 15.3167 375.318 11.2402C374.243 10.8632 373.173 10.4902 372.099 10.1132C372.104 15.7403 371.025 21.3168 371.016 26.94C372.218 26.6641 373.426 26.3882 374.629 26.1123C372.985 23.291 370.864 20.6562 368.789 18.0525C367.861 16.8906 366.939 15.7286 365.928 14.6172C365.579 14.2325 365.249 13.7778 364.758 13.5136C364.735 13.5019 364.119 13.2532 363.959 13.2571C363.536 13.2726 363.403 12.5265 364.395 13.6846C363.385 12.5032 361.034 13.6418 362.058 14.8426C361.691 14.4113 361.787 14.3685 361.856 14.9242C361.939 15.5654 362.311 16.0007 362.715 16.5253C363.605 17.6872 364.574 18.8025 365.501 19.9451C367.554 22.471 369.643 25.0281 371.282 27.7717C372.168 29.2523 374.914 28.5139 374.895 26.9439C374.84 21.3207 375.91 15.7403 375.869 10.1171C375.859 8.81139 373.757 7.9137 372.65 8.99015C368.444 13.0861 364.22 17.1704 360.006 21.2586C358.706 22.5215 360.424 24.8221 362.26 23.734C367.558 20.5901 373.463 18.3712 379.776 17.1548C381.539 16.8129 381.194 14.2169 379.34 14.4268C372.948 15.1457 366.654 12.1573 360.249 13.0356C359.487 13.1366 359.579 14.1159 360.254 14.2714Z" fill="#1C1C1C"/>
<path d="M337.303 142.715C341.037 143.572 344.791 144.006 348.608 144.458C348.608 143.916 348.608 143.375 348.608 142.835C344.576 143.561 340.884 144.974 337.383 146.797C337.84 147.296 338.296 147.795 338.75 148.297C341.31 145.824 343.867 143.349 346.432 140.878C345.781 140.65 345.133 140.423 344.482 140.195C344.484 143.605 343.831 146.985 343.825 150.393C344.554 150.226 345.286 150.059 346.015 149.891C345.019 148.182 343.733 146.585 342.475 145.007C341.913 144.303 341.354 143.598 340.742 142.925C340.53 142.692 340.33 142.416 340.032 142.256C340.018 142.249 339.646 142.098 339.548 142.1C339.292 142.11 339.211 141.658 339.813 142.359C339.2 141.643 337.776 142.334 338.396 143.061C338.174 142.8 338.232 142.774 338.274 143.111C338.324 143.499 338.549 143.763 338.794 144.081C339.334 144.785 339.921 145.461 340.483 146.154C341.727 147.685 342.993 149.234 343.986 150.897C344.523 151.794 346.187 151.347 346.176 150.395C346.143 146.987 346.791 143.605 346.766 140.197C346.761 139.406 345.486 138.862 344.816 139.514C342.267 141.997 339.707 144.472 337.152 146.95C336.365 147.715 337.406 149.109 338.519 148.45C341.73 146.545 345.308 145.2 349.134 144.463C350.203 144.255 349.994 142.682 348.87 142.809C344.996 143.245 341.182 141.434 337.3 141.966C336.838 142.027 336.894 142.621 337.303 142.715Z" fill="#1C1C1C"/>
<path d="M285.475 26.5935C289.21 27.4508 292.963 27.8842 296.781 28.3364C296.781 27.7947 296.781 27.253 296.781 26.7136C292.749 27.439 289.057 28.8522 285.556 30.6751C286.013 31.1744 286.469 31.6737 286.922 32.1754C289.482 29.7024 292.04 27.2271 294.605 24.7565C293.954 24.528 293.306 24.3019 292.655 24.0734C292.657 27.4838 292.003 30.8635 291.998 34.2715C292.727 34.1043 293.459 33.9371 294.188 33.7698C293.192 32.06 291.906 30.4631 290.648 28.8851C290.086 28.1809 289.527 27.4767 288.915 26.8031C288.703 26.57 288.503 26.2944 288.205 26.1343C288.191 26.1272 287.818 25.9765 287.721 25.9788C287.465 25.9882 287.384 25.536 287.985 26.2379C287.373 25.5219 285.949 26.212 286.569 26.9397C286.346 26.6783 286.405 26.6524 286.447 26.9892C286.497 27.3778 286.722 27.6416 286.967 27.9595C287.507 28.6637 288.094 29.3397 288.656 30.0321C289.9 31.563 291.166 33.1127 292.159 34.7755C292.696 35.6729 294.36 35.2254 294.349 34.2739C294.316 30.8659 294.964 27.4838 294.939 24.0758C294.933 23.2845 293.659 22.7404 292.988 23.3928C290.44 25.8752 287.88 28.3505 285.325 30.8282C284.538 31.5936 285.578 32.9879 286.691 32.3285C289.903 30.4231 293.481 29.0783 297.307 28.3411C298.376 28.1338 298.167 26.5605 297.043 26.6877C293.169 27.1234 289.354 25.3123 285.473 25.8446C285.011 25.9058 285.066 26.4993 285.475 26.5935Z" fill="#1C1C1C"/>
<path d="M107.967 5.92268C111.701 6.77998 115.455 7.21334 119.273 7.66554C119.273 7.12384 119.273 6.58214 119.273 6.0428C115.241 6.7682 111.548 8.18133 108.048 10.0043C108.504 10.5036 108.961 11.0029 109.414 11.5045C111.974 9.03156 114.531 6.55623 117.097 4.08562C116.446 3.85716 115.797 3.63106 115.146 3.40261C115.149 6.81295 114.495 10.1927 114.49 13.6007C115.219 13.4334 115.95 13.2662 116.679 13.099C115.683 11.3891 114.398 9.79229 113.14 8.2143C112.578 7.51009 112.019 6.80588 111.406 6.13229C111.195 5.89913 110.995 5.62357 110.697 5.46342C110.683 5.45635 110.31 5.30562 110.213 5.30797C109.957 5.31739 109.876 4.86519 110.477 5.56705C109.865 4.85106 108.44 5.54114 109.061 6.2689C108.838 6.00747 108.897 5.98156 108.938 6.31836C108.988 6.70697 109.214 6.97075 109.459 7.2887C109.998 7.99291 110.586 8.66885 111.148 9.36129C112.391 10.8922 113.658 12.4419 114.651 14.1047C115.188 15.002 116.852 14.5545 116.841 13.603C116.807 10.195 117.456 6.81295 117.431 3.40496C117.425 2.61361 116.151 2.06956 115.48 2.72195C112.931 5.20435 110.371 7.67967 107.817 10.1573C107.029 10.9228 108.07 12.3171 109.183 11.6576C112.394 9.75225 115.973 8.40743 119.799 7.67025C120.867 7.46299 120.659 5.88971 119.534 6.01689C115.661 6.45261 111.846 4.64144 107.964 5.17372C107.502 5.23496 107.558 5.82848 107.967 5.92268Z" fill="#1C1C1C"/>
<path d="M14.4499 109.607C21.8658 111.297 29.3205 112.144 36.9022 113.033C36.9022 111.968 36.9022 110.903 36.9022 109.843C28.895 111.269 21.5564 114.046 14.6101 117.634C15.5164 118.615 16.4227 119.597 17.3234 120.582C22.4074 115.722 27.4858 110.857 32.5808 106.001C31.2877 105.552 30.0002 105.108 28.7071 104.659C28.7126 111.362 27.414 118 27.4029 124.702C28.8508 124.374 30.3041 124.045 31.7519 123.716C29.7736 120.356 27.2206 117.217 24.7228 114.116C23.6065 112.732 22.4958 111.348 21.2801 110.024C20.8601 109.566 20.4622 109.024 19.8709 108.709C19.8433 108.695 19.1028 108.399 18.9094 108.404C18.401 108.422 18.2407 107.533 19.4344 108.913C18.2186 107.506 15.3893 108.862 16.6216 110.292C16.1795 109.778 16.2956 109.728 16.3784 110.39C16.4779 111.153 16.9255 111.672 17.4118 112.297C18.4839 113.681 19.6499 115.009 20.7661 116.37C23.2363 119.379 25.7506 122.425 27.7234 125.688C28.79 127.452 32.0946 126.572 32.0724 124.702C32.0061 118.004 33.2882 111.357 33.244 104.659C33.2329 103.104 30.702 102.034 29.3702 103.316C24.3028 108.195 19.2244 113.06 14.1514 117.93C12.5876 119.434 14.6543 122.179 16.8647 120.879C23.2418 117.129 30.3483 114.491 37.9466 113.037C40.0686 112.63 39.6542 109.538 37.4217 109.788C29.7294 110.644 22.1532 107.089 14.4443 108.135C13.5215 108.256 13.632 109.422 14.4499 109.607Z" fill="#1C1C1C"/>
<path d="M200.675 154.888C200.857 154.897 201.034 154.915 201.216 154.934C201.029 154.911 200.841 154.892 200.653 154.869C200.868 154.897 201.078 154.929 201.283 154.999C201.111 154.938 200.935 154.878 200.763 154.813C200.819 154.832 200.868 154.855 200.918 154.888C200.769 154.79 200.625 154.698 200.476 154.601C200.493 154.614 200.509 154.624 200.526 154.638C200.41 154.513 200.299 154.392 200.183 154.267C200.189 154.277 200.194 154.281 200.194 154.29C200.122 154.142 200.045 153.999 199.973 153.851C199.973 153.86 199.979 153.865 199.979 153.874C199.951 153.712 199.923 153.545 199.901 153.383C199.907 153.397 199.907 153.411 199.901 153.425C199.929 153.258 199.957 153.092 199.979 152.929C199.979 152.943 199.973 152.957 199.968 152.967C200.045 152.818 200.117 152.666 200.194 152.518C200.189 152.531 200.178 152.541 200.172 152.555C200.288 152.425 200.41 152.3 200.526 152.17C200.2 152.494 200.062 152.689 199.89 153.078C199.968 152.925 200.045 152.772 200.122 152.619C200.095 152.666 200.062 152.712 200.023 152.754C200.139 152.624 200.26 152.499 200.376 152.369C200.277 152.471 200.161 152.555 200.039 152.638C200.189 152.541 200.338 152.448 200.481 152.351C200.117 152.587 199.719 152.767 199.304 152.929C199.161 152.985 198.929 153.027 199.537 152.851C199.36 152.902 199.161 152.967 198.995 153.041C198.774 153.142 198.581 153.286 198.409 153.439C198.343 153.499 198.277 153.554 198.205 153.61C198.177 153.628 198.149 153.647 198.127 153.67C197.973 153.8 198.442 153.471 198.254 153.587C197.387 154.114 197.354 155.063 198.254 155.587C198.442 155.698 198.641 155.786 198.851 155.86C199.266 156.012 199.636 156.133 200.095 156.096C200.399 156.073 200.703 156.036 201.001 155.989C201.681 155.887 202.399 155.707 202.996 155.411C203.587 155.119 204.151 154.651 204.317 154.077C204.521 153.355 204.311 152.605 203.67 152.082C202.874 151.434 201.73 151.342 200.669 151.397C199.581 151.457 198.525 152.161 198.581 153.147C198.641 154.147 199.503 154.813 200.675 154.888Z" fill="#1C1C1C"/>
<path d="M314.695 258.242C314.877 258.251 315.054 258.27 315.236 258.288C315.049 258.265 314.861 258.246 314.673 258.223C314.888 258.251 315.098 258.284 315.303 258.353C315.131 258.293 314.955 258.233 314.783 258.168C314.839 258.186 314.888 258.209 314.938 258.242C314.789 258.145 314.645 258.052 314.496 257.955C314.513 257.969 314.529 257.978 314.546 257.992C314.43 257.867 314.319 257.747 314.203 257.622C314.209 257.631 314.214 257.635 314.214 257.645C314.142 257.497 314.065 257.353 313.993 257.205C313.993 257.214 313.999 257.219 313.999 257.228C313.971 257.066 313.943 256.899 313.921 256.737C313.927 256.751 313.927 256.765 313.921 256.779C313.949 256.612 313.977 256.446 313.999 256.284C313.999 256.298 313.993 256.312 313.988 256.321C314.065 256.173 314.137 256.02 314.214 255.872C314.209 255.886 314.198 255.895 314.192 255.909C314.308 255.779 314.43 255.654 314.546 255.525C314.22 255.849 314.082 256.043 313.91 256.432C313.988 256.279 314.065 256.126 314.142 255.974C314.115 256.02 314.082 256.066 314.043 256.108C314.159 255.978 314.28 255.853 314.397 255.724C314.297 255.826 314.181 255.909 314.059 255.992C314.209 255.895 314.358 255.802 314.502 255.705C314.137 255.941 313.739 256.122 313.324 256.284C313.181 256.339 312.949 256.381 313.557 256.205C313.38 256.256 313.181 256.321 313.015 256.395C312.794 256.497 312.601 256.64 312.429 256.793C312.363 256.853 312.297 256.909 312.225 256.964C312.197 256.983 312.17 257.001 312.147 257.024C311.993 257.154 312.462 256.825 312.275 256.941C311.407 257.469 311.374 258.418 312.275 258.941C312.462 259.052 312.661 259.14 312.871 259.214C313.286 259.367 313.656 259.487 314.115 259.45C314.419 259.427 314.723 259.39 315.021 259.344C315.701 259.242 316.419 259.061 317.016 258.765C317.607 258.473 318.171 258.006 318.337 257.432C318.541 256.71 318.331 255.96 317.69 255.437C316.894 254.789 315.75 254.696 314.689 254.752C313.601 254.812 312.545 255.515 312.601 256.501C312.661 257.501 313.523 258.168 314.695 258.242Z" fill="#1C1C1C"/>
<path d="M0.00543362 196.074C-0.0277227 196.578 0.0606942 197.111 0.226476 197.592C0.464096 198.268 0.839868 198.842 1.39247 199.37C2.0556 199.999 3.05582 200.374 4.05603 200.383C5.42097 200.393 6.48197 199.754 7.21141 198.842C6.57591 199.254 5.93489 199.661 5.2994 200.073C5.31045 200.073 5.3215 200.068 5.33255 200.068C4.75784 200.068 4.18313 200.068 3.60842 200.068C4.46496 200.193 4.2826 200.193 4.92915 200.119C5.39334 200.068 5.77464 199.948 6.19462 199.777C6.42118 199.633 6.64223 199.485 6.86879 199.342C7.0401 199.152 7.21694 198.967 7.38824 198.777C7.67007 198.37 7.84138 197.837 7.84138 197.37C7.84138 196.254 7.00695 195.25 5.79674 194.824C4.69153 194.43 3.44817 194.569 2.49768 195.18C2.02797 195.486 1.70193 195.838 1.47536 196.296C1.19906 196.847 1.07196 197.527 1.30958 198.11C1.48642 198.555 1.73509 199.059 2.1827 199.37C2.01139 199.184 1.84561 199.004 1.6743 198.819C1.67983 198.823 1.67983 198.833 1.68535 198.837C1.68535 197.935 1.68535 197.032 1.68535 196.129C1.65772 196.171 1.63009 196.213 1.59694 196.254C1.76272 196.074 1.9285 195.893 2.09428 195.713C2.06113 195.745 2.0335 195.773 1.99481 195.796C2.21033 195.657 2.42585 195.518 2.63584 195.379C2.60821 195.393 2.5861 195.407 2.55295 195.416C2.80714 195.328 3.05582 195.236 3.31001 195.148C3.28238 195.157 3.25475 195.162 3.2216 195.166C3.50343 195.134 3.78526 195.102 4.06156 195.074C4.0284 195.074 4.00077 195.074 3.97314 195.074C4.25497 195.106 4.53127 195.139 4.8131 195.166C4.76889 195.162 4.73021 195.153 4.686 195.139C4.93467 195.227 5.18887 195.315 5.43755 195.402C5.37123 195.375 5.30492 195.342 5.24966 195.305C5.45965 195.444 5.67517 195.578 5.88516 195.717C5.79121 195.652 5.71385 195.578 5.63648 195.5C5.79674 195.676 5.96252 195.851 6.12278 196.027C5.99568 195.884 5.89068 195.727 5.80227 195.56C5.90726 195.764 6.00673 195.967 6.11173 196.176C6.01226 195.972 5.94042 195.768 5.90174 195.551C5.93489 195.773 5.97357 196 6.00673 196.222C6.0012 196.171 5.99015 196.12 5.99015 196.069C5.92384 195.393 5.69727 194.787 5.11151 194.292C4.59206 193.856 3.73552 193.528 2.9895 193.556C1.30406 193.625 0.104903 194.666 0.00543362 196.074Z" fill="#1C1C1C"/>
<path d="M19.6089 41.0537C19.0563 41.3407 18.5037 41.6138 18.0118 41.9703C17.3156 42.4748 17.3211 43.5858 18.0118 44.0857C18.5037 44.4421 19.0563 44.7152 19.6089 45.0022C21.3827 45.9234 23.7147 44.7245 23.7147 43.0257C23.7147 41.3268 21.3827 40.1326 19.6089 41.0537Z" fill="#1C1C1C"/>
<path d="M270.656 92.7393C276.514 92.7393 276.519 85.1154 270.656 85.1154C264.804 85.1154 264.793 92.7393 270.656 92.7393Z" fill="#1C1C1C"/>
<path d="M370.423 228.924C376.281 228.924 376.287 221.3 370.423 221.3C364.571 221.3 364.56 228.924 370.423 228.924Z" fill="#1C1C1C"/>
<path d="M247.128 205.953C247.819 206.036 248.504 206.119 249.195 206.184C253.339 206.582 253.538 200.56 249.195 200.652C248.156 200.676 247.404 200.926 246.482 201.296C244.564 202.069 244.564 204.768 246.482 205.536C247.404 205.906 248.161 206.156 249.195 206.179C253.527 206.277 253.345 200.25 249.195 200.648C248.504 200.713 247.813 200.796 247.128 200.879C244.138 201.254 244.133 205.587 247.128 205.953Z" fill="#1C1C1C"/>
<path d="M242.24 130.859C245.622 130.859 245.627 126.457 242.24 126.457C238.858 126.452 238.852 130.859 242.24 130.859Z" fill="#1C1C1C"/>
<path d="M359.498 107.148C362.88 107.148 362.886 102.746 359.498 102.746C356.117 102.742 356.111 107.148 359.498 107.148Z" fill="#1C1C1C"/>
<path d="M298.013 155.679C301.395 155.679 301.401 151.277 298.013 151.277C294.631 151.272 294.626 155.679 298.013 155.679Z" fill="#1C1C1C"/>
<path d="M253.713 50.3654C253.735 50.6755 253.768 50.9903 253.729 51.3004C253.751 51.1523 253.779 51.0042 253.801 50.8561C253.784 50.9625 253.674 51.1893 253.84 50.8607C253.994 50.5598 253.939 50.6709 253.889 50.7403C254.171 50.3284 254.254 50.3839 254.11 50.4904C254.072 50.5181 254.613 50.1802 254.403 50.2913C254.243 50.3746 254.972 50.1293 254.74 50.171C254.641 50.1895 254.547 50.208 254.447 50.2219C254.619 50.2034 254.79 50.1849 254.961 50.1617C254.514 50.208 254.088 50.2219 253.685 50.4256C253.331 50.6061 253.121 50.8653 252.884 51.1338C252.585 51.4625 252.58 52.1336 252.884 52.4623C253.248 52.8604 253.519 53.1659 254.138 53.3233C254.442 53.402 254.757 53.4159 255.072 53.3974C255.763 53.365 256.409 53.2122 256.923 52.8002C257.73 52.1568 257.769 51.231 257.824 50.3608C257.885 49.4581 256.835 48.5971 255.768 48.6388C254.702 48.6851 253.646 49.4026 253.713 50.3654Z" fill="#1C1C1C"/>
<path d="M137.992 189.257C138.241 189.447 138.489 189.637 138.738 189.831C138.931 189.979 139.125 190.127 139.318 190.276C139.39 190.331 139.462 190.391 139.539 190.447C140.026 190.808 140.501 191.007 141.175 191.039C142.28 191.09 143.369 190.178 143.308 189.253C143.269 188.692 143.059 188.313 142.617 187.896C142.545 187.827 142.474 187.762 142.402 187.697C142.225 187.535 142.048 187.373 141.871 187.211C141.645 187.003 141.418 186.795 141.186 186.586C140.385 185.855 138.793 185.855 137.992 186.586C137.196 187.308 137.058 188.544 137.992 189.257Z" fill="#1C1C1C"/>
<path d="M62.1379 136.391C62.16 136.817 62.1821 137.238 62.2042 137.664C62.2595 138.71 63.2652 139.719 64.597 139.668C65.9398 139.617 66.929 138.788 66.9898 137.664C67.0119 137.238 67.034 136.817 67.0561 136.391C67.1113 135.312 65.8846 134.28 64.597 134.331C63.3149 134.377 62.0771 135.238 62.1379 136.391Z" fill="#1C1C1C"/>
<path d="M50.9648 278.921C54.1312 278.921 54.1367 274.801 50.9648 274.801C47.7984 274.801 47.7928 278.921 50.9648 278.921Z" fill="#1C1C1C"/>
</g>
</g>
<defs>
<clipPath id="clip0_300_1253">
<rect width="390" height="290" fill="white" transform="matrix(-1 0 0 1 390 0)"/>
</clipPath>
<clipPath id="clip1_300_1253">
<rect width="390" height="290" fill="white"/>
</clipPath>
</defs>
</svg>
