<svg width="26" height="26" viewBox="0 0 26 26" fill="none" xmlns="http://www.w3.org/2000/svg">
<path d="M9.9133 0.518167L10.2019 1.68708C9.06451 1.96818 7.97594 2.41887 6.97275 3.02403L6.35542 1.99027C7.45965 1.32156 8.6594 0.82515 9.9133 0.518167ZM16.0866 0.518167L15.7981 1.68708C16.9354 1.96818 18.024 2.41887 19.0272 3.02403L19.6518 1.99027C18.5447 1.32214 17.3426 0.8258 16.0866 0.518167ZM1.99025 6.35178C1.32217 7.45763 0.825811 8.65849 0.518152 9.91332L1.68707 10.2019C1.96816 9.06453 2.41886 7.97596 3.02401 6.97277L1.99025 6.35178ZM1.34735 13C1.34726 12.4155 1.39122 11.8318 1.47885 11.2539L0.288021 11.0713C0.0944226 12.3486 0.0944226 13.6477 0.288021 14.925L1.47885 14.746C1.39136 14.1681 1.3474 13.5845 1.34735 13ZM19.6445 24.006L19.0272 22.9759C18.0256 23.5816 16.9381 24.0324 15.8017 24.3129L16.0903 25.4818C17.3426 25.1719 18.5409 24.6743 19.6445 24.006ZM24.6526 13C24.6525 13.5845 24.6086 14.1681 24.5211 14.746L25.7119 14.925C25.9055 13.6477 25.9055 12.3486 25.7119 11.0713L24.5211 11.2539C24.6087 11.8318 24.6527 12.4155 24.6526 13ZM25.4818 16.083L24.3129 15.7944C24.0324 16.9331 23.5817 18.023 22.9759 19.0272L24.0097 19.6482C24.6784 18.5413 25.1748 17.3392 25.4818 16.083ZM14.746 24.5211C13.5886 24.6965 12.4113 24.6965 11.2539 24.5211L11.0749 25.7119C12.351 25.9055 13.649 25.9055 14.925 25.7119L14.746 24.5211ZM22.3805 19.9112C21.6862 20.8527 20.8537 21.684 19.9112 22.3769L20.6271 23.3485C21.6653 22.5843 22.5837 21.6695 23.3522 20.6345L22.3805 19.9112ZM19.9112 3.61944C20.8538 4.31367 21.6863 5.14615 22.3805 6.08877L23.3522 5.36551C22.5864 4.32949 21.6705 3.4135 20.6344 2.64778L19.9112 3.61944ZM3.61943 6.08877C4.31366 5.14615 5.14614 4.31367 6.08876 3.61944L5.36549 2.64778C4.32948 3.4135 3.41349 4.32949 2.64777 5.36551L3.61943 6.08877ZM24.0097 6.35178L22.9759 6.97277C23.5816 7.97437 24.0324 9.06183 24.3129 10.1982L25.4818 9.90966C25.1741 8.65599 24.6777 7.45635 24.0097 6.35178ZM11.2539 1.47887C12.4113 1.30351 13.5886 1.30351 14.746 1.47887L14.925 0.288037C13.649 0.0944174 12.351 0.0944174 11.0749 0.288037L11.2539 1.47887ZM4.23676 23.67L1.74916 24.2471L2.32997 21.7595L1.1574 21.4856L0.576597 23.9732C0.540257 24.1274 0.53468 24.2873 0.560185 24.4437C0.585691 24.6 0.641778 24.7499 0.725238 24.8846C0.808699 25.0192 0.917895 25.1362 1.04658 25.2286C1.17527 25.3211 1.32092 25.3872 1.4752 25.4233C1.65563 25.4635 1.8427 25.4635 2.02313 25.4233L4.51072 24.8498L4.23676 23.67ZM1.4058 20.4116L2.58202 20.6819L2.98383 18.9578C2.39705 17.9735 1.96001 16.9074 1.68707 15.7944L0.518152 16.083C0.781078 17.1483 1.17879 18.1757 1.70168 19.1404L1.4058 20.4116ZM7.0312 23.0198L5.30705 23.4216L5.58101 24.5978L6.84855 24.3019C7.81251 24.8264 8.84016 25.2242 9.90599 25.4854L10.1946 24.3165C9.08509 24.04 8.02274 23.6005 7.04215 23.0125L7.0312 23.0198ZM13 2.55281C7.22845 2.55646 2.55645 7.23577 2.55645 13.0036C2.55962 14.9682 3.11532 16.8922 4.16005 18.556L3.15551 22.8444L7.44032 21.8399C12.3242 24.9119 18.7751 23.4472 21.8472 18.5669C24.9192 13.6867 23.4581 7.23577 18.5779 4.16007C16.9072 3.10943 14.9736 2.55227 13 2.55281Z" fill="#3A76F0"/>
</svg>
