<?xml version="1.0" encoding="UTF-8"?>
<!DOCTYPE svg PUBLIC "-//W3C//DTD SVG 1.1//EN" "http://www.w3.org/Graphics/SVG/1.1/DTD/svg11.dtd">
<!-- Creator: CorelDRAW -->
<svg xmlns="http://www.w3.org/2000/svg" xml:space="preserve" width="79.64mm" height="73.025mm" version="1.1" style="shape-rendering:geometricPrecision; text-rendering:geometricPrecision; image-rendering:optimizeQuality; fill-rule:evenodd; clip-rule:evenodd"
viewBox="0 0 79.64 73.025"
 xmlns:xlink="http://www.w3.org/1999/xlink"
 xmlns:xodm="http://www.corel.com/coreldraw/odm/2003">
 <defs>
  <style type="text/css">
   <![CDATA[
    .fil7 {fill:none;fill-rule:nonzero}
    .fil3 {fill:#00AA4E;fill-rule:nonzero}
    .fil2 {fill:#CEFEE4;fill-rule:nonzero}
    .fil5 {fill:#E2810E;fill-rule:nonzero}
    .fil1 {fill:#FFA412;fill-rule:nonzero}
    .fil0 {fill:#FFB93E;fill-rule:nonzero}
    .fil6 {fill:#FFEB36;fill-rule:nonzero}
    .fil4 {fill:#E2810E;fill-rule:nonzero;fill-opacity:0.501961}
   ]]>
  </style>
   <clipPath id="id0" style="clip-rule:nonzero">
    <path d="M-0.058 73.0885l79.6396 0 0 -73.0249 -79.6396 0 0 73.0249z"/>
   </clipPath>
 </defs>
 <g id="Слой_x0020_1">
  <metadata id="CorelCorpID_0Corel-Layer"/>
  <g>
  </g>
  <g style="clip-path:url(#id0)">
   <g id="_2766035352736">
    <path class="fil0" d="M77.4083 69.8505l0 2.3308c0,0.1841 -0.0643,0.3582 -0.1736,0.5013 -0.114,0.1501 -0.2794,0.2694 -0.4723,0.3361 -0.0595,0.0222 -0.1204,0.0375 -0.1847,0.0476 -0.0579,0.0103 -0.1174,0.0138 -0.1783,0.0138l-41.6605 0c-0.503,0 -0.9239,-0.3326 -0.9977,-0.7639 -0.0032,-0.0291 -0.008,-0.0582 -0.0096,-0.0889 0,-0.0153 -0.0016,-0.0307 -0.0016,-0.046l0 -2.3308c0,-0.0153 0.0016,-0.0306 0.0016,-0.046 0.0016,-0.0307 0.0048,-0.0598 0.0096,-0.0889 0.0738,-0.4313 0.4947,-0.7638 0.9977,-0.7638l41.6605 0c0.0609,0 0.1204,0.0034 0.1783,0.0137 0.0643,0.0101 0.1252,0.0273 0.1847,0.0476 0.1929,0.0667 0.3583,0.186 0.4723,0.3361 0.1093,0.1431 0.1736,0.3172 0.1736,0.5013z"/>
    <path class="fil1" d="M56.9507 73.0801l-22.3195 0c-0.413,0 -0.7615,-0.2832 -0.866,-0.6652 -0.0095,-0.0323 -0.0193,-0.0648 -0.024,-0.0987 -0.0032,-0.0291 -0.008,-0.0582 -0.0096,-0.0889 0,-0.0153 -0.0016,-0.0307 -0.0016,-0.046l0 -2.3308c0,-0.0153 0.0016,-0.0306 0.0016,-0.046 0.0016,-0.0307 0.0048,-0.0598 0.0096,-0.0889 0.0063,-0.0339 0.0145,-0.0664 0.024,-0.0987 0.1045,-0.382 0.453,-0.6651 0.866,-0.6651l19.5789 0c0.3117,1.2176 1.0409,2.8971 2.7406,4.1283z"/>
    <polygon class="fil1" points="72.3383,68.9536 71.8644,68.9536 71.8644,73.0816 72.3383,73.0816 "/>
    <polygon class="fil1" points="70.7352,68.9536 70.2613,68.9536 70.2613,73.0816 70.7352,73.0816 "/>
    <polygon class="fil1" points="68.8138,68.9536 68.3399,68.9536 68.3399,73.0816 68.8138,73.0816 "/>
    <polygon class="fil1" points="65.8677,68.9536 65.3938,68.9536 65.3938,73.0816 65.8677,73.0816 "/>
    <polygon class="fil1" points="62.753,68.9536 62.2791,68.9536 62.2791,73.0816 62.753,73.0816 "/>
    <polygon class="fil1" points="57.977,68.9536 57.5031,68.9536 57.5031,73.0816 57.977,73.0816 "/>
    <polygon class="fil1" points="53.5047,68.9536 53.0309,68.9536 53.0309,73.0816 53.5047,73.0816 "/>
    <polygon class="fil1" points="49.5114,68.9536 49.0375,68.9536 49.0375,73.0816 49.5114,73.0816 "/>
    <polygon class="fil1" points="73.8644,68.9536 73.3906,68.9536 73.3906,73.0816 73.8644,73.0816 "/>
    <polygon class="fil1" points="74.8717,68.9536 74.3978,68.9536 74.3978,73.0816 74.8717,73.0816 "/>
    <polygon class="fil1" points="75.8451,68.9536 75.3712,68.9536 75.3712,73.0816 75.8451,73.0816 "/>
    <path class="fil1" d="M76.5777 68.9671l0 4.0992c-0.0579,0.0103 -0.1172,0.0138 -0.1783,0.0138l-0.2955 0 0 -4.1283 0.2955 0c0.0611,0.0018 0.1204,0.0052 0.1783,0.0153z"/>
    <path class="fil1" d="M77.2347 69.3492l0 3.3353c-0.114,0.1516 -0.2794,0.2693 -0.4739,0.3358l0 -4.0072c0.1945,0.0667 0.3583,0.186 0.4739,0.3361z"/>
    <path class="fil0" d="M72.9519 65.7238l0 2.331c0,0.186 -0.0641,0.3599 -0.1717,0.503 -0.0291,0.0376 -0.0612,0.0733 -0.0948,0.1058 -0.1045,0.099 -0.2331,0.1791 -0.3791,0.2284 -0.058,0.0206 -0.1207,0.0359 -0.185,0.046 -0.0576,0.0103 -0.1172,0.0153 -0.1764,0.0153l-41.6608 0c-0.5027,0 -0.9221,-0.3341 -0.9975,-0.7654 -0.0031,-0.0291 -0.0079,-0.0579 -0.0095,-0.087 -0.0018,-0.0154 -0.0018,-0.0307 -0.0018,-0.0477l0 -2.3309c0,-0.0154 0,-0.0326 0.0018,-0.0461 0.0016,-0.0291 0.0048,-0.0579 0.0095,-0.087 0.0738,-0.4313 0.4948,-0.7657 0.9975,-0.7657l41.6624 0c0.0256,0 0.0529,0.0018 0.0785,0.0034 0.0098,0 0.0194,0.0019 0.0289,0.0034 0.0018,-0.0015 0.0034,-0.0015 0.005,0 0.0111,0 0.0241,0.0019 0.0384,0.0035 0.0098,0.0018 0.0177,0.0034 0.0259,0.0034 0.064,0.0103 0.1267,0.0257 0.1847,0.0461 0.0352,0.0119 0.069,0.0256 0.1011,0.041l0.0015 0c0.0225,0.01 0.045,0.0219 0.0659,0.0322 0.0114,0.0069 0.0241,0.0154 0.0371,0.0223 0.0111,0.0069 0.024,0.0135 0.0336,0.0222 0.0449,0.0273 0.0852,0.0595 0.1222,0.0955 0.0127,0.0101 0.0241,0.0238 0.0352,0.0339 0.0082,0.0069 0.0145,0.0137 0.0209,0.0206 0.0032,0.0035 0.0082,0.0085 0.0114,0.0119l0.0095 0.0103c0.013,0.0135 0.0257,0.0289 0.037,0.0461 0.1061,0.1466 0.1686,0.317 0.1686,0.5045z"/>
    <path class="fil1" d="M52.4959 68.9533l-22.3192 0c-0.413,0 -0.7615,-0.2846 -0.8644,-0.6664 -0.0095,-0.0326 -0.0177,-0.0649 -0.0241,-0.099 -0.0032,-0.0291 -0.0079,-0.0579 -0.0095,-0.087 -0.0016,-0.0154 -0.0016,-0.0307 -0.0016,-0.0477l0 -2.3309c0,-0.0154 0,-0.0326 0.0016,-0.0461 0.0016,-0.0291 0.0048,-0.0579 0.0095,-0.087 0.0064,-0.0342 0.0146,-0.0664 0.0241,-0.099 0.1029,-0.3818 0.4514,-0.6667 0.8644,-0.6667l19.5789 0c0.0079,0.0341 0.0175,0.0682 0.0272,0.1024 0.326,1.2057 1.0602,2.8289 2.7131,4.0274z"/>
    <polygon class="fil1" points="67.8838,64.8235 67.4099,64.8235 67.4099,68.9518 67.8838,68.9518 "/>
    <polygon class="fil1" points="66.2807,64.8235 65.8068,64.8235 65.8068,68.9518 66.2807,68.9518 "/>
    <polygon class="fil1" points="64.3593,64.8235 63.8854,64.8235 63.8854,68.9518 64.3593,68.9518 "/>
    <polygon class="fil1" points="61.4131,64.8235 60.9393,64.8235 60.9393,68.9518 61.4131,68.9518 "/>
    <polygon class="fil1" points="58.2985,64.8235 57.8246,64.8235 57.8246,68.9518 58.2985,68.9518 "/>
    <polygon class="fil1" points="53.5225,64.8235 53.0486,64.8235 53.0486,68.9518 53.5225,68.9518 "/>
    <polygon class="fil1" points="49.0502,64.8235 48.5763,64.8235 48.5763,68.9518 49.0502,68.9518 "/>
    <polygon class="fil1" points="45.0569,64.8235 44.5827,64.8235 44.5827,68.9518 45.0569,68.9518 "/>
    <polygon class="fil1" points="69.4099,64.8235 68.936,64.8235 68.936,68.9518 69.4099,68.9518 "/>
    <polygon class="fil1" points="70.4172,64.8235 69.9433,64.8235 69.9433,68.9518 70.4172,68.9518 "/>
    <polygon class="fil1" points="71.3906,64.8235 70.9167,64.8235 70.9167,68.9518 71.3906,68.9518 "/>
    <path class="fil1" d="M72.1232 64.8388l0 4.0992c-0.0579,0.0103 -0.1175,0.0138 -0.1783,0.0138l-0.2956 0 0 -4.1283 0.2956 0c0.0608,0 0.1204,0.0053 0.1783,0.0153z"/>
    <path class="fil1" d="M72.7802 65.2209l0 3.3353c-0.1141,0.15 -0.2797,0.2694 -0.4723,0.336l0 -4.0071c0.1926,0.0664 0.3582,0.1842 0.4723,0.3358z"/>
    <path class="fil0" d="M75.1045 61.6964l0 2.3325c0,0.186 -0.0643,0.3583 -0.1735,0.5014 -0.1141,0.15 -0.2779,0.2694 -0.4723,0.336 -0.0593,0.0204 -0.1204,0.0357 -0.1847,0.0477 -0.0577,0.0084 -0.1172,0.0137 -0.1767,0.0137l-41.6605 0c-0.167,0 -0.3244,-0.0376 -0.4644,-0.1024 -0.2762,-0.1278 -0.4786,-0.3683 -0.5315,-0.653 -0.0032,-0.0188 -0.0048,-0.0391 -0.0082,-0.0579 -0.0016,-0.0119 -0.0032,-0.0257 -0.0032,-0.041 -0.0016,-0.0154 -0.0016,-0.0307 -0.0016,-0.0461l0 -2.3325c0,-0.0154 0,-0.0307 0.0016,-0.0461 0.0016,-0.0291 0.0032,-0.0598 0.0098,-0.087 0.0738,-0.4331 0.4948,-0.7657 0.9975,-0.7657l41.662 0c0.0596,0 0.1207,0.0034 0.1768,0.0137 0.0643,0.0104 0.127,0.0254 0.1849,0.0461 0.1942,0.0682 0.358,0.1857 0.4723,0.3376 0.109,0.145 0.1717,0.3172 0.1717,0.503z"/>
    <path class="fil1" d="M54.6485 64.9259l-22.3194 0c-0.1493,0 -0.2908,-0.0373 -0.4144,-0.1022 -0.2473,-0.128 -0.4289,-0.3683 -0.4738,-0.6532 -0.0032,-0.0188 -0.0048,-0.0392 -0.0082,-0.058 -0.0016,-0.0119 -0.0032,-0.0254 -0.0032,-0.0407 -0.0016,-0.0154 -0.0016,-0.031 -0.0016,-0.0463l0 -2.3326c0,-0.0153 0,-0.0307 0.0016,-0.046 0.0016,-0.0289 0.0032,-0.0596 0.0098,-0.0871 0.0063,-0.0323 0.0143,-0.0645 0.0241,-0.0952 0.101,-0.3837 0.4513,-0.6686 0.8657,-0.6686l19.5789 0c0.3053,1.1816 1.0025,2.8051 2.604,4.0259 0.0434,0.036 0.09,0.0717 0.1365,0.104z"/>
    <polygon class="fil1" points="70.0364,60.7978 69.5626,60.7978 69.5626,64.9259 70.0364,64.9259 "/>
    <polygon class="fil1" points="68.4331,60.7978 67.9592,60.7978 67.9592,64.9259 68.4331,64.9259 "/>
    <polygon class="fil1" points="66.5119,60.7978 66.038,60.7978 66.038,64.9259 66.5119,64.9259 "/>
    <polygon class="fil1" points="63.5658,60.7978 63.0919,60.7978 63.0919,64.9259 63.5658,64.9259 "/>
    <polygon class="fil1" points="60.4508,60.7978 59.977,60.7978 59.977,64.9259 60.4508,64.9259 "/>
    <polygon class="fil1" points="55.6751,60.7978 55.2012,60.7978 55.2012,64.9259 55.6751,64.9259 "/>
    <polygon class="fil1" points="51.2029,60.7978 50.729,60.7978 50.729,64.9259 51.2029,64.9259 "/>
    <polygon class="fil1" points="47.2092,60.7978 46.7354,60.7978 46.7354,64.9259 47.2092,64.9259 "/>
    <polygon class="fil1" points="71.5625,60.7978 71.0887,60.7978 71.0887,64.9259 71.5625,64.9259 "/>
    <polygon class="fil1" points="72.5696,60.7978 72.0957,60.7978 72.0957,64.9259 72.5696,64.9259 "/>
    <polygon class="fil1" points="73.5432,60.7978 73.0694,60.7978 73.0694,64.9259 73.5432,64.9259 "/>
    <path class="fil1" d="M74.2756 60.8113l0 4.0992c-0.0577,0.0087 -0.1172,0.0138 -0.1783,0.0138l-0.2956 0 0 -4.1283 0.2956 0c0.0611,0.0018 0.1206,0.0069 0.1783,0.0153z"/>
    <path class="fil1" d="M74.9325 61.195l0 3.3353c-0.1156,0.1519 -0.2794,0.2694 -0.4738,0.336l0 -4.0071c0.1944,0.0664 0.3598,0.1842 0.4738,0.3358z"/>
    <path class="fil0" d="M76.1039 57.5681l0 2.3309c0,0.186 -0.0643,0.3583 -0.1736,0.5014 -0.0146,0.0188 -0.0307,0.0376 -0.045,0.0545 -0.0788,0.0905 -0.1767,0.1654 -0.2876,0.2217 -0.045,0.0223 -0.0915,0.0426 -0.1397,0.0598 -0.0595,0.0204 -0.1206,0.0358 -0.1847,0.0461 -0.0291,0.0034 -0.0579,0.0084 -0.0868,0.01 -0.0306,0.0035 -0.0611,0.0035 -0.0915,0.0035l-41.6608 0c-0.5043,0 -0.9236,-0.3342 -0.9974,-0.7655 -0.0032,-0.0291 -0.008,-0.0579 -0.0096,-0.087l0 -2.4247c0.0257,-0.4384 0.4064,-0.7948 0.8882,-0.8458 0.0387,-0.0035 0.0789,-0.0069 0.1204,-0.0069l41.6608 0c0.0304,0 0.0608,0.0018 0.0915,0.0053 0.0305,0.0032 0.0593,0.005 0.0868,0.01 0.064,0.0104 0.1252,0.0257 0.1847,0.0461 0.1926,0.0667 0.3582,0.186 0.4723,0.336 0.1077,0.1466 0.172,0.3188 0.172,0.5046z"/>
    <path class="fil1" d="M55.646 60.7978l-22.3192 0c-0.413,0 -0.763,-0.2847 -0.866,-0.6667 -0.0095,-0.0323 -0.0193,-0.0648 -0.024,-0.099 -0.0032,-0.0288 -0.008,-0.0579 -0.0096,-0.0868l0 -2.4249c0.0241,-0.4365 0.363,-0.7945 0.7919,-0.8456 0.0352,-0.0034 0.0707,-0.0069 0.1061,-0.0069l19.5787 0c0,0.0035 0.0018,0.0051 0.0018,0.0069 0.3149,1.2158 1.0441,2.8919 2.7403,4.123z"/>
    <polygon class="fil1" points="71.0339,56.6695 70.56,56.6695 70.56,60.7978 71.0339,60.7978 "/>
    <polygon class="fil1" points="69.4324,56.6695 68.9585,56.6695 68.9585,60.7978 69.4324,60.7978 "/>
    <polygon class="fil1" points="67.5094,56.6695 67.0355,56.6695 67.0355,60.7978 67.5094,60.7978 "/>
    <polygon class="fil1" points="64.5633,56.6695 64.0894,56.6695 64.0894,60.7978 64.5633,60.7978 "/>
    <polygon class="fil1" points="61.4486,56.6695 60.9747,56.6695 60.9747,60.7978 61.4486,60.7978 "/>
    <polygon class="fil1" points="56.6726,56.6695 56.1987,56.6695 56.1987,60.7978 56.6726,60.7978 "/>
    <polygon class="fil1" points="52.2003,56.6695 51.7265,56.6695 51.7265,60.7978 52.2003,60.7978 "/>
    <polygon class="fil1" points="48.2086,56.6695 47.7347,56.6695 47.7347,60.7978 48.2086,60.7978 "/>
    <polygon class="fil1" points="72.56,56.6695 72.0862,56.6695 72.0862,60.7978 72.56,60.7978 "/>
    <polygon class="fil1" points="73.5689,56.6695 73.095,56.6695 73.095,60.7978 73.5689,60.7978 "/>
    <polygon class="fil1" points="74.5407,56.6695 74.0668,56.6695 74.0668,60.7978 74.5407,60.7978 "/>
    <path class="fil1" d="M75.2733 56.6833l0 4.0992c-0.0579,0.0103 -0.1174,0.0135 -0.1783,0.0135l-0.2955 0 0 -4.1281 0.2955 0c0.0609,0.0016 0.1204,0.0069 0.1783,0.0154z"/>
    <path class="fil1" d="M75.9303 57.0669l0 3.3354c-0.114,0.1516 -0.2797,0.2693 -0.4739,0.3357l0 -4.0071c0.1942,0.0648 0.3599,0.1842 0.4739,0.336z"/>
    <path class="fil0" d="M73.0402 53.4469l0 2.3307c0,0.186 -0.0624,0.3583 -0.1717,0.5014 -0.114,0.1519 -0.2796,0.2712 -0.4738,0.3376 -0.0596,0.0207 -0.1207,0.036 -0.1831,0.0461 -0.0193,0.0034 -0.0387,0.0068 -0.058,0.0084l-0.0079 0c-0.0098,0.0019 -0.0209,0.0035 -0.0307,0.0035 -0.0095,0.0018 -0.0177,0.0018 -0.0273,0.0034 -0.0177,0 -0.0354,0.0019 -0.0529,0.0019l-41.6623 0c-0.5382,0 -0.9798,-0.3805 -1.007,-0.8528 -0.0019,-0.0153 -0.0019,-0.0307 -0.0019,-0.0476l0 -2.331c0,-0.0153 0,-0.0323 0.0019,-0.0476 0,-0.0122 0.0016,-0.0257 0.0032,-0.0376 0.0399,-0.3802 0.35,-0.6959 0.7564,-0.7861 0.0098,-0.0034 0.0193,-0.0053 0.0307,-0.0069 0.0706,-0.0137 0.1429,-0.0222 0.2183,-0.0222l41.6607 0c0.032,0 0.0593,0.0019 0.09,0.0035 0.0127,0.0018 0.0257,0.0034 0.0384,0.0034 0.0015,0 0.0015,0 0.0015,0l0.0019 0c0.0159,0.0016 0.0304,0.0034 0.0466,0.0069 0.0624,0.01 0.1251,0.0254 0.1831,0.046 0.1942,0.0664 0.3598,0.1842 0.4738,0.3376 0.1077,0.1432 0.1701,0.3138 0.1701,0.5014z"/>
    <path class="fil1" d="M52.5827 56.6764l-22.3176 0c-0.4805,0 -0.874,-0.3802 -0.8996,-0.8525 -0.0019,-0.0153 -0.0019,-0.0307 -0.0019,-0.0479l0 -2.3309c0,-0.0154 0,-0.0323 0.0019,-0.0477 0,-0.0119 0.0016,-0.0256 0.0032,-0.0375 0.0367,-0.3887 0.3243,-0.7075 0.6987,-0.7911 0.0111,-0.0035 0.0241,-0.0069 0.0384,-0.0088 0.0516,-0.01 0.1061,-0.0153 0.1608,-0.0153l19.5774 0c0.0031,0.0103 0.0047,0.0188 0.0079,0.0307 0.3164,1.2107 1.0456,2.8715 2.7244,4.0925 0,0.0035 0.0032,0.0051 0.0064,0.0085z"/>
    <polygon class="fil1" points="67.9722,52.5484 67.4983,52.5484 67.4983,56.6764 67.9722,56.6764 "/>
    <polygon class="fil1" points="66.369,52.5484 65.8949,52.5484 65.8949,56.6764 66.369,56.6764 "/>
    <polygon class="fil1" points="64.4461,52.5484 63.9722,52.5484 63.9722,56.6764 64.4461,56.6764 "/>
    <polygon class="fil1" points="61.5015,52.5484 61.0276,52.5484 61.0276,56.6764 61.5015,56.6764 "/>
    <polygon class="fil1" points="58.3852,52.5484 57.9111,52.5484 57.9111,56.6764 58.3852,56.6764 "/>
    <polygon class="fil1" points="53.6092,52.5484 53.1354,52.5484 53.1354,56.6764 53.6092,56.6764 "/>
    <polygon class="fil1" points="49.1386,52.5484 48.6647,52.5484 48.6647,56.6764 49.1386,56.6764 "/>
    <polygon class="fil1" points="45.1452,52.5481 44.6711,52.5481 44.6711,56.6764 45.1452,56.6764 "/>
    <polygon class="fil1" points="69.4967,52.5484 69.0228,52.5484 69.0228,56.6764 69.4967,56.6764 "/>
    <polygon class="fil1" points="70.5055,52.5484 70.0317,52.5484 70.0317,56.6764 70.5055,56.6764 "/>
    <polygon class="fil1" points="71.4789,52.5484 71.0051,52.5484 71.0051,56.6764 71.4789,56.6764 "/>
    <path class="fil1" d="M72.21 52.5619l0 4.0992c-0.058,0.0084 -0.1175,0.0137 -0.1783,0.0137l-0.2958 0 0 -4.1283 0.2958 0c0.0624,0 0.1203,0.0051 0.1783,0.0154z"/>
    <path class="fil1" d="M72.8685 52.9437l0 3.3353c-0.114,0.1519 -0.2796,0.2696 -0.4722,0.336l0 -4.0071c0.191,0.0664 0.3566,0.1858 0.4722,0.3358z"/>
    <path class="fil0" d="M72.9519 49.3477l0 2.3307c0,0.186 -0.0641,0.3583 -0.1717,0.5014 -0.0291,0.0376 -0.0612,0.0733 -0.0948,0.1074 -0.1045,0.099 -0.2331,0.1792 -0.3791,0.2286 -0.0466,0.017 -0.095,0.0289 -0.1431,0.0392l-0.0016 0c-0.0016,0 -0.0016,0 -0.0016,0 -0.0127,0.0034 -0.0257,0.005 -0.0387,0.0069 -0.0576,0.01 -0.1172,0.0153 -0.1764,0.0153l-41.6608 0c-0.0434,0 -0.0868,-0.0034 -0.1299,-0.0084 -0.0161,-0.0019 -0.0339,-0.0035 -0.05,-0.0069 -0.4241,-0.0699 -0.758,-0.3768 -0.8192,-0.7607 -0.0031,-0.0254 -0.0063,-0.0511 -0.0079,-0.0767 -0.0018,-0.017 -0.0018,-0.0323 -0.0018,-0.0477l0 -2.3309c0,-0.017 0,-0.0323 0.0018,-0.0477 0.0016,-0.0291 0.0048,-0.0579 0.0095,-0.087 0.0738,-0.4315 0.4948,-0.7657 0.9975,-0.7657l41.6624 0c0.0256,0 0.0529,0.0018 0.0785,0.0034 0.0032,0 0.0082,0.0019 0.0098,0.0019 0.008,0.0016 0.0159,0.0016 0.0241,0.0016 0.0111,0.0018 0.0241,0.0034 0.0384,0.005 0.0098,0 0.0177,0.0018 0.0259,0.0053 0.064,0.01 0.1267,0.0254 0.1847,0.046 0.0352,0.0119 0.069,0.0254 0.1011,0.0408l0.0015 0c0.1302,0.0614 0.2427,0.1468 0.3326,0.2489 0.013,0.0154 0.0257,0.0307 0.0371,0.0461 0.1092,0.1434 0.1717,0.3172 0.1717,0.5032z"/>
    <path class="fil1" d="M52.4959 52.5772l-22.3195 0c-0.0159,0 -0.0352,-0.0018 -0.0513,-0.0018 -0.0193,-0.0016 -0.0386,-0.0032 -0.0579,-0.0051 -0.403,-0.051 -0.7261,-0.3683 -0.7806,-0.7672 -0.0031,-0.0257 -0.0066,-0.0511 -0.0082,-0.0768 -0.0016,-0.0169 -0.0016,-0.0323 -0.0016,-0.0476l0 -2.331c0,-0.0172 0,-0.0325 0.0016,-0.0479 0.0016,-0.0288 0.0051,-0.0579 0.0098,-0.0868 0.0064,-0.0341 0.0143,-0.0666 0.0241,-0.0989 0.1027,-0.3821 0.4514,-0.6668 0.8641,-0.6668l19.5789 0c0.0082,0.0342 0.0178,0.0683 0.0275,0.1024 0.3244,1.197 1.0489,2.8014 2.6729,3.9968 0.0129,0.0119 0.0275,0.0204 0.0402,0.0307z"/>
    <polygon class="fil1" points="67.8838,48.4492 67.4099,48.4492 67.4099,52.5772 67.8838,52.5772 "/>
    <polygon class="fil1" points="66.2807,48.4492 65.8068,48.4492 65.8068,52.5772 66.2807,52.5772 "/>
    <polygon class="fil1" points="64.3593,48.4492 63.8854,48.4492 63.8854,52.5772 64.3593,52.5772 "/>
    <polygon class="fil1" points="61.4131,48.4492 60.9393,48.4492 60.9393,52.5772 61.4131,52.5772 "/>
    <polygon class="fil1" points="58.2985,48.4492 57.8246,48.4492 57.8246,52.5772 58.2985,52.5772 "/>
    <polygon class="fil1" points="53.5225,48.4492 53.0486,48.4492 53.0486,52.5772 53.5225,52.5772 "/>
    <polygon class="fil1" points="49.0502,48.4492 48.5763,48.4492 48.5763,52.5772 49.0502,52.5772 "/>
    <polygon class="fil1" points="45.0569,48.4489 44.5827,48.4489 44.5827,52.5772 45.0569,52.5772 "/>
    <polygon class="fil1" points="69.4099,48.4492 68.936,48.4492 68.936,52.5772 69.4099,52.5772 "/>
    <polygon class="fil1" points="70.4172,48.4492 69.9433,48.4492 69.9433,52.5772 70.4172,52.5772 "/>
    <polygon class="fil1" points="71.3906,48.4492 70.9167,48.4492 70.9167,52.5772 71.3906,52.5772 "/>
    <path class="fil1" d="M72.1232 48.4627l0 4.0992c-0.0579,0.0084 -0.1175,0.0135 -0.1783,0.0135l-0.2956 0 0 -4.1281 0.2956 0c0.0608,0.0016 0.1204,0.0069 0.1783,0.0154z"/>
    <path class="fil1" d="M72.7802 48.8445l0 3.3353c-0.1141,0.1519 -0.2797,0.2696 -0.4723,0.336l0 -4.0071c0.1926,0.0664 0.3582,0.1858 0.4723,0.3358z"/>
    <path class="fil0" d="M75.1045 45.32l0 2.3309c0,0.186 -0.0643,0.3599 -0.1735,0.503 -0.1141,0.1503 -0.2779,0.2696 -0.4723,0.336 -0.0593,0.0204 -0.1204,0.0358 -0.1847,0.0461 -0.0577,0.0103 -0.1172,0.0153 -0.1767,0.0153l-41.6605 0c-0.167,0 -0.3244,-0.0375 -0.4644,-0.1024 -0.2762,-0.1278 -0.4786,-0.3683 -0.5315,-0.6514 -0.0032,-0.0185 -0.0048,-0.0391 -0.0082,-0.0579 -0.0016,-0.0135 -0.0032,-0.0254 -0.0032,-0.0392 -0.0016,-0.0153 -0.0016,-0.0307 -0.0016,-0.0476l0 -2.331c0,-0.0153 0,-0.0325 0.0016,-0.0479 0.0016,-0.0288 0.0032,-0.0579 0.0098,-0.0868 0.0738,-0.4315 0.4948,-0.7657 0.9975,-0.7657l41.662 0c0.0596,0 0.1207,0.0051 0.1768,0.0154 0.0643,0.0103 0.127,0.0257 0.1849,0.046 0.1942,0.0664 0.358,0.1842 0.4723,0.3376 0.109,0.1432 0.1717,0.3138 0.1717,0.4996z"/>
    <path class="fil1" d="M54.6485 48.5513l-22.3194 0c-0.1493,0 -0.2908,-0.0375 -0.4144,-0.1024 -0.2473,-0.1278 -0.4289,-0.3683 -0.4738,-0.6514 -0.0032,-0.0185 -0.0048,-0.0391 -0.0082,-0.0579 -0.0016,-0.0135 -0.0032,-0.0254 -0.0032,-0.0392 -0.0016,-0.0153 -0.0016,-0.0307 -0.0016,-0.0476l0 -2.331c0,-0.0153 0,-0.0325 0.0016,-0.0479 0.0016,-0.0288 0.0032,-0.0579 0.0098,-0.0868 0.0063,-0.0325 0.0143,-0.0648 0.0241,-0.0955 0.101,-0.3836 0.4513,-0.6702 0.8657,-0.6702l19.5789 0c0.3053,1.1817 1.0025,2.8049 2.604,4.0275 0.0434,0.0342 0.09,0.0667 0.1365,0.1024z"/>
    <polygon class="fil1" points="70.0364,44.4214 69.5626,44.4214 69.5626,48.5497 70.0364,48.5497 "/>
    <polygon class="fil1" points="68.4331,44.4214 67.9592,44.4214 67.9592,48.5497 68.4331,48.5497 "/>
    <polygon class="fil1" points="66.5119,44.4214 66.038,44.4214 66.038,48.5497 66.5119,48.5497 "/>
    <polygon class="fil1" points="63.5658,44.4214 63.0919,44.4214 63.0919,48.5497 63.5658,48.5497 "/>
    <polygon class="fil1" points="60.4508,44.4214 59.977,44.4214 59.977,48.5497 60.4508,48.5497 "/>
    <polygon class="fil1" points="55.6751,44.4214 55.2012,44.4214 55.2012,48.5497 55.6751,48.5497 "/>
    <polygon class="fil1" points="51.2029,44.4214 50.729,44.4214 50.729,48.5497 51.2029,48.5497 "/>
    <polygon class="fil1" points="47.2092,44.4214 46.7354,44.4214 46.7354,48.5497 47.2092,48.5497 "/>
    <polygon class="fil1" points="71.5625,44.4214 71.0887,44.4214 71.0887,48.5497 71.5625,48.5497 "/>
    <polygon class="fil1" points="72.5696,44.4214 72.0957,44.4214 72.0957,48.5497 72.5696,48.5497 "/>
    <polygon class="fil1" points="73.5432,44.4214 73.0694,44.4214 73.0694,48.5497 73.5432,48.5497 "/>
    <path class="fil1" d="M74.2756 44.4368l0 4.0992c-0.0577,0.0084 -0.1172,0.0137 -0.1783,0.0137l-0.2956 0 0 -4.1283 0.2956 0c0.0611,0 0.1206,0.0051 0.1783,0.0154z"/>
    <path class="fil1" d="M74.9325 44.8188l0 3.3351c-0.1156,0.1519 -0.2794,0.2696 -0.4738,0.336l0 -4.0071c0.1944,0.0664 0.3598,0.186 0.4738,0.336z"/>
    <path class="fil0" d="M78.5102 41.1919l0 2.3326c0,0.1842 -0.0643,0.3564 -0.1719,0.4995l-0.0016 0.0019c-0.0146,0.0188 -0.0305,0.0376 -0.045,0.0545 -0.0643,0.0717 -0.1381,0.1347 -0.2233,0.186 -0.0418,0.0254 -0.0852,0.0476 -0.1334,0.068 -0.0015,0 -0.0015,0.0018 -0.0015,0.0018 -0.0225,0.0101 -0.045,0.0188 -0.0707,0.0273 -0.0595,0.0204 -0.1204,0.0357 -0.1847,0.046 -0.0579,0.0104 -0.1174,0.0135 -0.1767,0.0135l-41.6605 0c-0.503,0 -0.9221,-0.3323 -0.9978,-0.7638 -0.0047,-0.0289 -0.0079,-0.058 -0.0095,-0.0887 -0.0016,-0.0153 -0.0016,-0.0306 -0.0016,-0.046l0 -2.3326c0,-0.0153 0,-0.0307 0.0016,-0.046 0.0241,-0.4366 0.4048,-0.7945 0.8882,-0.8459 0.0387,-0.005 0.0789,-0.0069 0.1191,-0.0069l41.6621 0c0.0595,0 0.1204,0.0053 0.1767,0.0138 0.0643,0.0119 0.1268,0.0257 0.1847,0.0476 0.1685,0.0582 0.3148,0.1569 0.4273,0.2797 0.0161,0.0188 0.032,0.036 0.045,0.0548l0.0016 0.0016c0.1076,0.1449 0.1719,0.3153 0.1719,0.5013z"/>
    <path class="fil1" d="M58.0527 44.4214l-22.3195 0c-0.4146,0 -0.7631,-0.2846 -0.866,-0.6683 -0.0095,-0.0307 -0.0177,-0.0632 -0.0241,-0.0955 -0.0047,-0.0291 -0.0079,-0.058 -0.0095,-0.0886 -0.0016,-0.0154 -0.0016,-0.0307 -0.0016,-0.0461l0 -2.331c0,-0.0153 0,-0.0307 0.0016,-0.046 0.0225,-0.4366 0.3614,-0.7945 0.7903,-0.8459 0.0352,-0.005 0.0707,-0.0069 0.1077,-0.0069l19.5789 0c0,0.0019 0.0016,0.0035 0.0016,0.0069 0.3149,1.2142 1.0441,2.8919 2.7406,4.1214z"/>
    <polygon class="fil1" points="73.4419,40.2931 72.968,40.2931 72.968,44.4214 73.4419,44.4214 "/>
    <polygon class="fil1" points="71.8388,40.2931 71.3649,40.2931 71.3649,44.4214 71.8388,44.4214 "/>
    <polygon class="fil1" points="69.9158,40.2931 69.4419,40.2931 69.4419,44.4214 69.9158,44.4214 "/>
    <polygon class="fil1" points="66.9696,40.2931 66.4958,40.2931 66.4958,44.4214 66.9696,44.4214 "/>
    <polygon class="fil1" points="63.855,40.2931 63.3811,40.2931 63.3811,44.4214 63.855,44.4214 "/>
    <polygon class="fil1" points="59.079,40.2931 58.6051,40.2931 58.6051,44.4214 59.079,44.4214 "/>
    <polygon class="fil1" points="54.6067,40.2931 54.1329,40.2931 54.1329,44.4214 54.6067,44.4214 "/>
    <polygon class="fil1" points="50.615,40.2931 50.1411,40.2931 50.1411,44.4214 50.615,44.4214 "/>
    <polygon class="fil1" points="74.9664,40.2931 74.4925,40.2931 74.4925,44.4214 74.9664,44.4214 "/>
    <polygon class="fil1" points="75.9753,40.2931 75.5014,40.2931 75.5014,44.4214 75.9753,44.4214 "/>
    <polygon class="fil1" points="76.9487,40.2931 76.4748,40.2931 76.4748,44.4214 76.9487,44.4214 "/>
    <path class="fil1" d="M77.6797 40.3085l0 4.0992c-0.0579,0.0103 -0.1172,0.0137 -0.1783,0.0137l-0.2956 0 0 -4.1283 0.2956 0c0.0611,0 0.1204,0.0053 0.1783,0.0154z"/>
    <path class="fil1" d="M78.3367 40.6906l0 3.3353c-0.1141,0.15 -0.2794,0.2693 -0.4723,0.336l0 -4.0074c0.1929,0.0667 0.3582,0.1844 0.4723,0.3361z"/>
    <path class="fil0" d="M73.0402 37.0705l0 2.331c0,0.1857 -0.0624,0.358 -0.1717,0.5014 -0.114,0.1516 -0.2796,0.2709 -0.4738,0.3376 -0.0596,0.0204 -0.1207,0.0357 -0.1831,0.046 -0.0193,0.0035 -0.0387,0.0051 -0.058,0.0085l-0.0079 0c-0.013,0.0034 -0.0259,0.0034 -0.0386,0.0034 -0.008,0 -0.0162,0.0016 -0.0241,0.0016 -0.0177,0 -0.0323,0.0019 -0.0498,0.0019l-41.6607 0c-0.3614,0 -0.6811,-0.1707 -0.8578,-0.4281 -0.0868,-0.1244 -0.1397,-0.2694 -0.1492,-0.4247 -0.0019,-0.0169 -0.0019,-0.0323 -0.0019,-0.0476l0 -2.331c0,-0.0169 0,-0.0323 0.0019,-0.0476 0.0225,-0.3821 0.318,-0.7043 0.7146,-0.8117 0.0931,-0.0257 0.1913,-0.0411 0.2924,-0.0411l41.6607 0c0.0175,0 0.0352,0.0019 0.053,0.0019 0.0095,0 0.0177,0.0016 0.0256,0.0034 0.0339,0.0016 0.0659,0.0051 0.0998,0.0119 0.0624,0.0101 0.1251,0.0254 0.1831,0.0461 0.0304,0.01 0.0576,0.0204 0.0849,0.0341l0.0018 0c0.1106,0.0476 0.2088,0.114 0.2924,0.1942 0.0016,0.0019 0.0032,0.0035 0.0032,0.0053 0.0032,0.0032 0.0079,0.0066 0.0111,0.0101 0.0288,0.0272 0.0548,0.0579 0.0788,0.0905 0.1109,0.1449 0.1733,0.3172 0.1733,0.5029z"/>
    <path class="fil1" d="M52.5827 40.3l-22.3176 0c-0.3133,0 -0.593,-0.1635 -0.752,-0.4074 -0.0852,-0.1297 -0.1397,-0.2813 -0.1476,-0.4451 -0.0019,-0.0172 -0.0019,-0.0325 -0.0019,-0.0478l0 -2.3308c0,-0.0172 0,-0.0325 0.0019,-0.0479 0.0225,-0.4109 0.3228,-0.7519 0.7162,-0.8321 0.0579,-0.0119 0.1207,-0.0188 0.1815,-0.0188l19.5773 0c0.0082,0.0326 0.0177,0.0633 0.026,0.0956 0.3243,1.2038 1.057,2.827 2.7051,4.0274 0.0047,0.0019 0.0079,0.0053 0.0111,0.0069z"/>
    <polygon class="fil1" points="67.9722,36.172 67.4983,36.172 67.4983,40.3 67.9722,40.3 "/>
    <polygon class="fil1" points="66.369,36.172 65.8949,36.172 65.8949,40.3 66.369,40.3 "/>
    <polygon class="fil1" points="64.4461,36.172 63.9722,36.172 63.9722,40.3 64.4461,40.3 "/>
    <polygon class="fil1" points="61.5015,36.172 61.0276,36.172 61.0276,40.3 61.5015,40.3 "/>
    <polygon class="fil1" points="58.3852,36.172 57.9111,36.172 57.9111,40.3 58.3852,40.3 "/>
    <polygon class="fil1" points="53.6092,36.172 53.1354,36.172 53.1354,40.3 53.6092,40.3 "/>
    <polygon class="fil1" points="49.1386,36.172 48.6647,36.172 48.6647,40.3 49.1386,40.3 "/>
    <polygon class="fil1" points="45.1452,36.172 44.6711,36.172 44.6711,40.3 45.1452,40.3 "/>
    <polygon class="fil1" points="69.4967,36.172 69.0228,36.172 69.0228,40.3 69.4967,40.3 "/>
    <polygon class="fil1" points="70.5055,36.172 70.0317,36.172 70.0317,40.3 70.5055,40.3 "/>
    <polygon class="fil1" points="71.4789,36.172 71.0051,36.172 71.0051,40.3 71.4789,40.3 "/>
    <path class="fil1" d="M72.21 36.1855l0 4.0992c-0.058,0.0084 -0.1175,0.0137 -0.1783,0.0137l-0.2958 0 0 -4.1283 0.2958 0c0.0624,0.0019 0.1203,0.0069 0.1783,0.0154z"/>
    <path class="fil1" d="M72.8685 36.5691l0 3.3354c-0.114,0.1518 -0.2796,0.2693 -0.4722,0.336l0 -4.0071c0.191,0.0645 0.3566,0.1841 0.4722,0.3357z"/>
    <path class="fil0" d="M76.1039 33.0377l0 2.331c0,0.186 -0.0643,0.3583 -0.1736,0.5014 -0.114,0.1516 -0.2794,0.2694 -0.4739,0.336 -0.0595,0.0204 -0.1204,0.0357 -0.1847,0.0458 -0.0579,0.0103 -0.1174,0.0138 -0.1783,0.0138l-41.6589 0c-0.1625,0 -0.3149,-0.0342 -0.4498,-0.0956 -0.3037,-0.1346 -0.5207,-0.4058 -0.5543,-0.7194 -0.0016,-0.0121 -0.0016,-0.024 -0.0032,-0.0375 0,-0.0154 -0.0016,-0.0307 -0.0016,-0.0461l0 -2.3309c0,-0.0154 0,-0.0307 0.0016,-0.0461 0.0257,-0.4381 0.4048,-0.7945 0.8882,-0.8459 0.0387,-0.005 0.0789,-0.0068 0.1191,-0.0068l41.6605 0c0.0611,0 0.1204,0.0053 0.1783,0.0137 0.0643,0.0103 0.1252,0.0257 0.1847,0.0461 0.1929,0.0664 0.3583,0.186 0.4739,0.336 0.1077,0.1466 0.172,0.3188 0.172,0.5045z"/>
    <path class="fil1" d="M55.6463 36.2672l-22.3195 0c-0.1447,0 -0.2812,-0.0338 -0.4016,-0.0952 -0.2715,-0.1349 -0.4644,-0.4059 -0.4948,-0.7197 -0.0016,-0.0119 -0.0016,-0.0238 -0.0032,-0.0375 0,-0.0154 -0.0016,-0.0307 -0.0016,-0.0461l0 -2.331c0,-0.0153 0,-0.0306 0.0016,-0.046 0.0225,-0.4366 0.3615,-0.7945 0.7919,-0.8456 0.0336,-0.0053 0.0707,-0.0069 0.1061,-0.0069l19.5789 0c0,0.0016 0.0016,0.005 0.0016,0.0069 0.3051,1.1832 1.0054,2.8067 2.6104,4.0259 0.0434,0.0323 0.0868,0.063 0.1302,0.0952z"/>
    <polygon class="fil1" points="71.0339,32.1392 70.56,32.1392 70.56,36.2675 71.0339,36.2675 "/>
    <polygon class="fil1" points="69.4324,32.1392 68.9585,32.1392 68.9585,36.2675 69.4324,36.2675 "/>
    <polygon class="fil1" points="67.5094,32.1392 67.0355,32.1392 67.0355,36.2675 67.5094,36.2675 "/>
    <polygon class="fil1" points="64.5633,32.1392 64.0894,32.1392 64.0894,36.2675 64.5633,36.2675 "/>
    <polygon class="fil1" points="61.4486,32.1392 60.9747,32.1392 60.9747,36.2675 61.4486,36.2675 "/>
    <polygon class="fil1" points="56.6726,32.1392 56.1987,32.1392 56.1987,36.2675 56.6726,36.2675 "/>
    <polygon class="fil1" points="52.2006,32.1392 51.7265,32.1392 51.7265,36.2675 52.2006,36.2675 "/>
    <polygon class="fil1" points="48.2086,32.1392 47.7347,32.1392 47.7347,36.2672 48.2086,36.2672 "/>
    <polygon class="fil1" points="72.56,32.1392 72.0862,32.1392 72.0862,36.2675 72.56,36.2675 "/>
    <polygon class="fil1" points="73.5689,32.1392 73.095,32.1392 73.095,36.2675 73.5689,36.2675 "/>
    <polygon class="fil1" points="74.5407,32.1392 74.0668,32.1392 74.0668,36.2675 74.5407,36.2675 "/>
    <path class="fil1" d="M75.2733 32.1527l0 4.0992c-0.0579,0.0103 -0.1172,0.0138 -0.1783,0.0138l-0.2955 0 0 -4.1283 0.2955 0c0.0611,0.0018 0.1204,0.0068 0.1783,0.0153z"/>
    <path class="fil1" d="M75.9303 32.5348l0 3.3353c-0.114,0.1519 -0.2794,0.2694 -0.4739,0.336l0 -4.0071c0.1945,0.0664 0.3599,0.1858 0.4739,0.3358z"/>
    <path class="fil0" d="M77.4067 28.9147l0 2.331c0,0.1858 -0.0643,0.358 -0.1736,0.5014 -0.114,0.1516 -0.2797,0.2694 -0.4739,0.3358 -0.0595,0.0203 -0.1206,0.0357 -0.1846,0.046 -0.0194,0.0034 -0.0387,0.0053 -0.058,0.0085 -0.0111,0 -0.0225,0.0018 -0.032,0.0034 -0.0114,0.0019 -0.0209,0.0019 -0.0339,0.0019 -0.0177,0.0015 -0.0352,0.0015 -0.0529,0.0015l-41.6589 0c-0.5366,0 -0.98,-0.3802 -1.0073,-0.8524 0,-0.0154 -0.0016,-0.0307 -0.0016,-0.0461l0 -2.331c0,-0.0153 0,-0.0307 0.0016,-0.046 0.0273,-0.4723 0.4691,-0.8525 1.0073,-0.8525l41.6605 0c0.0611,0 0.1204,0.005 0.1783,0.0154 0.0643,0.01 0.1252,0.0254 0.1847,0.046 0.1929,0.0664 0.3583,0.1857 0.4739,0.3358 0.1077,0.1434 0.1704,0.3153 0.1704,0.5013z"/>
    <path class="fil1" d="M56.9507 32.1461l-22.3195 0c-0.4789,0 -0.8739,-0.3805 -0.898,-0.8528 0,-0.0153 -0.0016,-0.0306 -0.0016,-0.046l0 -2.3326c0,-0.0153 0,-0.0307 0.0016,-0.046 0.0241,-0.4723 0.4191,-0.8525 0.898,-0.8525l19.5789 0c0.3117,1.2139 1.0393,2.8901 2.7324,4.1212 0.0016,0.0034 0.0047,0.0053 0.0082,0.0087z"/>
    <polygon class="fil1" points="72.3383,28.0162 71.8644,28.0162 71.8644,32.1442 72.3383,32.1442 "/>
    <polygon class="fil1" points="70.7352,28.0162 70.2613,28.0162 70.2613,32.1442 70.7352,32.1442 "/>
    <polygon class="fil1" points="68.8138,28.0162 68.3399,28.0162 68.3399,32.1442 68.8138,32.1442 "/>
    <polygon class="fil1" points="65.8677,28.0162 65.3938,28.0162 65.3938,32.1442 65.8677,32.1442 "/>
    <polygon class="fil1" points="62.753,28.0162 62.2791,28.0162 62.2791,32.1442 62.753,32.1442 "/>
    <polygon class="fil1" points="57.977,28.0162 57.5031,28.0162 57.5031,32.1442 57.977,32.1442 "/>
    <polygon class="fil1" points="53.5047,28.0162 53.0309,28.0162 53.0309,32.1442 53.5047,32.1442 "/>
    <polygon class="fil1" points="49.5114,28.0162 49.0375,28.0162 49.0375,32.1442 49.5114,32.1442 "/>
    <polygon class="fil1" points="73.8644,28.0162 73.3906,28.0162 73.3906,32.1442 73.8644,32.1442 "/>
    <polygon class="fil1" points="74.8717,28.0162 74.3978,28.0162 74.3978,32.1442 74.8717,32.1442 "/>
    <polygon class="fil1" points="75.8451,28.0162 75.3712,28.0162 75.3712,32.1442 75.8451,32.1442 "/>
    <path class="fil1" d="M76.5777 28.0316l0 4.0992c-0.0579,0.01 -0.1172,0.0134 -0.1783,0.0134l-0.2955 0 0 -4.128 0.2955 0c0.0611,0 0.1204,0.005 0.1783,0.0154z"/>
    <path class="fil1" d="M77.2347 28.4134l0 3.3353c-0.114,0.15 -0.2794,0.2693 -0.4739,0.336l0 -4.0071c0.1945,0.0664 0.3583,0.1857 0.4739,0.3358z"/>
    <path class="fil2" d="M64.2018 4.49c0,0 -2.1878,3.2705 -4.1941,3.315 -2.0066,0.046 -5.0586,-1.5158 -5.0586,-1.5158 0,0 -1.8426,-4.3568 -0.5929,-6.062 0,0 1.253,-0.5831 2.5622,0.4468 0.2249,0.1773 0.453,0.4024 0.6779,0.6889 0.3182,0.4058 0.6746,0.636 1.0538,0.7571 1.4314,0.4621 3.1311,-0.6258 3.7655,0.4245 0.371,0.6104 0.7742,1.0692 1.1068,1.3915 0.3937,0.3733 0.6794,0.554 0.6794,0.554z"/>
    <path class="fil2" d="M35.6753 28.0776c0,0 7.7332,-19.8924 21.6561,-20.2711 0,0 12.8511,1.5158 13.5644,20.2711l-35.2205 0z"/>
    <path class="fil3" d="M53.5161 8.4138c0,0 5.5806,1.3163 7.3012,0.5437 0,0 0.2601,-2.4776 -2.09,-2.1296 -1.6081,0.237 -2.6553,-0.5832 -3.2723,-0.9158 -0.8708,-0.4723 -2.1701,1.4648 -1.9389,2.5017z"/>
    <path class="fil3" d="M58.3723 4.6794c-0.3567,0.2847 -1.4523,-4.0055 -1.4523,-4.0055 0.2249,0.1774 0.4529,0.4025 0.6778,0.6889 0.3183,0.4059 0.675,0.636 1.0539,0.7571 0.0034,0.1279 0.0674,2.2833 -0.2794,2.5595z"/>
    <path class="fil3" d="M63.524 3.9375c-0.0786,0.0495 -2.6586,1.6899 -3.0089,1.6899 -0.3566,0 1.9021,-3.0812 1.9021,-3.0812 0.371,0.6106 0.7742,1.0691 1.1068,1.3913z"/>
    <path class="fil3" d="M43.2302 22.5203c-0.1429,-0.1294 5.4731,-8.7781 7.0202,-8.8411 1.5467,-0.0632 5.0215,1.8945 7.5387,2.1469 2.5157,0.2521 4.9557,-0.5049 5.4314,1.0742 0.4755,1.5787 1.7846,7.1752 0.9813,8.0721 -0.8032,0.8951 -17.8824,0.348 -20.9716,-2.4521z"/>
    <path class="fil4" d="M48.5203 52.5465c-0.0016,0.0104 -0.0019,0.0204 -0.0035,0.0307 -0.0722,1.3862 -0.2826,2.7557 -0.6247,4.0923 0,0.0019 -0.0016,0.0053 -0.0016,0.0069 -0.05,0.1926 -0.1013,0.3871 -0.1574,0.5781 -0.3487,1.2192 -0.808,2.4043 -1.3737,3.5433 -0.7099,1.4288 -1.5838,2.7827 -2.6167,4.0259 -0.0273,0.0342 -0.0561,0.068 -0.0852,0.1022 -1.2915,1.5348 -2.8223,2.8987 -4.5765,4.0277 -0.3696,0.2387 -0.7488,0.467 -1.1375,0.6837 -0.2635,0.1466 -0.5268,0.2847 -0.7919,0.4178 -0.2537,0.1569 -0.522,0.29 -0.7744,0.4553 -0.734,0.4773 -1.6497,0.8559 -2.6472,1.156l0 -1.8143c0,-0.0153 0.0016,-0.0307 0.0016,-0.046 0.0016,-0.0307 0.0048,-0.0598 0.0096,-0.0886 0.0063,-0.0342 0.0145,-0.0664 0.024,-0.099 0.1045,-0.3821 0.453,-0.6649 0.866,-0.6649l-4.4545 0c-0.413,0 -0.7615,-0.2849 -0.8644,-0.6667 -0.0095,-0.0326 -0.0177,-0.0649 -0.0241,-0.099 -0.0032,-0.0291 -0.0079,-0.0579 -0.0095,-0.087 -0.0016,-0.0154 -0.0016,-0.0307 -0.0016,-0.0477l0 -2.3309c0,-0.0154 0,-0.0323 0.0016,-0.0461 0.0016,-0.0291 0.0048,-0.0579 0.0095,-0.087 0.0064,-0.0342 0.0146,-0.0664 0.0241,-0.0987 0.1029,-0.3821 0.4514,-0.6668 0.8644,-0.6668l1.738 0c-0.2473,-0.128 -0.4289,-0.3683 -0.4738,-0.6532 -0.0032,-0.0188 -0.0048,-0.0392 -0.0082,-0.058 -0.0016,-0.0119 -0.0032,-0.0254 -0.0032,-0.0407 -0.0016,-0.0154 -0.0016,-0.0307 -0.0016,-0.0461l0 -2.3328c0,-0.0153 0,-0.0307 0.0016,-0.046 0.0016,-0.0289 0.0032,-0.0596 0.0098,-0.0868 0.0063,-0.0326 0.0143,-0.0648 0.0241,-0.0955 0.101,-0.3837 0.4513,-0.6686 0.8657,-0.6686l0.9977 0c-0.413,0 -0.763,-0.2847 -0.866,-0.6668 -0.0095,-0.0323 -0.0193,-0.0645 -0.024,-0.0987 -0.0032,-0.0291 -0.008,-0.0579 -0.0096,-0.087l0 -2.4247c0.0241,-0.4365 0.363,-0.7948 0.7919,-0.8458l-2.9559 0c-0.4802,0 -0.8736,-0.3802 -0.8996,-0.8525 -0.0016,-0.0154 -0.0016,-0.0307 -0.0016,-0.0479l0 -2.331c0,-0.0153 0,-0.0323 0.0016,-0.0476 0,-0.0119 0.0016,-0.0257 0.0035,-0.0376 0.0367,-0.3887 0.3243,-0.7075 0.6987,-0.7911 -0.4032,-0.0513 -0.7263,-0.3683 -0.7808,-0.7673 -0.0031,-0.0256 -0.0063,-0.0513 -0.0079,-0.0767 -0.0018,-0.0172 -0.0018,-0.0325 -0.0018,-0.0479l0 -2.331c0,-0.0169 0,-0.0323 0.0018,-0.0476 0.0016,-0.0291 0.0048,-0.0579 0.0095,-0.087 0.0064,-0.0342 0.0146,-0.0665 0.0241,-0.099 0.1029,-0.3818 0.4514,-0.6665 0.8641,-0.6665l1.7383 0c-0.2473,-0.128 -0.4288,-0.3683 -0.4738,-0.6514 -0.0032,-0.0188 -0.005,-0.0394 -0.0082,-0.0579 -0.0016,-0.0138 -0.0032,-0.0257 -0.0032,-0.0395 -0.0016,-0.0153 -0.0016,-0.0306 -0.0016,-0.0476l0 -2.331c0,-0.0153 0,-0.0322 0.0016,-0.0476 0.0016,-0.0291 0.0032,-0.0582 0.0098,-0.087 0.0063,-0.0326 0.0143,-0.0649 0.0241,-0.0955 0.101,-0.3837 0.4513,-0.6702 0.8657,-0.6702l3.4041 0c-0.4146,0 -0.763,-0.2847 -0.866,-0.6684 -0.0095,-0.0307 -0.0177,-0.0632 -0.024,-0.0955 -0.0048,-0.0291 -0.008,-0.0579 -0.0096,-0.0886 -0.0016,-0.0154 -0.0016,-0.0307 -0.0016,-0.0461l0 -2.3241c0,-0.0153 0,-0.0307 0.0016,-0.046 0.0225,-0.4366 0.3615,-0.7945 0.7903,-0.8459l-5.3623 0c-0.3132,0 -0.5926,-0.1635 -0.7516,-0.4074l0.0031 -0.0204 0.5654 -3.661 0.0032 -0.0204 0.8049 -5.2232c0.9334,0.1331 1.8555,0.331 2.7598,0.5901 0.053,0.0153 0.1061,0.0307 0.1591,0.046 0.0031,0.0019 0.0063,0.0034 0.0111,0.0034 0.527,0.1569 1.0475,0.3326 1.56,0.5321 0.0047,0.0016 0.0095,0.0035 0.0142,0.005 2.3615,0.9123 4.5607,2.2681 6.4675,4.0278 0.0339,0.0307 0.0675,0.063 0.0998,0.0955 0.9911,0.9242 1.9018,1.9608 2.7114,3.1015 0.1622,0.227 0.3196,0.4572 0.4723,0.6924 0.0513,0.0767 0.1013,0.155 0.1495,0.2336 0.0032,0.0016 0.0032,0.0034 0.0032,0.0069 0.2458,0.3852 0.4786,0.7808 0.7003,1.1866 0.522,0.9568 0.9607,1.9389 1.319,2.9345 0.477,1.3216 0.8128,2.6705 1.0104,4.0278 0.0064,0.0341 0.0095,0.0682 0.0159,0.1021 0.1913,1.3301 0.2492,2.6686 0.1818,3.9936z"/>
    <path class="fil5" d="M37.6858 65.7971c8.132,-8.4944 8.132,-22.266 0,-30.7604 -8.1317,-8.4942 -21.3162,-8.4942 -29.4481,0 -8.1318,8.4944 -8.1318,22.266 0,30.7604 8.1319,8.4942 21.3164,8.4942 29.4481,0z"/>
    <path class="fil0" d="M32.2063 69.9066c-0.2561,0.1638 -0.5175,0.3223 -0.7818,0.4742 -0.09,0.051 -0.1797,0.1024 -0.2694,0.1518 -0.2058,0.1141 -0.4114,0.2234 -0.617,0.3308 -9.917,5.0863 -22.0117,1.1832 -27.4036,-9.0324 -5.1421,-9.7433 -2.3784,-21.8106 6.0596,-28.1469 0.6725,-0.5048 1.381,-0.9736 2.1254,-1.4017 0.2661,-0.1535 0.5371,-0.3001 0.8064,-0.4398 0.2629,-0.1365 0.5273,-0.2677 0.7934,-0.3905 0.8146,-0.3802 1.6438,-0.699 2.4796,-0.9618 1.2439,-0.3905 2.5058,-0.6548 3.7709,-0.7945 3.9227,-0.435 7.87,0.3138 11.3683,2.1024 3.7137,1.8962 6.9231,4.9638 9.0697,9.0323 5.4049,10.2444 2.0748,23.0571 -7.4015,29.0761z"/>
    <path class="fil1" d="M21.5173 71.056c-1.7418,0 -3.4917,-0.2575 -5.2107,-0.7758 -4.7879,-1.4459 -8.7497,-4.754 -11.1543,-9.3136 -2.4062,-4.5595 -2.9677,-9.8234 -1.5835,-14.8246 1.3843,-5.0011 4.5512,-9.1397 8.9163,-11.6514 9.0094,-5.1888 20.3808,-1.7529 25.3484,7.6597 4.9657,9.4107 1.6764,21.2889 -7.333,26.4776 -2.7995,1.6079 -5.875,2.4281 -8.9832,2.4281zm-0.0571 -38.4598c-2.9612,0 -5.9616,0.7572 -8.7335,2.3532 -4.2459,2.4452 -7.3279,6.4711 -8.6747,11.3376 -1.3483,4.8665 -0.7998,9.9888 1.5411,14.4256 2.3408,4.4368 6.1966,7.6544 10.8539,9.0612 4.659,1.4068 9.5628,0.8356 13.8104,-1.6097 8.7662,-5.0491 11.9671,-16.6047 7.1353,-25.7633 -3.3073,-6.2613 -9.5269,-9.8046 -15.9325,-9.8046z"/>
    <path class="fil6" d="M9.0935 59.8691l-0.7601 -2.8188 16.9266 -5.2126 0.7602 2.8189 -16.9267 5.2125zm-1.2488 -4.6312l-0.7602 -2.8189 16.9267 -5.2126 0.7602 2.8192 -16.9267 5.2123zm18.4685 8.4516c-1.7168,0.5286 -3.3863,0.7278 -5.0087,0.5974 -1.6075,-0.1593 -3.0929,-0.6226 -4.4562,-1.3901 -1.3634,-0.7676 -2.5372,-1.7992 -3.5216,-3.0954 -0.9844,-1.2962 -1.7149,-2.8279 -2.1915,-4.5953 -0.4766,-1.7677 -0.6209,-3.4798 -0.4328,-5.1369 0.188,-1.6573 0.6681,-3.1982 1.4402,-4.6236 0.7721,-1.425 1.802,-2.6508 3.0897,-3.6774 1.3026,-1.0552 2.8123,-1.8473 4.529,-2.376 1.9052,-0.5865 3.7289,-0.7606 5.4713,-0.5217 1.7363,0.2164 3.3013,0.849 4.6951,1.8978l-2.3659 4.218c-1.0009,-0.6852 -2.0223,-1.1096 -3.0642,-1.2734 -1.0479,-0.1863 -2.1266,-0.1085 -3.2362,0.2331 -1.0258,0.3159 -1.9197,0.785 -2.6816,1.4073 -0.7618,0.6223 -1.3663,1.3658 -1.8133,2.2304 -0.4471,0.8647 -0.725,1.8103 -0.8335,2.8374 -0.0876,1.0205 0.0194,2.09 0.321,3.2086 0.3017,1.1187 0.7437,2.085 1.326,2.8993 0.6033,0.8075 1.3094,1.4505 2.1185,1.9281 0.809,0.4778 1.691,0.7635 2.6459,0.8572 0.9549,0.0937 1.9453,-0.0175 2.9712,-0.3334 1.1096,-0.3418 2.0647,-0.8781 2.8651,-1.6094 0.7945,-0.7533 1.442,-1.7161 1.9423,-2.888l4.1034 2.2257c-0.658,1.6809 -1.665,3.1176 -3.0213,4.3106 -1.356,1.193 -2.9869,2.0831 -4.8919,2.6697z"/>
   </g>
  </g>
  <polygon class="fil7" points="-0.058,73.0885 79.5816,73.0885 79.5816,0.0636 -0.058,0.0636 "/>
 </g>
</svg>
