<svg width="30" height="30" viewBox="0 0 30 30" fill="none" xmlns="http://www.w3.org/2000/svg">
<path d="M15.0001 29.2857C22.8899 29.2857 29.2858 22.8897 29.2858 14.9999C29.2858 7.11017 22.8899 0.714233 15.0001 0.714233C7.11029 0.714233 0.714355 7.11017 0.714355 14.9999C0.714355 22.8897 7.11029 29.2857 15.0001 29.2857Z" fill="url(#paint0_linear_309_2817)"/>
<path fill-rule="evenodd" clip-rule="evenodd" d="M7.18078 14.8491C11.3454 13.0347 14.1224 11.8385 15.5119 11.2606C19.4792 9.61042 20.3036 9.32378 20.8409 9.31431C20.959 9.31223 21.2233 9.34152 21.3944 9.4804C21.539 9.59767 21.5787 9.75609 21.5978 9.86727C21.6168 9.97846 21.6405 10.2317 21.6216 10.4297C21.4067 12.6886 20.4764 18.1703 20.0031 20.7003C19.8029 21.7709 19.4086 22.1298 19.0268 22.165C18.1973 22.2413 17.5673 21.6167 16.7638 21.09C15.5065 20.2658 14.7961 19.7527 13.5757 18.9485C12.1652 18.019 13.0796 17.5082 13.8834 16.6733C14.0937 16.4548 17.749 13.1301 17.8197 12.8285C17.8286 12.7908 17.8368 12.6502 17.7533 12.5759C17.6697 12.5017 17.5464 12.5271 17.4575 12.5473C17.3314 12.5759 15.3228 13.9035 11.4317 16.5301C10.8615 16.9216 10.3451 17.1123 9.88245 17.1023C9.37237 17.0913 8.39119 16.8139 7.66179 16.5768C6.76715 16.286 6.0561 16.1323 6.11802 15.6384C6.15027 15.3811 6.50452 15.118 7.18078 14.8491Z" fill="white"/>
<defs>
<linearGradient id="paint0_linear_309_2817" x1="15.0001" y1="0.714233" x2="15.0001" y2="29.0738" gradientUnits="userSpaceOnUse">
<stop stop-color="#2AABEE"/>
<stop offset="1" stop-color="#229ED9"/>
</linearGradient>
</defs>
</svg>
