<svg width="36" height="36" viewBox="0 0 36 36" fill="none" xmlns="http://www.w3.org/2000/svg">
<g clip-path="url(#clip0_311_2832)">
<path d="M1.58887 17.7949C1.58807 20.6756 2.34664 23.4883 3.78905 25.9675L1.45093 34.4382L10.1874 32.1653C12.6037 33.4705 15.3111 34.1545 18.0624 34.1546H18.0696C27.152 34.1546 34.5452 26.8213 34.5491 17.8078C34.5508 13.4401 32.8382 9.33297 29.7265 6.24301C26.6153 3.1533 22.4776 1.45085 18.0689 1.44885C8.98548 1.44885 1.59276 8.78174 1.58901 17.7949" fill="url(#paint0_linear_311_2832)"/>
<path d="M1.00048 17.7895C0.999544 20.7739 1.7853 23.6872 3.27914 26.2552L0.857178 35.0295L9.90687 32.6751C12.4003 34.0241 15.2078 34.7353 18.0645 34.7364H18.0718C27.48 34.7364 35.1389 27.1393 35.1429 17.8031C35.1445 13.2784 33.3702 9.02369 30.1474 5.82303C26.9241 2.62276 22.6384 0.859038 18.0718 0.857178C8.662 0.857178 1.00423 8.45319 1.00048 17.7895ZM6.38977 25.8129L6.05187 25.2807C4.63142 23.0396 3.88169 20.4499 3.88276 17.7906C3.88584 10.0305 10.2507 3.71698 18.0772 3.71698C21.8674 3.71857 25.4293 5.18462 28.1084 7.84455C30.7874 10.5048 32.2616 14.041 32.2606 17.802C32.2571 25.5622 25.8922 31.8764 18.0718 31.8764H18.0662C15.5198 31.8751 13.0224 31.1966 10.8445 29.9143L10.3262 29.6093L4.95593 31.0064L6.38977 25.8128V25.8129Z" fill="url(#paint1_linear_311_2832)"/>
<path d="M13.805 10.7107C13.4855 10.006 13.1492 9.99181 12.8453 9.97945C12.5965 9.96882 12.312 9.96962 12.0278 9.96962C11.7434 9.96962 11.2812 10.0758 10.8905 10.4991C10.4994 10.9227 9.39746 11.9465 9.39746 14.0288C9.39746 16.1111 10.926 18.1235 11.1391 18.4062C11.3524 18.6883 14.0899 23.0981 18.4255 24.7946C22.0287 26.2044 22.7619 25.924 23.5439 25.8533C24.3261 25.7829 26.0677 24.8298 26.423 23.8415C26.7786 22.8533 26.7786 22.0063 26.672 21.8293C26.5654 21.6529 26.2809 21.547 25.8543 21.3355C25.4276 21.1238 23.3306 20.0999 22.9396 19.9586C22.5486 19.8175 22.2642 19.747 21.9798 20.1708C21.6953 20.5939 20.8785 21.547 20.6295 21.8293C20.3808 22.1122 20.1318 22.1474 19.7054 21.9357C19.2786 21.7234 17.9049 21.277 16.2751 19.8353C15.0071 18.7134 14.151 17.328 13.9021 16.9042C13.6533 16.4811 13.8755 16.2517 14.0894 16.0408C14.281 15.8512 14.5161 15.5466 14.7296 15.2996C14.9422 15.0524 15.0132 14.8761 15.1555 14.5938C15.2978 14.3113 15.2266 14.0641 15.1201 13.8524C15.0132 13.6407 14.1843 11.5476 13.805 10.7107Z" fill="white"/>
</g>
<defs>
<linearGradient id="paint0_linear_311_2832" x1="1656.36" y1="3300.39" x2="1656.36" y2="1.44885" gradientUnits="userSpaceOnUse">
<stop stop-color="#1FAF38"/>
<stop offset="1" stop-color="#60D669"/>
</linearGradient>
<linearGradient id="paint1_linear_311_2832" x1="1715.14" y1="3418.09" x2="1715.14" y2="0.857178" gradientUnits="userSpaceOnUse">
<stop stop-color="#F9F9F9"/>
<stop offset="1" stop-color="white"/>
</linearGradient>
<clipPath id="clip0_311_2832">
<rect width="34.2857" height="34.2857" fill="white" transform="translate(0.857178 0.857178)"/>
</clipPath>
</defs>
</svg>
